M48
; DRILL file {KiCad 9.0.0} date 2025-03-15T21:37:25+0100
; FORMAT={-:-/ absolute / metric / decimal}
; #@! TF.CreationDate,2025-03-15T21:37:25+01:00
; #@! TF.GenerationSoftware,Kicad,Pcbnew,9.0.0
; #@! TF.FileFunction,Plated,1,2,PTH
FMAT,2
METRIC
; #@! TA.AperFunction,Plated,PTH,ComponentDrill
T1C0.800
; #@! TA.AperFunction,Plated,PTH,ComponentDrill
T2C0.900
; #@! TA.AperFunction,Plated,PTH,ComponentDrill
T3C1.000
; #@! TA.AperFunction,Plated,PTH,ComponentDrill
T4C1.100
; #@! TA.AperFunction,Plated,PTH,ComponentDrill
T5C1.800
; #@! TA.AperFunction,Plated,PTH,ComponentDrill
T6C2.000
%
G90
G05
T1
X37.19Y-114.5
X37.19Y-119.25
X41.19Y-92.0
X44.81Y-114.5
X44.81Y-119.25
X45.19Y-54.0
X48.81Y-92.0
X51.71Y-152.15
X52.81Y-54.0
X54.25Y-152.15
X56.79Y-152.15
X57.25Y-60.94
X57.25Y-68.56
X58.69Y-117.75
X59.95Y-123.9
X62.49Y-123.9
X64.19Y-93.75
X65.03Y-123.9
X66.31Y-117.75
X71.19Y-57.5
X71.19Y-62.5
X71.81Y-93.75
X76.19Y-104.0
X78.81Y-57.5
X78.81Y-62.5
X83.81Y-104.0
X87.5Y-56.19
X87.5Y-63.81
X90.25Y-74.19
X90.25Y-81.81
X91.19Y-86.75
X96.19Y-54.25
X96.19Y-57.5
X96.19Y-108.75
X98.81Y-86.75
X101.19Y-86.75
X103.81Y-54.25
X103.81Y-57.5
X103.81Y-108.75
X108.81Y-86.75
X109.75Y-74.19
X109.75Y-81.81
X112.5Y-56.19
X112.5Y-63.81
X116.19Y-104.0
X121.19Y-57.5
X121.19Y-62.5
X123.81Y-104.0
X128.19Y-93.75
X128.81Y-57.5
X128.81Y-62.5
X135.81Y-93.75
X140.69Y-117.75
X141.96Y-123.9
X142.75Y-60.94
X142.75Y-68.56
X144.5Y-123.9
X147.04Y-123.9
X147.19Y-54.0
X148.31Y-117.75
X150.71Y-152.15
X151.19Y-92.0
X153.25Y-152.15
X154.81Y-54.0
X155.19Y-114.5
X155.19Y-119.25
X155.79Y-152.15
X158.81Y-92.0
X162.81Y-114.5
X162.81Y-119.25
T2
X66.73Y-88.0
X69.27Y-88.0
X98.73Y-103.0
X101.27Y-103.0
X130.73Y-88.0
X133.27Y-88.0
T3
X30.0Y-56.5
X30.0Y-59.04
X30.0Y-61.58
X30.0Y-64.12
X30.0Y-66.66
X30.0Y-69.2
X30.0Y-94.5
X30.0Y-97.04
X30.0Y-99.58
X30.0Y-102.12
X30.0Y-104.66
X30.0Y-107.2
X30.0Y-128.0
X30.0Y-130.54
X30.0Y-133.08
X30.0Y-135.62
X30.0Y-138.16
X30.0Y-140.7
X30.0Y-143.24
X30.0Y-145.78
X34.25Y-177.0
X36.75Y-177.0
X37.25Y-145.0
X39.25Y-177.0
X39.75Y-145.0
X41.75Y-177.0
X42.25Y-145.0
X42.5Y-106.5
X44.75Y-145.0
X45.0Y-106.5
X46.5Y-68.5
X47.5Y-106.5
X49.0Y-68.5
X51.5Y-68.5
X59.0Y-177.0
X61.5Y-177.0
X64.0Y-177.0
X66.5Y-177.0
X77.5Y-118.5
X80.0Y-118.5
X82.5Y-118.5
X83.75Y-177.0
X86.25Y-177.0
X88.75Y-177.0
X91.25Y-177.0
X96.2Y-62.775
X97.5Y-77.5
X97.5Y-80.0
X98.0Y-131.1
X98.0Y-133.64
X98.0Y-136.18
X98.0Y-138.72
X98.0Y-141.26
X98.0Y-143.8
X98.74Y-62.775
X100.0Y-77.5
X100.0Y-80.0
X101.28Y-62.775
X102.0Y-131.1
X102.0Y-133.64
X102.0Y-136.18
X102.0Y-138.72
X102.0Y-141.26
X102.0Y-143.8
X102.5Y-77.5
X102.5Y-80.0
X103.82Y-62.775
X108.75Y-177.0
X111.25Y-177.0
X113.75Y-177.0
X116.25Y-177.0
X117.5Y-118.5
X120.0Y-118.5
X122.5Y-118.5
X133.5Y-177.0
X136.0Y-177.0
X138.5Y-177.0
X141.0Y-177.0
X148.5Y-68.5
X151.0Y-68.5
X152.5Y-106.5
X153.5Y-68.5
X155.0Y-106.5
X155.25Y-145.0
X157.5Y-106.5
X157.75Y-145.0
X158.25Y-177.0
X160.25Y-145.0
X160.75Y-177.0
X162.75Y-145.0
X163.25Y-177.0
X165.75Y-177.0
X170.0Y-56.5
X170.0Y-59.04
X170.0Y-61.58
X170.0Y-64.12
X170.0Y-66.66
X170.0Y-69.2
X170.0Y-94.5
X170.0Y-97.04
X170.0Y-99.58
X170.0Y-102.12
X170.0Y-104.66
X170.0Y-107.2
X170.0Y-128.0
X170.0Y-130.54
X170.0Y-133.08
X170.0Y-135.62
X170.0Y-138.16
X170.0Y-140.7
X170.0Y-143.24
X170.0Y-145.78
T5
X64.0Y-135.3
X64.0Y-140.0
X64.0Y-144.7
X78.0Y-135.3
X78.0Y-140.0
X78.0Y-144.7
X83.0Y-185.55
X83.0Y-190.25
X83.0Y-194.95
X92.0Y-135.3
X92.0Y-140.0
X92.0Y-144.7
X97.587Y-185.55
X97.587Y-190.25
X97.587Y-194.95
X97.587Y-204.05
X97.587Y-208.75
X97.587Y-213.45
X102.413Y-185.55
X102.413Y-190.25
X102.413Y-194.95
X102.413Y-204.05
X102.413Y-208.75
X102.413Y-213.45
X108.0Y-135.3
X108.0Y-140.0
X108.0Y-144.7
X117.0Y-185.55
X117.0Y-190.25
X117.0Y-194.95
X122.0Y-135.3
X122.0Y-140.0
X122.0Y-144.7
X136.0Y-135.3
X136.0Y-140.0
X136.0Y-144.7
T4
X40.2Y-99.35G85X40.2Y-98.65
G05
X44.2Y-61.35G85X44.2Y-60.65
G05
X49.8Y-99.35G85X49.8Y-98.65
G05
X53.8Y-61.35G85X53.8Y-60.65
G05
X75.2Y-111.35G85X75.2Y-110.65
G05
X84.8Y-111.35G85X84.8Y-110.65
G05
X95.25Y-70.35G85X95.25Y-69.65
G05
X104.75Y-70.35G85X104.75Y-69.65
G05
X115.2Y-111.35G85X115.2Y-110.65
G05
X124.8Y-111.35G85X124.8Y-110.65
G05
X146.2Y-61.35G85X146.2Y-60.65
G05
X150.2Y-99.35G85X150.2Y-98.65
G05
X155.8Y-61.35G85X155.8Y-60.65
G05
X159.8Y-99.35G85X159.8Y-98.65
G05
T6
X32.2Y-165.9G85X32.2Y-166.1
G05
X35.2Y-133.9G85X35.2Y-134.1
G05
X43.8Y-165.9G85X43.8Y-166.1
G05
X46.8Y-133.9G85X46.8Y-134.1
G05
X56.95Y-165.9G85X56.95Y-166.1
G05
X68.55Y-165.9G85X68.55Y-166.1
G05
X81.7Y-165.9G85X81.7Y-166.1
G05
X93.3Y-165.9G85X93.3Y-166.1
G05
X106.7Y-165.9G85X106.7Y-166.1
G05
X118.3Y-165.9G85X118.3Y-166.1
G05
X131.45Y-165.9G85X131.45Y-166.1
G05
X143.05Y-165.9G85X143.05Y-166.1
G05
X153.2Y-133.9G85X153.2Y-134.1
G05
X156.2Y-165.9G85X156.2Y-166.1
G05
X164.8Y-133.9G85X164.8Y-134.1
G05
X167.8Y-165.9G85X167.8Y-166.1
G05
M30
