%TF.GenerationSoftware,KiCad,Pcbnew,9.0.0*%
%TF.CreationDate,2025-03-15T21:37:14+01:00*%
%TF.ProjectId,DMH_Dual_VCF_Diode_Ladder_Mk2_PCB_2,444d485f-4475-4616-9c5f-5643465f4469,1*%
%TF.SameCoordinates,Original*%
%TF.FileFunction,Legend,Bot*%
%TF.FilePolarity,Positive*%
%FSLAX46Y46*%
G04 Gerber Fmt 4.6, Leading zero omitted, Abs format (unit mm)*
G04 Created by KiCad (PCBNEW 9.0.0) date 2025-03-15 21:37:14*
%MOMM*%
%LPD*%
G01*
G04 APERTURE LIST*
%ADD10C,0.100000*%
%ADD11C,0.300000*%
%ADD12C,0.150000*%
%ADD13C,0.120000*%
%ADD14O,1.600000X1.600000*%
%ADD15C,1.600000*%
%ADD16C,1.440000*%
%ADD17R,1.700000X1.700000*%
%ADD18O,1.700000X1.700000*%
%ADD19O,4.000000X4.200000*%
%ADD20C,1.800000*%
%ADD21R,1.800000X1.800000*%
%ADD22C,2.800000*%
%ADD23O,2.720000X3.240000*%
G04 APERTURE END LIST*
D10*
X29250000Y-76750000D02*
X31250000Y-76750000D01*
X31250000Y-86750000D01*
X29250000Y-86750000D01*
X29250000Y-76750000D01*
G36*
X29250000Y-76750000D02*
G01*
X31250000Y-76750000D01*
X31250000Y-86750000D01*
X29250000Y-86750000D01*
X29250000Y-76750000D01*
G37*
D11*
X34071671Y-93464284D02*
X35571671Y-93464284D01*
X35571671Y-93464284D02*
X34500242Y-92964284D01*
X34500242Y-92964284D02*
X35571671Y-92464284D01*
X35571671Y-92464284D02*
X34071671Y-92464284D01*
X34071671Y-91749998D02*
X35571671Y-91749998D01*
X34643100Y-91607141D02*
X34071671Y-91178569D01*
X35071671Y-91178569D02*
X34500242Y-91749998D01*
X35428814Y-90607140D02*
X35500242Y-90535712D01*
X35500242Y-90535712D02*
X35571671Y-90392855D01*
X35571671Y-90392855D02*
X35571671Y-90035712D01*
X35571671Y-90035712D02*
X35500242Y-89892855D01*
X35500242Y-89892855D02*
X35428814Y-89821426D01*
X35428814Y-89821426D02*
X35285957Y-89749997D01*
X35285957Y-89749997D02*
X35143100Y-89749997D01*
X35143100Y-89749997D02*
X34928814Y-89821426D01*
X34928814Y-89821426D02*
X34071671Y-90678569D01*
X34071671Y-90678569D02*
X34071671Y-89749997D01*
X34214528Y-89107141D02*
X34143100Y-89035712D01*
X34143100Y-89035712D02*
X34071671Y-89107141D01*
X34071671Y-89107141D02*
X34143100Y-89178569D01*
X34143100Y-89178569D02*
X34214528Y-89107141D01*
X34214528Y-89107141D02*
X34071671Y-89107141D01*
X35571671Y-88107140D02*
X35571671Y-87964283D01*
X35571671Y-87964283D02*
X35500242Y-87821426D01*
X35500242Y-87821426D02*
X35428814Y-87749998D01*
X35428814Y-87749998D02*
X35285957Y-87678569D01*
X35285957Y-87678569D02*
X35000242Y-87607140D01*
X35000242Y-87607140D02*
X34643100Y-87607140D01*
X34643100Y-87607140D02*
X34357385Y-87678569D01*
X34357385Y-87678569D02*
X34214528Y-87749998D01*
X34214528Y-87749998D02*
X34143100Y-87821426D01*
X34143100Y-87821426D02*
X34071671Y-87964283D01*
X34071671Y-87964283D02*
X34071671Y-88107140D01*
X34071671Y-88107140D02*
X34143100Y-88249998D01*
X34143100Y-88249998D02*
X34214528Y-88321426D01*
X34214528Y-88321426D02*
X34357385Y-88392855D01*
X34357385Y-88392855D02*
X34643100Y-88464283D01*
X34643100Y-88464283D02*
X35000242Y-88464283D01*
X35000242Y-88464283D02*
X35285957Y-88392855D01*
X35285957Y-88392855D02*
X35428814Y-88321426D01*
X35428814Y-88321426D02*
X35500242Y-88249998D01*
X35500242Y-88249998D02*
X35571671Y-88107140D01*
X34643100Y-85821427D02*
X34643100Y-84678570D01*
X34071671Y-82821427D02*
X35571671Y-82821427D01*
X35571671Y-82821427D02*
X34500242Y-82321427D01*
X34500242Y-82321427D02*
X35571671Y-81821427D01*
X35571671Y-81821427D02*
X34071671Y-81821427D01*
X34071671Y-80464284D02*
X34857385Y-80464284D01*
X34857385Y-80464284D02*
X35000242Y-80535712D01*
X35000242Y-80535712D02*
X35071671Y-80678569D01*
X35071671Y-80678569D02*
X35071671Y-80964284D01*
X35071671Y-80964284D02*
X35000242Y-81107141D01*
X34143100Y-80464284D02*
X34071671Y-80607141D01*
X34071671Y-80607141D02*
X34071671Y-80964284D01*
X34071671Y-80964284D02*
X34143100Y-81107141D01*
X34143100Y-81107141D02*
X34285957Y-81178569D01*
X34285957Y-81178569D02*
X34428814Y-81178569D01*
X34428814Y-81178569D02*
X34571671Y-81107141D01*
X34571671Y-81107141D02*
X34643100Y-80964284D01*
X34643100Y-80964284D02*
X34643100Y-80607141D01*
X34643100Y-80607141D02*
X34714528Y-80464284D01*
X34071671Y-79749998D02*
X35071671Y-79749998D01*
X34785957Y-79749998D02*
X34928814Y-79678569D01*
X34928814Y-79678569D02*
X35000242Y-79607141D01*
X35000242Y-79607141D02*
X35071671Y-79464283D01*
X35071671Y-79464283D02*
X35071671Y-79321426D01*
X34143100Y-78178570D02*
X34071671Y-78321427D01*
X34071671Y-78321427D02*
X34071671Y-78607141D01*
X34071671Y-78607141D02*
X34143100Y-78749998D01*
X34143100Y-78749998D02*
X34214528Y-78821427D01*
X34214528Y-78821427D02*
X34357385Y-78892855D01*
X34357385Y-78892855D02*
X34785957Y-78892855D01*
X34785957Y-78892855D02*
X34928814Y-78821427D01*
X34928814Y-78821427D02*
X35000242Y-78749998D01*
X35000242Y-78749998D02*
X35071671Y-78607141D01*
X35071671Y-78607141D02*
X35071671Y-78321427D01*
X35071671Y-78321427D02*
X35000242Y-78178570D01*
X34071671Y-77535713D02*
X35571671Y-77535713D01*
X34071671Y-76892856D02*
X34857385Y-76892856D01*
X34857385Y-76892856D02*
X35000242Y-76964284D01*
X35000242Y-76964284D02*
X35071671Y-77107141D01*
X35071671Y-77107141D02*
X35071671Y-77321427D01*
X35071671Y-77321427D02*
X35000242Y-77464284D01*
X35000242Y-77464284D02*
X34928814Y-77535713D01*
X35428814Y-75107141D02*
X35500242Y-75035713D01*
X35500242Y-75035713D02*
X35571671Y-74892856D01*
X35571671Y-74892856D02*
X35571671Y-74535713D01*
X35571671Y-74535713D02*
X35500242Y-74392856D01*
X35500242Y-74392856D02*
X35428814Y-74321427D01*
X35428814Y-74321427D02*
X35285957Y-74249998D01*
X35285957Y-74249998D02*
X35143100Y-74249998D01*
X35143100Y-74249998D02*
X34928814Y-74321427D01*
X34928814Y-74321427D02*
X34071671Y-75178570D01*
X34071671Y-75178570D02*
X34071671Y-74249998D01*
X35571671Y-73321427D02*
X35571671Y-73178570D01*
X35571671Y-73178570D02*
X35500242Y-73035713D01*
X35500242Y-73035713D02*
X35428814Y-72964285D01*
X35428814Y-72964285D02*
X35285957Y-72892856D01*
X35285957Y-72892856D02*
X35000242Y-72821427D01*
X35000242Y-72821427D02*
X34643100Y-72821427D01*
X34643100Y-72821427D02*
X34357385Y-72892856D01*
X34357385Y-72892856D02*
X34214528Y-72964285D01*
X34214528Y-72964285D02*
X34143100Y-73035713D01*
X34143100Y-73035713D02*
X34071671Y-73178570D01*
X34071671Y-73178570D02*
X34071671Y-73321427D01*
X34071671Y-73321427D02*
X34143100Y-73464285D01*
X34143100Y-73464285D02*
X34214528Y-73535713D01*
X34214528Y-73535713D02*
X34357385Y-73607142D01*
X34357385Y-73607142D02*
X34643100Y-73678570D01*
X34643100Y-73678570D02*
X35000242Y-73678570D01*
X35000242Y-73678570D02*
X35285957Y-73607142D01*
X35285957Y-73607142D02*
X35428814Y-73535713D01*
X35428814Y-73535713D02*
X35500242Y-73464285D01*
X35500242Y-73464285D02*
X35571671Y-73321427D01*
X35428814Y-72249999D02*
X35500242Y-72178571D01*
X35500242Y-72178571D02*
X35571671Y-72035714D01*
X35571671Y-72035714D02*
X35571671Y-71678571D01*
X35571671Y-71678571D02*
X35500242Y-71535714D01*
X35500242Y-71535714D02*
X35428814Y-71464285D01*
X35428814Y-71464285D02*
X35285957Y-71392856D01*
X35285957Y-71392856D02*
X35143100Y-71392856D01*
X35143100Y-71392856D02*
X34928814Y-71464285D01*
X34928814Y-71464285D02*
X34071671Y-72321428D01*
X34071671Y-72321428D02*
X34071671Y-71392856D01*
X35571671Y-70035714D02*
X35571671Y-70750000D01*
X35571671Y-70750000D02*
X34857385Y-70821428D01*
X34857385Y-70821428D02*
X34928814Y-70750000D01*
X34928814Y-70750000D02*
X35000242Y-70607143D01*
X35000242Y-70607143D02*
X35000242Y-70250000D01*
X35000242Y-70250000D02*
X34928814Y-70107143D01*
X34928814Y-70107143D02*
X34857385Y-70035714D01*
X34857385Y-70035714D02*
X34714528Y-69964285D01*
X34714528Y-69964285D02*
X34357385Y-69964285D01*
X34357385Y-69964285D02*
X34214528Y-70035714D01*
X34214528Y-70035714D02*
X34143100Y-70107143D01*
X34143100Y-70107143D02*
X34071671Y-70250000D01*
X34071671Y-70250000D02*
X34071671Y-70607143D01*
X34071671Y-70607143D02*
X34143100Y-70750000D01*
X34143100Y-70750000D02*
X34214528Y-70821428D01*
D12*
X102809523Y-146024819D02*
X102809523Y-146739104D01*
X102809523Y-146739104D02*
X102857142Y-146881961D01*
X102857142Y-146881961D02*
X102952380Y-146977200D01*
X102952380Y-146977200D02*
X103095237Y-147024819D01*
X103095237Y-147024819D02*
X103190475Y-147024819D01*
X102380951Y-146120057D02*
X102333332Y-146072438D01*
X102333332Y-146072438D02*
X102238094Y-146024819D01*
X102238094Y-146024819D02*
X101999999Y-146024819D01*
X101999999Y-146024819D02*
X101904761Y-146072438D01*
X101904761Y-146072438D02*
X101857142Y-146120057D01*
X101857142Y-146120057D02*
X101809523Y-146215295D01*
X101809523Y-146215295D02*
X101809523Y-146310533D01*
X101809523Y-146310533D02*
X101857142Y-146453390D01*
X101857142Y-146453390D02*
X102428570Y-147024819D01*
X102428570Y-147024819D02*
X101809523Y-147024819D01*
X101190475Y-146024819D02*
X101095237Y-146024819D01*
X101095237Y-146024819D02*
X100999999Y-146072438D01*
X100999999Y-146072438D02*
X100952380Y-146120057D01*
X100952380Y-146120057D02*
X100904761Y-146215295D01*
X100904761Y-146215295D02*
X100857142Y-146405771D01*
X100857142Y-146405771D02*
X100857142Y-146643866D01*
X100857142Y-146643866D02*
X100904761Y-146834342D01*
X100904761Y-146834342D02*
X100952380Y-146929580D01*
X100952380Y-146929580D02*
X100999999Y-146977200D01*
X100999999Y-146977200D02*
X101095237Y-147024819D01*
X101095237Y-147024819D02*
X101190475Y-147024819D01*
X101190475Y-147024819D02*
X101285713Y-146977200D01*
X101285713Y-146977200D02*
X101333332Y-146929580D01*
X101333332Y-146929580D02*
X101380951Y-146834342D01*
X101380951Y-146834342D02*
X101428570Y-146643866D01*
X101428570Y-146643866D02*
X101428570Y-146405771D01*
X101428570Y-146405771D02*
X101380951Y-146215295D01*
X101380951Y-146215295D02*
X101333332Y-146120057D01*
X101333332Y-146120057D02*
X101285713Y-146072438D01*
X101285713Y-146072438D02*
X101190475Y-146024819D01*
X98809523Y-146024819D02*
X98809523Y-146739104D01*
X98809523Y-146739104D02*
X98857142Y-146881961D01*
X98857142Y-146881961D02*
X98952380Y-146977200D01*
X98952380Y-146977200D02*
X99095237Y-147024819D01*
X99095237Y-147024819D02*
X99190475Y-147024819D01*
X97809523Y-147024819D02*
X98380951Y-147024819D01*
X98095237Y-147024819D02*
X98095237Y-146024819D01*
X98095237Y-146024819D02*
X98190475Y-146167676D01*
X98190475Y-146167676D02*
X98285713Y-146262914D01*
X98285713Y-146262914D02*
X98380951Y-146310533D01*
X97333332Y-147024819D02*
X97142856Y-147024819D01*
X97142856Y-147024819D02*
X97047618Y-146977200D01*
X97047618Y-146977200D02*
X96999999Y-146929580D01*
X96999999Y-146929580D02*
X96904761Y-146786723D01*
X96904761Y-146786723D02*
X96857142Y-146596247D01*
X96857142Y-146596247D02*
X96857142Y-146215295D01*
X96857142Y-146215295D02*
X96904761Y-146120057D01*
X96904761Y-146120057D02*
X96952380Y-146072438D01*
X96952380Y-146072438D02*
X97047618Y-146024819D01*
X97047618Y-146024819D02*
X97238094Y-146024819D01*
X97238094Y-146024819D02*
X97333332Y-146072438D01*
X97333332Y-146072438D02*
X97380951Y-146120057D01*
X97380951Y-146120057D02*
X97428570Y-146215295D01*
X97428570Y-146215295D02*
X97428570Y-146453390D01*
X97428570Y-146453390D02*
X97380951Y-146548628D01*
X97380951Y-146548628D02*
X97333332Y-146596247D01*
X97333332Y-146596247D02*
X97238094Y-146643866D01*
X97238094Y-146643866D02*
X97047618Y-146643866D01*
X97047618Y-146643866D02*
X96952380Y-146596247D01*
X96952380Y-146596247D02*
X96904761Y-146548628D01*
X96904761Y-146548628D02*
X96857142Y-146453390D01*
X170809523Y-91184819D02*
X170809523Y-91899104D01*
X170809523Y-91899104D02*
X170857142Y-92041961D01*
X170857142Y-92041961D02*
X170952380Y-92137200D01*
X170952380Y-92137200D02*
X171095237Y-92184819D01*
X171095237Y-92184819D02*
X171190475Y-92184819D01*
X169809523Y-92184819D02*
X170380951Y-92184819D01*
X170095237Y-92184819D02*
X170095237Y-91184819D01*
X170095237Y-91184819D02*
X170190475Y-91327676D01*
X170190475Y-91327676D02*
X170285713Y-91422914D01*
X170285713Y-91422914D02*
X170380951Y-91470533D01*
X169238094Y-91613390D02*
X169333332Y-91565771D01*
X169333332Y-91565771D02*
X169380951Y-91518152D01*
X169380951Y-91518152D02*
X169428570Y-91422914D01*
X169428570Y-91422914D02*
X169428570Y-91375295D01*
X169428570Y-91375295D02*
X169380951Y-91280057D01*
X169380951Y-91280057D02*
X169333332Y-91232438D01*
X169333332Y-91232438D02*
X169238094Y-91184819D01*
X169238094Y-91184819D02*
X169047618Y-91184819D01*
X169047618Y-91184819D02*
X168952380Y-91232438D01*
X168952380Y-91232438D02*
X168904761Y-91280057D01*
X168904761Y-91280057D02*
X168857142Y-91375295D01*
X168857142Y-91375295D02*
X168857142Y-91422914D01*
X168857142Y-91422914D02*
X168904761Y-91518152D01*
X168904761Y-91518152D02*
X168952380Y-91565771D01*
X168952380Y-91565771D02*
X169047618Y-91613390D01*
X169047618Y-91613390D02*
X169238094Y-91613390D01*
X169238094Y-91613390D02*
X169333332Y-91661009D01*
X169333332Y-91661009D02*
X169380951Y-91708628D01*
X169380951Y-91708628D02*
X169428570Y-91803866D01*
X169428570Y-91803866D02*
X169428570Y-91994342D01*
X169428570Y-91994342D02*
X169380951Y-92089580D01*
X169380951Y-92089580D02*
X169333332Y-92137200D01*
X169333332Y-92137200D02*
X169238094Y-92184819D01*
X169238094Y-92184819D02*
X169047618Y-92184819D01*
X169047618Y-92184819D02*
X168952380Y-92137200D01*
X168952380Y-92137200D02*
X168904761Y-92089580D01*
X168904761Y-92089580D02*
X168857142Y-91994342D01*
X168857142Y-91994342D02*
X168857142Y-91803866D01*
X168857142Y-91803866D02*
X168904761Y-91708628D01*
X168904761Y-91708628D02*
X168952380Y-91661009D01*
X168952380Y-91661009D02*
X169047618Y-91613390D01*
X170809523Y-124684819D02*
X170809523Y-125399104D01*
X170809523Y-125399104D02*
X170857142Y-125541961D01*
X170857142Y-125541961D02*
X170952380Y-125637200D01*
X170952380Y-125637200D02*
X171095237Y-125684819D01*
X171095237Y-125684819D02*
X171190475Y-125684819D01*
X169809523Y-125684819D02*
X170380951Y-125684819D01*
X170095237Y-125684819D02*
X170095237Y-124684819D01*
X170095237Y-124684819D02*
X170190475Y-124827676D01*
X170190475Y-124827676D02*
X170285713Y-124922914D01*
X170285713Y-124922914D02*
X170380951Y-124970533D01*
X168952380Y-124684819D02*
X169142856Y-124684819D01*
X169142856Y-124684819D02*
X169238094Y-124732438D01*
X169238094Y-124732438D02*
X169285713Y-124780057D01*
X169285713Y-124780057D02*
X169380951Y-124922914D01*
X169380951Y-124922914D02*
X169428570Y-125113390D01*
X169428570Y-125113390D02*
X169428570Y-125494342D01*
X169428570Y-125494342D02*
X169380951Y-125589580D01*
X169380951Y-125589580D02*
X169333332Y-125637200D01*
X169333332Y-125637200D02*
X169238094Y-125684819D01*
X169238094Y-125684819D02*
X169047618Y-125684819D01*
X169047618Y-125684819D02*
X168952380Y-125637200D01*
X168952380Y-125637200D02*
X168904761Y-125589580D01*
X168904761Y-125589580D02*
X168857142Y-125494342D01*
X168857142Y-125494342D02*
X168857142Y-125256247D01*
X168857142Y-125256247D02*
X168904761Y-125161009D01*
X168904761Y-125161009D02*
X168952380Y-125113390D01*
X168952380Y-125113390D02*
X169047618Y-125065771D01*
X169047618Y-125065771D02*
X169238094Y-125065771D01*
X169238094Y-125065771D02*
X169333332Y-125113390D01*
X169333332Y-125113390D02*
X169380951Y-125161009D01*
X169380951Y-125161009D02*
X169428570Y-125256247D01*
X92884819Y-61965476D02*
X93599104Y-61965476D01*
X93599104Y-61965476D02*
X93741961Y-61917857D01*
X93741961Y-61917857D02*
X93837200Y-61822619D01*
X93837200Y-61822619D02*
X93884819Y-61679762D01*
X93884819Y-61679762D02*
X93884819Y-61584524D01*
X92980057Y-62394048D02*
X92932438Y-62441667D01*
X92932438Y-62441667D02*
X92884819Y-62536905D01*
X92884819Y-62536905D02*
X92884819Y-62775000D01*
X92884819Y-62775000D02*
X92932438Y-62870238D01*
X92932438Y-62870238D02*
X92980057Y-62917857D01*
X92980057Y-62917857D02*
X93075295Y-62965476D01*
X93075295Y-62965476D02*
X93170533Y-62965476D01*
X93170533Y-62965476D02*
X93313390Y-62917857D01*
X93313390Y-62917857D02*
X93884819Y-62346429D01*
X93884819Y-62346429D02*
X93884819Y-62965476D01*
X92884819Y-63298810D02*
X92884819Y-63917857D01*
X92884819Y-63917857D02*
X93265771Y-63584524D01*
X93265771Y-63584524D02*
X93265771Y-63727381D01*
X93265771Y-63727381D02*
X93313390Y-63822619D01*
X93313390Y-63822619D02*
X93361009Y-63870238D01*
X93361009Y-63870238D02*
X93456247Y-63917857D01*
X93456247Y-63917857D02*
X93694342Y-63917857D01*
X93694342Y-63917857D02*
X93789580Y-63870238D01*
X93789580Y-63870238D02*
X93837200Y-63822619D01*
X93837200Y-63822619D02*
X93884819Y-63727381D01*
X93884819Y-63727381D02*
X93884819Y-63441667D01*
X93884819Y-63441667D02*
X93837200Y-63346429D01*
X93837200Y-63346429D02*
X93789580Y-63298810D01*
X30809523Y-124684819D02*
X30809523Y-125399104D01*
X30809523Y-125399104D02*
X30857142Y-125541961D01*
X30857142Y-125541961D02*
X30952380Y-125637200D01*
X30952380Y-125637200D02*
X31095237Y-125684819D01*
X31095237Y-125684819D02*
X31190475Y-125684819D01*
X29809523Y-125684819D02*
X30380951Y-125684819D01*
X30095237Y-125684819D02*
X30095237Y-124684819D01*
X30095237Y-124684819D02*
X30190475Y-124827676D01*
X30190475Y-124827676D02*
X30285713Y-124922914D01*
X30285713Y-124922914D02*
X30380951Y-124970533D01*
X28904761Y-124684819D02*
X29380951Y-124684819D01*
X29380951Y-124684819D02*
X29428570Y-125161009D01*
X29428570Y-125161009D02*
X29380951Y-125113390D01*
X29380951Y-125113390D02*
X29285713Y-125065771D01*
X29285713Y-125065771D02*
X29047618Y-125065771D01*
X29047618Y-125065771D02*
X28952380Y-125113390D01*
X28952380Y-125113390D02*
X28904761Y-125161009D01*
X28904761Y-125161009D02*
X28857142Y-125256247D01*
X28857142Y-125256247D02*
X28857142Y-125494342D01*
X28857142Y-125494342D02*
X28904761Y-125589580D01*
X28904761Y-125589580D02*
X28952380Y-125637200D01*
X28952380Y-125637200D02*
X29047618Y-125684819D01*
X29047618Y-125684819D02*
X29285713Y-125684819D01*
X29285713Y-125684819D02*
X29380951Y-125637200D01*
X29380951Y-125637200D02*
X29428570Y-125589580D01*
X170809523Y-53184819D02*
X170809523Y-53899104D01*
X170809523Y-53899104D02*
X170857142Y-54041961D01*
X170857142Y-54041961D02*
X170952380Y-54137200D01*
X170952380Y-54137200D02*
X171095237Y-54184819D01*
X171095237Y-54184819D02*
X171190475Y-54184819D01*
X170380951Y-53280057D02*
X170333332Y-53232438D01*
X170333332Y-53232438D02*
X170238094Y-53184819D01*
X170238094Y-53184819D02*
X169999999Y-53184819D01*
X169999999Y-53184819D02*
X169904761Y-53232438D01*
X169904761Y-53232438D02*
X169857142Y-53280057D01*
X169857142Y-53280057D02*
X169809523Y-53375295D01*
X169809523Y-53375295D02*
X169809523Y-53470533D01*
X169809523Y-53470533D02*
X169857142Y-53613390D01*
X169857142Y-53613390D02*
X170428570Y-54184819D01*
X170428570Y-54184819D02*
X169809523Y-54184819D01*
X169428570Y-53280057D02*
X169380951Y-53232438D01*
X169380951Y-53232438D02*
X169285713Y-53184819D01*
X169285713Y-53184819D02*
X169047618Y-53184819D01*
X169047618Y-53184819D02*
X168952380Y-53232438D01*
X168952380Y-53232438D02*
X168904761Y-53280057D01*
X168904761Y-53280057D02*
X168857142Y-53375295D01*
X168857142Y-53375295D02*
X168857142Y-53470533D01*
X168857142Y-53470533D02*
X168904761Y-53613390D01*
X168904761Y-53613390D02*
X169476189Y-54184819D01*
X169476189Y-54184819D02*
X168857142Y-54184819D01*
X30809523Y-53184819D02*
X30809523Y-53899104D01*
X30809523Y-53899104D02*
X30857142Y-54041961D01*
X30857142Y-54041961D02*
X30952380Y-54137200D01*
X30952380Y-54137200D02*
X31095237Y-54184819D01*
X31095237Y-54184819D02*
X31190475Y-54184819D01*
X30380951Y-53280057D02*
X30333332Y-53232438D01*
X30333332Y-53232438D02*
X30238094Y-53184819D01*
X30238094Y-53184819D02*
X29999999Y-53184819D01*
X29999999Y-53184819D02*
X29904761Y-53232438D01*
X29904761Y-53232438D02*
X29857142Y-53280057D01*
X29857142Y-53280057D02*
X29809523Y-53375295D01*
X29809523Y-53375295D02*
X29809523Y-53470533D01*
X29809523Y-53470533D02*
X29857142Y-53613390D01*
X29857142Y-53613390D02*
X30428570Y-54184819D01*
X30428570Y-54184819D02*
X29809523Y-54184819D01*
X28857142Y-54184819D02*
X29428570Y-54184819D01*
X29142856Y-54184819D02*
X29142856Y-53184819D01*
X29142856Y-53184819D02*
X29238094Y-53327676D01*
X29238094Y-53327676D02*
X29333332Y-53422914D01*
X29333332Y-53422914D02*
X29428570Y-53470533D01*
X30809523Y-91184819D02*
X30809523Y-91899104D01*
X30809523Y-91899104D02*
X30857142Y-92041961D01*
X30857142Y-92041961D02*
X30952380Y-92137200D01*
X30952380Y-92137200D02*
X31095237Y-92184819D01*
X31095237Y-92184819D02*
X31190475Y-92184819D01*
X29809523Y-92184819D02*
X30380951Y-92184819D01*
X30095237Y-92184819D02*
X30095237Y-91184819D01*
X30095237Y-91184819D02*
X30190475Y-91327676D01*
X30190475Y-91327676D02*
X30285713Y-91422914D01*
X30285713Y-91422914D02*
X30380951Y-91470533D01*
X29476189Y-91184819D02*
X28809523Y-91184819D01*
X28809523Y-91184819D02*
X29238094Y-92184819D01*
D13*
%TO.C,J20*%
X100670000Y-142530000D02*
X100670000Y-129770000D01*
X100670000Y-142530000D02*
X103330000Y-142530000D01*
X100670000Y-129770000D02*
X103330000Y-129770000D01*
X102000000Y-145130000D02*
X103330000Y-145130000D01*
X103330000Y-145130000D02*
X103330000Y-143800000D01*
X103330000Y-142530000D02*
X103330000Y-129770000D01*
%TO.C,J19*%
X96670000Y-142530000D02*
X96670000Y-129770000D01*
X96670000Y-142530000D02*
X99330000Y-142530000D01*
X96670000Y-129770000D02*
X99330000Y-129770000D01*
X98000000Y-145130000D02*
X99330000Y-145130000D01*
X99330000Y-145130000D02*
X99330000Y-143800000D01*
X99330000Y-142530000D02*
X99330000Y-129770000D01*
%TO.C,J18*%
X168670000Y-93170000D02*
X170000000Y-93170000D01*
X168670000Y-94500000D02*
X168670000Y-93170000D01*
X168670000Y-95770000D02*
X171330000Y-95770000D01*
X168670000Y-108530000D02*
X168670000Y-95770000D01*
X168670000Y-108530000D02*
X171330000Y-108530000D01*
X171330000Y-108530000D02*
X171330000Y-95770000D01*
%TO.C,J16*%
X168670000Y-126670000D02*
X170000000Y-126670000D01*
X168670000Y-128000000D02*
X168670000Y-126670000D01*
X168670000Y-129270000D02*
X171330000Y-129270000D01*
X168670000Y-147110000D02*
X168670000Y-129270000D01*
X168670000Y-147110000D02*
X171330000Y-147110000D01*
X171330000Y-147110000D02*
X171330000Y-129270000D01*
%TO.C,J23*%
X94870000Y-64105000D02*
X94870000Y-62775000D01*
X96200000Y-64105000D02*
X94870000Y-64105000D01*
X97470000Y-64105000D02*
X97470000Y-61445000D01*
X105150000Y-61445000D02*
X97470000Y-61445000D01*
X105150000Y-64105000D02*
X97470000Y-64105000D01*
X105150000Y-64105000D02*
X105150000Y-61445000D01*
%TO.C,J15*%
X28670000Y-126670000D02*
X30000000Y-126670000D01*
X28670000Y-128000000D02*
X28670000Y-126670000D01*
X28670000Y-129270000D02*
X31330000Y-129270000D01*
X28670000Y-147110000D02*
X28670000Y-129270000D01*
X28670000Y-147110000D02*
X31330000Y-147110000D01*
X31330000Y-147110000D02*
X31330000Y-129270000D01*
%TO.C,J22*%
X168670000Y-55170000D02*
X170000000Y-55170000D01*
X168670000Y-56500000D02*
X168670000Y-55170000D01*
X168670000Y-57770000D02*
X171330000Y-57770000D01*
X168670000Y-70530000D02*
X168670000Y-57770000D01*
X168670000Y-70530000D02*
X171330000Y-70530000D01*
X171330000Y-70530000D02*
X171330000Y-57770000D01*
%TO.C,J21*%
X28670000Y-55170000D02*
X30000000Y-55170000D01*
X28670000Y-56500000D02*
X28670000Y-55170000D01*
X28670000Y-57770000D02*
X31330000Y-57770000D01*
X28670000Y-70530000D02*
X28670000Y-57770000D01*
X28670000Y-70530000D02*
X31330000Y-70530000D01*
X31330000Y-70530000D02*
X31330000Y-57770000D01*
%TO.C,J17*%
X28670000Y-93170000D02*
X30000000Y-93170000D01*
X28670000Y-94500000D02*
X28670000Y-93170000D01*
X28670000Y-95770000D02*
X31330000Y-95770000D01*
X28670000Y-108530000D02*
X28670000Y-95770000D01*
X28670000Y-108530000D02*
X31330000Y-108530000D01*
X31330000Y-108530000D02*
X31330000Y-95770000D01*
%TD*%
%LPC*%
D14*
%TO.C,R14*%
X71810000Y-93750000D03*
D15*
X64190000Y-93750000D03*
%TD*%
D16*
%TO.C,RV31*%
X150710000Y-152150000D03*
X153250000Y-152150000D03*
X155790000Y-152150000D03*
%TD*%
%TO.C,RV19*%
X51710000Y-152150000D03*
X54250000Y-152150000D03*
X56790000Y-152150000D03*
%TD*%
%TO.C,RV15*%
X141960000Y-123900000D03*
X144500000Y-123900000D03*
X147040000Y-123900000D03*
%TD*%
%TO.C,RV13*%
X59950000Y-123900000D03*
X62490000Y-123900000D03*
X65030000Y-123900000D03*
%TD*%
D15*
%TO.C,R141*%
X91190000Y-86750000D03*
D14*
X98810000Y-86750000D03*
%TD*%
D15*
%TO.C,R140*%
X87500000Y-63810000D03*
D14*
X87500000Y-56190000D03*
%TD*%
D15*
%TO.C,R139*%
X101190000Y-86750000D03*
D14*
X108810000Y-86750000D03*
%TD*%
D15*
%TO.C,R138*%
X96190000Y-54250000D03*
D14*
X103810000Y-54250000D03*
%TD*%
D15*
%TO.C,R137*%
X121190000Y-62500000D03*
D14*
X128810000Y-62500000D03*
%TD*%
D15*
%TO.C,R136*%
X121190000Y-57500000D03*
D14*
X128810000Y-57500000D03*
%TD*%
D15*
%TO.C,R135*%
X71190000Y-62500000D03*
D14*
X78810000Y-62500000D03*
%TD*%
D15*
%TO.C,R96*%
X78810000Y-57500000D03*
D14*
X71190000Y-57500000D03*
%TD*%
D15*
%TO.C,R58*%
X140690000Y-117750000D03*
D14*
X148310000Y-117750000D03*
%TD*%
D15*
%TO.C,R40*%
X58690000Y-117750000D03*
D14*
X66310000Y-117750000D03*
%TD*%
D17*
%TO.C,J20*%
X102000000Y-143800000D03*
D18*
X102000000Y-141260000D03*
X102000000Y-138720000D03*
X102000000Y-136180000D03*
X102000000Y-133640000D03*
X102000000Y-131100000D03*
%TD*%
D17*
%TO.C,J19*%
X98000000Y-143800000D03*
D18*
X98000000Y-141260000D03*
X98000000Y-138720000D03*
X98000000Y-136180000D03*
X98000000Y-133640000D03*
X98000000Y-131100000D03*
%TD*%
D19*
%TO.C,RV25*%
X56950000Y-166000000D03*
D20*
X66500000Y-177000000D03*
D19*
X68550000Y-166000000D03*
D21*
X59000000Y-177000000D03*
D20*
X61500000Y-177000000D03*
X64000000Y-177000000D03*
%TD*%
D21*
%TO.C,D4*%
X66730000Y-88000000D03*
D20*
X69270000Y-88000000D03*
%TD*%
D19*
%TO.C,RV9*%
X153200000Y-134000000D03*
D20*
X162750000Y-145000000D03*
D19*
X164800000Y-134000000D03*
D21*
X155250000Y-145000000D03*
D20*
X157750000Y-145000000D03*
X160250000Y-145000000D03*
%TD*%
D22*
%TO.C,SW4*%
X136000000Y-144700000D03*
X136000000Y-140000000D03*
X136000000Y-135300000D03*
%TD*%
D19*
%TO.C,RV11*%
X156200000Y-166000000D03*
D20*
X165750000Y-177000000D03*
D19*
X167800000Y-166000000D03*
D21*
X158250000Y-177000000D03*
D20*
X160750000Y-177000000D03*
X163250000Y-177000000D03*
%TD*%
D23*
%TO.C,RV7*%
X146200000Y-61000000D03*
X155800000Y-61000000D03*
D21*
X148500000Y-68500000D03*
D20*
X151000000Y-68500000D03*
X153500000Y-68500000D03*
%TD*%
D23*
%TO.C,RV18*%
X75200000Y-111000000D03*
X84800000Y-111000000D03*
D21*
X77500000Y-118500000D03*
D20*
X80000000Y-118500000D03*
X82500000Y-118500000D03*
%TD*%
D23*
%TO.C,RV27*%
X40200000Y-99000000D03*
X49800000Y-99000000D03*
D21*
X42500000Y-106500000D03*
D20*
X45000000Y-106500000D03*
X47500000Y-106500000D03*
%TD*%
D22*
%TO.C,SW1*%
X64000000Y-144700000D03*
X64000000Y-140000000D03*
X64000000Y-135300000D03*
%TD*%
D21*
%TO.C,D5*%
X130730000Y-88000000D03*
D20*
X133270000Y-88000000D03*
%TD*%
D22*
%TO.C,SW6*%
X108000000Y-144700000D03*
X108000000Y-140000000D03*
X108000000Y-135300000D03*
%TD*%
D19*
%TO.C,RV20*%
X106700000Y-166000000D03*
D20*
X116250000Y-177000000D03*
D19*
X118300000Y-166000000D03*
D21*
X108750000Y-177000000D03*
D20*
X111250000Y-177000000D03*
X113750000Y-177000000D03*
%TD*%
D23*
%TO.C,RV22*%
X115200000Y-111000000D03*
X124800000Y-111000000D03*
D21*
X117500000Y-118500000D03*
D20*
X120000000Y-118500000D03*
X122500000Y-118500000D03*
%TD*%
D22*
%TO.C,SW5*%
X122000000Y-144700000D03*
X122000000Y-140000000D03*
X122000000Y-135300000D03*
%TD*%
%TO.C,SW3*%
X92000000Y-144700000D03*
X92000000Y-140000000D03*
X92000000Y-135300000D03*
%TD*%
D19*
%TO.C,RV16*%
X81700000Y-166000000D03*
D20*
X91250000Y-177000000D03*
D19*
X93300000Y-166000000D03*
D21*
X83750000Y-177000000D03*
D20*
X86250000Y-177000000D03*
X88750000Y-177000000D03*
%TD*%
D19*
%TO.C,RV28*%
X131450000Y-166000000D03*
D20*
X141000000Y-177000000D03*
D19*
X143050000Y-166000000D03*
D21*
X133500000Y-177000000D03*
D20*
X136000000Y-177000000D03*
X138500000Y-177000000D03*
%TD*%
D21*
%TO.C,D3*%
X98730000Y-103000000D03*
D20*
X101270000Y-103000000D03*
%TD*%
D22*
%TO.C,SW8*%
X97587000Y-194950000D03*
X97587000Y-190250000D03*
X97587000Y-185550000D03*
X102413000Y-194950000D03*
X102413000Y-190250000D03*
X102413000Y-185550000D03*
%TD*%
%TO.C,SW2*%
X78000000Y-144700000D03*
X78000000Y-140000000D03*
X78000000Y-135300000D03*
%TD*%
D23*
%TO.C,RV30*%
X150200000Y-99000000D03*
X159800000Y-99000000D03*
D21*
X152500000Y-106500000D03*
D20*
X155000000Y-106500000D03*
X157500000Y-106500000D03*
%TD*%
D19*
%TO.C,RV3*%
X35200000Y-134000000D03*
D20*
X44750000Y-145000000D03*
D19*
X46800000Y-134000000D03*
D21*
X37250000Y-145000000D03*
D20*
X39750000Y-145000000D03*
X42250000Y-145000000D03*
%TD*%
D22*
%TO.C,SW7*%
X83000000Y-194950000D03*
X83000000Y-190250000D03*
X83000000Y-185550000D03*
%TD*%
D23*
%TO.C,RV6*%
X95250000Y-70000000D03*
X104750000Y-70000000D03*
D21*
X97500000Y-77500000D03*
D20*
X100000000Y-77500000D03*
X102500000Y-77500000D03*
X97500000Y-80000000D03*
X100000000Y-80000000D03*
X102500000Y-80000000D03*
%TD*%
D19*
%TO.C,RV5*%
X32200000Y-166000000D03*
D20*
X41750000Y-177000000D03*
D19*
X43800000Y-166000000D03*
D21*
X34250000Y-177000000D03*
D20*
X36750000Y-177000000D03*
X39250000Y-177000000D03*
%TD*%
D23*
%TO.C,RV1*%
X44200000Y-61000000D03*
X53800000Y-61000000D03*
D21*
X46500000Y-68500000D03*
D20*
X49000000Y-68500000D03*
X51500000Y-68500000D03*
%TD*%
D22*
%TO.C,SW10*%
X97587000Y-213450000D03*
X97587000Y-208750000D03*
X97587000Y-204050000D03*
X102413000Y-213450000D03*
X102413000Y-208750000D03*
X102413000Y-204050000D03*
%TD*%
%TO.C,SW9*%
X117000000Y-194950000D03*
X117000000Y-190250000D03*
X117000000Y-185550000D03*
%TD*%
D15*
%TO.C,R12*%
X96190000Y-57500000D03*
D14*
X103810000Y-57500000D03*
%TD*%
D15*
%TO.C,R132*%
X112500000Y-63810000D03*
D14*
X112500000Y-56190000D03*
%TD*%
D15*
%TO.C,R24*%
X155190000Y-119250000D03*
D14*
X162810000Y-119250000D03*
%TD*%
D17*
%TO.C,J18*%
X170000000Y-94500000D03*
D18*
X170000000Y-97040000D03*
X170000000Y-99580000D03*
X170000000Y-102120000D03*
X170000000Y-104660000D03*
X170000000Y-107200000D03*
%TD*%
D17*
%TO.C,J16*%
X170000000Y-128000000D03*
D18*
X170000000Y-130540000D03*
X170000000Y-133080000D03*
X170000000Y-135620000D03*
X170000000Y-138160000D03*
X170000000Y-140700000D03*
X170000000Y-143240000D03*
X170000000Y-145780000D03*
%TD*%
D17*
%TO.C,J23*%
X96200000Y-62775000D03*
D18*
X98740000Y-62775000D03*
X101280000Y-62775000D03*
X103820000Y-62775000D03*
%TD*%
D15*
%TO.C,R1*%
X52810000Y-54000000D03*
D14*
X45190000Y-54000000D03*
%TD*%
D15*
%TO.C,R11*%
X90250000Y-74190000D03*
D14*
X90250000Y-81810000D03*
%TD*%
D15*
%TO.C,R13*%
X96190000Y-108750000D03*
D14*
X103810000Y-108750000D03*
%TD*%
D15*
%TO.C,R10*%
X37190000Y-119250000D03*
D14*
X44810000Y-119250000D03*
%TD*%
D15*
%TO.C,R80*%
X116190000Y-104000000D03*
D14*
X123810000Y-104000000D03*
%TD*%
D15*
%TO.C,R17*%
X142750000Y-68560000D03*
D14*
X142750000Y-60940000D03*
%TD*%
D15*
%TO.C,R23*%
X162810000Y-114500000D03*
D14*
X155190000Y-114500000D03*
%TD*%
D15*
%TO.C,R111*%
X41190000Y-92000000D03*
D14*
X48810000Y-92000000D03*
%TD*%
D15*
%TO.C,R76*%
X76190000Y-104000000D03*
D14*
X83810000Y-104000000D03*
%TD*%
D15*
%TO.C,R128*%
X158810000Y-92000000D03*
D14*
X151190000Y-92000000D03*
%TD*%
D17*
%TO.C,J15*%
X30000000Y-128000000D03*
D18*
X30000000Y-130540000D03*
X30000000Y-133080000D03*
X30000000Y-135620000D03*
X30000000Y-138160000D03*
X30000000Y-140700000D03*
X30000000Y-143240000D03*
X30000000Y-145780000D03*
%TD*%
D15*
%TO.C,R8*%
X37190000Y-114500000D03*
D14*
X44810000Y-114500000D03*
%TD*%
D17*
%TO.C,J22*%
X170000000Y-56500000D03*
D18*
X170000000Y-59040000D03*
X170000000Y-61580000D03*
X170000000Y-64120000D03*
X170000000Y-66660000D03*
X170000000Y-69200000D03*
%TD*%
D17*
%TO.C,J21*%
X30000000Y-56500000D03*
D18*
X30000000Y-59040000D03*
X30000000Y-61580000D03*
X30000000Y-64120000D03*
X30000000Y-66660000D03*
X30000000Y-69200000D03*
%TD*%
D15*
%TO.C,R15*%
X128190000Y-93750000D03*
D14*
X135810000Y-93750000D03*
%TD*%
D15*
%TO.C,R131*%
X109750000Y-74190000D03*
D14*
X109750000Y-81810000D03*
%TD*%
D15*
%TO.C,R2*%
X57250000Y-68560000D03*
D14*
X57250000Y-60940000D03*
%TD*%
D15*
%TO.C,R16*%
X147190000Y-54000000D03*
D14*
X154810000Y-54000000D03*
%TD*%
D17*
%TO.C,J17*%
X30000000Y-94500000D03*
D18*
X30000000Y-97040000D03*
X30000000Y-99580000D03*
X30000000Y-102120000D03*
X30000000Y-104660000D03*
X30000000Y-107200000D03*
%TD*%
%LPD*%
M02*
