%TF.GenerationSoftware,KiCad,Pcbnew,9.0.0*%
%TF.CreationDate,2025-03-15T21:37:25+01:00*%
%TF.ProjectId,DMH_Dual_VCF_Diode_Ladder_Mk2_PCB_2,444d485f-4475-4616-9c5f-5643465f4469,1*%
%TF.SameCoordinates,Original*%
%TF.FileFunction,Drillmap*%
%TF.FilePolarity,Positive*%
%FSLAX45Y45*%
G04 Gerber Fmt 4.5, Leading zero omitted, Abs format (unit mm)*
G04 Created by KiCad (PCBNEW 9.0.0) date 2025-03-15 21:37:25*
%MOMM*%
%LPD*%
G01*
G04 APERTURE LIST*
%ADD10C,0.050000*%
%ADD11C,0.200000*%
G04 APERTURE END LIST*
D10*
X12250000Y-20000000D02*
X12250000Y-18150000D01*
X7750000Y-20000000D02*
X9250000Y-20000000D01*
X2700000Y-18150000D02*
X7750000Y-18150000D01*
X9250000Y-20000000D02*
X9250000Y-21750000D01*
X17300000Y-4250000D02*
X2700000Y-4250000D01*
X17300000Y-18150000D02*
X17300000Y-4250000D01*
X9250000Y-21750000D02*
X10750000Y-21750000D01*
X12250000Y-18150000D02*
X17300000Y-18150000D01*
X10750000Y-20000000D02*
X12250000Y-20000000D01*
X10750000Y-21750000D02*
X10750000Y-20000000D01*
X7750000Y-18150000D02*
X7750000Y-20000000D01*
X2700000Y-4250000D02*
X2700000Y-18150000D01*
D11*
X2958277Y-22063984D02*
X2958277Y-21863984D01*
X2958277Y-21863984D02*
X3005896Y-21863984D01*
X3005896Y-21863984D02*
X3034467Y-21873508D01*
X3034467Y-21873508D02*
X3053515Y-21892555D01*
X3053515Y-21892555D02*
X3063039Y-21911603D01*
X3063039Y-21911603D02*
X3072562Y-21949698D01*
X3072562Y-21949698D02*
X3072562Y-21978270D01*
X3072562Y-21978270D02*
X3063039Y-22016365D01*
X3063039Y-22016365D02*
X3053515Y-22035412D01*
X3053515Y-22035412D02*
X3034467Y-22054460D01*
X3034467Y-22054460D02*
X3005896Y-22063984D01*
X3005896Y-22063984D02*
X2958277Y-22063984D01*
X3158277Y-22063984D02*
X3158277Y-21930650D01*
X3158277Y-21968746D02*
X3167801Y-21949698D01*
X3167801Y-21949698D02*
X3177324Y-21940174D01*
X3177324Y-21940174D02*
X3196372Y-21930650D01*
X3196372Y-21930650D02*
X3215420Y-21930650D01*
X3282086Y-22063984D02*
X3282086Y-21930650D01*
X3282086Y-21863984D02*
X3272562Y-21873508D01*
X3272562Y-21873508D02*
X3282086Y-21883031D01*
X3282086Y-21883031D02*
X3291610Y-21873508D01*
X3291610Y-21873508D02*
X3282086Y-21863984D01*
X3282086Y-21863984D02*
X3282086Y-21883031D01*
X3405896Y-22063984D02*
X3386848Y-22054460D01*
X3386848Y-22054460D02*
X3377324Y-22035412D01*
X3377324Y-22035412D02*
X3377324Y-21863984D01*
X3510658Y-22063984D02*
X3491610Y-22054460D01*
X3491610Y-22054460D02*
X3482086Y-22035412D01*
X3482086Y-22035412D02*
X3482086Y-21863984D01*
X3739229Y-22063984D02*
X3739229Y-21863984D01*
X3739229Y-21863984D02*
X3805896Y-22006841D01*
X3805896Y-22006841D02*
X3872562Y-21863984D01*
X3872562Y-21863984D02*
X3872562Y-22063984D01*
X4053515Y-22063984D02*
X4053515Y-21959222D01*
X4053515Y-21959222D02*
X4043991Y-21940174D01*
X4043991Y-21940174D02*
X4024943Y-21930650D01*
X4024943Y-21930650D02*
X3986848Y-21930650D01*
X3986848Y-21930650D02*
X3967801Y-21940174D01*
X4053515Y-22054460D02*
X4034467Y-22063984D01*
X4034467Y-22063984D02*
X3986848Y-22063984D01*
X3986848Y-22063984D02*
X3967801Y-22054460D01*
X3967801Y-22054460D02*
X3958277Y-22035412D01*
X3958277Y-22035412D02*
X3958277Y-22016365D01*
X3958277Y-22016365D02*
X3967801Y-21997317D01*
X3967801Y-21997317D02*
X3986848Y-21987793D01*
X3986848Y-21987793D02*
X4034467Y-21987793D01*
X4034467Y-21987793D02*
X4053515Y-21978270D01*
X4148753Y-21930650D02*
X4148753Y-22130650D01*
X4148753Y-21940174D02*
X4167801Y-21930650D01*
X4167801Y-21930650D02*
X4205896Y-21930650D01*
X4205896Y-21930650D02*
X4224944Y-21940174D01*
X4224944Y-21940174D02*
X4234467Y-21949698D01*
X4234467Y-21949698D02*
X4243991Y-21968746D01*
X4243991Y-21968746D02*
X4243991Y-22025889D01*
X4243991Y-22025889D02*
X4234467Y-22044936D01*
X4234467Y-22044936D02*
X4224944Y-22054460D01*
X4224944Y-22054460D02*
X4205896Y-22063984D01*
X4205896Y-22063984D02*
X4167801Y-22063984D01*
X4167801Y-22063984D02*
X4148753Y-22054460D01*
X4329705Y-22044936D02*
X4339229Y-22054460D01*
X4339229Y-22054460D02*
X4329705Y-22063984D01*
X4329705Y-22063984D02*
X4320182Y-22054460D01*
X4320182Y-22054460D02*
X4329705Y-22044936D01*
X4329705Y-22044936D02*
X4329705Y-22063984D01*
X4329705Y-21940174D02*
X4339229Y-21949698D01*
X4339229Y-21949698D02*
X4329705Y-21959222D01*
X4329705Y-21959222D02*
X4320182Y-21949698D01*
X4320182Y-21949698D02*
X4329705Y-21940174D01*
X4329705Y-21940174D02*
X4329705Y-21959222D01*
M02*
