%TF.GenerationSoftware,KiCad,Pcbnew,9.0.7*%
%TF.CreationDate,2026-04-03T21:03:42+02:00*%
%TF.ProjectId,DMH_Dual_VCF_Diode_Ladder_Mk2_PCB_2,444d485f-4475-4616-9c5f-5643465f4469,1*%
%TF.SameCoordinates,Original*%
%TF.FileFunction,Soldermask,Bot*%
%TF.FilePolarity,Negative*%
%FSLAX46Y46*%
G04 Gerber Fmt 4.6, Leading zero omitted, Abs format (unit mm)*
G04 Created by KiCad (PCBNEW 9.0.7) date 2026-04-03 21:03:42*
%MOMM*%
%LPD*%
G01*
G04 APERTURE LIST*
%ADD10C,1.600000*%
%ADD11O,4.000000X4.200000*%
%ADD12C,1.800000*%
%ADD13R,1.800000X1.800000*%
%ADD14C,2.800000*%
%ADD15O,2.720000X3.240000*%
%ADD16C,1.440000*%
%ADD17R,1.700000X1.700000*%
%ADD18C,1.700000*%
G04 APERTURE END LIST*
D10*
%TO.C,R12*%
X96190000Y-57500000D03*
X103810000Y-57500000D03*
%TD*%
D11*
%TO.C,RV25*%
X56950000Y-166000000D03*
D12*
X66500000Y-177000000D03*
D11*
X68550000Y-166000000D03*
D13*
X59000000Y-177000000D03*
D12*
X61500000Y-177000000D03*
X64000000Y-177000000D03*
%TD*%
D13*
%TO.C,D4*%
X66730000Y-88000000D03*
D12*
X69270000Y-88000000D03*
%TD*%
D11*
%TO.C,RV9*%
X153200000Y-134000000D03*
D12*
X162750000Y-145000000D03*
D11*
X164800000Y-134000000D03*
D13*
X155250000Y-145000000D03*
D12*
X157750000Y-145000000D03*
X160250000Y-145000000D03*
%TD*%
D14*
%TO.C,SW4*%
X136000000Y-144700000D03*
X136000000Y-140000000D03*
X136000000Y-135300000D03*
%TD*%
D11*
%TO.C,RV11*%
X156200000Y-166000000D03*
D12*
X165750000Y-177000000D03*
D11*
X167800000Y-166000000D03*
D13*
X158250000Y-177000000D03*
D12*
X160750000Y-177000000D03*
X163250000Y-177000000D03*
%TD*%
D10*
%TO.C,R132*%
X112500000Y-63810000D03*
X112500000Y-56190000D03*
%TD*%
%TO.C,R24*%
X155190000Y-119250000D03*
X162810000Y-119250000D03*
%TD*%
D15*
%TO.C,RV7*%
X146200000Y-61000000D03*
X155800000Y-61000000D03*
D13*
X148500000Y-68500000D03*
D12*
X151000000Y-68500000D03*
X153500000Y-68500000D03*
%TD*%
D10*
%TO.C,R136*%
X121190000Y-57500000D03*
X128810000Y-57500000D03*
%TD*%
D16*
%TO.C,RV13*%
X59950000Y-123900000D03*
X62490000Y-123900000D03*
X65030000Y-123900000D03*
%TD*%
D10*
%TO.C,R1*%
X52810000Y-54000000D03*
X45190000Y-54000000D03*
%TD*%
%TO.C,R138*%
X96190000Y-54250000D03*
X103810000Y-54250000D03*
%TD*%
D15*
%TO.C,RV18*%
X75200000Y-111000000D03*
X84800000Y-111000000D03*
D13*
X77500000Y-118500000D03*
D12*
X80000000Y-118500000D03*
X82500000Y-118500000D03*
%TD*%
D16*
%TO.C,RV19*%
X51710000Y-152150000D03*
X54250000Y-152150000D03*
X56790000Y-152150000D03*
%TD*%
D10*
%TO.C,R11*%
X90250000Y-74190000D03*
X90250000Y-81810000D03*
%TD*%
%TO.C,R13*%
X96190000Y-108750000D03*
X103810000Y-108750000D03*
%TD*%
D16*
%TO.C,RV15*%
X141960000Y-123900000D03*
X144500000Y-123900000D03*
X147040000Y-123900000D03*
%TD*%
D10*
%TO.C,R10*%
X37190000Y-119250000D03*
X44810000Y-119250000D03*
%TD*%
D15*
%TO.C,RV27*%
X40200000Y-99000000D03*
X49800000Y-99000000D03*
D13*
X42500000Y-106500000D03*
D12*
X45000000Y-106500000D03*
X47500000Y-106500000D03*
%TD*%
D14*
%TO.C,SW1*%
X64000000Y-144700000D03*
X64000000Y-140000000D03*
X64000000Y-135300000D03*
%TD*%
D10*
%TO.C,R135*%
X71190000Y-62500000D03*
X78810000Y-62500000D03*
%TD*%
D13*
%TO.C,D5*%
X130730000Y-88000000D03*
D12*
X133270000Y-88000000D03*
%TD*%
D14*
%TO.C,SW6*%
X108000000Y-144700000D03*
X108000000Y-140000000D03*
X108000000Y-135300000D03*
%TD*%
D10*
%TO.C,R139*%
X101190000Y-86750000D03*
X108810000Y-86750000D03*
%TD*%
D11*
%TO.C,RV20*%
X106700000Y-166000000D03*
D12*
X116250000Y-177000000D03*
D11*
X118300000Y-166000000D03*
D13*
X108750000Y-177000000D03*
D12*
X111250000Y-177000000D03*
X113750000Y-177000000D03*
%TD*%
D15*
%TO.C,RV22*%
X115200000Y-111000000D03*
X124800000Y-111000000D03*
D13*
X117500000Y-118500000D03*
D12*
X120000000Y-118500000D03*
X122500000Y-118500000D03*
%TD*%
D10*
%TO.C,R80*%
X116190000Y-104000000D03*
X123810000Y-104000000D03*
%TD*%
%TO.C,R40*%
X58690000Y-117750000D03*
X66310000Y-117750000D03*
%TD*%
%TO.C,R96*%
X78810000Y-57500000D03*
X71190000Y-57500000D03*
%TD*%
D16*
%TO.C,RV31*%
X150710000Y-152150000D03*
X153250000Y-152150000D03*
X155790000Y-152150000D03*
%TD*%
D14*
%TO.C,SW5*%
X122000000Y-144700000D03*
X122000000Y-140000000D03*
X122000000Y-135300000D03*
%TD*%
D10*
%TO.C,R137*%
X121190000Y-62500000D03*
X128810000Y-62500000D03*
%TD*%
%TO.C,R17*%
X142750000Y-68560000D03*
X142750000Y-60940000D03*
%TD*%
%TO.C,R23*%
X162810000Y-114500000D03*
X155190000Y-114500000D03*
%TD*%
%TO.C,R111*%
X41190000Y-92000000D03*
X48810000Y-92000000D03*
%TD*%
%TO.C,R76*%
X76190000Y-104000000D03*
X83810000Y-104000000D03*
%TD*%
D14*
%TO.C,SW3*%
X92000000Y-144700000D03*
X92000000Y-140000000D03*
X92000000Y-135300000D03*
%TD*%
D10*
%TO.C,R128*%
X158810000Y-92000000D03*
X151190000Y-92000000D03*
%TD*%
D11*
%TO.C,RV16*%
X81700000Y-166000000D03*
D12*
X91250000Y-177000000D03*
D11*
X93300000Y-166000000D03*
D13*
X83750000Y-177000000D03*
D12*
X86250000Y-177000000D03*
X88750000Y-177000000D03*
%TD*%
D11*
%TO.C,RV28*%
X131450000Y-166000000D03*
D12*
X141000000Y-177000000D03*
D11*
X143050000Y-166000000D03*
D13*
X133500000Y-177000000D03*
D12*
X136000000Y-177000000D03*
X138500000Y-177000000D03*
%TD*%
D13*
%TO.C,D3*%
X98730000Y-103000000D03*
D12*
X101270000Y-103000000D03*
%TD*%
D14*
%TO.C,SW8*%
X97587000Y-194950000D03*
X97587000Y-190250000D03*
X97587000Y-185550000D03*
X102413000Y-194950000D03*
X102413000Y-190250000D03*
X102413000Y-185550000D03*
%TD*%
D10*
%TO.C,R8*%
X37190000Y-114500000D03*
X44810000Y-114500000D03*
%TD*%
D14*
%TO.C,SW2*%
X78000000Y-144700000D03*
X78000000Y-140000000D03*
X78000000Y-135300000D03*
%TD*%
D10*
%TO.C,R58*%
X140690000Y-117750000D03*
X148310000Y-117750000D03*
%TD*%
D15*
%TO.C,RV30*%
X150200000Y-99000000D03*
X159800000Y-99000000D03*
D13*
X152500000Y-106500000D03*
D12*
X155000000Y-106500000D03*
X157500000Y-106500000D03*
%TD*%
D10*
%TO.C,R15*%
X128190000Y-93750000D03*
X135810000Y-93750000D03*
%TD*%
D11*
%TO.C,RV3*%
X35200000Y-134000000D03*
D12*
X44750000Y-145000000D03*
D11*
X46800000Y-134000000D03*
D13*
X37250000Y-145000000D03*
D12*
X39750000Y-145000000D03*
X42250000Y-145000000D03*
%TD*%
D10*
%TO.C,R131*%
X109750000Y-74190000D03*
X109750000Y-81810000D03*
%TD*%
D14*
%TO.C,SW7*%
X83000000Y-194950000D03*
X83000000Y-190250000D03*
X83000000Y-185550000D03*
%TD*%
D15*
%TO.C,RV6*%
X95250000Y-70000000D03*
X104750000Y-70000000D03*
D13*
X97500000Y-77500000D03*
D12*
X100000000Y-77500000D03*
X102500000Y-77500000D03*
X97500000Y-80000000D03*
X100000000Y-80000000D03*
X102500000Y-80000000D03*
%TD*%
D11*
%TO.C,RV5*%
X32200000Y-166000000D03*
D12*
X41750000Y-177000000D03*
D11*
X43800000Y-166000000D03*
D13*
X34250000Y-177000000D03*
D12*
X36750000Y-177000000D03*
X39250000Y-177000000D03*
%TD*%
D15*
%TO.C,RV1*%
X44200000Y-61000000D03*
X53800000Y-61000000D03*
D13*
X46500000Y-68500000D03*
D12*
X49000000Y-68500000D03*
X51500000Y-68500000D03*
%TD*%
D14*
%TO.C,SW10*%
X97587000Y-213450000D03*
X97587000Y-208750000D03*
X97587000Y-204050000D03*
X102413000Y-213450000D03*
X102413000Y-208750000D03*
X102413000Y-204050000D03*
%TD*%
D10*
%TO.C,R140*%
X87500000Y-63810000D03*
X87500000Y-56190000D03*
%TD*%
%TO.C,R2*%
X57250000Y-68560000D03*
X57250000Y-60940000D03*
%TD*%
%TO.C,R16*%
X147190000Y-54000000D03*
X154810000Y-54000000D03*
%TD*%
%TO.C,R14*%
X64190000Y-93750000D03*
X71810000Y-93750000D03*
%TD*%
%TO.C,R141*%
X91190000Y-86750000D03*
X98810000Y-86750000D03*
%TD*%
D14*
%TO.C,SW9*%
X117000000Y-194950000D03*
X117000000Y-190250000D03*
X117000000Y-185550000D03*
%TD*%
D17*
%TO.C,J18*%
X170000000Y-94500000D03*
D18*
X170000000Y-97040000D03*
X170000000Y-99580000D03*
X170000000Y-102120000D03*
X170000000Y-104660000D03*
X170000000Y-107200000D03*
%TD*%
D17*
%TO.C,J16*%
X170000000Y-128000000D03*
D18*
X170000000Y-130540000D03*
X170000000Y-133080000D03*
X170000000Y-135620000D03*
X170000000Y-138160000D03*
X170000000Y-140700000D03*
X170000000Y-143240000D03*
X170000000Y-145780000D03*
%TD*%
D17*
%TO.C,J20*%
X102000000Y-143800000D03*
D18*
X102000000Y-141260000D03*
X102000000Y-138720000D03*
X102000000Y-136180000D03*
X102000000Y-133640000D03*
X102000000Y-131100000D03*
%TD*%
D17*
%TO.C,J23*%
X96200000Y-62775000D03*
D18*
X98740000Y-62775000D03*
X101280000Y-62775000D03*
X103820000Y-62775000D03*
%TD*%
D17*
%TO.C,J19*%
X98000000Y-143800000D03*
D18*
X98000000Y-141260000D03*
X98000000Y-138720000D03*
X98000000Y-136180000D03*
X98000000Y-133640000D03*
X98000000Y-131100000D03*
%TD*%
D17*
%TO.C,J15*%
X30000000Y-128000000D03*
D18*
X30000000Y-130540000D03*
X30000000Y-133080000D03*
X30000000Y-135620000D03*
X30000000Y-138160000D03*
X30000000Y-140700000D03*
X30000000Y-143240000D03*
X30000000Y-145780000D03*
%TD*%
D17*
%TO.C,J22*%
X170000000Y-56500000D03*
D18*
X170000000Y-59040000D03*
X170000000Y-61580000D03*
X170000000Y-64120000D03*
X170000000Y-66660000D03*
X170000000Y-69200000D03*
%TD*%
D17*
%TO.C,J21*%
X30000000Y-56500000D03*
D18*
X30000000Y-59040000D03*
X30000000Y-61580000D03*
X30000000Y-64120000D03*
X30000000Y-66660000D03*
X30000000Y-69200000D03*
%TD*%
D17*
%TO.C,J17*%
X30000000Y-94500000D03*
D18*
X30000000Y-97040000D03*
X30000000Y-99580000D03*
X30000000Y-102120000D03*
X30000000Y-104660000D03*
X30000000Y-107200000D03*
%TD*%
M02*
