%TF.GenerationSoftware,KiCad,Pcbnew,9.0.0*%
%TF.CreationDate,2025-03-15T21:35:03+01:00*%
%TF.ProjectId,DMH_Dual_VCF_Diode_Ladder_Mk2_PANEL,444d485f-4475-4616-9c5f-5643465f4469,rev?*%
%TF.SameCoordinates,Original*%
%TF.FileFunction,Copper,L1,Top*%
%TF.FilePolarity,Positive*%
%FSLAX46Y46*%
G04 Gerber Fmt 4.6, Leading zero omitted, Abs format (unit mm)*
G04 Created by KiCad (PCBNEW 9.0.0) date 2025-03-15 21:35:03*
%MOMM*%
%LPD*%
G01*
G04 APERTURE LIST*
%TA.AperFunction,ComponentPad*%
%ADD10C,2.900000*%
%TD*%
%TA.AperFunction,ComponentPad*%
%ADD11C,13.000000*%
%TD*%
%TA.AperFunction,ComponentPad*%
%ADD12C,0.500000*%
%TD*%
%TA.AperFunction,ConnectorPad*%
%ADD13C,12.000000*%
%TD*%
%TA.AperFunction,ComponentPad*%
%ADD14C,4.000000*%
%TD*%
%TA.AperFunction,ComponentPad*%
%ADD15O,2.500000X1.500000*%
%TD*%
G04 APERTURE END LIST*
D10*
%TO.P,H34,1,1*%
%TO.N,GND*%
X122000000Y-133900000D03*
D11*
X122000000Y-140000000D03*
%TD*%
D12*
%TO.P,H15,1,1*%
%TO.N,GND*%
X144300000Y-190250000D03*
X145960000Y-186220000D03*
X145970000Y-194290000D03*
X150000000Y-184550000D03*
D13*
X150000000Y-190250000D03*
D12*
X150000000Y-195950000D03*
X154030000Y-194290000D03*
X154040000Y-186220000D03*
X155700000Y-190250000D03*
%TD*%
D10*
%TO.P,H33,1,1*%
%TO.N,GND*%
X100000000Y-202650000D03*
D11*
X100000000Y-208750000D03*
%TD*%
D14*
%TO.P,H3,1,1*%
%TO.N,GND*%
X28500000Y-226500000D03*
%TD*%
D13*
%TO.P,H22,1,1*%
%TO.N,GND*%
X159000000Y-134000000D03*
%TD*%
D12*
%TO.P,H25,1,1*%
%TO.N,GND*%
X144300000Y-208750000D03*
X145960000Y-204720000D03*
X145970000Y-212790000D03*
X150000000Y-203050000D03*
D13*
X150000000Y-208750000D03*
D12*
X150000000Y-214450000D03*
X154030000Y-212790000D03*
X154040000Y-204720000D03*
X155700000Y-208750000D03*
%TD*%
%TO.P,H16,1,1*%
%TO.N,GND*%
X160800000Y-190250000D03*
X162460000Y-186220000D03*
X162470000Y-194290000D03*
X166500000Y-184550000D03*
D13*
X166500000Y-190250000D03*
D12*
X166500000Y-195950000D03*
X170530000Y-194290000D03*
X170540000Y-186220000D03*
X172200000Y-190250000D03*
%TD*%
D14*
%TO.P,H39,1,1*%
%TO.N,GND*%
X128500000Y-226500000D03*
%TD*%
D10*
%TO.P,H23,1,1*%
%TO.N,GND*%
X117000000Y-184150000D03*
D11*
X117000000Y-190250000D03*
%TD*%
D12*
%TO.P,H5,1,1*%
%TO.N,GND*%
X27800000Y-190250000D03*
X29460000Y-186220000D03*
X29470000Y-194290000D03*
X33500000Y-184550000D03*
D13*
X33500000Y-190250000D03*
D12*
X33500000Y-195950000D03*
X37530000Y-194290000D03*
X37540000Y-186220000D03*
X39200000Y-190250000D03*
%TD*%
D13*
%TO.P,H17,1,1*%
%TO.N,GND*%
X38000000Y-166000000D03*
%TD*%
%TO.P,H10,1,1*%
%TO.N,GND*%
X45000000Y-99000000D03*
D15*
X45000000Y-105000000D03*
%TD*%
D13*
%TO.P,H12,1,1*%
%TO.N,GND*%
X41000000Y-134000000D03*
%TD*%
D10*
%TO.P,H44,1,1*%
%TO.N,GND*%
X100000000Y-184150000D03*
D11*
X100000000Y-190250000D03*
%TD*%
D13*
%TO.P,H32,1,1*%
%TO.N,GND*%
X112500000Y-166000000D03*
%TD*%
D12*
%TO.P,H50,1,1*%
%TO.N,GND*%
X127800000Y-208750000D03*
X129460000Y-204720000D03*
X129470000Y-212790000D03*
X133500000Y-203050000D03*
D13*
X133500000Y-208750000D03*
D12*
X133500000Y-214450000D03*
X137530000Y-212790000D03*
X137540000Y-204720000D03*
X139200000Y-208750000D03*
%TD*%
D13*
%TO.P,H11,1,1*%
%TO.N,GND*%
X80000000Y-111000000D03*
D15*
X80000000Y-117000000D03*
%TD*%
D10*
%TO.P,H20,1,1*%
%TO.N,GND*%
X78000000Y-133900000D03*
D11*
X78000000Y-140000000D03*
%TD*%
D10*
%TO.P,H24,1,1*%
%TO.N,GND*%
X136000000Y-133900000D03*
D11*
X136000000Y-140000000D03*
%TD*%
D12*
%TO.P,H29,1,1*%
%TO.N,GND*%
X111300000Y-208750000D03*
X112960000Y-204720000D03*
X112970000Y-212790000D03*
X117000000Y-203050000D03*
D13*
X117000000Y-208750000D03*
D12*
X117000000Y-214450000D03*
X121030000Y-212790000D03*
X121040000Y-204720000D03*
X122700000Y-208750000D03*
%TD*%
D13*
%TO.P,H13,1,1*%
%TO.N,GND*%
X87500000Y-166000000D03*
%TD*%
D14*
%TO.P,H36,1,1*%
%TO.N,GND*%
X71500000Y-33500000D03*
%TD*%
D12*
%TO.P,H6,1,1*%
%TO.N,GND*%
X44300000Y-190250000D03*
X45960000Y-186220000D03*
X45970000Y-194290000D03*
X50000000Y-184550000D03*
D13*
X50000000Y-190250000D03*
D12*
X50000000Y-195950000D03*
X54030000Y-194290000D03*
X54040000Y-186220000D03*
X55700000Y-190250000D03*
%TD*%
D14*
%TO.P,H37,1,1*%
%TO.N,GND*%
X71500000Y-226500000D03*
%TD*%
D12*
%TO.P,H30,1,1*%
%TO.N,GND*%
X160800000Y-208750000D03*
X162460000Y-204720000D03*
X162470000Y-212790000D03*
X166500000Y-203050000D03*
D13*
X166500000Y-208750000D03*
D12*
X166500000Y-214450000D03*
X170530000Y-212790000D03*
X170540000Y-204720000D03*
X172200000Y-208750000D03*
%TD*%
D13*
%TO.P,H27,1,1*%
%TO.N,GND*%
X151000000Y-61000000D03*
D15*
X151000000Y-67000000D03*
%TD*%
D14*
%TO.P,H38,1,1*%
%TO.N,GND*%
X128500000Y-33500000D03*
%TD*%
D13*
%TO.P,H9,1,1*%
%TO.N,GND*%
X49000000Y-61000000D03*
D15*
X49000000Y-67000000D03*
%TD*%
D12*
%TO.P,H8,1,1*%
%TO.N,GND*%
X27800000Y-208750000D03*
X29460000Y-204720000D03*
X29470000Y-212790000D03*
X33500000Y-203050000D03*
D13*
X33500000Y-208750000D03*
D12*
X33500000Y-214450000D03*
X37530000Y-212790000D03*
X37540000Y-204720000D03*
X39200000Y-208750000D03*
%TD*%
D13*
%TO.P,H31,1,1*%
%TO.N,GND*%
X120000000Y-111000000D03*
D15*
X120000000Y-117000000D03*
%TD*%
D12*
%TO.P,H18,1,1*%
%TO.N,GND*%
X44300000Y-208750000D03*
X45960000Y-204720000D03*
X45970000Y-212790000D03*
X50000000Y-203050000D03*
D13*
X50000000Y-208750000D03*
D12*
X50000000Y-214450000D03*
X54030000Y-212790000D03*
X54040000Y-204720000D03*
X55700000Y-208750000D03*
%TD*%
D10*
%TO.P,H19,1,1*%
%TO.N,GND*%
X83000000Y-184150000D03*
D11*
X83000000Y-190250000D03*
%TD*%
D13*
%TO.P,H21,1,1*%
%TO.N,GND*%
X155000000Y-99000000D03*
D15*
X155000000Y-105000000D03*
%TD*%
D14*
%TO.P,H2,1,1*%
%TO.N,GND*%
X171500000Y-33500000D03*
%TD*%
%TO.P,H4,1,1*%
%TO.N,GND*%
X171500000Y-226500000D03*
%TD*%
D13*
%TO.P,H28,1,1*%
%TO.N,GND*%
X162000000Y-166000000D03*
%TD*%
D12*
%TO.P,H7,1,1*%
%TO.N,GND*%
X77300000Y-208750000D03*
X78960000Y-204720000D03*
X78970000Y-212790000D03*
X83000000Y-203050000D03*
D13*
X83000000Y-208750000D03*
D12*
X83000000Y-214450000D03*
X87030000Y-212790000D03*
X87040000Y-204720000D03*
X88700000Y-208750000D03*
%TD*%
D13*
%TO.P,H43,1,1*%
%TO.N,GND*%
X100000000Y-70000000D03*
D15*
X100000000Y-76000000D03*
%TD*%
D14*
%TO.P,H1,1,1*%
%TO.N,GND*%
X28500000Y-33500000D03*
%TD*%
D13*
%TO.P,H46,1,1*%
%TO.N,GND*%
X137250000Y-166000000D03*
%TD*%
D12*
%TO.P,H48,1,1*%
%TO.N,GND*%
X60800000Y-208750000D03*
X62460000Y-204720000D03*
X62470000Y-212790000D03*
X66500000Y-203050000D03*
D13*
X66500000Y-208750000D03*
D12*
X66500000Y-214450000D03*
X70530000Y-212790000D03*
X70540000Y-204720000D03*
X72200000Y-208750000D03*
%TD*%
D13*
%TO.P,H45,1,1*%
%TO.N,GND*%
X62750000Y-166000000D03*
%TD*%
D10*
%TO.P,H14,1,1*%
%TO.N,GND*%
X64000000Y-133900000D03*
D11*
X64000000Y-140000000D03*
%TD*%
D10*
%TO.P,H26,1,1*%
%TO.N,GND*%
X92000000Y-133900000D03*
D11*
X92000000Y-140000000D03*
%TD*%
D12*
%TO.P,H47,1,1*%
%TO.N,GND*%
X60800000Y-190250000D03*
X62460000Y-186220000D03*
X62470000Y-194290000D03*
X66500000Y-184550000D03*
D13*
X66500000Y-190250000D03*
D12*
X66500000Y-195950000D03*
X70530000Y-194290000D03*
X70540000Y-186220000D03*
X72200000Y-190250000D03*
%TD*%
%TO.P,H49,1,1*%
%TO.N,GND*%
X127800000Y-190250000D03*
X129460000Y-186220000D03*
X129470000Y-194290000D03*
X133500000Y-184550000D03*
D13*
X133500000Y-190250000D03*
D12*
X133500000Y-195950000D03*
X137530000Y-194290000D03*
X137540000Y-186220000D03*
X139200000Y-190250000D03*
%TD*%
D10*
%TO.P,H35,1,1*%
%TO.N,GND*%
X108000000Y-133900000D03*
D11*
X108000000Y-140000000D03*
%TD*%
%TA.AperFunction,Conductor*%
%TO.N,GND*%
G36*
X174442539Y-30520185D02*
G01*
X174488294Y-30572989D01*
X174499500Y-30624500D01*
X174499500Y-229375500D01*
X174479815Y-229442539D01*
X174427011Y-229488294D01*
X174375500Y-229499500D01*
X25624500Y-229499500D01*
X25557461Y-229479815D01*
X25511706Y-229427011D01*
X25500500Y-229375500D01*
X25500500Y-208537814D01*
X28099500Y-208537814D01*
X28099500Y-208558097D01*
X28099500Y-208962186D01*
X28132796Y-209385250D01*
X28199182Y-209804398D01*
X28298250Y-210217045D01*
X28298254Y-210217056D01*
X28429385Y-210620641D01*
X28496000Y-210781463D01*
X28591789Y-211012716D01*
X28784450Y-211390835D01*
X28784457Y-211390848D01*
X28784460Y-211390853D01*
X28807375Y-211428246D01*
X29006184Y-211752672D01*
X29006192Y-211752683D01*
X29006198Y-211752692D01*
X29255617Y-212095989D01*
X29255627Y-212096003D01*
X29378919Y-212240358D01*
X29531231Y-212418692D01*
X29831308Y-212718769D01*
X29831314Y-212718774D01*
X30153996Y-212994372D01*
X30154010Y-212994382D01*
X30361749Y-213145313D01*
X30497328Y-213243816D01*
X30625685Y-213322473D01*
X30859146Y-213465539D01*
X30859151Y-213465542D01*
X30859156Y-213465544D01*
X30859165Y-213465550D01*
X31237284Y-213658211D01*
X31629353Y-213820612D01*
X31629358Y-213820614D01*
X31731979Y-213853957D01*
X32032955Y-213951750D01*
X32445602Y-214050818D01*
X32864750Y-214117204D01*
X33287814Y-214150500D01*
X33287822Y-214150500D01*
X33712178Y-214150500D01*
X33712186Y-214150500D01*
X34135250Y-214117204D01*
X34554398Y-214050818D01*
X34967045Y-213951750D01*
X35370647Y-213820612D01*
X35762716Y-213658211D01*
X36140835Y-213465550D01*
X36502672Y-213243816D01*
X36845997Y-212994377D01*
X37168692Y-212718769D01*
X37468769Y-212418692D01*
X37744377Y-212095997D01*
X37993816Y-211752672D01*
X38215550Y-211390835D01*
X38408211Y-211012716D01*
X38570612Y-210620647D01*
X38701750Y-210217045D01*
X38800818Y-209804398D01*
X38867204Y-209385250D01*
X38900500Y-208962186D01*
X38900500Y-208537814D01*
X44599500Y-208537814D01*
X44599500Y-208558097D01*
X44599500Y-208962186D01*
X44632796Y-209385250D01*
X44699182Y-209804398D01*
X44798250Y-210217045D01*
X44798254Y-210217056D01*
X44929385Y-210620641D01*
X44996000Y-210781463D01*
X45091789Y-211012716D01*
X45284450Y-211390835D01*
X45284457Y-211390848D01*
X45284460Y-211390853D01*
X45307375Y-211428246D01*
X45506184Y-211752672D01*
X45506192Y-211752683D01*
X45506198Y-211752692D01*
X45755617Y-212095989D01*
X45755627Y-212096003D01*
X45878919Y-212240358D01*
X46031231Y-212418692D01*
X46331308Y-212718769D01*
X46331314Y-212718774D01*
X46653996Y-212994372D01*
X46654010Y-212994382D01*
X46861749Y-213145313D01*
X46997328Y-213243816D01*
X47125685Y-213322473D01*
X47359146Y-213465539D01*
X47359151Y-213465542D01*
X47359156Y-213465544D01*
X47359165Y-213465550D01*
X47737284Y-213658211D01*
X48129353Y-213820612D01*
X48129358Y-213820614D01*
X48231979Y-213853957D01*
X48532955Y-213951750D01*
X48945602Y-214050818D01*
X49364750Y-214117204D01*
X49787814Y-214150500D01*
X49787822Y-214150500D01*
X50212178Y-214150500D01*
X50212186Y-214150500D01*
X50635250Y-214117204D01*
X51054398Y-214050818D01*
X51467045Y-213951750D01*
X51870647Y-213820612D01*
X52262716Y-213658211D01*
X52640835Y-213465550D01*
X53002672Y-213243816D01*
X53345997Y-212994377D01*
X53668692Y-212718769D01*
X53968769Y-212418692D01*
X54244377Y-212095997D01*
X54493816Y-211752672D01*
X54715550Y-211390835D01*
X54908211Y-211012716D01*
X55070612Y-210620647D01*
X55201750Y-210217045D01*
X55300818Y-209804398D01*
X55367204Y-209385250D01*
X55400500Y-208962186D01*
X55400500Y-208537814D01*
X61099500Y-208537814D01*
X61099500Y-208558097D01*
X61099500Y-208962186D01*
X61132796Y-209385250D01*
X61199182Y-209804398D01*
X61298250Y-210217045D01*
X61298254Y-210217056D01*
X61429385Y-210620641D01*
X61496000Y-210781463D01*
X61591789Y-211012716D01*
X61784450Y-211390835D01*
X61784457Y-211390848D01*
X61784460Y-211390853D01*
X61807375Y-211428246D01*
X62006184Y-211752672D01*
X62006192Y-211752683D01*
X62006198Y-211752692D01*
X62255617Y-212095989D01*
X62255627Y-212096003D01*
X62378919Y-212240358D01*
X62531231Y-212418692D01*
X62831308Y-212718769D01*
X62831314Y-212718774D01*
X63153996Y-212994372D01*
X63154010Y-212994382D01*
X63361749Y-213145313D01*
X63497328Y-213243816D01*
X63625685Y-213322473D01*
X63859146Y-213465539D01*
X63859151Y-213465542D01*
X63859156Y-213465544D01*
X63859165Y-213465550D01*
X64237284Y-213658211D01*
X64629353Y-213820612D01*
X64629358Y-213820614D01*
X64731979Y-213853957D01*
X65032955Y-213951750D01*
X65445602Y-214050818D01*
X65864750Y-214117204D01*
X66287814Y-214150500D01*
X66287822Y-214150500D01*
X66712178Y-214150500D01*
X66712186Y-214150500D01*
X67135250Y-214117204D01*
X67554398Y-214050818D01*
X67967045Y-213951750D01*
X68370647Y-213820612D01*
X68762716Y-213658211D01*
X69140835Y-213465550D01*
X69502672Y-213243816D01*
X69845997Y-212994377D01*
X70168692Y-212718769D01*
X70468769Y-212418692D01*
X70744377Y-212095997D01*
X70993816Y-211752672D01*
X71215550Y-211390835D01*
X71408211Y-211012716D01*
X71570612Y-210620647D01*
X71701750Y-210217045D01*
X71800818Y-209804398D01*
X71867204Y-209385250D01*
X71900500Y-208962186D01*
X71900500Y-208537814D01*
X77599500Y-208537814D01*
X77599500Y-208558097D01*
X77599500Y-208962186D01*
X77632796Y-209385250D01*
X77699182Y-209804398D01*
X77798250Y-210217045D01*
X77798254Y-210217056D01*
X77929385Y-210620641D01*
X77996000Y-210781463D01*
X78091789Y-211012716D01*
X78284450Y-211390835D01*
X78284457Y-211390848D01*
X78284460Y-211390853D01*
X78307375Y-211428246D01*
X78506184Y-211752672D01*
X78506192Y-211752683D01*
X78506198Y-211752692D01*
X78755617Y-212095989D01*
X78755627Y-212096003D01*
X78878919Y-212240358D01*
X79031231Y-212418692D01*
X79331308Y-212718769D01*
X79331314Y-212718774D01*
X79653996Y-212994372D01*
X79654010Y-212994382D01*
X79861749Y-213145313D01*
X79997328Y-213243816D01*
X80125685Y-213322473D01*
X80359146Y-213465539D01*
X80359151Y-213465542D01*
X80359156Y-213465544D01*
X80359165Y-213465550D01*
X80737284Y-213658211D01*
X81129353Y-213820612D01*
X81129358Y-213820614D01*
X81231979Y-213853957D01*
X81532955Y-213951750D01*
X81945602Y-214050818D01*
X82364750Y-214117204D01*
X82787814Y-214150500D01*
X82787822Y-214150500D01*
X83212178Y-214150500D01*
X83212186Y-214150500D01*
X83635250Y-214117204D01*
X84054398Y-214050818D01*
X84467045Y-213951750D01*
X84870647Y-213820612D01*
X85262716Y-213658211D01*
X85640835Y-213465550D01*
X86002672Y-213243816D01*
X86345997Y-212994377D01*
X86668692Y-212718769D01*
X86968769Y-212418692D01*
X87244377Y-212095997D01*
X87493816Y-211752672D01*
X87715550Y-211390835D01*
X87908211Y-211012716D01*
X88070612Y-210620647D01*
X88201750Y-210217045D01*
X88300818Y-209804398D01*
X88367204Y-209385250D01*
X88400500Y-208962186D01*
X88400500Y-208537814D01*
X111599500Y-208537814D01*
X111599500Y-208558097D01*
X111599500Y-208962186D01*
X111632796Y-209385250D01*
X111699182Y-209804398D01*
X111798250Y-210217045D01*
X111798254Y-210217056D01*
X111929385Y-210620641D01*
X111996000Y-210781463D01*
X112091789Y-211012716D01*
X112284450Y-211390835D01*
X112284457Y-211390848D01*
X112284460Y-211390853D01*
X112307375Y-211428246D01*
X112506184Y-211752672D01*
X112506192Y-211752683D01*
X112506198Y-211752692D01*
X112755617Y-212095989D01*
X112755627Y-212096003D01*
X112878919Y-212240358D01*
X113031231Y-212418692D01*
X113331308Y-212718769D01*
X113331314Y-212718774D01*
X113653996Y-212994372D01*
X113654010Y-212994382D01*
X113861749Y-213145313D01*
X113997328Y-213243816D01*
X114125685Y-213322473D01*
X114359146Y-213465539D01*
X114359151Y-213465542D01*
X114359156Y-213465544D01*
X114359165Y-213465550D01*
X114737284Y-213658211D01*
X115129353Y-213820612D01*
X115129358Y-213820614D01*
X115231979Y-213853957D01*
X115532955Y-213951750D01*
X115945602Y-214050818D01*
X116364750Y-214117204D01*
X116787814Y-214150500D01*
X116787822Y-214150500D01*
X117212178Y-214150500D01*
X117212186Y-214150500D01*
X117635250Y-214117204D01*
X118054398Y-214050818D01*
X118467045Y-213951750D01*
X118870647Y-213820612D01*
X119262716Y-213658211D01*
X119640835Y-213465550D01*
X120002672Y-213243816D01*
X120345997Y-212994377D01*
X120668692Y-212718769D01*
X120968769Y-212418692D01*
X121244377Y-212095997D01*
X121493816Y-211752672D01*
X121715550Y-211390835D01*
X121908211Y-211012716D01*
X122070612Y-210620647D01*
X122201750Y-210217045D01*
X122300818Y-209804398D01*
X122367204Y-209385250D01*
X122400500Y-208962186D01*
X122400500Y-208537814D01*
X128099500Y-208537814D01*
X128099500Y-208558097D01*
X128099500Y-208962186D01*
X128132796Y-209385250D01*
X128199182Y-209804398D01*
X128298250Y-210217045D01*
X128298254Y-210217056D01*
X128429385Y-210620641D01*
X128496000Y-210781463D01*
X128591789Y-211012716D01*
X128784450Y-211390835D01*
X128784457Y-211390848D01*
X128784460Y-211390853D01*
X128807375Y-211428246D01*
X129006184Y-211752672D01*
X129006192Y-211752683D01*
X129006198Y-211752692D01*
X129255617Y-212095989D01*
X129255627Y-212096003D01*
X129378919Y-212240358D01*
X129531231Y-212418692D01*
X129831308Y-212718769D01*
X129831314Y-212718774D01*
X130153996Y-212994372D01*
X130154010Y-212994382D01*
X130361749Y-213145313D01*
X130497328Y-213243816D01*
X130625685Y-213322473D01*
X130859146Y-213465539D01*
X130859151Y-213465542D01*
X130859156Y-213465544D01*
X130859165Y-213465550D01*
X131237284Y-213658211D01*
X131629353Y-213820612D01*
X131629358Y-213820614D01*
X131731979Y-213853957D01*
X132032955Y-213951750D01*
X132445602Y-214050818D01*
X132864750Y-214117204D01*
X133287814Y-214150500D01*
X133287822Y-214150500D01*
X133712178Y-214150500D01*
X133712186Y-214150500D01*
X134135250Y-214117204D01*
X134554398Y-214050818D01*
X134967045Y-213951750D01*
X135370647Y-213820612D01*
X135762716Y-213658211D01*
X136140835Y-213465550D01*
X136502672Y-213243816D01*
X136845997Y-212994377D01*
X137168692Y-212718769D01*
X137468769Y-212418692D01*
X137744377Y-212095997D01*
X137993816Y-211752672D01*
X138215550Y-211390835D01*
X138408211Y-211012716D01*
X138570612Y-210620647D01*
X138701750Y-210217045D01*
X138800818Y-209804398D01*
X138867204Y-209385250D01*
X138900500Y-208962186D01*
X138900500Y-208537814D01*
X144599500Y-208537814D01*
X144599500Y-208558097D01*
X144599500Y-208962186D01*
X144632796Y-209385250D01*
X144699182Y-209804398D01*
X144798250Y-210217045D01*
X144798254Y-210217056D01*
X144929385Y-210620641D01*
X144996000Y-210781463D01*
X145091789Y-211012716D01*
X145284450Y-211390835D01*
X145284457Y-211390848D01*
X145284460Y-211390853D01*
X145307375Y-211428246D01*
X145506184Y-211752672D01*
X145506192Y-211752683D01*
X145506198Y-211752692D01*
X145755617Y-212095989D01*
X145755627Y-212096003D01*
X145878919Y-212240358D01*
X146031231Y-212418692D01*
X146331308Y-212718769D01*
X146331314Y-212718774D01*
X146653996Y-212994372D01*
X146654010Y-212994382D01*
X146861749Y-213145313D01*
X146997328Y-213243816D01*
X147125685Y-213322473D01*
X147359146Y-213465539D01*
X147359151Y-213465542D01*
X147359156Y-213465544D01*
X147359165Y-213465550D01*
X147737284Y-213658211D01*
X148129353Y-213820612D01*
X148129358Y-213820614D01*
X148231979Y-213853957D01*
X148532955Y-213951750D01*
X148945602Y-214050818D01*
X149364750Y-214117204D01*
X149787814Y-214150500D01*
X149787822Y-214150500D01*
X150212178Y-214150500D01*
X150212186Y-214150500D01*
X150635250Y-214117204D01*
X151054398Y-214050818D01*
X151467045Y-213951750D01*
X151870647Y-213820612D01*
X152262716Y-213658211D01*
X152640835Y-213465550D01*
X153002672Y-213243816D01*
X153345997Y-212994377D01*
X153668692Y-212718769D01*
X153968769Y-212418692D01*
X154244377Y-212095997D01*
X154493816Y-211752672D01*
X154715550Y-211390835D01*
X154908211Y-211012716D01*
X155070612Y-210620647D01*
X155201750Y-210217045D01*
X155300818Y-209804398D01*
X155367204Y-209385250D01*
X155400500Y-208962186D01*
X155400500Y-208537814D01*
X161099500Y-208537814D01*
X161099500Y-208558097D01*
X161099500Y-208962186D01*
X161132796Y-209385250D01*
X161199182Y-209804398D01*
X161298250Y-210217045D01*
X161298254Y-210217056D01*
X161429385Y-210620641D01*
X161496000Y-210781463D01*
X161591789Y-211012716D01*
X161784450Y-211390835D01*
X161784457Y-211390848D01*
X161784460Y-211390853D01*
X161807375Y-211428246D01*
X162006184Y-211752672D01*
X162006192Y-211752683D01*
X162006198Y-211752692D01*
X162255617Y-212095989D01*
X162255627Y-212096003D01*
X162378919Y-212240358D01*
X162531231Y-212418692D01*
X162831308Y-212718769D01*
X162831314Y-212718774D01*
X163153996Y-212994372D01*
X163154010Y-212994382D01*
X163361749Y-213145313D01*
X163497328Y-213243816D01*
X163625685Y-213322473D01*
X163859146Y-213465539D01*
X163859151Y-213465542D01*
X163859156Y-213465544D01*
X163859165Y-213465550D01*
X164237284Y-213658211D01*
X164629353Y-213820612D01*
X164629358Y-213820614D01*
X164731979Y-213853957D01*
X165032955Y-213951750D01*
X165445602Y-214050818D01*
X165864750Y-214117204D01*
X166287814Y-214150500D01*
X166287822Y-214150500D01*
X166712178Y-214150500D01*
X166712186Y-214150500D01*
X167135250Y-214117204D01*
X167554398Y-214050818D01*
X167967045Y-213951750D01*
X168370647Y-213820612D01*
X168762716Y-213658211D01*
X169140835Y-213465550D01*
X169502672Y-213243816D01*
X169845997Y-212994377D01*
X170168692Y-212718769D01*
X170468769Y-212418692D01*
X170744377Y-212095997D01*
X170993816Y-211752672D01*
X171215550Y-211390835D01*
X171408211Y-211012716D01*
X171570612Y-210620647D01*
X171701750Y-210217045D01*
X171800818Y-209804398D01*
X171867204Y-209385250D01*
X171900500Y-208962186D01*
X171900500Y-208537814D01*
X171867204Y-208114750D01*
X171800818Y-207695602D01*
X171701750Y-207282955D01*
X171570612Y-206879353D01*
X171408211Y-206487284D01*
X171215550Y-206109165D01*
X171215544Y-206109156D01*
X171215542Y-206109151D01*
X171215539Y-206109146D01*
X170993823Y-205747340D01*
X170993816Y-205747328D01*
X170744377Y-205404003D01*
X170744372Y-205403996D01*
X170468774Y-205081314D01*
X170468769Y-205081308D01*
X170168692Y-204781231D01*
X170168685Y-204781225D01*
X169846003Y-204505627D01*
X169845989Y-204505617D01*
X169502692Y-204256198D01*
X169502683Y-204256192D01*
X169502672Y-204256184D01*
X169502659Y-204256176D01*
X169140853Y-204034460D01*
X169140848Y-204034457D01*
X169140838Y-204034452D01*
X169140835Y-204034450D01*
X168762716Y-203841789D01*
X168762702Y-203841783D01*
X168370641Y-203679385D01*
X168083478Y-203586081D01*
X167967045Y-203548250D01*
X167554398Y-203449182D01*
X167135250Y-203382796D01*
X166712191Y-203349500D01*
X166712186Y-203349500D01*
X166287814Y-203349500D01*
X166287808Y-203349500D01*
X165864749Y-203382796D01*
X165864748Y-203382796D01*
X165445607Y-203449181D01*
X165445604Y-203449181D01*
X165445602Y-203449182D01*
X165297817Y-203484661D01*
X165032966Y-203548247D01*
X165032960Y-203548248D01*
X165032955Y-203548250D01*
X165032943Y-203548254D01*
X164629358Y-203679385D01*
X164237297Y-203841783D01*
X164237284Y-203841789D01*
X163859151Y-204034457D01*
X163859146Y-204034460D01*
X163497340Y-204256176D01*
X163497307Y-204256198D01*
X163154010Y-204505617D01*
X163153996Y-204505627D01*
X162831314Y-204781225D01*
X162831300Y-204781238D01*
X162531238Y-205081300D01*
X162531225Y-205081314D01*
X162255627Y-205403996D01*
X162255617Y-205404010D01*
X162006198Y-205747307D01*
X162006176Y-205747340D01*
X161784460Y-206109146D01*
X161784457Y-206109151D01*
X161591789Y-206487284D01*
X161591783Y-206487297D01*
X161429385Y-206879358D01*
X161298254Y-207282943D01*
X161298247Y-207282966D01*
X161199181Y-207695607D01*
X161183000Y-207797774D01*
X161132796Y-208114750D01*
X161099500Y-208537814D01*
X155400500Y-208537814D01*
X155367204Y-208114750D01*
X155300818Y-207695602D01*
X155201750Y-207282955D01*
X155070612Y-206879353D01*
X154908211Y-206487284D01*
X154715550Y-206109165D01*
X154715544Y-206109156D01*
X154715542Y-206109151D01*
X154715539Y-206109146D01*
X154493823Y-205747340D01*
X154493816Y-205747328D01*
X154244377Y-205404003D01*
X154244372Y-205403996D01*
X153968774Y-205081314D01*
X153968769Y-205081308D01*
X153668692Y-204781231D01*
X153668685Y-204781225D01*
X153346003Y-204505627D01*
X153345989Y-204505617D01*
X153002692Y-204256198D01*
X153002683Y-204256192D01*
X153002672Y-204256184D01*
X153002659Y-204256176D01*
X152640853Y-204034460D01*
X152640848Y-204034457D01*
X152640838Y-204034452D01*
X152640835Y-204034450D01*
X152262716Y-203841789D01*
X152262702Y-203841783D01*
X151870641Y-203679385D01*
X151583478Y-203586081D01*
X151467045Y-203548250D01*
X151054398Y-203449182D01*
X150635250Y-203382796D01*
X150212191Y-203349500D01*
X150212186Y-203349500D01*
X149787814Y-203349500D01*
X149787808Y-203349500D01*
X149364749Y-203382796D01*
X149364748Y-203382796D01*
X148945607Y-203449181D01*
X148945604Y-203449181D01*
X148945602Y-203449182D01*
X148797817Y-203484661D01*
X148532966Y-203548247D01*
X148532960Y-203548248D01*
X148532955Y-203548250D01*
X148532943Y-203548254D01*
X148129358Y-203679385D01*
X147737297Y-203841783D01*
X147737284Y-203841789D01*
X147359151Y-204034457D01*
X147359146Y-204034460D01*
X146997340Y-204256176D01*
X146997307Y-204256198D01*
X146654010Y-204505617D01*
X146653996Y-204505627D01*
X146331314Y-204781225D01*
X146331300Y-204781238D01*
X146031238Y-205081300D01*
X146031225Y-205081314D01*
X145755627Y-205403996D01*
X145755617Y-205404010D01*
X145506198Y-205747307D01*
X145506176Y-205747340D01*
X145284460Y-206109146D01*
X145284457Y-206109151D01*
X145091789Y-206487284D01*
X145091783Y-206487297D01*
X144929385Y-206879358D01*
X144798254Y-207282943D01*
X144798247Y-207282966D01*
X144699181Y-207695607D01*
X144683000Y-207797774D01*
X144632796Y-208114750D01*
X144599500Y-208537814D01*
X138900500Y-208537814D01*
X138867204Y-208114750D01*
X138800818Y-207695602D01*
X138701750Y-207282955D01*
X138570612Y-206879353D01*
X138408211Y-206487284D01*
X138215550Y-206109165D01*
X138215544Y-206109156D01*
X138215542Y-206109151D01*
X138215539Y-206109146D01*
X137993823Y-205747340D01*
X137993816Y-205747328D01*
X137744377Y-205404003D01*
X137744372Y-205403996D01*
X137468774Y-205081314D01*
X137468769Y-205081308D01*
X137168692Y-204781231D01*
X137168685Y-204781225D01*
X136846003Y-204505627D01*
X136845989Y-204505617D01*
X136502692Y-204256198D01*
X136502683Y-204256192D01*
X136502672Y-204256184D01*
X136502659Y-204256176D01*
X136140853Y-204034460D01*
X136140848Y-204034457D01*
X136140838Y-204034452D01*
X136140835Y-204034450D01*
X135762716Y-203841789D01*
X135762702Y-203841783D01*
X135370641Y-203679385D01*
X135083478Y-203586081D01*
X134967045Y-203548250D01*
X134554398Y-203449182D01*
X134135250Y-203382796D01*
X133712191Y-203349500D01*
X133712186Y-203349500D01*
X133287814Y-203349500D01*
X133287808Y-203349500D01*
X132864749Y-203382796D01*
X132864748Y-203382796D01*
X132445607Y-203449181D01*
X132445604Y-203449181D01*
X132445602Y-203449182D01*
X132297817Y-203484661D01*
X132032966Y-203548247D01*
X132032960Y-203548248D01*
X132032955Y-203548250D01*
X132032943Y-203548254D01*
X131629358Y-203679385D01*
X131237297Y-203841783D01*
X131237284Y-203841789D01*
X130859151Y-204034457D01*
X130859146Y-204034460D01*
X130497340Y-204256176D01*
X130497307Y-204256198D01*
X130154010Y-204505617D01*
X130153996Y-204505627D01*
X129831314Y-204781225D01*
X129831300Y-204781238D01*
X129531238Y-205081300D01*
X129531225Y-205081314D01*
X129255627Y-205403996D01*
X129255617Y-205404010D01*
X129006198Y-205747307D01*
X129006176Y-205747340D01*
X128784460Y-206109146D01*
X128784457Y-206109151D01*
X128591789Y-206487284D01*
X128591783Y-206487297D01*
X128429385Y-206879358D01*
X128298254Y-207282943D01*
X128298247Y-207282966D01*
X128199181Y-207695607D01*
X128183000Y-207797774D01*
X128132796Y-208114750D01*
X128099500Y-208537814D01*
X122400500Y-208537814D01*
X122367204Y-208114750D01*
X122300818Y-207695602D01*
X122201750Y-207282955D01*
X122070612Y-206879353D01*
X121908211Y-206487284D01*
X121715550Y-206109165D01*
X121715544Y-206109156D01*
X121715542Y-206109151D01*
X121715539Y-206109146D01*
X121493823Y-205747340D01*
X121493816Y-205747328D01*
X121244377Y-205404003D01*
X121244372Y-205403996D01*
X120968774Y-205081314D01*
X120968769Y-205081308D01*
X120668692Y-204781231D01*
X120668685Y-204781225D01*
X120346003Y-204505627D01*
X120345989Y-204505617D01*
X120002692Y-204256198D01*
X120002683Y-204256192D01*
X120002672Y-204256184D01*
X120002659Y-204256176D01*
X119640853Y-204034460D01*
X119640848Y-204034457D01*
X119640838Y-204034452D01*
X119640835Y-204034450D01*
X119262716Y-203841789D01*
X119262702Y-203841783D01*
X118870641Y-203679385D01*
X118583478Y-203586081D01*
X118467045Y-203548250D01*
X118054398Y-203449182D01*
X117635250Y-203382796D01*
X117212191Y-203349500D01*
X117212186Y-203349500D01*
X116787814Y-203349500D01*
X116787808Y-203349500D01*
X116364749Y-203382796D01*
X116364748Y-203382796D01*
X115945607Y-203449181D01*
X115945604Y-203449181D01*
X115945602Y-203449182D01*
X115797817Y-203484661D01*
X115532966Y-203548247D01*
X115532960Y-203548248D01*
X115532955Y-203548250D01*
X115532943Y-203548254D01*
X115129358Y-203679385D01*
X114737297Y-203841783D01*
X114737284Y-203841789D01*
X114359151Y-204034457D01*
X114359146Y-204034460D01*
X113997340Y-204256176D01*
X113997307Y-204256198D01*
X113654010Y-204505617D01*
X113653996Y-204505627D01*
X113331314Y-204781225D01*
X113331300Y-204781238D01*
X113031238Y-205081300D01*
X113031225Y-205081314D01*
X112755627Y-205403996D01*
X112755617Y-205404010D01*
X112506198Y-205747307D01*
X112506176Y-205747340D01*
X112284460Y-206109146D01*
X112284457Y-206109151D01*
X112091789Y-206487284D01*
X112091783Y-206487297D01*
X111929385Y-206879358D01*
X111798254Y-207282943D01*
X111798247Y-207282966D01*
X111699181Y-207695607D01*
X111683000Y-207797774D01*
X111632796Y-208114750D01*
X111599500Y-208537814D01*
X88400500Y-208537814D01*
X88367204Y-208114750D01*
X88300818Y-207695602D01*
X88201750Y-207282955D01*
X88070612Y-206879353D01*
X87908211Y-206487284D01*
X87715550Y-206109165D01*
X87715544Y-206109156D01*
X87715542Y-206109151D01*
X87715539Y-206109146D01*
X87493823Y-205747340D01*
X87493816Y-205747328D01*
X87244377Y-205404003D01*
X87244372Y-205403996D01*
X86968774Y-205081314D01*
X86968769Y-205081308D01*
X86668692Y-204781231D01*
X86668685Y-204781225D01*
X86346003Y-204505627D01*
X86345989Y-204505617D01*
X86002692Y-204256198D01*
X86002683Y-204256192D01*
X86002672Y-204256184D01*
X86002659Y-204256176D01*
X85640853Y-204034460D01*
X85640848Y-204034457D01*
X85640838Y-204034452D01*
X85640835Y-204034450D01*
X85262716Y-203841789D01*
X85262702Y-203841783D01*
X84870641Y-203679385D01*
X84583478Y-203586081D01*
X84467045Y-203548250D01*
X84054398Y-203449182D01*
X83635250Y-203382796D01*
X83212191Y-203349500D01*
X83212186Y-203349500D01*
X82787814Y-203349500D01*
X82787808Y-203349500D01*
X82364749Y-203382796D01*
X82364748Y-203382796D01*
X81945607Y-203449181D01*
X81945604Y-203449181D01*
X81945602Y-203449182D01*
X81797817Y-203484661D01*
X81532966Y-203548247D01*
X81532960Y-203548248D01*
X81532955Y-203548250D01*
X81532943Y-203548254D01*
X81129358Y-203679385D01*
X80737297Y-203841783D01*
X80737284Y-203841789D01*
X80359151Y-204034457D01*
X80359146Y-204034460D01*
X79997340Y-204256176D01*
X79997307Y-204256198D01*
X79654010Y-204505617D01*
X79653996Y-204505627D01*
X79331314Y-204781225D01*
X79331300Y-204781238D01*
X79031238Y-205081300D01*
X79031225Y-205081314D01*
X78755627Y-205403996D01*
X78755617Y-205404010D01*
X78506198Y-205747307D01*
X78506176Y-205747340D01*
X78284460Y-206109146D01*
X78284457Y-206109151D01*
X78091789Y-206487284D01*
X78091783Y-206487297D01*
X77929385Y-206879358D01*
X77798254Y-207282943D01*
X77798247Y-207282966D01*
X77699181Y-207695607D01*
X77683000Y-207797774D01*
X77632796Y-208114750D01*
X77599500Y-208537814D01*
X71900500Y-208537814D01*
X71867204Y-208114750D01*
X71800818Y-207695602D01*
X71701750Y-207282955D01*
X71570612Y-206879353D01*
X71408211Y-206487284D01*
X71215550Y-206109165D01*
X71215544Y-206109156D01*
X71215542Y-206109151D01*
X71215539Y-206109146D01*
X70993823Y-205747340D01*
X70993816Y-205747328D01*
X70744377Y-205404003D01*
X70744372Y-205403996D01*
X70468774Y-205081314D01*
X70468769Y-205081308D01*
X70168692Y-204781231D01*
X70168685Y-204781225D01*
X69846003Y-204505627D01*
X69845989Y-204505617D01*
X69502692Y-204256198D01*
X69502683Y-204256192D01*
X69502672Y-204256184D01*
X69502659Y-204256176D01*
X69140853Y-204034460D01*
X69140848Y-204034457D01*
X69140838Y-204034452D01*
X69140835Y-204034450D01*
X68762716Y-203841789D01*
X68762702Y-203841783D01*
X68370641Y-203679385D01*
X68083478Y-203586081D01*
X67967045Y-203548250D01*
X67554398Y-203449182D01*
X67135250Y-203382796D01*
X66712191Y-203349500D01*
X66712186Y-203349500D01*
X66287814Y-203349500D01*
X66287808Y-203349500D01*
X65864749Y-203382796D01*
X65864748Y-203382796D01*
X65445607Y-203449181D01*
X65445604Y-203449181D01*
X65445602Y-203449182D01*
X65297817Y-203484661D01*
X65032966Y-203548247D01*
X65032960Y-203548248D01*
X65032955Y-203548250D01*
X65032943Y-203548254D01*
X64629358Y-203679385D01*
X64237297Y-203841783D01*
X64237284Y-203841789D01*
X63859151Y-204034457D01*
X63859146Y-204034460D01*
X63497340Y-204256176D01*
X63497307Y-204256198D01*
X63154010Y-204505617D01*
X63153996Y-204505627D01*
X62831314Y-204781225D01*
X62831300Y-204781238D01*
X62531238Y-205081300D01*
X62531225Y-205081314D01*
X62255627Y-205403996D01*
X62255617Y-205404010D01*
X62006198Y-205747307D01*
X62006176Y-205747340D01*
X61784460Y-206109146D01*
X61784457Y-206109151D01*
X61591789Y-206487284D01*
X61591783Y-206487297D01*
X61429385Y-206879358D01*
X61298254Y-207282943D01*
X61298247Y-207282966D01*
X61199181Y-207695607D01*
X61183000Y-207797774D01*
X61132796Y-208114750D01*
X61099500Y-208537814D01*
X55400500Y-208537814D01*
X55367204Y-208114750D01*
X55300818Y-207695602D01*
X55201750Y-207282955D01*
X55070612Y-206879353D01*
X54908211Y-206487284D01*
X54715550Y-206109165D01*
X54715544Y-206109156D01*
X54715542Y-206109151D01*
X54715539Y-206109146D01*
X54493823Y-205747340D01*
X54493816Y-205747328D01*
X54244377Y-205404003D01*
X54244372Y-205403996D01*
X53968774Y-205081314D01*
X53968769Y-205081308D01*
X53668692Y-204781231D01*
X53668685Y-204781225D01*
X53346003Y-204505627D01*
X53345989Y-204505617D01*
X53002692Y-204256198D01*
X53002683Y-204256192D01*
X53002672Y-204256184D01*
X53002659Y-204256176D01*
X52640853Y-204034460D01*
X52640848Y-204034457D01*
X52640838Y-204034452D01*
X52640835Y-204034450D01*
X52262716Y-203841789D01*
X52262702Y-203841783D01*
X51870641Y-203679385D01*
X51583478Y-203586081D01*
X51467045Y-203548250D01*
X51054398Y-203449182D01*
X50635250Y-203382796D01*
X50212191Y-203349500D01*
X50212186Y-203349500D01*
X49787814Y-203349500D01*
X49787808Y-203349500D01*
X49364749Y-203382796D01*
X49364748Y-203382796D01*
X48945607Y-203449181D01*
X48945604Y-203449181D01*
X48945602Y-203449182D01*
X48797817Y-203484661D01*
X48532966Y-203548247D01*
X48532960Y-203548248D01*
X48532955Y-203548250D01*
X48532943Y-203548254D01*
X48129358Y-203679385D01*
X47737297Y-203841783D01*
X47737284Y-203841789D01*
X47359151Y-204034457D01*
X47359146Y-204034460D01*
X46997340Y-204256176D01*
X46997307Y-204256198D01*
X46654010Y-204505617D01*
X46653996Y-204505627D01*
X46331314Y-204781225D01*
X46331300Y-204781238D01*
X46031238Y-205081300D01*
X46031225Y-205081314D01*
X45755627Y-205403996D01*
X45755617Y-205404010D01*
X45506198Y-205747307D01*
X45506176Y-205747340D01*
X45284460Y-206109146D01*
X45284457Y-206109151D01*
X45091789Y-206487284D01*
X45091783Y-206487297D01*
X44929385Y-206879358D01*
X44798254Y-207282943D01*
X44798247Y-207282966D01*
X44699181Y-207695607D01*
X44683000Y-207797774D01*
X44632796Y-208114750D01*
X44599500Y-208537814D01*
X38900500Y-208537814D01*
X38867204Y-208114750D01*
X38800818Y-207695602D01*
X38701750Y-207282955D01*
X38570612Y-206879353D01*
X38408211Y-206487284D01*
X38215550Y-206109165D01*
X38215544Y-206109156D01*
X38215542Y-206109151D01*
X38215539Y-206109146D01*
X37993823Y-205747340D01*
X37993816Y-205747328D01*
X37744377Y-205404003D01*
X37744372Y-205403996D01*
X37468774Y-205081314D01*
X37468769Y-205081308D01*
X37168692Y-204781231D01*
X37168685Y-204781225D01*
X36846003Y-204505627D01*
X36845989Y-204505617D01*
X36502692Y-204256198D01*
X36502683Y-204256192D01*
X36502672Y-204256184D01*
X36502659Y-204256176D01*
X36140853Y-204034460D01*
X36140848Y-204034457D01*
X36140838Y-204034452D01*
X36140835Y-204034450D01*
X35762716Y-203841789D01*
X35762702Y-203841783D01*
X35370641Y-203679385D01*
X35083478Y-203586081D01*
X34967045Y-203548250D01*
X34554398Y-203449182D01*
X34135250Y-203382796D01*
X33712191Y-203349500D01*
X33712186Y-203349500D01*
X33287814Y-203349500D01*
X33287808Y-203349500D01*
X32864749Y-203382796D01*
X32864748Y-203382796D01*
X32445607Y-203449181D01*
X32445604Y-203449181D01*
X32445602Y-203449182D01*
X32297817Y-203484661D01*
X32032966Y-203548247D01*
X32032960Y-203548248D01*
X32032955Y-203548250D01*
X32032943Y-203548254D01*
X31629358Y-203679385D01*
X31237297Y-203841783D01*
X31237284Y-203841789D01*
X30859151Y-204034457D01*
X30859146Y-204034460D01*
X30497340Y-204256176D01*
X30497307Y-204256198D01*
X30154010Y-204505617D01*
X30153996Y-204505627D01*
X29831314Y-204781225D01*
X29831300Y-204781238D01*
X29531238Y-205081300D01*
X29531225Y-205081314D01*
X29255627Y-205403996D01*
X29255617Y-205404010D01*
X29006198Y-205747307D01*
X29006176Y-205747340D01*
X28784460Y-206109146D01*
X28784457Y-206109151D01*
X28591789Y-206487284D01*
X28591783Y-206487297D01*
X28429385Y-206879358D01*
X28298254Y-207282943D01*
X28298247Y-207282966D01*
X28199181Y-207695607D01*
X28183000Y-207797774D01*
X28132796Y-208114750D01*
X28099500Y-208537814D01*
X25500500Y-208537814D01*
X25500500Y-190037814D01*
X28099500Y-190037814D01*
X28099500Y-190058097D01*
X28099500Y-190462186D01*
X28132796Y-190885250D01*
X28199182Y-191304398D01*
X28298250Y-191717045D01*
X28298254Y-191717056D01*
X28429385Y-192120641D01*
X28496000Y-192281463D01*
X28591789Y-192512716D01*
X28784450Y-192890835D01*
X28784457Y-192890848D01*
X28784460Y-192890853D01*
X28807375Y-192928246D01*
X29006184Y-193252672D01*
X29006192Y-193252683D01*
X29006198Y-193252692D01*
X29255617Y-193595989D01*
X29255627Y-193596003D01*
X29378919Y-193740358D01*
X29531231Y-193918692D01*
X29831308Y-194218769D01*
X29831314Y-194218774D01*
X30153996Y-194494372D01*
X30154010Y-194494382D01*
X30361749Y-194645313D01*
X30497328Y-194743816D01*
X30625685Y-194822473D01*
X30859146Y-194965539D01*
X30859151Y-194965542D01*
X30859156Y-194965544D01*
X30859165Y-194965550D01*
X31237284Y-195158211D01*
X31629353Y-195320612D01*
X31629358Y-195320614D01*
X31731979Y-195353957D01*
X32032955Y-195451750D01*
X32445602Y-195550818D01*
X32864750Y-195617204D01*
X33287814Y-195650500D01*
X33287822Y-195650500D01*
X33712178Y-195650500D01*
X33712186Y-195650500D01*
X34135250Y-195617204D01*
X34554398Y-195550818D01*
X34967045Y-195451750D01*
X35370647Y-195320612D01*
X35762716Y-195158211D01*
X36140835Y-194965550D01*
X36502672Y-194743816D01*
X36845997Y-194494377D01*
X37168692Y-194218769D01*
X37468769Y-193918692D01*
X37744377Y-193595997D01*
X37993816Y-193252672D01*
X38215550Y-192890835D01*
X38408211Y-192512716D01*
X38570612Y-192120647D01*
X38701750Y-191717045D01*
X38800818Y-191304398D01*
X38867204Y-190885250D01*
X38900500Y-190462186D01*
X38900500Y-190037814D01*
X44599500Y-190037814D01*
X44599500Y-190058097D01*
X44599500Y-190462186D01*
X44632796Y-190885250D01*
X44699182Y-191304398D01*
X44798250Y-191717045D01*
X44798254Y-191717056D01*
X44929385Y-192120641D01*
X44996000Y-192281463D01*
X45091789Y-192512716D01*
X45284450Y-192890835D01*
X45284457Y-192890848D01*
X45284460Y-192890853D01*
X45307375Y-192928246D01*
X45506184Y-193252672D01*
X45506192Y-193252683D01*
X45506198Y-193252692D01*
X45755617Y-193595989D01*
X45755627Y-193596003D01*
X45878919Y-193740358D01*
X46031231Y-193918692D01*
X46331308Y-194218769D01*
X46331314Y-194218774D01*
X46653996Y-194494372D01*
X46654010Y-194494382D01*
X46861749Y-194645313D01*
X46997328Y-194743816D01*
X47125685Y-194822473D01*
X47359146Y-194965539D01*
X47359151Y-194965542D01*
X47359156Y-194965544D01*
X47359165Y-194965550D01*
X47737284Y-195158211D01*
X48129353Y-195320612D01*
X48129358Y-195320614D01*
X48231979Y-195353957D01*
X48532955Y-195451750D01*
X48945602Y-195550818D01*
X49364750Y-195617204D01*
X49787814Y-195650500D01*
X49787822Y-195650500D01*
X50212178Y-195650500D01*
X50212186Y-195650500D01*
X50635250Y-195617204D01*
X51054398Y-195550818D01*
X51467045Y-195451750D01*
X51870647Y-195320612D01*
X52262716Y-195158211D01*
X52640835Y-194965550D01*
X53002672Y-194743816D01*
X53345997Y-194494377D01*
X53668692Y-194218769D01*
X53968769Y-193918692D01*
X54244377Y-193595997D01*
X54493816Y-193252672D01*
X54715550Y-192890835D01*
X54908211Y-192512716D01*
X55070612Y-192120647D01*
X55201750Y-191717045D01*
X55300818Y-191304398D01*
X55367204Y-190885250D01*
X55400500Y-190462186D01*
X55400500Y-190037814D01*
X61099500Y-190037814D01*
X61099500Y-190058097D01*
X61099500Y-190462186D01*
X61132796Y-190885250D01*
X61199182Y-191304398D01*
X61298250Y-191717045D01*
X61298254Y-191717056D01*
X61429385Y-192120641D01*
X61496000Y-192281463D01*
X61591789Y-192512716D01*
X61784450Y-192890835D01*
X61784457Y-192890848D01*
X61784460Y-192890853D01*
X61807375Y-192928246D01*
X62006184Y-193252672D01*
X62006192Y-193252683D01*
X62006198Y-193252692D01*
X62255617Y-193595989D01*
X62255627Y-193596003D01*
X62378919Y-193740358D01*
X62531231Y-193918692D01*
X62831308Y-194218769D01*
X62831314Y-194218774D01*
X63153996Y-194494372D01*
X63154010Y-194494382D01*
X63361749Y-194645313D01*
X63497328Y-194743816D01*
X63625685Y-194822473D01*
X63859146Y-194965539D01*
X63859151Y-194965542D01*
X63859156Y-194965544D01*
X63859165Y-194965550D01*
X64237284Y-195158211D01*
X64629353Y-195320612D01*
X64629358Y-195320614D01*
X64731979Y-195353957D01*
X65032955Y-195451750D01*
X65445602Y-195550818D01*
X65864750Y-195617204D01*
X66287814Y-195650500D01*
X66287822Y-195650500D01*
X66712178Y-195650500D01*
X66712186Y-195650500D01*
X67135250Y-195617204D01*
X67554398Y-195550818D01*
X67967045Y-195451750D01*
X68370647Y-195320612D01*
X68762716Y-195158211D01*
X69140835Y-194965550D01*
X69502672Y-194743816D01*
X69845997Y-194494377D01*
X70168692Y-194218769D01*
X70468769Y-193918692D01*
X70744377Y-193595997D01*
X70993816Y-193252672D01*
X71215550Y-192890835D01*
X71408211Y-192512716D01*
X71570612Y-192120647D01*
X71701750Y-191717045D01*
X71800818Y-191304398D01*
X71867204Y-190885250D01*
X71900500Y-190462186D01*
X71900500Y-190037814D01*
X128099500Y-190037814D01*
X128099500Y-190058097D01*
X128099500Y-190462186D01*
X128132796Y-190885250D01*
X128199182Y-191304398D01*
X128298250Y-191717045D01*
X128298254Y-191717056D01*
X128429385Y-192120641D01*
X128496000Y-192281463D01*
X128591789Y-192512716D01*
X128784450Y-192890835D01*
X128784457Y-192890848D01*
X128784460Y-192890853D01*
X128807375Y-192928246D01*
X129006184Y-193252672D01*
X129006192Y-193252683D01*
X129006198Y-193252692D01*
X129255617Y-193595989D01*
X129255627Y-193596003D01*
X129378919Y-193740358D01*
X129531231Y-193918692D01*
X129831308Y-194218769D01*
X129831314Y-194218774D01*
X130153996Y-194494372D01*
X130154010Y-194494382D01*
X130361749Y-194645313D01*
X130497328Y-194743816D01*
X130625685Y-194822473D01*
X130859146Y-194965539D01*
X130859151Y-194965542D01*
X130859156Y-194965544D01*
X130859165Y-194965550D01*
X131237284Y-195158211D01*
X131629353Y-195320612D01*
X131629358Y-195320614D01*
X131731979Y-195353957D01*
X132032955Y-195451750D01*
X132445602Y-195550818D01*
X132864750Y-195617204D01*
X133287814Y-195650500D01*
X133287822Y-195650500D01*
X133712178Y-195650500D01*
X133712186Y-195650500D01*
X134135250Y-195617204D01*
X134554398Y-195550818D01*
X134967045Y-195451750D01*
X135370647Y-195320612D01*
X135762716Y-195158211D01*
X136140835Y-194965550D01*
X136502672Y-194743816D01*
X136845997Y-194494377D01*
X137168692Y-194218769D01*
X137468769Y-193918692D01*
X137744377Y-193595997D01*
X137993816Y-193252672D01*
X138215550Y-192890835D01*
X138408211Y-192512716D01*
X138570612Y-192120647D01*
X138701750Y-191717045D01*
X138800818Y-191304398D01*
X138867204Y-190885250D01*
X138900500Y-190462186D01*
X138900500Y-190037814D01*
X144599500Y-190037814D01*
X144599500Y-190058097D01*
X144599500Y-190462186D01*
X144632796Y-190885250D01*
X144699182Y-191304398D01*
X144798250Y-191717045D01*
X144798254Y-191717056D01*
X144929385Y-192120641D01*
X144996000Y-192281463D01*
X145091789Y-192512716D01*
X145284450Y-192890835D01*
X145284457Y-192890848D01*
X145284460Y-192890853D01*
X145307375Y-192928246D01*
X145506184Y-193252672D01*
X145506192Y-193252683D01*
X145506198Y-193252692D01*
X145755617Y-193595989D01*
X145755627Y-193596003D01*
X145878919Y-193740358D01*
X146031231Y-193918692D01*
X146331308Y-194218769D01*
X146331314Y-194218774D01*
X146653996Y-194494372D01*
X146654010Y-194494382D01*
X146861749Y-194645313D01*
X146997328Y-194743816D01*
X147125685Y-194822473D01*
X147359146Y-194965539D01*
X147359151Y-194965542D01*
X147359156Y-194965544D01*
X147359165Y-194965550D01*
X147737284Y-195158211D01*
X148129353Y-195320612D01*
X148129358Y-195320614D01*
X148231979Y-195353957D01*
X148532955Y-195451750D01*
X148945602Y-195550818D01*
X149364750Y-195617204D01*
X149787814Y-195650500D01*
X149787822Y-195650500D01*
X150212178Y-195650500D01*
X150212186Y-195650500D01*
X150635250Y-195617204D01*
X151054398Y-195550818D01*
X151467045Y-195451750D01*
X151870647Y-195320612D01*
X152262716Y-195158211D01*
X152640835Y-194965550D01*
X153002672Y-194743816D01*
X153345997Y-194494377D01*
X153668692Y-194218769D01*
X153968769Y-193918692D01*
X154244377Y-193595997D01*
X154493816Y-193252672D01*
X154715550Y-192890835D01*
X154908211Y-192512716D01*
X155070612Y-192120647D01*
X155201750Y-191717045D01*
X155300818Y-191304398D01*
X155367204Y-190885250D01*
X155400500Y-190462186D01*
X155400500Y-190037814D01*
X161099500Y-190037814D01*
X161099500Y-190058097D01*
X161099500Y-190462186D01*
X161132796Y-190885250D01*
X161199182Y-191304398D01*
X161298250Y-191717045D01*
X161298254Y-191717056D01*
X161429385Y-192120641D01*
X161496000Y-192281463D01*
X161591789Y-192512716D01*
X161784450Y-192890835D01*
X161784457Y-192890848D01*
X161784460Y-192890853D01*
X161807375Y-192928246D01*
X162006184Y-193252672D01*
X162006192Y-193252683D01*
X162006198Y-193252692D01*
X162255617Y-193595989D01*
X162255627Y-193596003D01*
X162378919Y-193740358D01*
X162531231Y-193918692D01*
X162831308Y-194218769D01*
X162831314Y-194218774D01*
X163153996Y-194494372D01*
X163154010Y-194494382D01*
X163361749Y-194645313D01*
X163497328Y-194743816D01*
X163625685Y-194822473D01*
X163859146Y-194965539D01*
X163859151Y-194965542D01*
X163859156Y-194965544D01*
X163859165Y-194965550D01*
X164237284Y-195158211D01*
X164629353Y-195320612D01*
X164629358Y-195320614D01*
X164731979Y-195353957D01*
X165032955Y-195451750D01*
X165445602Y-195550818D01*
X165864750Y-195617204D01*
X166287814Y-195650500D01*
X166287822Y-195650500D01*
X166712178Y-195650500D01*
X166712186Y-195650500D01*
X167135250Y-195617204D01*
X167554398Y-195550818D01*
X167967045Y-195451750D01*
X168370647Y-195320612D01*
X168762716Y-195158211D01*
X169140835Y-194965550D01*
X169502672Y-194743816D01*
X169845997Y-194494377D01*
X170168692Y-194218769D01*
X170468769Y-193918692D01*
X170744377Y-193595997D01*
X170993816Y-193252672D01*
X171215550Y-192890835D01*
X171408211Y-192512716D01*
X171570612Y-192120647D01*
X171701750Y-191717045D01*
X171800818Y-191304398D01*
X171867204Y-190885250D01*
X171900500Y-190462186D01*
X171900500Y-190037814D01*
X171867204Y-189614750D01*
X171800818Y-189195602D01*
X171701750Y-188782955D01*
X171570612Y-188379353D01*
X171408211Y-187987284D01*
X171215550Y-187609165D01*
X171215544Y-187609156D01*
X171215542Y-187609151D01*
X171215539Y-187609146D01*
X170993823Y-187247340D01*
X170993816Y-187247328D01*
X170744377Y-186904003D01*
X170744372Y-186903996D01*
X170468774Y-186581314D01*
X170468769Y-186581308D01*
X170168692Y-186281231D01*
X170168685Y-186281225D01*
X169846003Y-186005627D01*
X169845989Y-186005617D01*
X169502692Y-185756198D01*
X169502683Y-185756192D01*
X169502672Y-185756184D01*
X169502659Y-185756176D01*
X169140853Y-185534460D01*
X169140848Y-185534457D01*
X169140838Y-185534452D01*
X169140835Y-185534450D01*
X168762716Y-185341789D01*
X168762702Y-185341783D01*
X168370641Y-185179385D01*
X168083478Y-185086081D01*
X167967045Y-185048250D01*
X167554398Y-184949182D01*
X167135250Y-184882796D01*
X166712191Y-184849500D01*
X166712186Y-184849500D01*
X166287814Y-184849500D01*
X166287808Y-184849500D01*
X165864749Y-184882796D01*
X165864748Y-184882796D01*
X165445607Y-184949181D01*
X165445604Y-184949181D01*
X165445602Y-184949182D01*
X165297817Y-184984661D01*
X165032966Y-185048247D01*
X165032960Y-185048248D01*
X165032955Y-185048250D01*
X165032943Y-185048254D01*
X164629358Y-185179385D01*
X164237297Y-185341783D01*
X164237284Y-185341789D01*
X163859151Y-185534457D01*
X163859146Y-185534460D01*
X163497340Y-185756176D01*
X163497307Y-185756198D01*
X163154010Y-186005617D01*
X163153996Y-186005627D01*
X162831314Y-186281225D01*
X162831300Y-186281238D01*
X162531238Y-186581300D01*
X162531225Y-186581314D01*
X162255627Y-186903996D01*
X162255617Y-186904010D01*
X162006198Y-187247307D01*
X162006176Y-187247340D01*
X161784460Y-187609146D01*
X161784457Y-187609151D01*
X161591789Y-187987284D01*
X161591783Y-187987297D01*
X161429385Y-188379358D01*
X161298254Y-188782943D01*
X161298247Y-188782966D01*
X161199181Y-189195607D01*
X161183000Y-189297774D01*
X161132796Y-189614750D01*
X161099500Y-190037814D01*
X155400500Y-190037814D01*
X155367204Y-189614750D01*
X155300818Y-189195602D01*
X155201750Y-188782955D01*
X155070612Y-188379353D01*
X154908211Y-187987284D01*
X154715550Y-187609165D01*
X154715544Y-187609156D01*
X154715542Y-187609151D01*
X154715539Y-187609146D01*
X154493823Y-187247340D01*
X154493816Y-187247328D01*
X154244377Y-186904003D01*
X154244372Y-186903996D01*
X153968774Y-186581314D01*
X153968769Y-186581308D01*
X153668692Y-186281231D01*
X153668685Y-186281225D01*
X153346003Y-186005627D01*
X153345989Y-186005617D01*
X153002692Y-185756198D01*
X153002683Y-185756192D01*
X153002672Y-185756184D01*
X153002659Y-185756176D01*
X152640853Y-185534460D01*
X152640848Y-185534457D01*
X152640838Y-185534452D01*
X152640835Y-185534450D01*
X152262716Y-185341789D01*
X152262702Y-185341783D01*
X151870641Y-185179385D01*
X151583478Y-185086081D01*
X151467045Y-185048250D01*
X151054398Y-184949182D01*
X150635250Y-184882796D01*
X150212191Y-184849500D01*
X150212186Y-184849500D01*
X149787814Y-184849500D01*
X149787808Y-184849500D01*
X149364749Y-184882796D01*
X149364748Y-184882796D01*
X148945607Y-184949181D01*
X148945604Y-184949181D01*
X148945602Y-184949182D01*
X148797817Y-184984661D01*
X148532966Y-185048247D01*
X148532960Y-185048248D01*
X148532955Y-185048250D01*
X148532943Y-185048254D01*
X148129358Y-185179385D01*
X147737297Y-185341783D01*
X147737284Y-185341789D01*
X147359151Y-185534457D01*
X147359146Y-185534460D01*
X146997340Y-185756176D01*
X146997307Y-185756198D01*
X146654010Y-186005617D01*
X146653996Y-186005627D01*
X146331314Y-186281225D01*
X146331300Y-186281238D01*
X146031238Y-186581300D01*
X146031225Y-186581314D01*
X145755627Y-186903996D01*
X145755617Y-186904010D01*
X145506198Y-187247307D01*
X145506176Y-187247340D01*
X145284460Y-187609146D01*
X145284457Y-187609151D01*
X145091789Y-187987284D01*
X145091783Y-187987297D01*
X144929385Y-188379358D01*
X144798254Y-188782943D01*
X144798247Y-188782966D01*
X144699181Y-189195607D01*
X144683000Y-189297774D01*
X144632796Y-189614750D01*
X144599500Y-190037814D01*
X138900500Y-190037814D01*
X138867204Y-189614750D01*
X138800818Y-189195602D01*
X138701750Y-188782955D01*
X138570612Y-188379353D01*
X138408211Y-187987284D01*
X138215550Y-187609165D01*
X138215544Y-187609156D01*
X138215542Y-187609151D01*
X138215539Y-187609146D01*
X137993823Y-187247340D01*
X137993816Y-187247328D01*
X137744377Y-186904003D01*
X137744372Y-186903996D01*
X137468774Y-186581314D01*
X137468769Y-186581308D01*
X137168692Y-186281231D01*
X137168685Y-186281225D01*
X136846003Y-186005627D01*
X136845989Y-186005617D01*
X136502692Y-185756198D01*
X136502683Y-185756192D01*
X136502672Y-185756184D01*
X136502659Y-185756176D01*
X136140853Y-185534460D01*
X136140848Y-185534457D01*
X136140838Y-185534452D01*
X136140835Y-185534450D01*
X135762716Y-185341789D01*
X135762702Y-185341783D01*
X135370641Y-185179385D01*
X135083478Y-185086081D01*
X134967045Y-185048250D01*
X134554398Y-184949182D01*
X134135250Y-184882796D01*
X133712191Y-184849500D01*
X133712186Y-184849500D01*
X133287814Y-184849500D01*
X133287808Y-184849500D01*
X132864749Y-184882796D01*
X132864748Y-184882796D01*
X132445607Y-184949181D01*
X132445604Y-184949181D01*
X132445602Y-184949182D01*
X132297817Y-184984661D01*
X132032966Y-185048247D01*
X132032960Y-185048248D01*
X132032955Y-185048250D01*
X132032943Y-185048254D01*
X131629358Y-185179385D01*
X131237297Y-185341783D01*
X131237284Y-185341789D01*
X130859151Y-185534457D01*
X130859146Y-185534460D01*
X130497340Y-185756176D01*
X130497307Y-185756198D01*
X130154010Y-186005617D01*
X130153996Y-186005627D01*
X129831314Y-186281225D01*
X129831300Y-186281238D01*
X129531238Y-186581300D01*
X129531225Y-186581314D01*
X129255627Y-186903996D01*
X129255617Y-186904010D01*
X129006198Y-187247307D01*
X129006176Y-187247340D01*
X128784460Y-187609146D01*
X128784457Y-187609151D01*
X128591789Y-187987284D01*
X128591783Y-187987297D01*
X128429385Y-188379358D01*
X128298254Y-188782943D01*
X128298247Y-188782966D01*
X128199181Y-189195607D01*
X128183000Y-189297774D01*
X128132796Y-189614750D01*
X128099500Y-190037814D01*
X71900500Y-190037814D01*
X71867204Y-189614750D01*
X71800818Y-189195602D01*
X71701750Y-188782955D01*
X71570612Y-188379353D01*
X71408211Y-187987284D01*
X71215550Y-187609165D01*
X71215544Y-187609156D01*
X71215542Y-187609151D01*
X71215539Y-187609146D01*
X70993823Y-187247340D01*
X70993816Y-187247328D01*
X70744377Y-186904003D01*
X70744372Y-186903996D01*
X70468774Y-186581314D01*
X70468769Y-186581308D01*
X70168692Y-186281231D01*
X70168685Y-186281225D01*
X69846003Y-186005627D01*
X69845989Y-186005617D01*
X69502692Y-185756198D01*
X69502683Y-185756192D01*
X69502672Y-185756184D01*
X69502659Y-185756176D01*
X69140853Y-185534460D01*
X69140848Y-185534457D01*
X69140838Y-185534452D01*
X69140835Y-185534450D01*
X68762716Y-185341789D01*
X68762702Y-185341783D01*
X68370641Y-185179385D01*
X68083478Y-185086081D01*
X67967045Y-185048250D01*
X67554398Y-184949182D01*
X67135250Y-184882796D01*
X66712191Y-184849500D01*
X66712186Y-184849500D01*
X66287814Y-184849500D01*
X66287808Y-184849500D01*
X65864749Y-184882796D01*
X65864748Y-184882796D01*
X65445607Y-184949181D01*
X65445604Y-184949181D01*
X65445602Y-184949182D01*
X65297817Y-184984661D01*
X65032966Y-185048247D01*
X65032960Y-185048248D01*
X65032955Y-185048250D01*
X65032943Y-185048254D01*
X64629358Y-185179385D01*
X64237297Y-185341783D01*
X64237284Y-185341789D01*
X63859151Y-185534457D01*
X63859146Y-185534460D01*
X63497340Y-185756176D01*
X63497307Y-185756198D01*
X63154010Y-186005617D01*
X63153996Y-186005627D01*
X62831314Y-186281225D01*
X62831300Y-186281238D01*
X62531238Y-186581300D01*
X62531225Y-186581314D01*
X62255627Y-186903996D01*
X62255617Y-186904010D01*
X62006198Y-187247307D01*
X62006176Y-187247340D01*
X61784460Y-187609146D01*
X61784457Y-187609151D01*
X61591789Y-187987284D01*
X61591783Y-187987297D01*
X61429385Y-188379358D01*
X61298254Y-188782943D01*
X61298247Y-188782966D01*
X61199181Y-189195607D01*
X61183000Y-189297774D01*
X61132796Y-189614750D01*
X61099500Y-190037814D01*
X55400500Y-190037814D01*
X55367204Y-189614750D01*
X55300818Y-189195602D01*
X55201750Y-188782955D01*
X55070612Y-188379353D01*
X54908211Y-187987284D01*
X54715550Y-187609165D01*
X54715544Y-187609156D01*
X54715542Y-187609151D01*
X54715539Y-187609146D01*
X54493823Y-187247340D01*
X54493816Y-187247328D01*
X54244377Y-186904003D01*
X54244372Y-186903996D01*
X53968774Y-186581314D01*
X53968769Y-186581308D01*
X53668692Y-186281231D01*
X53668685Y-186281225D01*
X53346003Y-186005627D01*
X53345989Y-186005617D01*
X53002692Y-185756198D01*
X53002683Y-185756192D01*
X53002672Y-185756184D01*
X53002659Y-185756176D01*
X52640853Y-185534460D01*
X52640848Y-185534457D01*
X52640838Y-185534452D01*
X52640835Y-185534450D01*
X52262716Y-185341789D01*
X52262702Y-185341783D01*
X51870641Y-185179385D01*
X51583478Y-185086081D01*
X51467045Y-185048250D01*
X51054398Y-184949182D01*
X50635250Y-184882796D01*
X50212191Y-184849500D01*
X50212186Y-184849500D01*
X49787814Y-184849500D01*
X49787808Y-184849500D01*
X49364749Y-184882796D01*
X49364748Y-184882796D01*
X48945607Y-184949181D01*
X48945604Y-184949181D01*
X48945602Y-184949182D01*
X48797817Y-184984661D01*
X48532966Y-185048247D01*
X48532960Y-185048248D01*
X48532955Y-185048250D01*
X48532943Y-185048254D01*
X48129358Y-185179385D01*
X47737297Y-185341783D01*
X47737284Y-185341789D01*
X47359151Y-185534457D01*
X47359146Y-185534460D01*
X46997340Y-185756176D01*
X46997307Y-185756198D01*
X46654010Y-186005617D01*
X46653996Y-186005627D01*
X46331314Y-186281225D01*
X46331300Y-186281238D01*
X46031238Y-186581300D01*
X46031225Y-186581314D01*
X45755627Y-186903996D01*
X45755617Y-186904010D01*
X45506198Y-187247307D01*
X45506176Y-187247340D01*
X45284460Y-187609146D01*
X45284457Y-187609151D01*
X45091789Y-187987284D01*
X45091783Y-187987297D01*
X44929385Y-188379358D01*
X44798254Y-188782943D01*
X44798247Y-188782966D01*
X44699181Y-189195607D01*
X44683000Y-189297774D01*
X44632796Y-189614750D01*
X44599500Y-190037814D01*
X38900500Y-190037814D01*
X38867204Y-189614750D01*
X38800818Y-189195602D01*
X38701750Y-188782955D01*
X38570612Y-188379353D01*
X38408211Y-187987284D01*
X38215550Y-187609165D01*
X38215544Y-187609156D01*
X38215542Y-187609151D01*
X38215539Y-187609146D01*
X37993823Y-187247340D01*
X37993816Y-187247328D01*
X37744377Y-186904003D01*
X37744372Y-186903996D01*
X37468774Y-186581314D01*
X37468769Y-186581308D01*
X37168692Y-186281231D01*
X37168685Y-186281225D01*
X36846003Y-186005627D01*
X36845989Y-186005617D01*
X36502692Y-185756198D01*
X36502683Y-185756192D01*
X36502672Y-185756184D01*
X36502659Y-185756176D01*
X36140853Y-185534460D01*
X36140848Y-185534457D01*
X36140838Y-185534452D01*
X36140835Y-185534450D01*
X35762716Y-185341789D01*
X35762702Y-185341783D01*
X35370641Y-185179385D01*
X35083478Y-185086081D01*
X34967045Y-185048250D01*
X34554398Y-184949182D01*
X34135250Y-184882796D01*
X33712191Y-184849500D01*
X33712186Y-184849500D01*
X33287814Y-184849500D01*
X33287808Y-184849500D01*
X32864749Y-184882796D01*
X32864748Y-184882796D01*
X32445607Y-184949181D01*
X32445604Y-184949181D01*
X32445602Y-184949182D01*
X32297817Y-184984661D01*
X32032966Y-185048247D01*
X32032960Y-185048248D01*
X32032955Y-185048250D01*
X32032943Y-185048254D01*
X31629358Y-185179385D01*
X31237297Y-185341783D01*
X31237284Y-185341789D01*
X30859151Y-185534457D01*
X30859146Y-185534460D01*
X30497340Y-185756176D01*
X30497307Y-185756198D01*
X30154010Y-186005617D01*
X30153996Y-186005627D01*
X29831314Y-186281225D01*
X29831300Y-186281238D01*
X29531238Y-186581300D01*
X29531225Y-186581314D01*
X29255627Y-186903996D01*
X29255617Y-186904010D01*
X29006198Y-187247307D01*
X29006176Y-187247340D01*
X28784460Y-187609146D01*
X28784457Y-187609151D01*
X28591789Y-187987284D01*
X28591783Y-187987297D01*
X28429385Y-188379358D01*
X28298254Y-188782943D01*
X28298247Y-188782966D01*
X28199181Y-189195607D01*
X28183000Y-189297774D01*
X28132796Y-189614750D01*
X28099500Y-190037814D01*
X25500500Y-190037814D01*
X25500500Y-165781669D01*
X32999500Y-165781669D01*
X32999500Y-166218330D01*
X33037557Y-166653320D01*
X33037557Y-166653324D01*
X33113379Y-167083327D01*
X33113383Y-167083344D01*
X33226392Y-167505105D01*
X33375740Y-167915434D01*
X33375746Y-167915449D01*
X33560272Y-168311164D01*
X33560277Y-168311174D01*
X33778603Y-168689326D01*
X33778607Y-168689332D01*
X33778614Y-168689343D01*
X34029057Y-169047013D01*
X34231930Y-169288787D01*
X34309732Y-169381507D01*
X34618493Y-169690268D01*
X34708395Y-169765705D01*
X34952986Y-169970942D01*
X35310656Y-170221385D01*
X35310663Y-170221389D01*
X35310674Y-170221397D01*
X35688826Y-170439723D01*
X35688835Y-170439727D01*
X36084550Y-170624253D01*
X36084555Y-170624255D01*
X36084568Y-170624261D01*
X36494888Y-170773605D01*
X36494889Y-170773605D01*
X36494894Y-170773607D01*
X36627398Y-170809110D01*
X36916663Y-170886619D01*
X37346682Y-170962443D01*
X37781671Y-171000499D01*
X37781672Y-171000500D01*
X37781673Y-171000500D01*
X38218328Y-171000500D01*
X38218328Y-171000499D01*
X38653318Y-170962443D01*
X39083337Y-170886619D01*
X39505112Y-170773605D01*
X39915432Y-170624261D01*
X40311174Y-170439723D01*
X40689326Y-170221397D01*
X41047012Y-169970943D01*
X41381507Y-169690268D01*
X41690268Y-169381507D01*
X41970943Y-169047012D01*
X42221397Y-168689326D01*
X42439723Y-168311174D01*
X42624261Y-167915432D01*
X42773605Y-167505112D01*
X42886619Y-167083337D01*
X42962443Y-166653318D01*
X43000500Y-166218327D01*
X43000500Y-165781673D01*
X43000500Y-165781669D01*
X57749500Y-165781669D01*
X57749500Y-166218330D01*
X57787557Y-166653320D01*
X57787557Y-166653324D01*
X57863379Y-167083327D01*
X57863383Y-167083344D01*
X57976392Y-167505105D01*
X58125740Y-167915434D01*
X58125746Y-167915449D01*
X58310272Y-168311164D01*
X58310277Y-168311174D01*
X58528603Y-168689326D01*
X58528607Y-168689332D01*
X58528614Y-168689343D01*
X58779057Y-169047013D01*
X58981930Y-169288787D01*
X59059732Y-169381507D01*
X59368493Y-169690268D01*
X59458395Y-169765705D01*
X59702986Y-169970942D01*
X60060656Y-170221385D01*
X60060663Y-170221389D01*
X60060674Y-170221397D01*
X60438826Y-170439723D01*
X60438835Y-170439727D01*
X60834550Y-170624253D01*
X60834555Y-170624255D01*
X60834568Y-170624261D01*
X61244888Y-170773605D01*
X61244889Y-170773605D01*
X61244894Y-170773607D01*
X61377398Y-170809110D01*
X61666663Y-170886619D01*
X62096682Y-170962443D01*
X62531671Y-171000499D01*
X62531672Y-171000500D01*
X62531673Y-171000500D01*
X62968328Y-171000500D01*
X62968328Y-171000499D01*
X63403318Y-170962443D01*
X63833337Y-170886619D01*
X64255112Y-170773605D01*
X64665432Y-170624261D01*
X65061174Y-170439723D01*
X65439326Y-170221397D01*
X65797012Y-169970943D01*
X66131507Y-169690268D01*
X66440268Y-169381507D01*
X66720943Y-169047012D01*
X66971397Y-168689326D01*
X67189723Y-168311174D01*
X67374261Y-167915432D01*
X67523605Y-167505112D01*
X67636619Y-167083337D01*
X67712443Y-166653318D01*
X67750500Y-166218327D01*
X67750500Y-165781673D01*
X67750500Y-165781669D01*
X82499500Y-165781669D01*
X82499500Y-166218330D01*
X82537557Y-166653320D01*
X82537557Y-166653324D01*
X82613379Y-167083327D01*
X82613383Y-167083344D01*
X82726392Y-167505105D01*
X82875740Y-167915434D01*
X82875746Y-167915449D01*
X83060272Y-168311164D01*
X83060277Y-168311174D01*
X83278603Y-168689326D01*
X83278607Y-168689332D01*
X83278614Y-168689343D01*
X83529057Y-169047013D01*
X83731930Y-169288787D01*
X83809732Y-169381507D01*
X84118493Y-169690268D01*
X84208395Y-169765705D01*
X84452986Y-169970942D01*
X84810656Y-170221385D01*
X84810663Y-170221389D01*
X84810674Y-170221397D01*
X85188826Y-170439723D01*
X85188835Y-170439727D01*
X85584550Y-170624253D01*
X85584555Y-170624255D01*
X85584568Y-170624261D01*
X85994888Y-170773605D01*
X85994889Y-170773605D01*
X85994894Y-170773607D01*
X86127398Y-170809110D01*
X86416663Y-170886619D01*
X86846682Y-170962443D01*
X87281671Y-171000499D01*
X87281672Y-171000500D01*
X87281673Y-171000500D01*
X87718328Y-171000500D01*
X87718328Y-171000499D01*
X88153318Y-170962443D01*
X88583337Y-170886619D01*
X89005112Y-170773605D01*
X89415432Y-170624261D01*
X89811174Y-170439723D01*
X90189326Y-170221397D01*
X90547012Y-169970943D01*
X90881507Y-169690268D01*
X91190268Y-169381507D01*
X91470943Y-169047012D01*
X91721397Y-168689326D01*
X91939723Y-168311174D01*
X92124261Y-167915432D01*
X92273605Y-167505112D01*
X92386619Y-167083337D01*
X92462443Y-166653318D01*
X92500500Y-166218327D01*
X92500500Y-165781673D01*
X92500500Y-165781669D01*
X107499500Y-165781669D01*
X107499500Y-166218330D01*
X107537557Y-166653320D01*
X107537557Y-166653324D01*
X107613379Y-167083327D01*
X107613383Y-167083344D01*
X107726392Y-167505105D01*
X107875740Y-167915434D01*
X107875746Y-167915449D01*
X108060272Y-168311164D01*
X108060277Y-168311174D01*
X108278603Y-168689326D01*
X108278607Y-168689332D01*
X108278614Y-168689343D01*
X108529057Y-169047013D01*
X108731930Y-169288787D01*
X108809732Y-169381507D01*
X109118493Y-169690268D01*
X109208395Y-169765705D01*
X109452986Y-169970942D01*
X109810656Y-170221385D01*
X109810663Y-170221389D01*
X109810674Y-170221397D01*
X110188826Y-170439723D01*
X110188835Y-170439727D01*
X110584550Y-170624253D01*
X110584555Y-170624255D01*
X110584568Y-170624261D01*
X110994888Y-170773605D01*
X110994889Y-170773605D01*
X110994894Y-170773607D01*
X111127398Y-170809110D01*
X111416663Y-170886619D01*
X111846682Y-170962443D01*
X112281671Y-171000499D01*
X112281672Y-171000500D01*
X112281673Y-171000500D01*
X112718328Y-171000500D01*
X112718328Y-171000499D01*
X113153318Y-170962443D01*
X113583337Y-170886619D01*
X114005112Y-170773605D01*
X114415432Y-170624261D01*
X114811174Y-170439723D01*
X115189326Y-170221397D01*
X115547012Y-169970943D01*
X115881507Y-169690268D01*
X116190268Y-169381507D01*
X116470943Y-169047012D01*
X116721397Y-168689326D01*
X116939723Y-168311174D01*
X117124261Y-167915432D01*
X117273605Y-167505112D01*
X117386619Y-167083337D01*
X117462443Y-166653318D01*
X117500500Y-166218327D01*
X117500500Y-165781673D01*
X117500500Y-165781669D01*
X132249500Y-165781669D01*
X132249500Y-166218330D01*
X132287557Y-166653320D01*
X132287557Y-166653324D01*
X132363379Y-167083327D01*
X132363383Y-167083344D01*
X132476392Y-167505105D01*
X132625740Y-167915434D01*
X132625746Y-167915449D01*
X132810272Y-168311164D01*
X132810277Y-168311174D01*
X133028603Y-168689326D01*
X133028607Y-168689332D01*
X133028614Y-168689343D01*
X133279057Y-169047013D01*
X133481930Y-169288787D01*
X133559732Y-169381507D01*
X133868493Y-169690268D01*
X133958395Y-169765705D01*
X134202986Y-169970942D01*
X134560656Y-170221385D01*
X134560663Y-170221389D01*
X134560674Y-170221397D01*
X134938826Y-170439723D01*
X134938835Y-170439727D01*
X135334550Y-170624253D01*
X135334555Y-170624255D01*
X135334568Y-170624261D01*
X135744888Y-170773605D01*
X135744889Y-170773605D01*
X135744894Y-170773607D01*
X135877398Y-170809110D01*
X136166663Y-170886619D01*
X136596682Y-170962443D01*
X137031671Y-171000499D01*
X137031672Y-171000500D01*
X137031673Y-171000500D01*
X137468328Y-171000500D01*
X137468328Y-171000499D01*
X137903318Y-170962443D01*
X138333337Y-170886619D01*
X138755112Y-170773605D01*
X139165432Y-170624261D01*
X139561174Y-170439723D01*
X139939326Y-170221397D01*
X140297012Y-169970943D01*
X140631507Y-169690268D01*
X140940268Y-169381507D01*
X141220943Y-169047012D01*
X141471397Y-168689326D01*
X141689723Y-168311174D01*
X141874261Y-167915432D01*
X142023605Y-167505112D01*
X142136619Y-167083337D01*
X142212443Y-166653318D01*
X142250500Y-166218327D01*
X142250500Y-165781673D01*
X142250500Y-165781669D01*
X156999500Y-165781669D01*
X156999500Y-166218330D01*
X157037557Y-166653320D01*
X157037557Y-166653324D01*
X157113379Y-167083327D01*
X157113383Y-167083344D01*
X157226392Y-167505105D01*
X157375740Y-167915434D01*
X157375746Y-167915449D01*
X157560272Y-168311164D01*
X157560277Y-168311174D01*
X157778603Y-168689326D01*
X157778607Y-168689332D01*
X157778614Y-168689343D01*
X158029057Y-169047013D01*
X158231930Y-169288787D01*
X158309732Y-169381507D01*
X158618493Y-169690268D01*
X158708395Y-169765705D01*
X158952986Y-169970942D01*
X159310656Y-170221385D01*
X159310663Y-170221389D01*
X159310674Y-170221397D01*
X159688826Y-170439723D01*
X159688835Y-170439727D01*
X160084550Y-170624253D01*
X160084555Y-170624255D01*
X160084568Y-170624261D01*
X160494888Y-170773605D01*
X160494889Y-170773605D01*
X160494894Y-170773607D01*
X160627398Y-170809110D01*
X160916663Y-170886619D01*
X161346682Y-170962443D01*
X161781671Y-171000499D01*
X161781672Y-171000500D01*
X161781673Y-171000500D01*
X162218328Y-171000500D01*
X162218328Y-171000499D01*
X162653318Y-170962443D01*
X163083337Y-170886619D01*
X163505112Y-170773605D01*
X163915432Y-170624261D01*
X164311174Y-170439723D01*
X164689326Y-170221397D01*
X165047012Y-169970943D01*
X165381507Y-169690268D01*
X165690268Y-169381507D01*
X165970943Y-169047012D01*
X166221397Y-168689326D01*
X166439723Y-168311174D01*
X166624261Y-167915432D01*
X166773605Y-167505112D01*
X166886619Y-167083337D01*
X166962443Y-166653318D01*
X167000500Y-166218327D01*
X167000500Y-165781673D01*
X166962443Y-165346682D01*
X166886619Y-164916663D01*
X166773605Y-164494888D01*
X166624261Y-164084568D01*
X166439723Y-163688826D01*
X166221397Y-163310674D01*
X166221389Y-163310663D01*
X166221385Y-163310656D01*
X165970942Y-162952986D01*
X165690265Y-162618490D01*
X165381509Y-162309734D01*
X165047013Y-162029057D01*
X164689343Y-161778614D01*
X164689332Y-161778607D01*
X164689326Y-161778603D01*
X164576978Y-161713739D01*
X164311180Y-161560280D01*
X164311164Y-161560272D01*
X163915449Y-161375746D01*
X163915434Y-161375740D01*
X163915432Y-161375739D01*
X163761301Y-161319640D01*
X163505105Y-161226392D01*
X163083344Y-161113383D01*
X163083347Y-161113383D01*
X163083337Y-161113381D01*
X163083331Y-161113379D01*
X163083327Y-161113379D01*
X162653322Y-161037557D01*
X162218330Y-160999500D01*
X162218327Y-160999500D01*
X161781673Y-160999500D01*
X161781669Y-160999500D01*
X161346679Y-161037557D01*
X161346675Y-161037557D01*
X160916672Y-161113379D01*
X160916655Y-161113383D01*
X160494894Y-161226392D01*
X160084565Y-161375740D01*
X160084550Y-161375746D01*
X159688835Y-161560272D01*
X159688819Y-161560280D01*
X159310682Y-161778598D01*
X159310656Y-161778614D01*
X158952986Y-162029057D01*
X158618490Y-162309734D01*
X158309734Y-162618490D01*
X158029057Y-162952986D01*
X157778614Y-163310656D01*
X157778598Y-163310682D01*
X157560280Y-163688819D01*
X157560272Y-163688835D01*
X157375746Y-164084550D01*
X157375740Y-164084565D01*
X157226392Y-164494894D01*
X157113383Y-164916655D01*
X157113379Y-164916672D01*
X157037557Y-165346675D01*
X157037557Y-165346679D01*
X156999500Y-165781669D01*
X142250500Y-165781669D01*
X142212443Y-165346682D01*
X142136619Y-164916663D01*
X142023605Y-164494888D01*
X141874261Y-164084568D01*
X141689723Y-163688826D01*
X141471397Y-163310674D01*
X141471389Y-163310663D01*
X141471385Y-163310656D01*
X141220942Y-162952986D01*
X140940265Y-162618490D01*
X140631509Y-162309734D01*
X140297013Y-162029057D01*
X139939343Y-161778614D01*
X139939332Y-161778607D01*
X139939326Y-161778603D01*
X139826978Y-161713739D01*
X139561180Y-161560280D01*
X139561164Y-161560272D01*
X139165449Y-161375746D01*
X139165434Y-161375740D01*
X139165432Y-161375739D01*
X139011301Y-161319640D01*
X138755105Y-161226392D01*
X138333344Y-161113383D01*
X138333347Y-161113383D01*
X138333337Y-161113381D01*
X138333331Y-161113379D01*
X138333327Y-161113379D01*
X137903322Y-161037557D01*
X137468330Y-160999500D01*
X137468327Y-160999500D01*
X137031673Y-160999500D01*
X137031669Y-160999500D01*
X136596679Y-161037557D01*
X136596675Y-161037557D01*
X136166672Y-161113379D01*
X136166655Y-161113383D01*
X135744894Y-161226392D01*
X135334565Y-161375740D01*
X135334550Y-161375746D01*
X134938835Y-161560272D01*
X134938819Y-161560280D01*
X134560682Y-161778598D01*
X134560656Y-161778614D01*
X134202986Y-162029057D01*
X133868490Y-162309734D01*
X133559734Y-162618490D01*
X133279057Y-162952986D01*
X133028614Y-163310656D01*
X133028598Y-163310682D01*
X132810280Y-163688819D01*
X132810272Y-163688835D01*
X132625746Y-164084550D01*
X132625740Y-164084565D01*
X132476392Y-164494894D01*
X132363383Y-164916655D01*
X132363379Y-164916672D01*
X132287557Y-165346675D01*
X132287557Y-165346679D01*
X132249500Y-165781669D01*
X117500500Y-165781669D01*
X117462443Y-165346682D01*
X117386619Y-164916663D01*
X117273605Y-164494888D01*
X117124261Y-164084568D01*
X116939723Y-163688826D01*
X116721397Y-163310674D01*
X116721389Y-163310663D01*
X116721385Y-163310656D01*
X116470942Y-162952986D01*
X116190265Y-162618490D01*
X115881509Y-162309734D01*
X115547013Y-162029057D01*
X115189343Y-161778614D01*
X115189332Y-161778607D01*
X115189326Y-161778603D01*
X115076978Y-161713739D01*
X114811180Y-161560280D01*
X114811164Y-161560272D01*
X114415449Y-161375746D01*
X114415434Y-161375740D01*
X114415432Y-161375739D01*
X114261301Y-161319640D01*
X114005105Y-161226392D01*
X113583344Y-161113383D01*
X113583347Y-161113383D01*
X113583337Y-161113381D01*
X113583331Y-161113379D01*
X113583327Y-161113379D01*
X113153322Y-161037557D01*
X112718330Y-160999500D01*
X112718327Y-160999500D01*
X112281673Y-160999500D01*
X112281669Y-160999500D01*
X111846679Y-161037557D01*
X111846675Y-161037557D01*
X111416672Y-161113379D01*
X111416655Y-161113383D01*
X110994894Y-161226392D01*
X110584565Y-161375740D01*
X110584550Y-161375746D01*
X110188835Y-161560272D01*
X110188819Y-161560280D01*
X109810682Y-161778598D01*
X109810656Y-161778614D01*
X109452986Y-162029057D01*
X109118490Y-162309734D01*
X108809734Y-162618490D01*
X108529057Y-162952986D01*
X108278614Y-163310656D01*
X108278598Y-163310682D01*
X108060280Y-163688819D01*
X108060272Y-163688835D01*
X107875746Y-164084550D01*
X107875740Y-164084565D01*
X107726392Y-164494894D01*
X107613383Y-164916655D01*
X107613379Y-164916672D01*
X107537557Y-165346675D01*
X107537557Y-165346679D01*
X107499500Y-165781669D01*
X92500500Y-165781669D01*
X92462443Y-165346682D01*
X92386619Y-164916663D01*
X92273605Y-164494888D01*
X92124261Y-164084568D01*
X91939723Y-163688826D01*
X91721397Y-163310674D01*
X91721389Y-163310663D01*
X91721385Y-163310656D01*
X91470942Y-162952986D01*
X91190265Y-162618490D01*
X90881509Y-162309734D01*
X90547013Y-162029057D01*
X90189343Y-161778614D01*
X90189332Y-161778607D01*
X90189326Y-161778603D01*
X90076978Y-161713739D01*
X89811180Y-161560280D01*
X89811164Y-161560272D01*
X89415449Y-161375746D01*
X89415434Y-161375740D01*
X89415432Y-161375739D01*
X89261301Y-161319640D01*
X89005105Y-161226392D01*
X88583344Y-161113383D01*
X88583347Y-161113383D01*
X88583337Y-161113381D01*
X88583331Y-161113379D01*
X88583327Y-161113379D01*
X88153322Y-161037557D01*
X87718330Y-160999500D01*
X87718327Y-160999500D01*
X87281673Y-160999500D01*
X87281669Y-160999500D01*
X86846679Y-161037557D01*
X86846675Y-161037557D01*
X86416672Y-161113379D01*
X86416655Y-161113383D01*
X85994894Y-161226392D01*
X85584565Y-161375740D01*
X85584550Y-161375746D01*
X85188835Y-161560272D01*
X85188819Y-161560280D01*
X84810682Y-161778598D01*
X84810656Y-161778614D01*
X84452986Y-162029057D01*
X84118490Y-162309734D01*
X83809734Y-162618490D01*
X83529057Y-162952986D01*
X83278614Y-163310656D01*
X83278598Y-163310682D01*
X83060280Y-163688819D01*
X83060272Y-163688835D01*
X82875746Y-164084550D01*
X82875740Y-164084565D01*
X82726392Y-164494894D01*
X82613383Y-164916655D01*
X82613379Y-164916672D01*
X82537557Y-165346675D01*
X82537557Y-165346679D01*
X82499500Y-165781669D01*
X67750500Y-165781669D01*
X67712443Y-165346682D01*
X67636619Y-164916663D01*
X67523605Y-164494888D01*
X67374261Y-164084568D01*
X67189723Y-163688826D01*
X66971397Y-163310674D01*
X66971389Y-163310663D01*
X66971385Y-163310656D01*
X66720942Y-162952986D01*
X66440265Y-162618490D01*
X66131509Y-162309734D01*
X65797013Y-162029057D01*
X65439343Y-161778614D01*
X65439332Y-161778607D01*
X65439326Y-161778603D01*
X65326978Y-161713739D01*
X65061180Y-161560280D01*
X65061164Y-161560272D01*
X64665449Y-161375746D01*
X64665434Y-161375740D01*
X64665432Y-161375739D01*
X64511301Y-161319640D01*
X64255105Y-161226392D01*
X63833344Y-161113383D01*
X63833347Y-161113383D01*
X63833337Y-161113381D01*
X63833331Y-161113379D01*
X63833327Y-161113379D01*
X63403322Y-161037557D01*
X62968330Y-160999500D01*
X62968327Y-160999500D01*
X62531673Y-160999500D01*
X62531669Y-160999500D01*
X62096679Y-161037557D01*
X62096675Y-161037557D01*
X61666672Y-161113379D01*
X61666655Y-161113383D01*
X61244894Y-161226392D01*
X60834565Y-161375740D01*
X60834550Y-161375746D01*
X60438835Y-161560272D01*
X60438819Y-161560280D01*
X60060682Y-161778598D01*
X60060656Y-161778614D01*
X59702986Y-162029057D01*
X59368490Y-162309734D01*
X59059734Y-162618490D01*
X58779057Y-162952986D01*
X58528614Y-163310656D01*
X58528598Y-163310682D01*
X58310280Y-163688819D01*
X58310272Y-163688835D01*
X58125746Y-164084550D01*
X58125740Y-164084565D01*
X57976392Y-164494894D01*
X57863383Y-164916655D01*
X57863379Y-164916672D01*
X57787557Y-165346675D01*
X57787557Y-165346679D01*
X57749500Y-165781669D01*
X43000500Y-165781669D01*
X42962443Y-165346682D01*
X42886619Y-164916663D01*
X42773605Y-164494888D01*
X42624261Y-164084568D01*
X42439723Y-163688826D01*
X42221397Y-163310674D01*
X42221389Y-163310663D01*
X42221385Y-163310656D01*
X41970942Y-162952986D01*
X41690265Y-162618490D01*
X41381509Y-162309734D01*
X41047013Y-162029057D01*
X40689343Y-161778614D01*
X40689332Y-161778607D01*
X40689326Y-161778603D01*
X40576978Y-161713739D01*
X40311180Y-161560280D01*
X40311164Y-161560272D01*
X39915449Y-161375746D01*
X39915434Y-161375740D01*
X39915432Y-161375739D01*
X39761301Y-161319640D01*
X39505105Y-161226392D01*
X39083344Y-161113383D01*
X39083347Y-161113383D01*
X39083337Y-161113381D01*
X39083331Y-161113379D01*
X39083327Y-161113379D01*
X38653322Y-161037557D01*
X38218330Y-160999500D01*
X38218327Y-160999500D01*
X37781673Y-160999500D01*
X37781669Y-160999500D01*
X37346679Y-161037557D01*
X37346675Y-161037557D01*
X36916672Y-161113379D01*
X36916655Y-161113383D01*
X36494894Y-161226392D01*
X36084565Y-161375740D01*
X36084550Y-161375746D01*
X35688835Y-161560272D01*
X35688819Y-161560280D01*
X35310682Y-161778598D01*
X35310656Y-161778614D01*
X34952986Y-162029057D01*
X34618490Y-162309734D01*
X34309734Y-162618490D01*
X34029057Y-162952986D01*
X33778614Y-163310656D01*
X33778598Y-163310682D01*
X33560280Y-163688819D01*
X33560272Y-163688835D01*
X33375746Y-164084550D01*
X33375740Y-164084565D01*
X33226392Y-164494894D01*
X33113383Y-164916655D01*
X33113379Y-164916672D01*
X33037557Y-165346675D01*
X33037557Y-165346679D01*
X32999500Y-165781669D01*
X25500500Y-165781669D01*
X25500500Y-150881902D01*
X49249500Y-150881902D01*
X49249500Y-151118097D01*
X49286446Y-151351368D01*
X49359433Y-151575996D01*
X49466657Y-151786433D01*
X49605483Y-151977510D01*
X49772490Y-152144517D01*
X49963567Y-152283343D01*
X50062991Y-152334002D01*
X50174003Y-152390566D01*
X50174005Y-152390566D01*
X50174008Y-152390568D01*
X50294412Y-152429689D01*
X50398631Y-152463553D01*
X50631903Y-152500500D01*
X50631908Y-152500500D01*
X50868097Y-152500500D01*
X51101368Y-152463553D01*
X51325992Y-152390568D01*
X51536433Y-152283343D01*
X51727510Y-152144517D01*
X51894517Y-151977510D01*
X52033343Y-151786433D01*
X52140568Y-151575992D01*
X52213553Y-151351368D01*
X52250500Y-151118097D01*
X52250500Y-150881902D01*
X148249500Y-150881902D01*
X148249500Y-151118097D01*
X148286446Y-151351368D01*
X148359433Y-151575996D01*
X148466657Y-151786433D01*
X148605483Y-151977510D01*
X148772490Y-152144517D01*
X148963567Y-152283343D01*
X149062991Y-152334002D01*
X149174003Y-152390566D01*
X149174005Y-152390566D01*
X149174008Y-152390568D01*
X149294412Y-152429689D01*
X149398631Y-152463553D01*
X149631903Y-152500500D01*
X149631908Y-152500500D01*
X149868097Y-152500500D01*
X150101368Y-152463553D01*
X150325992Y-152390568D01*
X150536433Y-152283343D01*
X150727510Y-152144517D01*
X150894517Y-151977510D01*
X151033343Y-151786433D01*
X151140568Y-151575992D01*
X151213553Y-151351368D01*
X151250500Y-151118097D01*
X151250500Y-150881902D01*
X151213553Y-150648631D01*
X151140566Y-150424003D01*
X151033342Y-150213566D01*
X150894517Y-150022490D01*
X150727510Y-149855483D01*
X150536433Y-149716657D01*
X150325996Y-149609433D01*
X150101368Y-149536446D01*
X149868097Y-149499500D01*
X149868092Y-149499500D01*
X149631908Y-149499500D01*
X149631903Y-149499500D01*
X149398631Y-149536446D01*
X149174003Y-149609433D01*
X148963566Y-149716657D01*
X148854550Y-149795862D01*
X148772490Y-149855483D01*
X148772488Y-149855485D01*
X148772487Y-149855485D01*
X148605485Y-150022487D01*
X148605485Y-150022488D01*
X148605483Y-150022490D01*
X148545862Y-150104550D01*
X148466657Y-150213566D01*
X148359433Y-150424003D01*
X148286446Y-150648631D01*
X148249500Y-150881902D01*
X52250500Y-150881902D01*
X52213553Y-150648631D01*
X52140566Y-150424003D01*
X52033342Y-150213566D01*
X51894517Y-150022490D01*
X51727510Y-149855483D01*
X51536433Y-149716657D01*
X51325996Y-149609433D01*
X51101368Y-149536446D01*
X50868097Y-149499500D01*
X50868092Y-149499500D01*
X50631908Y-149499500D01*
X50631903Y-149499500D01*
X50398631Y-149536446D01*
X50174003Y-149609433D01*
X49963566Y-149716657D01*
X49854550Y-149795862D01*
X49772490Y-149855483D01*
X49772488Y-149855485D01*
X49772487Y-149855485D01*
X49605485Y-150022487D01*
X49605485Y-150022488D01*
X49605483Y-150022490D01*
X49545862Y-150104550D01*
X49466657Y-150213566D01*
X49359433Y-150424003D01*
X49286446Y-150648631D01*
X49249500Y-150881902D01*
X25500500Y-150881902D01*
X25500500Y-133781669D01*
X35999500Y-133781669D01*
X35999500Y-134218330D01*
X36037557Y-134653320D01*
X36037557Y-134653324D01*
X36113379Y-135083327D01*
X36113383Y-135083344D01*
X36226392Y-135505105D01*
X36375740Y-135915434D01*
X36375746Y-135915449D01*
X36560272Y-136311164D01*
X36560277Y-136311174D01*
X36778603Y-136689326D01*
X36778607Y-136689332D01*
X36778614Y-136689343D01*
X37029057Y-137047013D01*
X37231930Y-137288787D01*
X37309732Y-137381507D01*
X37618493Y-137690268D01*
X37708395Y-137765705D01*
X37952986Y-137970942D01*
X38310656Y-138221385D01*
X38310663Y-138221389D01*
X38310674Y-138221397D01*
X38688826Y-138439723D01*
X38688835Y-138439727D01*
X39084550Y-138624253D01*
X39084555Y-138624255D01*
X39084568Y-138624261D01*
X39494888Y-138773605D01*
X39494889Y-138773605D01*
X39494894Y-138773607D01*
X39627398Y-138809110D01*
X39916663Y-138886619D01*
X40346682Y-138962443D01*
X40781671Y-139000499D01*
X40781672Y-139000500D01*
X40781673Y-139000500D01*
X41218328Y-139000500D01*
X41218328Y-139000499D01*
X41653318Y-138962443D01*
X42083337Y-138886619D01*
X42505112Y-138773605D01*
X42915432Y-138624261D01*
X43311174Y-138439723D01*
X43689326Y-138221397D01*
X44047012Y-137970943D01*
X44381507Y-137690268D01*
X44690268Y-137381507D01*
X44970943Y-137047012D01*
X45221397Y-136689326D01*
X45439723Y-136311174D01*
X45624261Y-135915432D01*
X45773605Y-135505112D01*
X45886619Y-135083337D01*
X45962443Y-134653318D01*
X46000500Y-134218327D01*
X46000500Y-133781673D01*
X46000500Y-133781669D01*
X153999500Y-133781669D01*
X153999500Y-134218330D01*
X154037557Y-134653320D01*
X154037557Y-134653324D01*
X154113379Y-135083327D01*
X154113383Y-135083344D01*
X154226392Y-135505105D01*
X154375740Y-135915434D01*
X154375746Y-135915449D01*
X154560272Y-136311164D01*
X154560277Y-136311174D01*
X154778603Y-136689326D01*
X154778607Y-136689332D01*
X154778614Y-136689343D01*
X155029057Y-137047013D01*
X155231930Y-137288787D01*
X155309732Y-137381507D01*
X155618493Y-137690268D01*
X155708395Y-137765705D01*
X155952986Y-137970942D01*
X156310656Y-138221385D01*
X156310663Y-138221389D01*
X156310674Y-138221397D01*
X156688826Y-138439723D01*
X156688835Y-138439727D01*
X157084550Y-138624253D01*
X157084555Y-138624255D01*
X157084568Y-138624261D01*
X157494888Y-138773605D01*
X157494889Y-138773605D01*
X157494894Y-138773607D01*
X157627398Y-138809110D01*
X157916663Y-138886619D01*
X158346682Y-138962443D01*
X158781671Y-139000499D01*
X158781672Y-139000500D01*
X158781673Y-139000500D01*
X159218328Y-139000500D01*
X159218328Y-139000499D01*
X159653318Y-138962443D01*
X160083337Y-138886619D01*
X160505112Y-138773605D01*
X160915432Y-138624261D01*
X161311174Y-138439723D01*
X161689326Y-138221397D01*
X162047012Y-137970943D01*
X162381507Y-137690268D01*
X162690268Y-137381507D01*
X162970943Y-137047012D01*
X163221397Y-136689326D01*
X163439723Y-136311174D01*
X163624261Y-135915432D01*
X163773605Y-135505112D01*
X163886619Y-135083337D01*
X163962443Y-134653318D01*
X164000500Y-134218327D01*
X164000500Y-133781673D01*
X163962443Y-133346682D01*
X163886619Y-132916663D01*
X163773605Y-132494888D01*
X163624261Y-132084568D01*
X163439723Y-131688826D01*
X163221397Y-131310674D01*
X163221389Y-131310663D01*
X163221385Y-131310656D01*
X162970942Y-130952986D01*
X162690265Y-130618490D01*
X162381509Y-130309734D01*
X162047013Y-130029057D01*
X161689343Y-129778614D01*
X161689332Y-129778607D01*
X161689326Y-129778603D01*
X161576978Y-129713739D01*
X161311180Y-129560280D01*
X161311164Y-129560272D01*
X160915449Y-129375746D01*
X160915434Y-129375740D01*
X160915432Y-129375739D01*
X160761301Y-129319640D01*
X160505105Y-129226392D01*
X160083344Y-129113383D01*
X160083347Y-129113383D01*
X160083337Y-129113381D01*
X160083331Y-129113379D01*
X160083327Y-129113379D01*
X159653322Y-129037557D01*
X159218330Y-128999500D01*
X159218327Y-128999500D01*
X158781673Y-128999500D01*
X158781669Y-128999500D01*
X158346679Y-129037557D01*
X158346675Y-129037557D01*
X157916672Y-129113379D01*
X157916655Y-129113383D01*
X157494894Y-129226392D01*
X157084565Y-129375740D01*
X157084550Y-129375746D01*
X156688835Y-129560272D01*
X156688819Y-129560280D01*
X156310682Y-129778598D01*
X156310656Y-129778614D01*
X155952986Y-130029057D01*
X155618490Y-130309734D01*
X155309734Y-130618490D01*
X155029057Y-130952986D01*
X154778614Y-131310656D01*
X154778598Y-131310682D01*
X154560280Y-131688819D01*
X154560272Y-131688835D01*
X154375746Y-132084550D01*
X154375740Y-132084565D01*
X154226392Y-132494894D01*
X154113383Y-132916655D01*
X154113379Y-132916672D01*
X154037557Y-133346675D01*
X154037557Y-133346679D01*
X153999500Y-133781669D01*
X46000500Y-133781669D01*
X45962443Y-133346682D01*
X45886619Y-132916663D01*
X45773605Y-132494888D01*
X45624261Y-132084568D01*
X45439723Y-131688826D01*
X45221397Y-131310674D01*
X45221389Y-131310663D01*
X45221385Y-131310656D01*
X44970942Y-130952986D01*
X44690265Y-130618490D01*
X44381509Y-130309734D01*
X44047013Y-130029057D01*
X43689343Y-129778614D01*
X43689332Y-129778607D01*
X43689326Y-129778603D01*
X43576978Y-129713739D01*
X43311180Y-129560280D01*
X43311164Y-129560272D01*
X42915449Y-129375746D01*
X42915434Y-129375740D01*
X42915432Y-129375739D01*
X42761301Y-129319640D01*
X42505105Y-129226392D01*
X42083344Y-129113383D01*
X42083347Y-129113383D01*
X42083337Y-129113381D01*
X42083331Y-129113379D01*
X42083327Y-129113379D01*
X41653322Y-129037557D01*
X41218330Y-128999500D01*
X41218327Y-128999500D01*
X40781673Y-128999500D01*
X40781669Y-128999500D01*
X40346679Y-129037557D01*
X40346675Y-129037557D01*
X39916672Y-129113379D01*
X39916655Y-129113383D01*
X39494894Y-129226392D01*
X39084565Y-129375740D01*
X39084550Y-129375746D01*
X38688835Y-129560272D01*
X38688819Y-129560280D01*
X38310682Y-129778598D01*
X38310656Y-129778614D01*
X37952986Y-130029057D01*
X37618490Y-130309734D01*
X37309734Y-130618490D01*
X37029057Y-130952986D01*
X36778614Y-131310656D01*
X36778598Y-131310682D01*
X36560280Y-131688819D01*
X36560272Y-131688835D01*
X36375746Y-132084550D01*
X36375740Y-132084565D01*
X36226392Y-132494894D01*
X36113383Y-132916655D01*
X36113379Y-132916672D01*
X36037557Y-133346675D01*
X36037557Y-133346679D01*
X35999500Y-133781669D01*
X25500500Y-133781669D01*
X25500500Y-122631902D01*
X57499500Y-122631902D01*
X57499500Y-122868097D01*
X57536446Y-123101368D01*
X57609433Y-123325996D01*
X57716657Y-123536433D01*
X57855483Y-123727510D01*
X58022490Y-123894517D01*
X58213567Y-124033343D01*
X58312991Y-124084002D01*
X58424003Y-124140566D01*
X58424005Y-124140566D01*
X58424008Y-124140568D01*
X58544412Y-124179689D01*
X58648631Y-124213553D01*
X58881903Y-124250500D01*
X58881908Y-124250500D01*
X59118097Y-124250500D01*
X59351368Y-124213553D01*
X59575992Y-124140568D01*
X59786433Y-124033343D01*
X59977510Y-123894517D01*
X60144517Y-123727510D01*
X60283343Y-123536433D01*
X60390568Y-123325992D01*
X60463553Y-123101368D01*
X60500500Y-122868097D01*
X60500500Y-122631902D01*
X139499500Y-122631902D01*
X139499500Y-122868097D01*
X139536446Y-123101368D01*
X139609433Y-123325996D01*
X139716657Y-123536433D01*
X139855483Y-123727510D01*
X140022490Y-123894517D01*
X140213567Y-124033343D01*
X140312991Y-124084002D01*
X140424003Y-124140566D01*
X140424005Y-124140566D01*
X140424008Y-124140568D01*
X140544412Y-124179689D01*
X140648631Y-124213553D01*
X140881903Y-124250500D01*
X140881908Y-124250500D01*
X141118097Y-124250500D01*
X141351368Y-124213553D01*
X141575992Y-124140568D01*
X141786433Y-124033343D01*
X141977510Y-123894517D01*
X142144517Y-123727510D01*
X142283343Y-123536433D01*
X142390568Y-123325992D01*
X142463553Y-123101368D01*
X142500500Y-122868097D01*
X142500500Y-122631902D01*
X142463553Y-122398631D01*
X142390566Y-122174003D01*
X142283342Y-121963566D01*
X142144517Y-121772490D01*
X141977510Y-121605483D01*
X141786433Y-121466657D01*
X141575996Y-121359433D01*
X141351368Y-121286446D01*
X141118097Y-121249500D01*
X141118092Y-121249500D01*
X140881908Y-121249500D01*
X140881903Y-121249500D01*
X140648631Y-121286446D01*
X140424003Y-121359433D01*
X140213566Y-121466657D01*
X140104550Y-121545862D01*
X140022490Y-121605483D01*
X140022488Y-121605485D01*
X140022487Y-121605485D01*
X139855485Y-121772487D01*
X139855485Y-121772488D01*
X139855483Y-121772490D01*
X139795862Y-121854550D01*
X139716657Y-121963566D01*
X139609433Y-122174003D01*
X139536446Y-122398631D01*
X139499500Y-122631902D01*
X60500500Y-122631902D01*
X60463553Y-122398631D01*
X60390566Y-122174003D01*
X60283342Y-121963566D01*
X60144517Y-121772490D01*
X59977510Y-121605483D01*
X59786433Y-121466657D01*
X59575996Y-121359433D01*
X59351368Y-121286446D01*
X59118097Y-121249500D01*
X59118092Y-121249500D01*
X58881908Y-121249500D01*
X58881903Y-121249500D01*
X58648631Y-121286446D01*
X58424003Y-121359433D01*
X58213566Y-121466657D01*
X58104550Y-121545862D01*
X58022490Y-121605483D01*
X58022488Y-121605485D01*
X58022487Y-121605485D01*
X57855485Y-121772487D01*
X57855485Y-121772488D01*
X57855483Y-121772490D01*
X57795862Y-121854550D01*
X57716657Y-121963566D01*
X57609433Y-122174003D01*
X57536446Y-122398631D01*
X57499500Y-122631902D01*
X25500500Y-122631902D01*
X25500500Y-110803471D01*
X75999500Y-110803471D01*
X75999500Y-111196528D01*
X76038026Y-111587702D01*
X76114704Y-111973194D01*
X76114707Y-111973205D01*
X76228810Y-112349354D01*
X76379230Y-112712499D01*
X76379232Y-112712504D01*
X76564511Y-113059137D01*
X76564522Y-113059155D01*
X76782887Y-113385960D01*
X76782897Y-113385974D01*
X77032254Y-113689817D01*
X77310182Y-113967745D01*
X77310187Y-113967749D01*
X77310188Y-113967750D01*
X77614031Y-114217107D01*
X77940851Y-114435482D01*
X77940860Y-114435487D01*
X77940862Y-114435488D01*
X78287495Y-114620767D01*
X78287497Y-114620767D01*
X78287503Y-114620771D01*
X78650647Y-114771190D01*
X79026785Y-114885290D01*
X79026791Y-114885291D01*
X79026794Y-114885292D01*
X79026805Y-114885295D01*
X79412297Y-114961973D01*
X79803468Y-115000500D01*
X79803471Y-115000500D01*
X80196529Y-115000500D01*
X80196532Y-115000500D01*
X80587703Y-114961973D01*
X80662748Y-114947045D01*
X80973194Y-114885295D01*
X80973205Y-114885292D01*
X80973205Y-114885291D01*
X80973215Y-114885290D01*
X81349353Y-114771190D01*
X81712497Y-114620771D01*
X82059149Y-114435482D01*
X82385969Y-114217107D01*
X82689812Y-113967750D01*
X82967750Y-113689812D01*
X83217107Y-113385969D01*
X83435482Y-113059149D01*
X83620771Y-112712497D01*
X83771190Y-112349353D01*
X83885290Y-111973215D01*
X83885292Y-111973205D01*
X83885295Y-111973194D01*
X83961973Y-111587702D01*
X84000500Y-111196528D01*
X84000500Y-110803471D01*
X115999500Y-110803471D01*
X115999500Y-111196528D01*
X116038026Y-111587702D01*
X116114704Y-111973194D01*
X116114707Y-111973205D01*
X116228810Y-112349354D01*
X116379230Y-112712499D01*
X116379232Y-112712504D01*
X116564511Y-113059137D01*
X116564522Y-113059155D01*
X116782887Y-113385960D01*
X116782897Y-113385974D01*
X117032254Y-113689817D01*
X117310182Y-113967745D01*
X117310187Y-113967749D01*
X117310188Y-113967750D01*
X117614031Y-114217107D01*
X117940851Y-114435482D01*
X117940860Y-114435487D01*
X117940862Y-114435488D01*
X118287495Y-114620767D01*
X118287497Y-114620767D01*
X118287503Y-114620771D01*
X118650647Y-114771190D01*
X119026785Y-114885290D01*
X119026791Y-114885291D01*
X119026794Y-114885292D01*
X119026805Y-114885295D01*
X119412297Y-114961973D01*
X119803468Y-115000500D01*
X119803471Y-115000500D01*
X120196529Y-115000500D01*
X120196532Y-115000500D01*
X120587703Y-114961973D01*
X120662748Y-114947045D01*
X120973194Y-114885295D01*
X120973205Y-114885292D01*
X120973205Y-114885291D01*
X120973215Y-114885290D01*
X121349353Y-114771190D01*
X121712497Y-114620771D01*
X122059149Y-114435482D01*
X122385969Y-114217107D01*
X122689812Y-113967750D01*
X122967750Y-113689812D01*
X123217107Y-113385969D01*
X123435482Y-113059149D01*
X123620771Y-112712497D01*
X123771190Y-112349353D01*
X123885290Y-111973215D01*
X123885292Y-111973205D01*
X123885295Y-111973194D01*
X123961973Y-111587702D01*
X124000500Y-111196528D01*
X124000500Y-110803471D01*
X123961973Y-110412297D01*
X123885295Y-110026805D01*
X123885292Y-110026794D01*
X123885291Y-110026791D01*
X123885290Y-110026785D01*
X123771190Y-109650647D01*
X123620771Y-109287503D01*
X123608355Y-109264275D01*
X123435488Y-108940862D01*
X123435487Y-108940860D01*
X123435482Y-108940851D01*
X123217107Y-108614031D01*
X122967750Y-108310188D01*
X122967749Y-108310187D01*
X122967745Y-108310182D01*
X122689817Y-108032254D01*
X122385974Y-107782897D01*
X122385973Y-107782896D01*
X122385969Y-107782893D01*
X122059149Y-107564518D01*
X122059144Y-107564515D01*
X122059137Y-107564511D01*
X121712504Y-107379232D01*
X121712499Y-107379230D01*
X121349354Y-107228810D01*
X120973205Y-107114707D01*
X120973194Y-107114704D01*
X120587702Y-107038026D01*
X120293089Y-107009010D01*
X120196532Y-106999500D01*
X119803468Y-106999500D01*
X119714251Y-107008287D01*
X119412297Y-107038026D01*
X119026805Y-107114704D01*
X119026794Y-107114707D01*
X118650645Y-107228810D01*
X118287500Y-107379230D01*
X118287495Y-107379232D01*
X117940862Y-107564511D01*
X117940844Y-107564522D01*
X117614039Y-107782887D01*
X117614025Y-107782897D01*
X117310182Y-108032254D01*
X117032254Y-108310182D01*
X116782897Y-108614025D01*
X116782887Y-108614039D01*
X116564522Y-108940844D01*
X116564511Y-108940862D01*
X116379232Y-109287495D01*
X116379230Y-109287500D01*
X116228810Y-109650645D01*
X116114707Y-110026794D01*
X116114704Y-110026805D01*
X116038026Y-110412297D01*
X115999500Y-110803471D01*
X84000500Y-110803471D01*
X83961973Y-110412297D01*
X83885295Y-110026805D01*
X83885292Y-110026794D01*
X83885291Y-110026791D01*
X83885290Y-110026785D01*
X83771190Y-109650647D01*
X83620771Y-109287503D01*
X83608355Y-109264275D01*
X83435488Y-108940862D01*
X83435487Y-108940860D01*
X83435482Y-108940851D01*
X83217107Y-108614031D01*
X82967750Y-108310188D01*
X82967749Y-108310187D01*
X82967745Y-108310182D01*
X82689817Y-108032254D01*
X82385974Y-107782897D01*
X82385973Y-107782896D01*
X82385969Y-107782893D01*
X82059149Y-107564518D01*
X82059144Y-107564515D01*
X82059137Y-107564511D01*
X81712504Y-107379232D01*
X81712499Y-107379230D01*
X81349354Y-107228810D01*
X80973205Y-107114707D01*
X80973194Y-107114704D01*
X80587702Y-107038026D01*
X80293089Y-107009010D01*
X80196532Y-106999500D01*
X79803468Y-106999500D01*
X79714251Y-107008287D01*
X79412297Y-107038026D01*
X79026805Y-107114704D01*
X79026794Y-107114707D01*
X78650645Y-107228810D01*
X78287500Y-107379230D01*
X78287495Y-107379232D01*
X77940862Y-107564511D01*
X77940844Y-107564522D01*
X77614039Y-107782887D01*
X77614025Y-107782897D01*
X77310182Y-108032254D01*
X77032254Y-108310182D01*
X76782897Y-108614025D01*
X76782887Y-108614039D01*
X76564522Y-108940844D01*
X76564511Y-108940862D01*
X76379232Y-109287495D01*
X76379230Y-109287500D01*
X76228810Y-109650645D01*
X76114707Y-110026794D01*
X76114704Y-110026805D01*
X76038026Y-110412297D01*
X75999500Y-110803471D01*
X25500500Y-110803471D01*
X25500500Y-98803471D01*
X40999500Y-98803471D01*
X40999500Y-99196528D01*
X41038026Y-99587702D01*
X41114704Y-99973194D01*
X41114707Y-99973205D01*
X41228810Y-100349354D01*
X41379230Y-100712499D01*
X41379232Y-100712504D01*
X41564511Y-101059137D01*
X41564522Y-101059155D01*
X41782887Y-101385960D01*
X41782897Y-101385974D01*
X42032254Y-101689817D01*
X42310182Y-101967745D01*
X42310187Y-101967749D01*
X42310188Y-101967750D01*
X42614031Y-102217107D01*
X42940851Y-102435482D01*
X42940860Y-102435487D01*
X42940862Y-102435488D01*
X43287495Y-102620767D01*
X43287497Y-102620767D01*
X43287503Y-102620771D01*
X43650647Y-102771190D01*
X44026785Y-102885290D01*
X44026791Y-102885291D01*
X44026794Y-102885292D01*
X44026805Y-102885295D01*
X44412297Y-102961973D01*
X44803468Y-103000500D01*
X44803471Y-103000500D01*
X45196529Y-103000500D01*
X45196532Y-103000500D01*
X45587703Y-102961973D01*
X45662748Y-102947045D01*
X45973194Y-102885295D01*
X45973205Y-102885292D01*
X45973205Y-102885291D01*
X45973215Y-102885290D01*
X45984077Y-102881995D01*
X98199500Y-102881995D01*
X98199500Y-103118004D01*
X98199501Y-103118020D01*
X98230306Y-103352010D01*
X98291394Y-103579993D01*
X98381714Y-103798045D01*
X98381719Y-103798056D01*
X98452677Y-103920957D01*
X98499727Y-104002450D01*
X98499729Y-104002453D01*
X98499730Y-104002454D01*
X98643406Y-104189697D01*
X98643412Y-104189704D01*
X98810295Y-104356587D01*
X98810301Y-104356592D01*
X98997550Y-104500273D01*
X99128918Y-104576118D01*
X99201943Y-104618280D01*
X99201948Y-104618282D01*
X99201951Y-104618284D01*
X99420007Y-104708606D01*
X99647986Y-104769693D01*
X99881989Y-104800500D01*
X99881996Y-104800500D01*
X100118004Y-104800500D01*
X100118011Y-104800500D01*
X100352014Y-104769693D01*
X100579993Y-104708606D01*
X100798049Y-104618284D01*
X101002450Y-104500273D01*
X101189699Y-104356592D01*
X101356592Y-104189699D01*
X101500273Y-104002450D01*
X101618284Y-103798049D01*
X101708606Y-103579993D01*
X101769693Y-103352014D01*
X101800500Y-103118011D01*
X101800500Y-102881989D01*
X101769693Y-102647986D01*
X101708606Y-102420007D01*
X101618284Y-102201951D01*
X101618282Y-102201948D01*
X101618280Y-102201943D01*
X101576118Y-102128918D01*
X101500273Y-101997550D01*
X101356592Y-101810301D01*
X101356587Y-101810295D01*
X101189704Y-101643412D01*
X101189697Y-101643406D01*
X101002454Y-101499730D01*
X101002453Y-101499729D01*
X101002450Y-101499727D01*
X100920957Y-101452677D01*
X100798056Y-101381719D01*
X100798045Y-101381714D01*
X100579993Y-101291394D01*
X100352010Y-101230306D01*
X100118020Y-101199501D01*
X100118017Y-101199500D01*
X100118011Y-101199500D01*
X99881989Y-101199500D01*
X99881983Y-101199500D01*
X99881979Y-101199501D01*
X99647989Y-101230306D01*
X99420006Y-101291394D01*
X99201954Y-101381714D01*
X99201943Y-101381719D01*
X98997545Y-101499730D01*
X98810302Y-101643406D01*
X98810295Y-101643412D01*
X98643412Y-101810295D01*
X98643406Y-101810302D01*
X98499730Y-101997545D01*
X98381719Y-102201943D01*
X98381714Y-102201954D01*
X98291394Y-102420006D01*
X98230306Y-102647989D01*
X98199501Y-102881979D01*
X98199500Y-102881995D01*
X45984077Y-102881995D01*
X46349353Y-102771190D01*
X46712497Y-102620771D01*
X47059149Y-102435482D01*
X47385969Y-102217107D01*
X47689812Y-101967750D01*
X47967750Y-101689812D01*
X48217107Y-101385969D01*
X48435482Y-101059149D01*
X48620771Y-100712497D01*
X48771190Y-100349353D01*
X48885290Y-99973215D01*
X48885292Y-99973205D01*
X48885295Y-99973194D01*
X48961973Y-99587702D01*
X49000500Y-99196528D01*
X49000500Y-98803471D01*
X150999500Y-98803471D01*
X150999500Y-99196528D01*
X151038026Y-99587702D01*
X151114704Y-99973194D01*
X151114707Y-99973205D01*
X151228810Y-100349354D01*
X151379230Y-100712499D01*
X151379232Y-100712504D01*
X151564511Y-101059137D01*
X151564522Y-101059155D01*
X151782887Y-101385960D01*
X151782897Y-101385974D01*
X152032254Y-101689817D01*
X152310182Y-101967745D01*
X152310187Y-101967749D01*
X152310188Y-101967750D01*
X152614031Y-102217107D01*
X152940851Y-102435482D01*
X152940860Y-102435487D01*
X152940862Y-102435488D01*
X153287495Y-102620767D01*
X153287497Y-102620767D01*
X153287503Y-102620771D01*
X153650647Y-102771190D01*
X154026785Y-102885290D01*
X154026791Y-102885291D01*
X154026794Y-102885292D01*
X154026805Y-102885295D01*
X154412297Y-102961973D01*
X154803468Y-103000500D01*
X154803471Y-103000500D01*
X155196529Y-103000500D01*
X155196532Y-103000500D01*
X155587703Y-102961973D01*
X155662748Y-102947045D01*
X155973194Y-102885295D01*
X155973205Y-102885292D01*
X155973205Y-102885291D01*
X155973215Y-102885290D01*
X156349353Y-102771190D01*
X156712497Y-102620771D01*
X157059149Y-102435482D01*
X157385969Y-102217107D01*
X157689812Y-101967750D01*
X157967750Y-101689812D01*
X158217107Y-101385969D01*
X158435482Y-101059149D01*
X158620771Y-100712497D01*
X158771190Y-100349353D01*
X158885290Y-99973215D01*
X158885292Y-99973205D01*
X158885295Y-99973194D01*
X158961973Y-99587702D01*
X159000500Y-99196528D01*
X159000500Y-98803471D01*
X158961973Y-98412297D01*
X158885295Y-98026805D01*
X158885292Y-98026794D01*
X158885291Y-98026791D01*
X158885290Y-98026785D01*
X158771190Y-97650647D01*
X158620771Y-97287503D01*
X158608355Y-97264275D01*
X158435488Y-96940862D01*
X158435487Y-96940860D01*
X158435482Y-96940851D01*
X158217107Y-96614031D01*
X157967750Y-96310188D01*
X157967749Y-96310187D01*
X157967745Y-96310182D01*
X157689817Y-96032254D01*
X157385974Y-95782897D01*
X157385973Y-95782896D01*
X157385969Y-95782893D01*
X157059149Y-95564518D01*
X157059144Y-95564515D01*
X157059137Y-95564511D01*
X156712504Y-95379232D01*
X156712499Y-95379230D01*
X156349354Y-95228810D01*
X155973205Y-95114707D01*
X155973194Y-95114704D01*
X155587702Y-95038026D01*
X155293089Y-95009010D01*
X155196532Y-94999500D01*
X154803468Y-94999500D01*
X154714251Y-95008287D01*
X154412297Y-95038026D01*
X154026805Y-95114704D01*
X154026794Y-95114707D01*
X153650645Y-95228810D01*
X153287500Y-95379230D01*
X153287495Y-95379232D01*
X152940862Y-95564511D01*
X152940844Y-95564522D01*
X152614039Y-95782887D01*
X152614025Y-95782897D01*
X152310182Y-96032254D01*
X152032254Y-96310182D01*
X151782897Y-96614025D01*
X151782887Y-96614039D01*
X151564522Y-96940844D01*
X151564511Y-96940862D01*
X151379232Y-97287495D01*
X151379230Y-97287500D01*
X151228810Y-97650645D01*
X151114707Y-98026794D01*
X151114704Y-98026805D01*
X151038026Y-98412297D01*
X150999500Y-98803471D01*
X49000500Y-98803471D01*
X48961973Y-98412297D01*
X48885295Y-98026805D01*
X48885292Y-98026794D01*
X48885291Y-98026791D01*
X48885290Y-98026785D01*
X48771190Y-97650647D01*
X48620771Y-97287503D01*
X48608355Y-97264275D01*
X48435488Y-96940862D01*
X48435487Y-96940860D01*
X48435482Y-96940851D01*
X48217107Y-96614031D01*
X47967750Y-96310188D01*
X47967749Y-96310187D01*
X47967745Y-96310182D01*
X47689817Y-96032254D01*
X47385974Y-95782897D01*
X47385973Y-95782896D01*
X47385969Y-95782893D01*
X47059149Y-95564518D01*
X47059144Y-95564515D01*
X47059137Y-95564511D01*
X46712504Y-95379232D01*
X46712499Y-95379230D01*
X46349354Y-95228810D01*
X45973205Y-95114707D01*
X45973194Y-95114704D01*
X45587702Y-95038026D01*
X45293089Y-95009010D01*
X45196532Y-94999500D01*
X44803468Y-94999500D01*
X44714251Y-95008287D01*
X44412297Y-95038026D01*
X44026805Y-95114704D01*
X44026794Y-95114707D01*
X43650645Y-95228810D01*
X43287500Y-95379230D01*
X43287495Y-95379232D01*
X42940862Y-95564511D01*
X42940844Y-95564522D01*
X42614039Y-95782887D01*
X42614025Y-95782897D01*
X42310182Y-96032254D01*
X42032254Y-96310182D01*
X41782897Y-96614025D01*
X41782887Y-96614039D01*
X41564522Y-96940844D01*
X41564511Y-96940862D01*
X41379232Y-97287495D01*
X41379230Y-97287500D01*
X41228810Y-97650645D01*
X41114707Y-98026794D01*
X41114704Y-98026805D01*
X41038026Y-98412297D01*
X40999500Y-98803471D01*
X25500500Y-98803471D01*
X25500500Y-87881995D01*
X66199500Y-87881995D01*
X66199500Y-88118004D01*
X66199501Y-88118020D01*
X66230306Y-88352010D01*
X66291394Y-88579993D01*
X66381714Y-88798045D01*
X66381719Y-88798056D01*
X66452677Y-88920957D01*
X66499727Y-89002450D01*
X66499729Y-89002453D01*
X66499730Y-89002454D01*
X66643406Y-89189697D01*
X66643412Y-89189704D01*
X66810295Y-89356587D01*
X66810301Y-89356592D01*
X66997550Y-89500273D01*
X67128918Y-89576118D01*
X67201943Y-89618280D01*
X67201948Y-89618282D01*
X67201951Y-89618284D01*
X67420007Y-89708606D01*
X67647986Y-89769693D01*
X67881989Y-89800500D01*
X67881996Y-89800500D01*
X68118004Y-89800500D01*
X68118011Y-89800500D01*
X68352014Y-89769693D01*
X68579993Y-89708606D01*
X68798049Y-89618284D01*
X69002450Y-89500273D01*
X69189699Y-89356592D01*
X69356592Y-89189699D01*
X69500273Y-89002450D01*
X69618284Y-88798049D01*
X69708606Y-88579993D01*
X69769693Y-88352014D01*
X69800500Y-88118011D01*
X69800500Y-87881995D01*
X130199500Y-87881995D01*
X130199500Y-88118004D01*
X130199501Y-88118020D01*
X130230306Y-88352010D01*
X130291394Y-88579993D01*
X130381714Y-88798045D01*
X130381719Y-88798056D01*
X130452677Y-88920957D01*
X130499727Y-89002450D01*
X130499729Y-89002453D01*
X130499730Y-89002454D01*
X130643406Y-89189697D01*
X130643412Y-89189704D01*
X130810295Y-89356587D01*
X130810301Y-89356592D01*
X130997550Y-89500273D01*
X131128918Y-89576118D01*
X131201943Y-89618280D01*
X131201948Y-89618282D01*
X131201951Y-89618284D01*
X131420007Y-89708606D01*
X131647986Y-89769693D01*
X131881989Y-89800500D01*
X131881996Y-89800500D01*
X132118004Y-89800500D01*
X132118011Y-89800500D01*
X132352014Y-89769693D01*
X132579993Y-89708606D01*
X132798049Y-89618284D01*
X133002450Y-89500273D01*
X133189699Y-89356592D01*
X133356592Y-89189699D01*
X133500273Y-89002450D01*
X133618284Y-88798049D01*
X133708606Y-88579993D01*
X133769693Y-88352014D01*
X133800500Y-88118011D01*
X133800500Y-87881989D01*
X133769693Y-87647986D01*
X133708606Y-87420007D01*
X133618284Y-87201951D01*
X133618282Y-87201948D01*
X133618280Y-87201943D01*
X133576118Y-87128918D01*
X133500273Y-86997550D01*
X133356592Y-86810301D01*
X133356587Y-86810295D01*
X133189704Y-86643412D01*
X133189697Y-86643406D01*
X133002454Y-86499730D01*
X133002453Y-86499729D01*
X133002450Y-86499727D01*
X132920957Y-86452677D01*
X132798056Y-86381719D01*
X132798045Y-86381714D01*
X132579993Y-86291394D01*
X132352010Y-86230306D01*
X132118020Y-86199501D01*
X132118017Y-86199500D01*
X132118011Y-86199500D01*
X131881989Y-86199500D01*
X131881983Y-86199500D01*
X131881979Y-86199501D01*
X131647989Y-86230306D01*
X131420006Y-86291394D01*
X131201954Y-86381714D01*
X131201943Y-86381719D01*
X130997545Y-86499730D01*
X130810302Y-86643406D01*
X130810295Y-86643412D01*
X130643412Y-86810295D01*
X130643406Y-86810302D01*
X130499730Y-86997545D01*
X130381719Y-87201943D01*
X130381714Y-87201954D01*
X130291394Y-87420006D01*
X130230306Y-87647989D01*
X130199501Y-87881979D01*
X130199500Y-87881995D01*
X69800500Y-87881995D01*
X69800500Y-87881989D01*
X69769693Y-87647986D01*
X69708606Y-87420007D01*
X69618284Y-87201951D01*
X69618282Y-87201948D01*
X69618280Y-87201943D01*
X69576118Y-87128918D01*
X69500273Y-86997550D01*
X69356592Y-86810301D01*
X69356587Y-86810295D01*
X69189704Y-86643412D01*
X69189697Y-86643406D01*
X69002454Y-86499730D01*
X69002453Y-86499729D01*
X69002450Y-86499727D01*
X68920957Y-86452677D01*
X68798056Y-86381719D01*
X68798045Y-86381714D01*
X68579993Y-86291394D01*
X68352010Y-86230306D01*
X68118020Y-86199501D01*
X68118017Y-86199500D01*
X68118011Y-86199500D01*
X67881989Y-86199500D01*
X67881983Y-86199500D01*
X67881979Y-86199501D01*
X67647989Y-86230306D01*
X67420006Y-86291394D01*
X67201954Y-86381714D01*
X67201943Y-86381719D01*
X66997545Y-86499730D01*
X66810302Y-86643406D01*
X66810295Y-86643412D01*
X66643412Y-86810295D01*
X66643406Y-86810302D01*
X66499730Y-86997545D01*
X66381719Y-87201943D01*
X66381714Y-87201954D01*
X66291394Y-87420006D01*
X66230306Y-87647989D01*
X66199501Y-87881979D01*
X66199500Y-87881995D01*
X25500500Y-87881995D01*
X25500500Y-69803471D01*
X95999500Y-69803471D01*
X95999500Y-70196528D01*
X96038026Y-70587702D01*
X96114704Y-70973194D01*
X96114707Y-70973205D01*
X96228810Y-71349354D01*
X96379230Y-71712499D01*
X96379232Y-71712504D01*
X96564511Y-72059137D01*
X96564522Y-72059155D01*
X96782887Y-72385960D01*
X96782897Y-72385974D01*
X97032254Y-72689817D01*
X97310182Y-72967745D01*
X97310187Y-72967749D01*
X97310188Y-72967750D01*
X97614031Y-73217107D01*
X97940851Y-73435482D01*
X97940860Y-73435487D01*
X97940862Y-73435488D01*
X98287495Y-73620767D01*
X98287497Y-73620767D01*
X98287503Y-73620771D01*
X98650647Y-73771190D01*
X99026785Y-73885290D01*
X99026791Y-73885291D01*
X99026794Y-73885292D01*
X99026805Y-73885295D01*
X99412297Y-73961973D01*
X99803468Y-74000500D01*
X99803471Y-74000500D01*
X100196529Y-74000500D01*
X100196532Y-74000500D01*
X100587703Y-73961973D01*
X100662748Y-73947045D01*
X100973194Y-73885295D01*
X100973205Y-73885292D01*
X100973205Y-73885291D01*
X100973215Y-73885290D01*
X101349353Y-73771190D01*
X101712497Y-73620771D01*
X102059149Y-73435482D01*
X102385969Y-73217107D01*
X102689812Y-72967750D01*
X102967750Y-72689812D01*
X103217107Y-72385969D01*
X103435482Y-72059149D01*
X103620771Y-71712497D01*
X103771190Y-71349353D01*
X103885290Y-70973215D01*
X103885292Y-70973205D01*
X103885295Y-70973194D01*
X103961973Y-70587702D01*
X104000500Y-70196528D01*
X104000500Y-69803471D01*
X103961973Y-69412297D01*
X103885295Y-69026805D01*
X103885292Y-69026794D01*
X103885291Y-69026791D01*
X103885290Y-69026785D01*
X103771190Y-68650647D01*
X103620771Y-68287503D01*
X103608355Y-68264275D01*
X103435488Y-67940862D01*
X103435487Y-67940860D01*
X103435482Y-67940851D01*
X103217107Y-67614031D01*
X102967750Y-67310188D01*
X102967749Y-67310187D01*
X102967745Y-67310182D01*
X102689817Y-67032254D01*
X102385974Y-66782897D01*
X102385973Y-66782896D01*
X102385969Y-66782893D01*
X102059149Y-66564518D01*
X102059144Y-66564515D01*
X102059137Y-66564511D01*
X101712504Y-66379232D01*
X101712499Y-66379230D01*
X101349354Y-66228810D01*
X100973205Y-66114707D01*
X100973194Y-66114704D01*
X100587702Y-66038026D01*
X100293089Y-66009010D01*
X100196532Y-65999500D01*
X99803468Y-65999500D01*
X99714251Y-66008287D01*
X99412297Y-66038026D01*
X99026805Y-66114704D01*
X99026794Y-66114707D01*
X98650645Y-66228810D01*
X98287500Y-66379230D01*
X98287495Y-66379232D01*
X97940862Y-66564511D01*
X97940844Y-66564522D01*
X97614039Y-66782887D01*
X97614025Y-66782897D01*
X97310182Y-67032254D01*
X97032254Y-67310182D01*
X96782897Y-67614025D01*
X96782887Y-67614039D01*
X96564522Y-67940844D01*
X96564511Y-67940862D01*
X96379232Y-68287495D01*
X96379230Y-68287500D01*
X96228810Y-68650645D01*
X96114707Y-69026794D01*
X96114704Y-69026805D01*
X96038026Y-69412297D01*
X95999500Y-69803471D01*
X25500500Y-69803471D01*
X25500500Y-60803471D01*
X44999500Y-60803471D01*
X44999500Y-61196528D01*
X45038026Y-61587702D01*
X45114704Y-61973194D01*
X45114707Y-61973205D01*
X45228810Y-62349354D01*
X45379230Y-62712499D01*
X45379232Y-62712504D01*
X45564511Y-63059137D01*
X45564522Y-63059155D01*
X45782887Y-63385960D01*
X45782897Y-63385974D01*
X46032254Y-63689817D01*
X46310182Y-63967745D01*
X46310187Y-63967749D01*
X46310188Y-63967750D01*
X46614031Y-64217107D01*
X46940851Y-64435482D01*
X46940860Y-64435487D01*
X46940862Y-64435488D01*
X47287495Y-64620767D01*
X47287497Y-64620767D01*
X47287503Y-64620771D01*
X47650647Y-64771190D01*
X48026785Y-64885290D01*
X48026791Y-64885291D01*
X48026794Y-64885292D01*
X48026805Y-64885295D01*
X48412297Y-64961973D01*
X48803468Y-65000500D01*
X48803471Y-65000500D01*
X49196529Y-65000500D01*
X49196532Y-65000500D01*
X49587703Y-64961973D01*
X49662748Y-64947045D01*
X49973194Y-64885295D01*
X49973205Y-64885292D01*
X49973205Y-64885291D01*
X49973215Y-64885290D01*
X50349353Y-64771190D01*
X50712497Y-64620771D01*
X51059149Y-64435482D01*
X51385969Y-64217107D01*
X51689812Y-63967750D01*
X51967750Y-63689812D01*
X52217107Y-63385969D01*
X52435482Y-63059149D01*
X52620771Y-62712497D01*
X52771190Y-62349353D01*
X52885290Y-61973215D01*
X52885292Y-61973205D01*
X52885295Y-61973194D01*
X52961973Y-61587702D01*
X53000500Y-61196528D01*
X53000500Y-60803471D01*
X146999500Y-60803471D01*
X146999500Y-61196528D01*
X147038026Y-61587702D01*
X147114704Y-61973194D01*
X147114707Y-61973205D01*
X147228810Y-62349354D01*
X147379230Y-62712499D01*
X147379232Y-62712504D01*
X147564511Y-63059137D01*
X147564522Y-63059155D01*
X147782887Y-63385960D01*
X147782897Y-63385974D01*
X148032254Y-63689817D01*
X148310182Y-63967745D01*
X148310187Y-63967749D01*
X148310188Y-63967750D01*
X148614031Y-64217107D01*
X148940851Y-64435482D01*
X148940860Y-64435487D01*
X148940862Y-64435488D01*
X149287495Y-64620767D01*
X149287497Y-64620767D01*
X149287503Y-64620771D01*
X149650647Y-64771190D01*
X150026785Y-64885290D01*
X150026791Y-64885291D01*
X150026794Y-64885292D01*
X150026805Y-64885295D01*
X150412297Y-64961973D01*
X150803468Y-65000500D01*
X150803471Y-65000500D01*
X151196529Y-65000500D01*
X151196532Y-65000500D01*
X151587703Y-64961973D01*
X151662748Y-64947045D01*
X151973194Y-64885295D01*
X151973205Y-64885292D01*
X151973205Y-64885291D01*
X151973215Y-64885290D01*
X152349353Y-64771190D01*
X152712497Y-64620771D01*
X153059149Y-64435482D01*
X153385969Y-64217107D01*
X153689812Y-63967750D01*
X153967750Y-63689812D01*
X154217107Y-63385969D01*
X154435482Y-63059149D01*
X154620771Y-62712497D01*
X154771190Y-62349353D01*
X154885290Y-61973215D01*
X154885292Y-61973205D01*
X154885295Y-61973194D01*
X154961973Y-61587702D01*
X155000500Y-61196528D01*
X155000500Y-60803471D01*
X154961973Y-60412297D01*
X154885295Y-60026805D01*
X154885292Y-60026794D01*
X154885291Y-60026791D01*
X154885290Y-60026785D01*
X154771190Y-59650647D01*
X154620771Y-59287503D01*
X154608355Y-59264275D01*
X154435488Y-58940862D01*
X154435487Y-58940860D01*
X154435482Y-58940851D01*
X154217107Y-58614031D01*
X153967750Y-58310188D01*
X153967749Y-58310187D01*
X153967745Y-58310182D01*
X153689817Y-58032254D01*
X153385974Y-57782897D01*
X153385973Y-57782896D01*
X153385969Y-57782893D01*
X153059149Y-57564518D01*
X153059144Y-57564515D01*
X153059137Y-57564511D01*
X152712504Y-57379232D01*
X152712499Y-57379230D01*
X152349354Y-57228810D01*
X151973205Y-57114707D01*
X151973194Y-57114704D01*
X151587702Y-57038026D01*
X151293089Y-57009010D01*
X151196532Y-56999500D01*
X150803468Y-56999500D01*
X150714251Y-57008287D01*
X150412297Y-57038026D01*
X150026805Y-57114704D01*
X150026794Y-57114707D01*
X149650645Y-57228810D01*
X149287500Y-57379230D01*
X149287495Y-57379232D01*
X148940862Y-57564511D01*
X148940844Y-57564522D01*
X148614039Y-57782887D01*
X148614025Y-57782897D01*
X148310182Y-58032254D01*
X148032254Y-58310182D01*
X147782897Y-58614025D01*
X147782887Y-58614039D01*
X147564522Y-58940844D01*
X147564511Y-58940862D01*
X147379232Y-59287495D01*
X147379230Y-59287500D01*
X147228810Y-59650645D01*
X147114707Y-60026794D01*
X147114704Y-60026805D01*
X147038026Y-60412297D01*
X146999500Y-60803471D01*
X53000500Y-60803471D01*
X52961973Y-60412297D01*
X52885295Y-60026805D01*
X52885292Y-60026794D01*
X52885291Y-60026791D01*
X52885290Y-60026785D01*
X52771190Y-59650647D01*
X52620771Y-59287503D01*
X52608355Y-59264275D01*
X52435488Y-58940862D01*
X52435487Y-58940860D01*
X52435482Y-58940851D01*
X52217107Y-58614031D01*
X51967750Y-58310188D01*
X51967749Y-58310187D01*
X51967745Y-58310182D01*
X51689817Y-58032254D01*
X51385974Y-57782897D01*
X51385973Y-57782896D01*
X51385969Y-57782893D01*
X51059149Y-57564518D01*
X51059144Y-57564515D01*
X51059137Y-57564511D01*
X50712504Y-57379232D01*
X50712499Y-57379230D01*
X50349354Y-57228810D01*
X49973205Y-57114707D01*
X49973194Y-57114704D01*
X49587702Y-57038026D01*
X49293089Y-57009010D01*
X49196532Y-56999500D01*
X48803468Y-56999500D01*
X48714251Y-57008287D01*
X48412297Y-57038026D01*
X48026805Y-57114704D01*
X48026794Y-57114707D01*
X47650645Y-57228810D01*
X47287500Y-57379230D01*
X47287495Y-57379232D01*
X46940862Y-57564511D01*
X46940844Y-57564522D01*
X46614039Y-57782887D01*
X46614025Y-57782897D01*
X46310182Y-58032254D01*
X46032254Y-58310182D01*
X45782897Y-58614025D01*
X45782887Y-58614039D01*
X45564522Y-58940844D01*
X45564511Y-58940862D01*
X45379232Y-59287495D01*
X45379230Y-59287500D01*
X45228810Y-59650645D01*
X45114707Y-60026794D01*
X45114704Y-60026805D01*
X45038026Y-60412297D01*
X44999500Y-60803471D01*
X25500500Y-60803471D01*
X25500500Y-30624500D01*
X25520185Y-30557461D01*
X25572989Y-30511706D01*
X25624500Y-30500500D01*
X174375500Y-30500500D01*
X174442539Y-30520185D01*
G37*
%TD.AperFunction*%
%TD*%
M02*
