%TF.GenerationSoftware,KiCad,Pcbnew,9.0.0*%
%TF.CreationDate,2025-03-15T21:35:03+01:00*%
%TF.ProjectId,DMH_Dual_VCF_Diode_Ladder_Mk2_PANEL,444d485f-4475-4616-9c5f-5643465f4469,rev?*%
%TF.SameCoordinates,Original*%
%TF.FileFunction,Profile,NP*%
%FSLAX46Y46*%
G04 Gerber Fmt 4.6, Leading zero omitted, Abs format (unit mm)*
G04 Created by KiCad (PCBNEW 9.0.0) date 2025-03-15 21:35:03*
%MOMM*%
%LPD*%
G01*
G04 APERTURE LIST*
%TA.AperFunction,Profile*%
%ADD10C,0.050000*%
%TD*%
G04 APERTURE END LIST*
D10*
X25000000Y-30000000D02*
X175000000Y-30000000D01*
X175000000Y-230000000D01*
X25000000Y-230000000D01*
X25000000Y-30000000D01*
%TO.C,H15*%
X154900000Y-190250000D02*
G75*
G02*
X145100000Y-190250000I-4900000J0D01*
G01*
X145100000Y-190250000D02*
G75*
G02*
X154900000Y-190250000I4900000J0D01*
G01*
%TO.C,H22*%
X163500000Y-134000000D02*
G75*
G02*
X154500000Y-134000000I-4500000J0D01*
G01*
X154500000Y-134000000D02*
G75*
G02*
X163500000Y-134000000I4500000J0D01*
G01*
%TO.C,H25*%
X154900000Y-208750000D02*
G75*
G02*
X145100000Y-208750000I-4900000J0D01*
G01*
X145100000Y-208750000D02*
G75*
G02*
X154900000Y-208750000I4900000J0D01*
G01*
%TO.C,H16*%
X171400000Y-190250000D02*
G75*
G02*
X161600000Y-190250000I-4900000J0D01*
G01*
X161600000Y-190250000D02*
G75*
G02*
X171400000Y-190250000I4900000J0D01*
G01*
%TO.C,H5*%
X38400000Y-190250000D02*
G75*
G02*
X28600000Y-190250000I-4900000J0D01*
G01*
X28600000Y-190250000D02*
G75*
G02*
X38400000Y-190250000I4900000J0D01*
G01*
%TO.C,H17*%
X42500000Y-166000000D02*
G75*
G02*
X33500000Y-166000000I-4500000J0D01*
G01*
X33500000Y-166000000D02*
G75*
G02*
X42500000Y-166000000I4500000J0D01*
G01*
%TO.C,H10*%
X48500000Y-99000000D02*
G75*
G02*
X41500000Y-99000000I-3500000J0D01*
G01*
X41500000Y-99000000D02*
G75*
G02*
X48500000Y-99000000I3500000J0D01*
G01*
%TO.C,H12*%
X45500000Y-134000000D02*
G75*
G02*
X36500000Y-134000000I-4500000J0D01*
G01*
X36500000Y-134000000D02*
G75*
G02*
X45500000Y-134000000I4500000J0D01*
G01*
%TO.C,H32*%
X117000000Y-166000000D02*
G75*
G02*
X108000000Y-166000000I-4500000J0D01*
G01*
X108000000Y-166000000D02*
G75*
G02*
X117000000Y-166000000I4500000J0D01*
G01*
%TO.C,H50*%
X138400000Y-208750000D02*
G75*
G02*
X128600000Y-208750000I-4900000J0D01*
G01*
X128600000Y-208750000D02*
G75*
G02*
X138400000Y-208750000I4900000J0D01*
G01*
%TO.C,H11*%
X83500000Y-111000000D02*
G75*
G02*
X76500000Y-111000000I-3500000J0D01*
G01*
X76500000Y-111000000D02*
G75*
G02*
X83500000Y-111000000I3500000J0D01*
G01*
%TO.C,H29*%
X121900000Y-208750000D02*
G75*
G02*
X112100000Y-208750000I-4900000J0D01*
G01*
X112100000Y-208750000D02*
G75*
G02*
X121900000Y-208750000I4900000J0D01*
G01*
%TO.C,H13*%
X92000000Y-166000000D02*
G75*
G02*
X83000000Y-166000000I-4500000J0D01*
G01*
X83000000Y-166000000D02*
G75*
G02*
X92000000Y-166000000I4500000J0D01*
G01*
%TO.C,H6*%
X54900000Y-190250000D02*
G75*
G02*
X45100000Y-190250000I-4900000J0D01*
G01*
X45100000Y-190250000D02*
G75*
G02*
X54900000Y-190250000I4900000J0D01*
G01*
%TO.C,H30*%
X171400000Y-208750000D02*
G75*
G02*
X161600000Y-208750000I-4900000J0D01*
G01*
X161600000Y-208750000D02*
G75*
G02*
X171400000Y-208750000I4900000J0D01*
G01*
%TO.C,H27*%
X154500000Y-61000000D02*
G75*
G02*
X147500000Y-61000000I-3500000J0D01*
G01*
X147500000Y-61000000D02*
G75*
G02*
X154500000Y-61000000I3500000J0D01*
G01*
%TO.C,H9*%
X52500000Y-61000000D02*
G75*
G02*
X45500000Y-61000000I-3500000J0D01*
G01*
X45500000Y-61000000D02*
G75*
G02*
X52500000Y-61000000I3500000J0D01*
G01*
%TO.C,H8*%
X38400000Y-208750000D02*
G75*
G02*
X28600000Y-208750000I-4900000J0D01*
G01*
X28600000Y-208750000D02*
G75*
G02*
X38400000Y-208750000I4900000J0D01*
G01*
%TO.C,H31*%
X123500000Y-111000000D02*
G75*
G02*
X116500000Y-111000000I-3500000J0D01*
G01*
X116500000Y-111000000D02*
G75*
G02*
X123500000Y-111000000I3500000J0D01*
G01*
%TO.C,H18*%
X54900000Y-208750000D02*
G75*
G02*
X45100000Y-208750000I-4900000J0D01*
G01*
X45100000Y-208750000D02*
G75*
G02*
X54900000Y-208750000I4900000J0D01*
G01*
%TO.C,H21*%
X158500000Y-99000000D02*
G75*
G02*
X151500000Y-99000000I-3500000J0D01*
G01*
X151500000Y-99000000D02*
G75*
G02*
X158500000Y-99000000I3500000J0D01*
G01*
%TO.C,H28*%
X166500000Y-166000000D02*
G75*
G02*
X157500000Y-166000000I-4500000J0D01*
G01*
X157500000Y-166000000D02*
G75*
G02*
X166500000Y-166000000I4500000J0D01*
G01*
%TO.C,H7*%
X87900000Y-208750000D02*
G75*
G02*
X78100000Y-208750000I-4900000J0D01*
G01*
X78100000Y-208750000D02*
G75*
G02*
X87900000Y-208750000I4900000J0D01*
G01*
%TO.C,H43*%
X103500000Y-70000000D02*
G75*
G02*
X96500000Y-70000000I-3500000J0D01*
G01*
X96500000Y-70000000D02*
G75*
G02*
X103500000Y-70000000I3500000J0D01*
G01*
%TO.C,H46*%
X141750000Y-166000000D02*
G75*
G02*
X132750000Y-166000000I-4500000J0D01*
G01*
X132750000Y-166000000D02*
G75*
G02*
X141750000Y-166000000I4500000J0D01*
G01*
%TO.C,H48*%
X71400000Y-208750000D02*
G75*
G02*
X61600000Y-208750000I-4900000J0D01*
G01*
X61600000Y-208750000D02*
G75*
G02*
X71400000Y-208750000I4900000J0D01*
G01*
%TO.C,H45*%
X67250000Y-166000000D02*
G75*
G02*
X58250000Y-166000000I-4500000J0D01*
G01*
X58250000Y-166000000D02*
G75*
G02*
X67250000Y-166000000I4500000J0D01*
G01*
%TO.C,H47*%
X71400000Y-190250000D02*
G75*
G02*
X61600000Y-190250000I-4900000J0D01*
G01*
X61600000Y-190250000D02*
G75*
G02*
X71400000Y-190250000I4900000J0D01*
G01*
%TO.C,H49*%
X138400000Y-190250000D02*
G75*
G02*
X128600000Y-190250000I-4900000J0D01*
G01*
X128600000Y-190250000D02*
G75*
G02*
X138400000Y-190250000I4900000J0D01*
G01*
%TD*%
M02*
