%TF.GenerationSoftware,KiCad,Pcbnew,9.0.0*%
%TF.CreationDate,2025-03-15T21:35:03+01:00*%
%TF.ProjectId,DMH_Dual_VCF_Diode_Ladder_Mk2_PANEL,444d485f-4475-4616-9c5f-5643465f4469,rev?*%
%TF.SameCoordinates,Original*%
%TF.FileFunction,Legend,Bot*%
%TF.FilePolarity,Positive*%
%FSLAX46Y46*%
G04 Gerber Fmt 4.6, Leading zero omitted, Abs format (unit mm)*
G04 Created by KiCad (PCBNEW 9.0.0) date 2025-03-15 21:35:03*
%MOMM*%
%LPD*%
G01*
G04 APERTURE LIST*
%ADD10C,0.100000*%
%ADD11C,0.300000*%
%ADD12C,2.900000*%
%ADD13C,13.000000*%
%ADD14C,0.500000*%
%ADD15C,12.000000*%
%ADD16C,2.500000*%
%ADD17C,3.100000*%
%ADD18C,4.000000*%
%ADD19O,2.500000X1.500000*%
%ADD20R,5.000000X10.000000*%
G04 APERTURE END LIST*
D10*
X95000000Y-226500000D02*
X105000000Y-226500000D01*
X105000000Y-228500000D01*
X95000000Y-228500000D01*
X95000000Y-226500000D01*
G36*
X95000000Y-226500000D02*
G01*
X105000000Y-226500000D01*
X105000000Y-228500000D01*
X95000000Y-228500000D01*
X95000000Y-226500000D01*
G37*
D11*
X111714284Y-223678328D02*
X111714284Y-222178328D01*
X111714284Y-222178328D02*
X111214284Y-223249757D01*
X111214284Y-223249757D02*
X110714284Y-222178328D01*
X110714284Y-222178328D02*
X110714284Y-223678328D01*
X109999998Y-223678328D02*
X109999998Y-222178328D01*
X109857141Y-223106900D02*
X109428569Y-223678328D01*
X109428569Y-222678328D02*
X109999998Y-223249757D01*
X108857140Y-222321185D02*
X108785712Y-222249757D01*
X108785712Y-222249757D02*
X108642855Y-222178328D01*
X108642855Y-222178328D02*
X108285712Y-222178328D01*
X108285712Y-222178328D02*
X108142855Y-222249757D01*
X108142855Y-222249757D02*
X108071426Y-222321185D01*
X108071426Y-222321185D02*
X107999997Y-222464042D01*
X107999997Y-222464042D02*
X107999997Y-222606900D01*
X107999997Y-222606900D02*
X108071426Y-222821185D01*
X108071426Y-222821185D02*
X108928569Y-223678328D01*
X108928569Y-223678328D02*
X107999997Y-223678328D01*
X107357141Y-223535471D02*
X107285712Y-223606900D01*
X107285712Y-223606900D02*
X107357141Y-223678328D01*
X107357141Y-223678328D02*
X107428569Y-223606900D01*
X107428569Y-223606900D02*
X107357141Y-223535471D01*
X107357141Y-223535471D02*
X107357141Y-223678328D01*
X106357140Y-222178328D02*
X106214283Y-222178328D01*
X106214283Y-222178328D02*
X106071426Y-222249757D01*
X106071426Y-222249757D02*
X105999998Y-222321185D01*
X105999998Y-222321185D02*
X105928569Y-222464042D01*
X105928569Y-222464042D02*
X105857140Y-222749757D01*
X105857140Y-222749757D02*
X105857140Y-223106900D01*
X105857140Y-223106900D02*
X105928569Y-223392614D01*
X105928569Y-223392614D02*
X105999998Y-223535471D01*
X105999998Y-223535471D02*
X106071426Y-223606900D01*
X106071426Y-223606900D02*
X106214283Y-223678328D01*
X106214283Y-223678328D02*
X106357140Y-223678328D01*
X106357140Y-223678328D02*
X106499998Y-223606900D01*
X106499998Y-223606900D02*
X106571426Y-223535471D01*
X106571426Y-223535471D02*
X106642855Y-223392614D01*
X106642855Y-223392614D02*
X106714283Y-223106900D01*
X106714283Y-223106900D02*
X106714283Y-222749757D01*
X106714283Y-222749757D02*
X106642855Y-222464042D01*
X106642855Y-222464042D02*
X106571426Y-222321185D01*
X106571426Y-222321185D02*
X106499998Y-222249757D01*
X106499998Y-222249757D02*
X106357140Y-222178328D01*
X104071427Y-223106900D02*
X102928570Y-223106900D01*
X101071427Y-223678328D02*
X101071427Y-222178328D01*
X101071427Y-222178328D02*
X100571427Y-223249757D01*
X100571427Y-223249757D02*
X100071427Y-222178328D01*
X100071427Y-222178328D02*
X100071427Y-223678328D01*
X98714284Y-223678328D02*
X98714284Y-222892614D01*
X98714284Y-222892614D02*
X98785712Y-222749757D01*
X98785712Y-222749757D02*
X98928569Y-222678328D01*
X98928569Y-222678328D02*
X99214284Y-222678328D01*
X99214284Y-222678328D02*
X99357141Y-222749757D01*
X98714284Y-223606900D02*
X98857141Y-223678328D01*
X98857141Y-223678328D02*
X99214284Y-223678328D01*
X99214284Y-223678328D02*
X99357141Y-223606900D01*
X99357141Y-223606900D02*
X99428569Y-223464042D01*
X99428569Y-223464042D02*
X99428569Y-223321185D01*
X99428569Y-223321185D02*
X99357141Y-223178328D01*
X99357141Y-223178328D02*
X99214284Y-223106900D01*
X99214284Y-223106900D02*
X98857141Y-223106900D01*
X98857141Y-223106900D02*
X98714284Y-223035471D01*
X97999998Y-223678328D02*
X97999998Y-222678328D01*
X97999998Y-222964042D02*
X97928569Y-222821185D01*
X97928569Y-222821185D02*
X97857141Y-222749757D01*
X97857141Y-222749757D02*
X97714283Y-222678328D01*
X97714283Y-222678328D02*
X97571426Y-222678328D01*
X96428570Y-223606900D02*
X96571427Y-223678328D01*
X96571427Y-223678328D02*
X96857141Y-223678328D01*
X96857141Y-223678328D02*
X96999998Y-223606900D01*
X96999998Y-223606900D02*
X97071427Y-223535471D01*
X97071427Y-223535471D02*
X97142855Y-223392614D01*
X97142855Y-223392614D02*
X97142855Y-222964042D01*
X97142855Y-222964042D02*
X97071427Y-222821185D01*
X97071427Y-222821185D02*
X96999998Y-222749757D01*
X96999998Y-222749757D02*
X96857141Y-222678328D01*
X96857141Y-222678328D02*
X96571427Y-222678328D01*
X96571427Y-222678328D02*
X96428570Y-222749757D01*
X95785713Y-223678328D02*
X95785713Y-222178328D01*
X95142856Y-223678328D02*
X95142856Y-222892614D01*
X95142856Y-222892614D02*
X95214284Y-222749757D01*
X95214284Y-222749757D02*
X95357141Y-222678328D01*
X95357141Y-222678328D02*
X95571427Y-222678328D01*
X95571427Y-222678328D02*
X95714284Y-222749757D01*
X95714284Y-222749757D02*
X95785713Y-222821185D01*
X93357141Y-222321185D02*
X93285713Y-222249757D01*
X93285713Y-222249757D02*
X93142856Y-222178328D01*
X93142856Y-222178328D02*
X92785713Y-222178328D01*
X92785713Y-222178328D02*
X92642856Y-222249757D01*
X92642856Y-222249757D02*
X92571427Y-222321185D01*
X92571427Y-222321185D02*
X92499998Y-222464042D01*
X92499998Y-222464042D02*
X92499998Y-222606900D01*
X92499998Y-222606900D02*
X92571427Y-222821185D01*
X92571427Y-222821185D02*
X93428570Y-223678328D01*
X93428570Y-223678328D02*
X92499998Y-223678328D01*
X91571427Y-222178328D02*
X91428570Y-222178328D01*
X91428570Y-222178328D02*
X91285713Y-222249757D01*
X91285713Y-222249757D02*
X91214285Y-222321185D01*
X91214285Y-222321185D02*
X91142856Y-222464042D01*
X91142856Y-222464042D02*
X91071427Y-222749757D01*
X91071427Y-222749757D02*
X91071427Y-223106900D01*
X91071427Y-223106900D02*
X91142856Y-223392614D01*
X91142856Y-223392614D02*
X91214285Y-223535471D01*
X91214285Y-223535471D02*
X91285713Y-223606900D01*
X91285713Y-223606900D02*
X91428570Y-223678328D01*
X91428570Y-223678328D02*
X91571427Y-223678328D01*
X91571427Y-223678328D02*
X91714285Y-223606900D01*
X91714285Y-223606900D02*
X91785713Y-223535471D01*
X91785713Y-223535471D02*
X91857142Y-223392614D01*
X91857142Y-223392614D02*
X91928570Y-223106900D01*
X91928570Y-223106900D02*
X91928570Y-222749757D01*
X91928570Y-222749757D02*
X91857142Y-222464042D01*
X91857142Y-222464042D02*
X91785713Y-222321185D01*
X91785713Y-222321185D02*
X91714285Y-222249757D01*
X91714285Y-222249757D02*
X91571427Y-222178328D01*
X90499999Y-222321185D02*
X90428571Y-222249757D01*
X90428571Y-222249757D02*
X90285714Y-222178328D01*
X90285714Y-222178328D02*
X89928571Y-222178328D01*
X89928571Y-222178328D02*
X89785714Y-222249757D01*
X89785714Y-222249757D02*
X89714285Y-222321185D01*
X89714285Y-222321185D02*
X89642856Y-222464042D01*
X89642856Y-222464042D02*
X89642856Y-222606900D01*
X89642856Y-222606900D02*
X89714285Y-222821185D01*
X89714285Y-222821185D02*
X90571428Y-223678328D01*
X90571428Y-223678328D02*
X89642856Y-223678328D01*
X88285714Y-222178328D02*
X89000000Y-222178328D01*
X89000000Y-222178328D02*
X89071428Y-222892614D01*
X89071428Y-222892614D02*
X89000000Y-222821185D01*
X89000000Y-222821185D02*
X88857143Y-222749757D01*
X88857143Y-222749757D02*
X88500000Y-222749757D01*
X88500000Y-222749757D02*
X88357143Y-222821185D01*
X88357143Y-222821185D02*
X88285714Y-222892614D01*
X88285714Y-222892614D02*
X88214285Y-223035471D01*
X88214285Y-223035471D02*
X88214285Y-223392614D01*
X88214285Y-223392614D02*
X88285714Y-223535471D01*
X88285714Y-223535471D02*
X88357143Y-223606900D01*
X88357143Y-223606900D02*
X88500000Y-223678328D01*
X88500000Y-223678328D02*
X88857143Y-223678328D01*
X88857143Y-223678328D02*
X89000000Y-223606900D01*
X89000000Y-223606900D02*
X89071428Y-223535471D01*
X31142856Y-122749757D02*
X31285714Y-122678328D01*
X31285714Y-122678328D02*
X31499999Y-122678328D01*
X31499999Y-122678328D02*
X31714285Y-122749757D01*
X31714285Y-122749757D02*
X31857142Y-122892614D01*
X31857142Y-122892614D02*
X31928571Y-123035471D01*
X31928571Y-123035471D02*
X31999999Y-123321185D01*
X31999999Y-123321185D02*
X31999999Y-123535471D01*
X31999999Y-123535471D02*
X31928571Y-123821185D01*
X31928571Y-123821185D02*
X31857142Y-123964042D01*
X31857142Y-123964042D02*
X31714285Y-124106900D01*
X31714285Y-124106900D02*
X31499999Y-124178328D01*
X31499999Y-124178328D02*
X31357142Y-124178328D01*
X31357142Y-124178328D02*
X31142856Y-124106900D01*
X31142856Y-124106900D02*
X31071428Y-124035471D01*
X31071428Y-124035471D02*
X31071428Y-123535471D01*
X31071428Y-123535471D02*
X31357142Y-123535471D01*
X30428571Y-124178328D02*
X30428571Y-122678328D01*
X30428571Y-122678328D02*
X29571428Y-124178328D01*
X29571428Y-124178328D02*
X29571428Y-122678328D01*
X28857142Y-124178328D02*
X28857142Y-122678328D01*
X28857142Y-122678328D02*
X28499999Y-122678328D01*
X28499999Y-122678328D02*
X28285713Y-122749757D01*
X28285713Y-122749757D02*
X28142856Y-122892614D01*
X28142856Y-122892614D02*
X28071427Y-123035471D01*
X28071427Y-123035471D02*
X27999999Y-123321185D01*
X27999999Y-123321185D02*
X27999999Y-123535471D01*
X27999999Y-123535471D02*
X28071427Y-123821185D01*
X28071427Y-123821185D02*
X28142856Y-123964042D01*
X28142856Y-123964042D02*
X28285713Y-124106900D01*
X28285713Y-124106900D02*
X28499999Y-124178328D01*
X28499999Y-124178328D02*
X28857142Y-124178328D01*
%LPC*%
D12*
%TO.C,H34*%
X122000000Y-133900000D03*
D13*
X122000000Y-140000000D03*
%TD*%
D14*
%TO.C,H15*%
X144300000Y-190250000D03*
X145960000Y-186220000D03*
X145970000Y-194290000D03*
X150000000Y-184550000D03*
D15*
X150000000Y-190250000D03*
D14*
X150000000Y-195950000D03*
X154030000Y-194290000D03*
X154040000Y-186220000D03*
X155700000Y-190250000D03*
%TD*%
D16*
%TO.C,H52*%
X141000000Y-122750000D03*
%TD*%
D12*
%TO.C,H33*%
X100000000Y-202650000D03*
D13*
X100000000Y-208750000D03*
%TD*%
D17*
%TO.C,H40*%
X68000000Y-88000000D03*
%TD*%
D18*
%TO.C,H3*%
X28500000Y-226500000D03*
%TD*%
D15*
%TO.C,H22*%
X159000000Y-134000000D03*
%TD*%
D14*
%TO.C,H25*%
X144300000Y-208750000D03*
X145960000Y-204720000D03*
X145970000Y-212790000D03*
X150000000Y-203050000D03*
D15*
X150000000Y-208750000D03*
D14*
X150000000Y-214450000D03*
X154030000Y-212790000D03*
X154040000Y-204720000D03*
X155700000Y-208750000D03*
%TD*%
%TO.C,H16*%
X160800000Y-190250000D03*
X162460000Y-186220000D03*
X162470000Y-194290000D03*
X166500000Y-184550000D03*
D15*
X166500000Y-190250000D03*
D14*
X166500000Y-195950000D03*
X170530000Y-194290000D03*
X170540000Y-186220000D03*
X172200000Y-190250000D03*
%TD*%
D18*
%TO.C,H39*%
X128500000Y-226500000D03*
%TD*%
D12*
%TO.C,H23*%
X117000000Y-184150000D03*
D13*
X117000000Y-190250000D03*
%TD*%
D14*
%TO.C,H5*%
X27800000Y-190250000D03*
X29460000Y-186220000D03*
X29470000Y-194290000D03*
X33500000Y-184550000D03*
D15*
X33500000Y-190250000D03*
D14*
X33500000Y-195950000D03*
X37530000Y-194290000D03*
X37540000Y-186220000D03*
X39200000Y-190250000D03*
%TD*%
D16*
%TO.C,H53*%
X50750000Y-151000000D03*
%TD*%
D15*
%TO.C,H17*%
X38000000Y-166000000D03*
%TD*%
D16*
%TO.C,H51*%
X59000000Y-122750000D03*
%TD*%
D15*
%TO.C,H10*%
X45000000Y-99000000D03*
D19*
X45000000Y-105000000D03*
%TD*%
D15*
%TO.C,H12*%
X41000000Y-134000000D03*
%TD*%
D12*
%TO.C,H44*%
X100000000Y-184150000D03*
D13*
X100000000Y-190250000D03*
%TD*%
D15*
%TO.C,H32*%
X112500000Y-166000000D03*
%TD*%
D14*
%TO.C,H50*%
X127800000Y-208750000D03*
X129460000Y-204720000D03*
X129470000Y-212790000D03*
X133500000Y-203050000D03*
D15*
X133500000Y-208750000D03*
D14*
X133500000Y-214450000D03*
X137530000Y-212790000D03*
X137540000Y-204720000D03*
X139200000Y-208750000D03*
%TD*%
D15*
%TO.C,H11*%
X80000000Y-111000000D03*
D19*
X80000000Y-117000000D03*
%TD*%
D12*
%TO.C,H20*%
X78000000Y-133900000D03*
D13*
X78000000Y-140000000D03*
%TD*%
D12*
%TO.C,H24*%
X136000000Y-133900000D03*
D13*
X136000000Y-140000000D03*
%TD*%
D14*
%TO.C,H29*%
X111300000Y-208750000D03*
X112960000Y-204720000D03*
X112970000Y-212790000D03*
X117000000Y-203050000D03*
D15*
X117000000Y-208750000D03*
D14*
X117000000Y-214450000D03*
X121030000Y-212790000D03*
X121040000Y-204720000D03*
X122700000Y-208750000D03*
%TD*%
D15*
%TO.C,H13*%
X87500000Y-166000000D03*
%TD*%
D18*
%TO.C,H36*%
X71500000Y-33500000D03*
%TD*%
D17*
%TO.C,H41*%
X100000000Y-103000000D03*
%TD*%
D14*
%TO.C,H6*%
X44300000Y-190250000D03*
X45960000Y-186220000D03*
X45970000Y-194290000D03*
X50000000Y-184550000D03*
D15*
X50000000Y-190250000D03*
D14*
X50000000Y-195950000D03*
X54030000Y-194290000D03*
X54040000Y-186220000D03*
X55700000Y-190250000D03*
%TD*%
D18*
%TO.C,H37*%
X71500000Y-226500000D03*
%TD*%
D14*
%TO.C,H30*%
X160800000Y-208750000D03*
X162460000Y-204720000D03*
X162470000Y-212790000D03*
X166500000Y-203050000D03*
D15*
X166500000Y-208750000D03*
D14*
X166500000Y-214450000D03*
X170530000Y-212790000D03*
X170540000Y-204720000D03*
X172200000Y-208750000D03*
%TD*%
D15*
%TO.C,H27*%
X151000000Y-61000000D03*
D19*
X151000000Y-67000000D03*
%TD*%
D18*
%TO.C,H38*%
X128500000Y-33500000D03*
%TD*%
D15*
%TO.C,H9*%
X49000000Y-61000000D03*
D19*
X49000000Y-67000000D03*
%TD*%
D14*
%TO.C,H8*%
X27800000Y-208750000D03*
X29460000Y-204720000D03*
X29470000Y-212790000D03*
X33500000Y-203050000D03*
D15*
X33500000Y-208750000D03*
D14*
X33500000Y-214450000D03*
X37530000Y-212790000D03*
X37540000Y-204720000D03*
X39200000Y-208750000D03*
%TD*%
D15*
%TO.C,H31*%
X120000000Y-111000000D03*
D19*
X120000000Y-117000000D03*
%TD*%
D14*
%TO.C,H18*%
X44300000Y-208750000D03*
X45960000Y-204720000D03*
X45970000Y-212790000D03*
X50000000Y-203050000D03*
D15*
X50000000Y-208750000D03*
D14*
X50000000Y-214450000D03*
X54030000Y-212790000D03*
X54040000Y-204720000D03*
X55700000Y-208750000D03*
%TD*%
D12*
%TO.C,H19*%
X83000000Y-184150000D03*
D13*
X83000000Y-190250000D03*
%TD*%
D16*
%TO.C,H54*%
X149750000Y-151000000D03*
%TD*%
D17*
%TO.C,H42*%
X132000000Y-88000000D03*
%TD*%
D15*
%TO.C,H21*%
X155000000Y-99000000D03*
D19*
X155000000Y-105000000D03*
%TD*%
D18*
%TO.C,H2*%
X171500000Y-33500000D03*
%TD*%
%TO.C,H4*%
X171500000Y-226500000D03*
%TD*%
D15*
%TO.C,H28*%
X162000000Y-166000000D03*
%TD*%
D14*
%TO.C,H7*%
X77300000Y-208750000D03*
X78960000Y-204720000D03*
X78970000Y-212790000D03*
X83000000Y-203050000D03*
D15*
X83000000Y-208750000D03*
D14*
X83000000Y-214450000D03*
X87030000Y-212790000D03*
X87040000Y-204720000D03*
X88700000Y-208750000D03*
%TD*%
D15*
%TO.C,H43*%
X100000000Y-70000000D03*
D19*
X100000000Y-76000000D03*
%TD*%
D18*
%TO.C,H1*%
X28500000Y-33500000D03*
%TD*%
D15*
%TO.C,H46*%
X137250000Y-166000000D03*
%TD*%
D14*
%TO.C,H48*%
X60800000Y-208750000D03*
X62460000Y-204720000D03*
X62470000Y-212790000D03*
X66500000Y-203050000D03*
D15*
X66500000Y-208750000D03*
D14*
X66500000Y-214450000D03*
X70530000Y-212790000D03*
X70540000Y-204720000D03*
X72200000Y-208750000D03*
%TD*%
D15*
%TO.C,H45*%
X62750000Y-166000000D03*
%TD*%
D12*
%TO.C,H14*%
X64000000Y-133900000D03*
D13*
X64000000Y-140000000D03*
%TD*%
D12*
%TO.C,H26*%
X92000000Y-133900000D03*
D13*
X92000000Y-140000000D03*
%TD*%
D14*
%TO.C,H47*%
X60800000Y-190250000D03*
X62460000Y-186220000D03*
X62470000Y-194290000D03*
X66500000Y-184550000D03*
D15*
X66500000Y-190250000D03*
D14*
X66500000Y-195950000D03*
X70530000Y-194290000D03*
X70540000Y-186220000D03*
X72200000Y-190250000D03*
%TD*%
%TO.C,H49*%
X127800000Y-190250000D03*
X129460000Y-186220000D03*
X129470000Y-194290000D03*
X133500000Y-184550000D03*
D15*
X133500000Y-190250000D03*
D14*
X133500000Y-195950000D03*
X137530000Y-194290000D03*
X137540000Y-186220000D03*
X139200000Y-190250000D03*
%TD*%
D12*
%TO.C,H35*%
X108000000Y-133900000D03*
D13*
X108000000Y-140000000D03*
%TD*%
D20*
%TO.C,J0*%
X30000000Y-130000000D03*
%TD*%
%LPD*%
M02*
