M48
; DRILL file {KiCad 9.0.0} date 2025-03-15T21:38:48+0100
; FORMAT={-:-/ absolute / metric / decimal}
; #@! TF.CreationDate,2025-03-15T21:38:48+01:00
; #@! TF.GenerationSoftware,Kicad,Pcbnew,9.0.0
; #@! TF.FileFunction,Plated,1,2,PTH
FMAT,2
METRIC
; #@! TA.AperFunction,Plated,PTH,ComponentDrill
T1C0.800
; #@! TA.AperFunction,Plated,PTH,ComponentDrill
T2C1.000
; #@! TA.AperFunction,Plated,PTH,ComponentDrill
T3C1.100
%
G90
G05
T1
X29.25Y-109.69
X29.25Y-117.31
X30.0Y-72.44
X30.0Y-80.06
X34.19Y-55.25
X34.19Y-58.5
X34.19Y-67.25
X34.19Y-70.5
X34.19Y-73.75
X34.19Y-77.0
X34.19Y-80.25
X34.19Y-83.5
X34.19Y-100.25
X34.19Y-103.5
X34.19Y-112.25
X34.19Y-115.5
X34.19Y-118.75
X34.19Y-122.0
X34.19Y-125.25
X34.19Y-128.5
X34.19Y-133.25
X35.45Y-49.25
X35.45Y-94.25
X35.5Y-62.75
X35.5Y-107.75
X35.5Y-152.75
X37.99Y-49.25
X37.99Y-94.25
X40.5Y-62.75
X40.5Y-107.75
X40.5Y-152.75
X40.53Y-49.25
X40.53Y-94.25
X41.81Y-55.25
X41.81Y-58.5
X41.81Y-67.25
X41.81Y-70.5
X41.81Y-73.75
X41.81Y-77.0
X41.81Y-80.25
X41.81Y-83.5
X41.81Y-100.25
X41.81Y-103.5
X41.81Y-112.25
X41.81Y-115.5
X41.81Y-118.75
X41.81Y-122.0
X41.81Y-125.25
X41.81Y-128.5
X41.81Y-133.25
X46.18Y-55.125
X46.18Y-57.665
X46.18Y-60.205
X46.18Y-62.745
X46.18Y-65.285
X46.18Y-67.825
X46.18Y-70.365
X46.18Y-100.125
X46.18Y-102.665
X46.18Y-105.205
X46.18Y-107.745
X46.18Y-110.285
X46.18Y-112.825
X46.18Y-115.365
X46.18Y-145.125
X46.18Y-147.665
X46.18Y-150.205
X46.18Y-152.745
X46.18Y-155.285
X46.18Y-157.825
X46.18Y-160.365
X46.19Y-44.5
X46.19Y-74.5
X46.19Y-89.5
X46.19Y-119.5
X46.19Y-131.5
X46.19Y-134.75
X46.19Y-170.75
X46.19Y-174.75
X46.25Y-122.96
X46.25Y-125.5
X46.25Y-128.04
X46.5Y-77.95
X46.5Y-80.49
X46.5Y-83.03
X47.46Y-49.25
X47.46Y-94.25
X47.46Y-139.25
X47.46Y-166.25
X50.0Y-49.25
X50.0Y-94.25
X50.0Y-139.25
X50.0Y-166.25
X52.5Y-77.96
X52.5Y-80.5
X52.5Y-83.04
X52.54Y-49.25
X52.54Y-94.25
X52.54Y-139.25
X52.54Y-166.25
X52.75Y-122.96
X52.75Y-125.5
X52.75Y-128.04
X53.8Y-55.125
X53.8Y-57.665
X53.8Y-60.205
X53.8Y-62.745
X53.8Y-65.285
X53.8Y-67.825
X53.8Y-70.365
X53.8Y-100.125
X53.8Y-102.665
X53.8Y-105.205
X53.8Y-107.745
X53.8Y-110.285
X53.8Y-112.825
X53.8Y-115.365
X53.8Y-145.125
X53.8Y-147.665
X53.8Y-150.205
X53.8Y-152.745
X53.8Y-155.285
X53.8Y-157.825
X53.8Y-160.365
X53.81Y-44.5
X53.81Y-74.5
X53.81Y-89.5
X53.81Y-119.5
X53.81Y-131.5
X53.81Y-134.75
X53.81Y-170.75
X53.81Y-174.75
X58.0Y-140.44
X58.0Y-148.06
X58.69Y-70.5
X58.69Y-73.75
X58.69Y-77.0
X58.69Y-80.25
X58.69Y-112.25
X58.69Y-115.5
X58.69Y-118.75
X58.69Y-122.0
X58.69Y-130.75
X58.69Y-135.5
X58.75Y-152.75
X59.0Y-107.75
X60.0Y-62.75
X61.19Y-100.0
X62.294Y-163.94
X62.294Y-171.56
X63.75Y-152.75
X64.0Y-107.75
X64.69Y-140.5
X64.69Y-146.5
X64.69Y-149.75
X64.69Y-155.75
X64.69Y-159.0
X65.0Y-62.75
X66.0Y-143.5
X66.0Y-152.75
X66.25Y-107.75
X66.31Y-70.5
X66.31Y-73.75
X66.31Y-77.0
X66.31Y-80.25
X66.31Y-112.25
X66.31Y-115.5
X66.31Y-118.75
X66.31Y-122.0
X66.31Y-130.75
X66.31Y-135.5
X66.612Y-163.94
X66.612Y-171.56
X66.75Y-174.25
X66.75Y-179.25
X68.75Y-122.0
X68.81Y-100.0
X70.931Y-163.94
X70.931Y-171.56
X71.0Y-143.5
X71.0Y-152.75
X71.0Y-174.25
X71.0Y-179.25
X71.25Y-107.75
X71.25Y-111.19
X71.25Y-118.81
X72.31Y-140.5
X72.31Y-146.5
X72.31Y-149.75
X72.31Y-155.75
X72.31Y-159.0
X73.75Y-122.0
X74.295Y-47.5
X75.25Y-163.94
X75.25Y-171.56
X75.25Y-174.25
X75.25Y-179.25
X75.94Y-88.75
X75.94Y-92.0
X75.94Y-95.5
X75.94Y-118.75
X75.94Y-122.0
X75.94Y-130.75
X75.94Y-134.0
X75.94Y-137.25
X75.94Y-140.5
X76.0Y-100.125
X76.0Y-102.665
X76.0Y-105.205
X76.0Y-107.745
X76.0Y-110.285
X76.0Y-112.825
X76.0Y-115.365
X76.0Y-145.125
X76.0Y-147.665
X76.0Y-150.205
X76.0Y-152.745
X76.0Y-155.285
X76.0Y-157.825
X76.0Y-160.365
X76.295Y-47.5
X79.5Y-174.25
X79.5Y-179.25
X79.569Y-163.94
X79.569Y-171.56
X83.56Y-88.75
X83.56Y-92.0
X83.56Y-95.5
X83.56Y-118.75
X83.56Y-122.0
X83.56Y-130.75
X83.56Y-134.0
X83.56Y-137.25
X83.56Y-140.5
X83.62Y-100.125
X83.62Y-102.665
X83.62Y-105.205
X83.62Y-107.745
X83.62Y-110.285
X83.62Y-112.825
X83.62Y-115.365
X83.62Y-145.125
X83.62Y-147.665
X83.62Y-150.205
X83.62Y-152.745
X83.62Y-155.285
X83.62Y-157.825
X83.62Y-160.365
X83.75Y-174.25
X83.75Y-179.25
X83.888Y-163.94
X83.888Y-171.56
X86.69Y-137.25
X86.69Y-140.5
X87.5Y-111.19
X87.5Y-118.81
X88.5Y-107.75
X88.5Y-152.75
X93.0Y-111.19
X93.0Y-118.81
X93.5Y-107.75
X93.5Y-152.75
X94.31Y-137.25
X94.31Y-140.5
X105.69Y-137.25
X105.69Y-140.5
X106.5Y-107.75
X106.5Y-152.75
X107.0Y-111.19
X107.0Y-118.81
X111.5Y-107.75
X111.5Y-152.75
X112.5Y-111.19
X112.5Y-118.81
X113.31Y-137.25
X113.31Y-140.5
X116.0Y-163.94
X116.0Y-171.56
X116.0Y-174.25
X116.0Y-179.25
X116.38Y-100.125
X116.38Y-102.665
X116.38Y-105.205
X116.38Y-107.745
X116.38Y-110.285
X116.38Y-112.825
X116.38Y-115.365
X116.38Y-145.125
X116.38Y-147.665
X116.38Y-150.205
X116.38Y-152.745
X116.38Y-155.285
X116.38Y-157.825
X116.38Y-160.365
X116.44Y-88.75
X116.44Y-92.0
X116.44Y-95.5
X116.44Y-118.75
X116.44Y-122.0
X116.44Y-130.75
X116.44Y-134.0
X116.44Y-137.25
X116.44Y-140.5
X120.5Y-163.94
X120.5Y-171.56
X120.5Y-174.25
X120.5Y-179.25
X123.795Y-47.5
X124.0Y-100.125
X124.0Y-102.665
X124.0Y-105.205
X124.0Y-107.745
X124.0Y-110.285
X124.0Y-112.825
X124.0Y-115.365
X124.0Y-145.125
X124.0Y-147.665
X124.0Y-150.205
X124.0Y-152.745
X124.0Y-155.285
X124.0Y-157.825
X124.0Y-160.365
X124.06Y-88.75
X124.06Y-92.0
X124.06Y-95.5
X124.06Y-118.75
X124.06Y-122.0
X124.06Y-130.75
X124.06Y-134.0
X124.06Y-137.25
X124.06Y-140.5
X125.0Y-163.94
X125.0Y-171.56
X125.0Y-174.25
X125.0Y-179.25
X125.795Y-47.5
X126.25Y-122.0
X127.69Y-140.5
X127.69Y-146.5
X127.69Y-149.75
X127.69Y-155.75
X127.69Y-159.0
X128.75Y-107.75
X128.75Y-111.19
X128.75Y-118.81
X128.75Y-152.75
X129.0Y-143.5
X129.5Y-163.94
X129.5Y-171.56
X129.5Y-174.25
X129.5Y-179.25
X131.19Y-100.0
X131.25Y-122.0
X133.44Y-112.25
X133.44Y-115.5
X133.44Y-118.75
X133.44Y-122.0
X133.44Y-130.75
X133.44Y-135.5
X133.75Y-107.75
X133.75Y-152.75
X133.75Y-163.94
X133.75Y-171.56
X133.75Y-174.25
X133.75Y-179.25
X133.94Y-70.5
X133.94Y-73.75
X133.94Y-77.0
X133.94Y-80.25
X134.0Y-143.5
X135.25Y-62.75
X135.31Y-140.5
X135.31Y-146.5
X135.31Y-149.75
X135.31Y-155.75
X135.31Y-159.0
X136.0Y-107.75
X136.25Y-152.75
X138.15Y-163.94
X138.15Y-171.56
X138.81Y-100.0
X140.25Y-62.75
X141.0Y-107.75
X141.06Y-112.25
X141.06Y-115.5
X141.06Y-118.75
X141.06Y-122.0
X141.06Y-130.75
X141.06Y-135.5
X141.25Y-152.75
X141.56Y-70.5
X141.56Y-73.75
X141.56Y-77.0
X141.56Y-80.25
X142.0Y-140.69
X142.0Y-148.31
X146.18Y-55.125
X146.18Y-57.665
X146.18Y-60.205
X146.18Y-62.745
X146.18Y-65.285
X146.18Y-67.825
X146.18Y-70.365
X146.18Y-100.125
X146.18Y-102.665
X146.18Y-105.205
X146.18Y-107.745
X146.18Y-110.285
X146.18Y-112.825
X146.18Y-115.365
X146.18Y-145.125
X146.18Y-147.665
X146.18Y-150.205
X146.18Y-152.745
X146.18Y-155.285
X146.18Y-157.825
X146.18Y-160.365
X146.19Y-44.5
X146.19Y-74.5
X146.19Y-89.5
X146.19Y-119.5
X146.19Y-131.5
X146.19Y-134.75
X146.19Y-171.0
X146.19Y-174.75
X146.5Y-77.96
X146.5Y-80.5
X146.5Y-83.04
X146.5Y-122.96
X146.5Y-125.5
X146.5Y-128.04
X147.45Y-49.25
X147.45Y-139.25
X147.45Y-166.5
X147.46Y-94.25
X149.99Y-49.25
X149.99Y-139.25
X149.99Y-166.5
X150.0Y-94.25
X152.53Y-49.25
X152.53Y-139.25
X152.53Y-166.5
X152.54Y-94.25
X152.75Y-77.96
X152.75Y-80.5
X152.75Y-83.04
X152.75Y-122.96
X152.75Y-125.5
X152.75Y-128.04
X153.8Y-55.125
X153.8Y-57.665
X153.8Y-60.205
X153.8Y-62.745
X153.8Y-65.285
X153.8Y-67.825
X153.8Y-70.365
X153.8Y-100.125
X153.8Y-102.665
X153.8Y-105.205
X153.8Y-107.745
X153.8Y-110.285
X153.8Y-112.825
X153.8Y-115.365
X153.8Y-145.125
X153.8Y-147.665
X153.8Y-150.205
X153.8Y-152.745
X153.8Y-155.285
X153.8Y-157.825
X153.8Y-160.365
X153.81Y-44.5
X153.81Y-74.5
X153.81Y-89.5
X153.81Y-119.5
X153.81Y-131.5
X153.81Y-134.75
X153.81Y-171.0
X153.81Y-174.75
X158.19Y-55.0
X158.19Y-58.25
X158.19Y-67.25
X158.19Y-70.5
X158.19Y-73.75
X158.19Y-77.0
X158.19Y-80.25
X158.19Y-83.5
X158.19Y-100.0
X158.19Y-103.25
X158.19Y-112.25
X158.19Y-115.5
X158.19Y-118.75
X158.19Y-122.0
X158.19Y-125.25
X158.19Y-128.5
X158.19Y-133.0
X158.75Y-152.75
X159.25Y-107.75
X159.46Y-94.25
X159.47Y-49.25
X159.5Y-62.75
X162.0Y-94.25
X162.01Y-49.25
X163.75Y-152.75
X164.25Y-107.75
X164.5Y-62.75
X164.54Y-94.25
X164.55Y-49.25
X165.81Y-55.0
X165.81Y-58.25
X165.81Y-67.25
X165.81Y-70.5
X165.81Y-73.75
X165.81Y-77.0
X165.81Y-80.25
X165.81Y-83.5
X165.81Y-100.0
X165.81Y-103.25
X165.81Y-112.25
X165.81Y-115.5
X165.81Y-118.75
X165.81Y-122.0
X165.81Y-125.25
X165.81Y-128.5
X165.81Y-133.0
X170.0Y-72.44
X170.0Y-80.06
X170.75Y-109.69
X170.75Y-117.31
T2
X30.0Y-56.5
X30.0Y-59.04
X30.0Y-61.58
X30.0Y-64.12
X30.0Y-66.66
X30.0Y-69.2
X30.0Y-94.5
X30.0Y-97.04
X30.0Y-99.58
X30.0Y-102.12
X30.0Y-104.66
X30.0Y-107.2
X30.0Y-120.0
X30.0Y-128.0
X30.0Y-130.54
X30.0Y-133.08
X30.0Y-135.62
X30.0Y-138.16
X30.0Y-140.7
X30.0Y-143.24
X30.0Y-145.78
X81.92Y-192.248
X81.92Y-194.787
X84.46Y-192.248
X84.46Y-194.787
X87.0Y-192.248
X87.0Y-194.787
X89.54Y-192.248
X89.54Y-194.787
X91.11Y-47.747
X91.11Y-50.287
X92.08Y-192.248
X92.08Y-194.787
X93.65Y-47.747
X93.65Y-50.287
X96.19Y-47.747
X96.19Y-50.287
X96.2Y-62.775
X98.0Y-131.1
X98.0Y-133.64
X98.0Y-136.18
X98.0Y-138.72
X98.0Y-141.26
X98.0Y-143.8
X98.73Y-47.747
X98.73Y-50.287
X98.74Y-62.775
X101.27Y-47.747
X101.27Y-50.287
X101.28Y-62.775
X102.0Y-131.1
X102.0Y-133.64
X102.0Y-136.18
X102.0Y-138.72
X102.0Y-141.26
X102.0Y-143.8
X103.81Y-47.747
X103.81Y-50.287
X103.82Y-62.775
X106.35Y-47.747
X106.35Y-50.287
X107.96Y-192.248
X107.96Y-194.787
X108.89Y-47.747
X108.89Y-50.287
X110.5Y-192.248
X110.5Y-194.787
X113.04Y-192.248
X113.04Y-194.787
X115.58Y-192.248
X115.58Y-194.787
X118.12Y-192.248
X118.12Y-194.787
X170.0Y-56.5
X170.0Y-59.04
X170.0Y-61.58
X170.0Y-64.12
X170.0Y-66.66
X170.0Y-69.2
X170.0Y-94.5
X170.0Y-97.04
X170.0Y-99.58
X170.0Y-102.12
X170.0Y-104.66
X170.0Y-107.2
X170.0Y-128.0
X170.0Y-130.54
X170.0Y-133.08
X170.0Y-135.62
X170.0Y-138.16
X170.0Y-140.7
X170.0Y-143.24
X170.0Y-145.78
T3
X82.0Y-44.17
X82.0Y-54.33
X118.0Y-44.17
X118.0Y-54.33
T2
X34.75Y-196.75G85X33.25Y-196.75
G05
X34.75Y-215.25G85X33.25Y-215.25
G05
X38.627Y-186.184G85X37.566Y-185.123
G05
X38.627Y-204.684G85X37.566Y-203.623
G05
X40.0Y-192.0G85X40.0Y-193.5
G05
X40.0Y-210.5G85X40.0Y-212.0
G05
X45.934Y-185.123G85X44.873Y-186.184
G05
X45.934Y-203.623G85X44.873Y-204.684
G05
X51.75Y-183.75G85X53.25Y-183.75
G05
X51.75Y-202.25G85X53.25Y-202.25
G05
X56.5Y-189.0G85X56.5Y-190.5
G05
X56.5Y-207.5G85X56.5Y-209.0
G05
X62.434Y-185.123G85X61.373Y-186.184
G05
X62.434Y-203.623G85X61.373Y-204.684
G05
X68.25Y-183.75G85X69.75Y-183.75
G05
X68.25Y-202.25G85X69.75Y-202.25
G05
X73.0Y-189.0G85X73.0Y-190.5
G05
X73.0Y-207.5G85X73.0Y-209.0
G05
X78.934Y-203.623G85X77.873Y-204.684
G05
X84.75Y-202.25G85X86.25Y-202.25
G05
X89.5Y-207.5G85X89.5Y-209.0
G05
X112.934Y-203.623G85X111.873Y-204.684
G05
X118.75Y-202.25G85X120.25Y-202.25
G05
X123.5Y-207.5G85X123.5Y-209.0
G05
X129.434Y-185.123G85X128.373Y-186.184
G05
X129.434Y-203.623G85X128.373Y-204.684
G05
X135.25Y-183.75G85X136.75Y-183.75
G05
X135.25Y-202.25G85X136.75Y-202.25
G05
X140.0Y-189.0G85X140.0Y-190.5
G05
X140.0Y-207.5G85X140.0Y-209.0
G05
X145.934Y-185.123G85X144.873Y-186.184
G05
X145.934Y-203.623G85X144.873Y-204.684
G05
X151.75Y-183.75G85X153.25Y-183.75
G05
X151.75Y-202.25G85X153.25Y-202.25
G05
X156.5Y-189.0G85X156.5Y-190.5
G05
X156.5Y-207.5G85X156.5Y-209.0
G05
X160.0Y-188.5G85X160.0Y-187.0
G05
X160.0Y-207.0G85X160.0Y-205.5
G05
X161.373Y-194.316G85X162.434Y-195.377
G05
X161.373Y-212.816G85X162.434Y-213.877
G05
X165.25Y-183.75G85X166.75Y-183.75
G05
X165.25Y-202.25G85X166.75Y-202.25
G05
M30
