%TF.GenerationSoftware,KiCad,Pcbnew,9.0.0*%
%TF.CreationDate,2025-03-15T21:38:48+01:00*%
%TF.ProjectId,DMH_Dual_VCF_Diode_Ladder_Mk2_PCB_1,444d485f-4475-4616-9c5f-5643465f4469,1*%
%TF.SameCoordinates,Original*%
%TF.FileFunction,Drillmap*%
%TF.FilePolarity,Positive*%
%FSLAX45Y45*%
G04 Gerber Fmt 4.5, Leading zero omitted, Abs format (unit mm)*
G04 Created by KiCad (PCBNEW 9.0.0) date 2025-03-15 21:38:48*
%MOMM*%
%LPD*%
G01*
G04 APERTURE LIST*
%ADD10C,0.050000*%
%ADD11C,0.200000*%
%ADD12C,0.100000*%
%ADD13C,0.110000*%
G04 APERTURE END LIST*
D10*
X2700000Y-4250000D02*
X17300000Y-4250000D01*
X17300000Y-21750000D01*
X2700000Y-21750000D01*
X2700000Y-4250000D01*
D11*
D12*
X2885000Y-10929000D02*
X2965000Y-11009000D01*
X2965000Y-10929000D02*
X2885000Y-11009000D01*
X2885000Y-11691000D02*
X2965000Y-11771000D01*
X2965000Y-11691000D02*
X2885000Y-11771000D01*
X2960000Y-7204000D02*
X3040000Y-7284000D01*
X3040000Y-7204000D02*
X2960000Y-7284000D01*
X2960000Y-7966000D02*
X3040000Y-8046000D01*
X3040000Y-7966000D02*
X2960000Y-8046000D01*
X3379000Y-5485000D02*
X3459000Y-5565000D01*
X3459000Y-5485000D02*
X3379000Y-5565000D01*
X3379000Y-5810000D02*
X3459000Y-5890000D01*
X3459000Y-5810000D02*
X3379000Y-5890000D01*
X3379000Y-6685000D02*
X3459000Y-6765000D01*
X3459000Y-6685000D02*
X3379000Y-6765000D01*
X3379000Y-7010000D02*
X3459000Y-7090000D01*
X3459000Y-7010000D02*
X3379000Y-7090000D01*
X3379000Y-7335000D02*
X3459000Y-7415000D01*
X3459000Y-7335000D02*
X3379000Y-7415000D01*
X3379000Y-7660000D02*
X3459000Y-7740000D01*
X3459000Y-7660000D02*
X3379000Y-7740000D01*
X3379000Y-7985000D02*
X3459000Y-8065000D01*
X3459000Y-7985000D02*
X3379000Y-8065000D01*
X3379000Y-8310000D02*
X3459000Y-8390000D01*
X3459000Y-8310000D02*
X3379000Y-8390000D01*
X3379000Y-9985000D02*
X3459000Y-10065000D01*
X3459000Y-9985000D02*
X3379000Y-10065000D01*
X3379000Y-10310000D02*
X3459000Y-10390000D01*
X3459000Y-10310000D02*
X3379000Y-10390000D01*
X3379000Y-11185000D02*
X3459000Y-11265000D01*
X3459000Y-11185000D02*
X3379000Y-11265000D01*
X3379000Y-11510000D02*
X3459000Y-11590000D01*
X3459000Y-11510000D02*
X3379000Y-11590000D01*
X3379000Y-11835000D02*
X3459000Y-11915000D01*
X3459000Y-11835000D02*
X3379000Y-11915000D01*
X3379000Y-12160000D02*
X3459000Y-12240000D01*
X3459000Y-12160000D02*
X3379000Y-12240000D01*
X3379000Y-12485000D02*
X3459000Y-12565000D01*
X3459000Y-12485000D02*
X3379000Y-12565000D01*
X3379000Y-12810000D02*
X3459000Y-12890000D01*
X3459000Y-12810000D02*
X3379000Y-12890000D01*
X3379000Y-13285000D02*
X3459000Y-13365000D01*
X3459000Y-13285000D02*
X3379000Y-13365000D01*
X3505000Y-4885000D02*
X3585000Y-4965000D01*
X3585000Y-4885000D02*
X3505000Y-4965000D01*
X3505000Y-9385000D02*
X3585000Y-9465000D01*
X3585000Y-9385000D02*
X3505000Y-9465000D01*
X3510000Y-6235000D02*
X3590000Y-6315000D01*
X3590000Y-6235000D02*
X3510000Y-6315000D01*
X3510000Y-10735000D02*
X3590000Y-10815000D01*
X3590000Y-10735000D02*
X3510000Y-10815000D01*
X3510000Y-15235000D02*
X3590000Y-15315000D01*
X3590000Y-15235000D02*
X3510000Y-15315000D01*
X3759000Y-4885000D02*
X3839000Y-4965000D01*
X3839000Y-4885000D02*
X3759000Y-4965000D01*
X3759000Y-9385000D02*
X3839000Y-9465000D01*
X3839000Y-9385000D02*
X3759000Y-9465000D01*
X4010000Y-6235000D02*
X4090000Y-6315000D01*
X4090000Y-6235000D02*
X4010000Y-6315000D01*
X4010000Y-10735000D02*
X4090000Y-10815000D01*
X4090000Y-10735000D02*
X4010000Y-10815000D01*
X4010000Y-15235000D02*
X4090000Y-15315000D01*
X4090000Y-15235000D02*
X4010000Y-15315000D01*
X4013000Y-4885000D02*
X4093000Y-4965000D01*
X4093000Y-4885000D02*
X4013000Y-4965000D01*
X4013000Y-9385000D02*
X4093000Y-9465000D01*
X4093000Y-9385000D02*
X4013000Y-9465000D01*
X4141000Y-5485000D02*
X4221000Y-5565000D01*
X4221000Y-5485000D02*
X4141000Y-5565000D01*
X4141000Y-5810000D02*
X4221000Y-5890000D01*
X4221000Y-5810000D02*
X4141000Y-5890000D01*
X4141000Y-6685000D02*
X4221000Y-6765000D01*
X4221000Y-6685000D02*
X4141000Y-6765000D01*
X4141000Y-7010000D02*
X4221000Y-7090000D01*
X4221000Y-7010000D02*
X4141000Y-7090000D01*
X4141000Y-7335000D02*
X4221000Y-7415000D01*
X4221000Y-7335000D02*
X4141000Y-7415000D01*
X4141000Y-7660000D02*
X4221000Y-7740000D01*
X4221000Y-7660000D02*
X4141000Y-7740000D01*
X4141000Y-7985000D02*
X4221000Y-8065000D01*
X4221000Y-7985000D02*
X4141000Y-8065000D01*
X4141000Y-8310000D02*
X4221000Y-8390000D01*
X4221000Y-8310000D02*
X4141000Y-8390000D01*
X4141000Y-9985000D02*
X4221000Y-10065000D01*
X4221000Y-9985000D02*
X4141000Y-10065000D01*
X4141000Y-10310000D02*
X4221000Y-10390000D01*
X4221000Y-10310000D02*
X4141000Y-10390000D01*
X4141000Y-11185000D02*
X4221000Y-11265000D01*
X4221000Y-11185000D02*
X4141000Y-11265000D01*
X4141000Y-11510000D02*
X4221000Y-11590000D01*
X4221000Y-11510000D02*
X4141000Y-11590000D01*
X4141000Y-11835000D02*
X4221000Y-11915000D01*
X4221000Y-11835000D02*
X4141000Y-11915000D01*
X4141000Y-12160000D02*
X4221000Y-12240000D01*
X4221000Y-12160000D02*
X4141000Y-12240000D01*
X4141000Y-12485000D02*
X4221000Y-12565000D01*
X4221000Y-12485000D02*
X4141000Y-12565000D01*
X4141000Y-12810000D02*
X4221000Y-12890000D01*
X4221000Y-12810000D02*
X4141000Y-12890000D01*
X4141000Y-13285000D02*
X4221000Y-13365000D01*
X4221000Y-13285000D02*
X4141000Y-13365000D01*
X4578000Y-5472500D02*
X4658000Y-5552500D01*
X4658000Y-5472500D02*
X4578000Y-5552500D01*
X4578000Y-5726500D02*
X4658000Y-5806500D01*
X4658000Y-5726500D02*
X4578000Y-5806500D01*
X4578000Y-5980500D02*
X4658000Y-6060500D01*
X4658000Y-5980500D02*
X4578000Y-6060500D01*
X4578000Y-6234500D02*
X4658000Y-6314500D01*
X4658000Y-6234500D02*
X4578000Y-6314500D01*
X4578000Y-6488500D02*
X4658000Y-6568500D01*
X4658000Y-6488500D02*
X4578000Y-6568500D01*
X4578000Y-6742500D02*
X4658000Y-6822500D01*
X4658000Y-6742500D02*
X4578000Y-6822500D01*
X4578000Y-6996500D02*
X4658000Y-7076500D01*
X4658000Y-6996500D02*
X4578000Y-7076500D01*
X4578000Y-9972500D02*
X4658000Y-10052500D01*
X4658000Y-9972500D02*
X4578000Y-10052500D01*
X4578000Y-10226500D02*
X4658000Y-10306500D01*
X4658000Y-10226500D02*
X4578000Y-10306500D01*
X4578000Y-10480500D02*
X4658000Y-10560500D01*
X4658000Y-10480500D02*
X4578000Y-10560500D01*
X4578000Y-10734500D02*
X4658000Y-10814500D01*
X4658000Y-10734500D02*
X4578000Y-10814500D01*
X4578000Y-10988500D02*
X4658000Y-11068500D01*
X4658000Y-10988500D02*
X4578000Y-11068500D01*
X4578000Y-11242500D02*
X4658000Y-11322500D01*
X4658000Y-11242500D02*
X4578000Y-11322500D01*
X4578000Y-11496500D02*
X4658000Y-11576500D01*
X4658000Y-11496500D02*
X4578000Y-11576500D01*
X4578000Y-14472500D02*
X4658000Y-14552500D01*
X4658000Y-14472500D02*
X4578000Y-14552500D01*
X4578000Y-14726500D02*
X4658000Y-14806500D01*
X4658000Y-14726500D02*
X4578000Y-14806500D01*
X4578000Y-14980500D02*
X4658000Y-15060500D01*
X4658000Y-14980500D02*
X4578000Y-15060500D01*
X4578000Y-15234500D02*
X4658000Y-15314500D01*
X4658000Y-15234500D02*
X4578000Y-15314500D01*
X4578000Y-15488500D02*
X4658000Y-15568500D01*
X4658000Y-15488500D02*
X4578000Y-15568500D01*
X4578000Y-15742500D02*
X4658000Y-15822500D01*
X4658000Y-15742500D02*
X4578000Y-15822500D01*
X4578000Y-15996500D02*
X4658000Y-16076500D01*
X4658000Y-15996500D02*
X4578000Y-16076500D01*
X4579000Y-4410000D02*
X4659000Y-4490000D01*
X4659000Y-4410000D02*
X4579000Y-4490000D01*
X4579000Y-7410000D02*
X4659000Y-7490000D01*
X4659000Y-7410000D02*
X4579000Y-7490000D01*
X4579000Y-8910000D02*
X4659000Y-8990000D01*
X4659000Y-8910000D02*
X4579000Y-8990000D01*
X4579000Y-11910000D02*
X4659000Y-11990000D01*
X4659000Y-11910000D02*
X4579000Y-11990000D01*
X4579000Y-13110000D02*
X4659000Y-13190000D01*
X4659000Y-13110000D02*
X4579000Y-13190000D01*
X4579000Y-13435000D02*
X4659000Y-13515000D01*
X4659000Y-13435000D02*
X4579000Y-13515000D01*
X4579000Y-17035000D02*
X4659000Y-17115000D01*
X4659000Y-17035000D02*
X4579000Y-17115000D01*
X4579000Y-17435000D02*
X4659000Y-17515000D01*
X4659000Y-17435000D02*
X4579000Y-17515000D01*
X4585000Y-12256000D02*
X4665000Y-12336000D01*
X4665000Y-12256000D02*
X4585000Y-12336000D01*
X4585000Y-12510000D02*
X4665000Y-12590000D01*
X4665000Y-12510000D02*
X4585000Y-12590000D01*
X4585000Y-12764000D02*
X4665000Y-12844000D01*
X4665000Y-12764000D02*
X4585000Y-12844000D01*
X4610000Y-7755000D02*
X4690000Y-7835000D01*
X4690000Y-7755000D02*
X4610000Y-7835000D01*
X4610000Y-8009000D02*
X4690000Y-8089000D01*
X4690000Y-8009000D02*
X4610000Y-8089000D01*
X4610000Y-8263000D02*
X4690000Y-8343000D01*
X4690000Y-8263000D02*
X4610000Y-8343000D01*
X4706000Y-4885000D02*
X4786000Y-4965000D01*
X4786000Y-4885000D02*
X4706000Y-4965000D01*
X4706000Y-9385000D02*
X4786000Y-9465000D01*
X4786000Y-9385000D02*
X4706000Y-9465000D01*
X4706000Y-13885000D02*
X4786000Y-13965000D01*
X4786000Y-13885000D02*
X4706000Y-13965000D01*
X4706000Y-16585000D02*
X4786000Y-16665000D01*
X4786000Y-16585000D02*
X4706000Y-16665000D01*
X4960000Y-4885000D02*
X5040000Y-4965000D01*
X5040000Y-4885000D02*
X4960000Y-4965000D01*
X4960000Y-9385000D02*
X5040000Y-9465000D01*
X5040000Y-9385000D02*
X4960000Y-9465000D01*
X4960000Y-13885000D02*
X5040000Y-13965000D01*
X5040000Y-13885000D02*
X4960000Y-13965000D01*
X4960000Y-16585000D02*
X5040000Y-16665000D01*
X5040000Y-16585000D02*
X4960000Y-16665000D01*
X5210000Y-7756000D02*
X5290000Y-7836000D01*
X5290000Y-7756000D02*
X5210000Y-7836000D01*
X5210000Y-8010000D02*
X5290000Y-8090000D01*
X5290000Y-8010000D02*
X5210000Y-8090000D01*
X5210000Y-8264000D02*
X5290000Y-8344000D01*
X5290000Y-8264000D02*
X5210000Y-8344000D01*
X5214000Y-4885000D02*
X5294000Y-4965000D01*
X5294000Y-4885000D02*
X5214000Y-4965000D01*
X5214000Y-9385000D02*
X5294000Y-9465000D01*
X5294000Y-9385000D02*
X5214000Y-9465000D01*
X5214000Y-13885000D02*
X5294000Y-13965000D01*
X5294000Y-13885000D02*
X5214000Y-13965000D01*
X5214000Y-16585000D02*
X5294000Y-16665000D01*
X5294000Y-16585000D02*
X5214000Y-16665000D01*
X5235000Y-12256000D02*
X5315000Y-12336000D01*
X5315000Y-12256000D02*
X5235000Y-12336000D01*
X5235000Y-12510000D02*
X5315000Y-12590000D01*
X5315000Y-12510000D02*
X5235000Y-12590000D01*
X5235000Y-12764000D02*
X5315000Y-12844000D01*
X5315000Y-12764000D02*
X5235000Y-12844000D01*
X5340000Y-5472500D02*
X5420000Y-5552500D01*
X5420000Y-5472500D02*
X5340000Y-5552500D01*
X5340000Y-5726500D02*
X5420000Y-5806500D01*
X5420000Y-5726500D02*
X5340000Y-5806500D01*
X5340000Y-5980500D02*
X5420000Y-6060500D01*
X5420000Y-5980500D02*
X5340000Y-6060500D01*
X5340000Y-6234500D02*
X5420000Y-6314500D01*
X5420000Y-6234500D02*
X5340000Y-6314500D01*
X5340000Y-6488500D02*
X5420000Y-6568500D01*
X5420000Y-6488500D02*
X5340000Y-6568500D01*
X5340000Y-6742500D02*
X5420000Y-6822500D01*
X5420000Y-6742500D02*
X5340000Y-6822500D01*
X5340000Y-6996500D02*
X5420000Y-7076500D01*
X5420000Y-6996500D02*
X5340000Y-7076500D01*
X5340000Y-9972500D02*
X5420000Y-10052500D01*
X5420000Y-9972500D02*
X5340000Y-10052500D01*
X5340000Y-10226500D02*
X5420000Y-10306500D01*
X5420000Y-10226500D02*
X5340000Y-10306500D01*
X5340000Y-10480500D02*
X5420000Y-10560500D01*
X5420000Y-10480500D02*
X5340000Y-10560500D01*
X5340000Y-10734500D02*
X5420000Y-10814500D01*
X5420000Y-10734500D02*
X5340000Y-10814500D01*
X5340000Y-10988500D02*
X5420000Y-11068500D01*
X5420000Y-10988500D02*
X5340000Y-11068500D01*
X5340000Y-11242500D02*
X5420000Y-11322500D01*
X5420000Y-11242500D02*
X5340000Y-11322500D01*
X5340000Y-11496500D02*
X5420000Y-11576500D01*
X5420000Y-11496500D02*
X5340000Y-11576500D01*
X5340000Y-14472500D02*
X5420000Y-14552500D01*
X5420000Y-14472500D02*
X5340000Y-14552500D01*
X5340000Y-14726500D02*
X5420000Y-14806500D01*
X5420000Y-14726500D02*
X5340000Y-14806500D01*
X5340000Y-14980500D02*
X5420000Y-15060500D01*
X5420000Y-14980500D02*
X5340000Y-15060500D01*
X5340000Y-15234500D02*
X5420000Y-15314500D01*
X5420000Y-15234500D02*
X5340000Y-15314500D01*
X5340000Y-15488500D02*
X5420000Y-15568500D01*
X5420000Y-15488500D02*
X5340000Y-15568500D01*
X5340000Y-15742500D02*
X5420000Y-15822500D01*
X5420000Y-15742500D02*
X5340000Y-15822500D01*
X5340000Y-15996500D02*
X5420000Y-16076500D01*
X5420000Y-15996500D02*
X5340000Y-16076500D01*
X5341000Y-4410000D02*
X5421000Y-4490000D01*
X5421000Y-4410000D02*
X5341000Y-4490000D01*
X5341000Y-7410000D02*
X5421000Y-7490000D01*
X5421000Y-7410000D02*
X5341000Y-7490000D01*
X5341000Y-8910000D02*
X5421000Y-8990000D01*
X5421000Y-8910000D02*
X5341000Y-8990000D01*
X5341000Y-11910000D02*
X5421000Y-11990000D01*
X5421000Y-11910000D02*
X5341000Y-11990000D01*
X5341000Y-13110000D02*
X5421000Y-13190000D01*
X5421000Y-13110000D02*
X5341000Y-13190000D01*
X5341000Y-13435000D02*
X5421000Y-13515000D01*
X5421000Y-13435000D02*
X5341000Y-13515000D01*
X5341000Y-17035000D02*
X5421000Y-17115000D01*
X5421000Y-17035000D02*
X5341000Y-17115000D01*
X5341000Y-17435000D02*
X5421000Y-17515000D01*
X5421000Y-17435000D02*
X5341000Y-17515000D01*
X5760000Y-14004000D02*
X5840000Y-14084000D01*
X5840000Y-14004000D02*
X5760000Y-14084000D01*
X5760000Y-14766000D02*
X5840000Y-14846000D01*
X5840000Y-14766000D02*
X5760000Y-14846000D01*
X5829000Y-7010000D02*
X5909000Y-7090000D01*
X5909000Y-7010000D02*
X5829000Y-7090000D01*
X5829000Y-7335000D02*
X5909000Y-7415000D01*
X5909000Y-7335000D02*
X5829000Y-7415000D01*
X5829000Y-7660000D02*
X5909000Y-7740000D01*
X5909000Y-7660000D02*
X5829000Y-7740000D01*
X5829000Y-7985000D02*
X5909000Y-8065000D01*
X5909000Y-7985000D02*
X5829000Y-8065000D01*
X5829000Y-11185000D02*
X5909000Y-11265000D01*
X5909000Y-11185000D02*
X5829000Y-11265000D01*
X5829000Y-11510000D02*
X5909000Y-11590000D01*
X5909000Y-11510000D02*
X5829000Y-11590000D01*
X5829000Y-11835000D02*
X5909000Y-11915000D01*
X5909000Y-11835000D02*
X5829000Y-11915000D01*
X5829000Y-12160000D02*
X5909000Y-12240000D01*
X5909000Y-12160000D02*
X5829000Y-12240000D01*
X5829000Y-13035000D02*
X5909000Y-13115000D01*
X5909000Y-13035000D02*
X5829000Y-13115000D01*
X5829000Y-13510000D02*
X5909000Y-13590000D01*
X5909000Y-13510000D02*
X5829000Y-13590000D01*
X5835000Y-15235000D02*
X5915000Y-15315000D01*
X5915000Y-15235000D02*
X5835000Y-15315000D01*
X5860000Y-10735000D02*
X5940000Y-10815000D01*
X5940000Y-10735000D02*
X5860000Y-10815000D01*
X5960000Y-6235000D02*
X6040000Y-6315000D01*
X6040000Y-6235000D02*
X5960000Y-6315000D01*
X6079000Y-9960000D02*
X6159000Y-10040000D01*
X6159000Y-9960000D02*
X6079000Y-10040000D01*
X6189375Y-16354000D02*
X6269375Y-16434000D01*
X6269375Y-16354000D02*
X6189375Y-16434000D01*
X6189375Y-17116000D02*
X6269375Y-17196000D01*
X6269375Y-17116000D02*
X6189375Y-17196000D01*
X6335000Y-15235000D02*
X6415000Y-15315000D01*
X6415000Y-15235000D02*
X6335000Y-15315000D01*
X6360000Y-10735000D02*
X6440000Y-10815000D01*
X6440000Y-10735000D02*
X6360000Y-10815000D01*
X6429000Y-14010000D02*
X6509000Y-14090000D01*
X6509000Y-14010000D02*
X6429000Y-14090000D01*
X6429000Y-14610000D02*
X6509000Y-14690000D01*
X6509000Y-14610000D02*
X6429000Y-14690000D01*
X6429000Y-14935000D02*
X6509000Y-15015000D01*
X6509000Y-14935000D02*
X6429000Y-15015000D01*
X6429000Y-15535000D02*
X6509000Y-15615000D01*
X6509000Y-15535000D02*
X6429000Y-15615000D01*
X6429000Y-15860000D02*
X6509000Y-15940000D01*
X6509000Y-15860000D02*
X6429000Y-15940000D01*
X6460000Y-6235000D02*
X6540000Y-6315000D01*
X6540000Y-6235000D02*
X6460000Y-6315000D01*
X6560000Y-14310000D02*
X6640000Y-14390000D01*
X6640000Y-14310000D02*
X6560000Y-14390000D01*
X6560000Y-15235000D02*
X6640000Y-15315000D01*
X6640000Y-15235000D02*
X6560000Y-15315000D01*
X6585000Y-10735000D02*
X6665000Y-10815000D01*
X6665000Y-10735000D02*
X6585000Y-10815000D01*
X6591000Y-7010000D02*
X6671000Y-7090000D01*
X6671000Y-7010000D02*
X6591000Y-7090000D01*
X6591000Y-7335000D02*
X6671000Y-7415000D01*
X6671000Y-7335000D02*
X6591000Y-7415000D01*
X6591000Y-7660000D02*
X6671000Y-7740000D01*
X6671000Y-7660000D02*
X6591000Y-7740000D01*
X6591000Y-7985000D02*
X6671000Y-8065000D01*
X6671000Y-7985000D02*
X6591000Y-8065000D01*
X6591000Y-11185000D02*
X6671000Y-11265000D01*
X6671000Y-11185000D02*
X6591000Y-11265000D01*
X6591000Y-11510000D02*
X6671000Y-11590000D01*
X6671000Y-11510000D02*
X6591000Y-11590000D01*
X6591000Y-11835000D02*
X6671000Y-11915000D01*
X6671000Y-11835000D02*
X6591000Y-11915000D01*
X6591000Y-12160000D02*
X6671000Y-12240000D01*
X6671000Y-12160000D02*
X6591000Y-12240000D01*
X6591000Y-13035000D02*
X6671000Y-13115000D01*
X6671000Y-13035000D02*
X6591000Y-13115000D01*
X6591000Y-13510000D02*
X6671000Y-13590000D01*
X6671000Y-13510000D02*
X6591000Y-13590000D01*
X6621250Y-16354000D02*
X6701250Y-16434000D01*
X6701250Y-16354000D02*
X6621250Y-16434000D01*
X6621250Y-17116000D02*
X6701250Y-17196000D01*
X6701250Y-17116000D02*
X6621250Y-17196000D01*
X6635000Y-17385000D02*
X6715000Y-17465000D01*
X6715000Y-17385000D02*
X6635000Y-17465000D01*
X6635000Y-17885000D02*
X6715000Y-17965000D01*
X6715000Y-17885000D02*
X6635000Y-17965000D01*
X6835000Y-12160000D02*
X6915000Y-12240000D01*
X6915000Y-12160000D02*
X6835000Y-12240000D01*
X6841000Y-9960000D02*
X6921000Y-10040000D01*
X6921000Y-9960000D02*
X6841000Y-10040000D01*
X7053125Y-16354000D02*
X7133125Y-16434000D01*
X7133125Y-16354000D02*
X7053125Y-16434000D01*
X7053125Y-17116000D02*
X7133125Y-17196000D01*
X7133125Y-17116000D02*
X7053125Y-17196000D01*
X7060000Y-14310000D02*
X7140000Y-14390000D01*
X7140000Y-14310000D02*
X7060000Y-14390000D01*
X7060000Y-15235000D02*
X7140000Y-15315000D01*
X7140000Y-15235000D02*
X7060000Y-15315000D01*
X7060000Y-17385000D02*
X7140000Y-17465000D01*
X7140000Y-17385000D02*
X7060000Y-17465000D01*
X7060000Y-17885000D02*
X7140000Y-17965000D01*
X7140000Y-17885000D02*
X7060000Y-17965000D01*
X7085000Y-10735000D02*
X7165000Y-10815000D01*
X7165000Y-10735000D02*
X7085000Y-10815000D01*
X7085000Y-11079000D02*
X7165000Y-11159000D01*
X7165000Y-11079000D02*
X7085000Y-11159000D01*
X7085000Y-11841000D02*
X7165000Y-11921000D01*
X7165000Y-11841000D02*
X7085000Y-11921000D01*
X7191000Y-14010000D02*
X7271000Y-14090000D01*
X7271000Y-14010000D02*
X7191000Y-14090000D01*
X7191000Y-14610000D02*
X7271000Y-14690000D01*
X7271000Y-14610000D02*
X7191000Y-14690000D01*
X7191000Y-14935000D02*
X7271000Y-15015000D01*
X7271000Y-14935000D02*
X7191000Y-15015000D01*
X7191000Y-15535000D02*
X7271000Y-15615000D01*
X7271000Y-15535000D02*
X7191000Y-15615000D01*
X7191000Y-15860000D02*
X7271000Y-15940000D01*
X7271000Y-15860000D02*
X7191000Y-15940000D01*
X7335000Y-12160000D02*
X7415000Y-12240000D01*
X7415000Y-12160000D02*
X7335000Y-12240000D01*
X7389489Y-4710000D02*
X7469489Y-4790000D01*
X7469489Y-4710000D02*
X7389489Y-4790000D01*
X7485000Y-16354000D02*
X7565000Y-16434000D01*
X7565000Y-16354000D02*
X7485000Y-16434000D01*
X7485000Y-17116000D02*
X7565000Y-17196000D01*
X7565000Y-17116000D02*
X7485000Y-17196000D01*
X7485000Y-17385000D02*
X7565000Y-17465000D01*
X7565000Y-17385000D02*
X7485000Y-17465000D01*
X7485000Y-17885000D02*
X7565000Y-17965000D01*
X7565000Y-17885000D02*
X7485000Y-17965000D01*
X7554000Y-8835000D02*
X7634000Y-8915000D01*
X7634000Y-8835000D02*
X7554000Y-8915000D01*
X7554000Y-9160000D02*
X7634000Y-9240000D01*
X7634000Y-9160000D02*
X7554000Y-9240000D01*
X7554000Y-9510000D02*
X7634000Y-9590000D01*
X7634000Y-9510000D02*
X7554000Y-9590000D01*
X7554000Y-11835000D02*
X7634000Y-11915000D01*
X7634000Y-11835000D02*
X7554000Y-11915000D01*
X7554000Y-12160000D02*
X7634000Y-12240000D01*
X7634000Y-12160000D02*
X7554000Y-12240000D01*
X7554000Y-13035000D02*
X7634000Y-13115000D01*
X7634000Y-13035000D02*
X7554000Y-13115000D01*
X7554000Y-13360000D02*
X7634000Y-13440000D01*
X7634000Y-13360000D02*
X7554000Y-13440000D01*
X7554000Y-13685000D02*
X7634000Y-13765000D01*
X7634000Y-13685000D02*
X7554000Y-13765000D01*
X7554000Y-14010000D02*
X7634000Y-14090000D01*
X7634000Y-14010000D02*
X7554000Y-14090000D01*
X7560000Y-9972500D02*
X7640000Y-10052500D01*
X7640000Y-9972500D02*
X7560000Y-10052500D01*
X7560000Y-10226500D02*
X7640000Y-10306500D01*
X7640000Y-10226500D02*
X7560000Y-10306500D01*
X7560000Y-10480500D02*
X7640000Y-10560500D01*
X7640000Y-10480500D02*
X7560000Y-10560500D01*
X7560000Y-10734500D02*
X7640000Y-10814500D01*
X7640000Y-10734500D02*
X7560000Y-10814500D01*
X7560000Y-10988500D02*
X7640000Y-11068500D01*
X7640000Y-10988500D02*
X7560000Y-11068500D01*
X7560000Y-11242500D02*
X7640000Y-11322500D01*
X7640000Y-11242500D02*
X7560000Y-11322500D01*
X7560000Y-11496500D02*
X7640000Y-11576500D01*
X7640000Y-11496500D02*
X7560000Y-11576500D01*
X7560000Y-14472500D02*
X7640000Y-14552500D01*
X7640000Y-14472500D02*
X7560000Y-14552500D01*
X7560000Y-14726500D02*
X7640000Y-14806500D01*
X7640000Y-14726500D02*
X7560000Y-14806500D01*
X7560000Y-14980500D02*
X7640000Y-15060500D01*
X7640000Y-14980500D02*
X7560000Y-15060500D01*
X7560000Y-15234500D02*
X7640000Y-15314500D01*
X7640000Y-15234500D02*
X7560000Y-15314500D01*
X7560000Y-15488500D02*
X7640000Y-15568500D01*
X7640000Y-15488500D02*
X7560000Y-15568500D01*
X7560000Y-15742500D02*
X7640000Y-15822500D01*
X7640000Y-15742500D02*
X7560000Y-15822500D01*
X7560000Y-15996500D02*
X7640000Y-16076500D01*
X7640000Y-15996500D02*
X7560000Y-16076500D01*
X7589489Y-4710000D02*
X7669489Y-4790000D01*
X7669489Y-4710000D02*
X7589489Y-4790000D01*
X7910000Y-17385000D02*
X7990000Y-17465000D01*
X7990000Y-17385000D02*
X7910000Y-17465000D01*
X7910000Y-17885000D02*
X7990000Y-17965000D01*
X7990000Y-17885000D02*
X7910000Y-17965000D01*
X7916875Y-16354000D02*
X7996875Y-16434000D01*
X7996875Y-16354000D02*
X7916875Y-16434000D01*
X7916875Y-17116000D02*
X7996875Y-17196000D01*
X7996875Y-17116000D02*
X7916875Y-17196000D01*
X8316000Y-8835000D02*
X8396000Y-8915000D01*
X8396000Y-8835000D02*
X8316000Y-8915000D01*
X8316000Y-9160000D02*
X8396000Y-9240000D01*
X8396000Y-9160000D02*
X8316000Y-9240000D01*
X8316000Y-9510000D02*
X8396000Y-9590000D01*
X8396000Y-9510000D02*
X8316000Y-9590000D01*
X8316000Y-11835000D02*
X8396000Y-11915000D01*
X8396000Y-11835000D02*
X8316000Y-11915000D01*
X8316000Y-12160000D02*
X8396000Y-12240000D01*
X8396000Y-12160000D02*
X8316000Y-12240000D01*
X8316000Y-13035000D02*
X8396000Y-13115000D01*
X8396000Y-13035000D02*
X8316000Y-13115000D01*
X8316000Y-13360000D02*
X8396000Y-13440000D01*
X8396000Y-13360000D02*
X8316000Y-13440000D01*
X8316000Y-13685000D02*
X8396000Y-13765000D01*
X8396000Y-13685000D02*
X8316000Y-13765000D01*
X8316000Y-14010000D02*
X8396000Y-14090000D01*
X8396000Y-14010000D02*
X8316000Y-14090000D01*
X8322000Y-9972500D02*
X8402000Y-10052500D01*
X8402000Y-9972500D02*
X8322000Y-10052500D01*
X8322000Y-10226500D02*
X8402000Y-10306500D01*
X8402000Y-10226500D02*
X8322000Y-10306500D01*
X8322000Y-10480500D02*
X8402000Y-10560500D01*
X8402000Y-10480500D02*
X8322000Y-10560500D01*
X8322000Y-10734500D02*
X8402000Y-10814500D01*
X8402000Y-10734500D02*
X8322000Y-10814500D01*
X8322000Y-10988500D02*
X8402000Y-11068500D01*
X8402000Y-10988500D02*
X8322000Y-11068500D01*
X8322000Y-11242500D02*
X8402000Y-11322500D01*
X8402000Y-11242500D02*
X8322000Y-11322500D01*
X8322000Y-11496500D02*
X8402000Y-11576500D01*
X8402000Y-11496500D02*
X8322000Y-11576500D01*
X8322000Y-14472500D02*
X8402000Y-14552500D01*
X8402000Y-14472500D02*
X8322000Y-14552500D01*
X8322000Y-14726500D02*
X8402000Y-14806500D01*
X8402000Y-14726500D02*
X8322000Y-14806500D01*
X8322000Y-14980500D02*
X8402000Y-15060500D01*
X8402000Y-14980500D02*
X8322000Y-15060500D01*
X8322000Y-15234500D02*
X8402000Y-15314500D01*
X8402000Y-15234500D02*
X8322000Y-15314500D01*
X8322000Y-15488500D02*
X8402000Y-15568500D01*
X8402000Y-15488500D02*
X8322000Y-15568500D01*
X8322000Y-15742500D02*
X8402000Y-15822500D01*
X8402000Y-15742500D02*
X8322000Y-15822500D01*
X8322000Y-15996500D02*
X8402000Y-16076500D01*
X8402000Y-15996500D02*
X8322000Y-16076500D01*
X8335000Y-17385000D02*
X8415000Y-17465000D01*
X8415000Y-17385000D02*
X8335000Y-17465000D01*
X8335000Y-17885000D02*
X8415000Y-17965000D01*
X8415000Y-17885000D02*
X8335000Y-17965000D01*
X8348750Y-16354000D02*
X8428750Y-16434000D01*
X8428750Y-16354000D02*
X8348750Y-16434000D01*
X8348750Y-17116000D02*
X8428750Y-17196000D01*
X8428750Y-17116000D02*
X8348750Y-17196000D01*
X8629000Y-13685000D02*
X8709000Y-13765000D01*
X8709000Y-13685000D02*
X8629000Y-13765000D01*
X8629000Y-14010000D02*
X8709000Y-14090000D01*
X8709000Y-14010000D02*
X8629000Y-14090000D01*
X8710000Y-11079000D02*
X8790000Y-11159000D01*
X8790000Y-11079000D02*
X8710000Y-11159000D01*
X8710000Y-11841000D02*
X8790000Y-11921000D01*
X8790000Y-11841000D02*
X8710000Y-11921000D01*
X8810000Y-10735000D02*
X8890000Y-10815000D01*
X8890000Y-10735000D02*
X8810000Y-10815000D01*
X8810000Y-15235000D02*
X8890000Y-15315000D01*
X8890000Y-15235000D02*
X8810000Y-15315000D01*
X9260000Y-11079000D02*
X9340000Y-11159000D01*
X9340000Y-11079000D02*
X9260000Y-11159000D01*
X9260000Y-11841000D02*
X9340000Y-11921000D01*
X9340000Y-11841000D02*
X9260000Y-11921000D01*
X9310000Y-10735000D02*
X9390000Y-10815000D01*
X9390000Y-10735000D02*
X9310000Y-10815000D01*
X9310000Y-15235000D02*
X9390000Y-15315000D01*
X9390000Y-15235000D02*
X9310000Y-15315000D01*
X9391000Y-13685000D02*
X9471000Y-13765000D01*
X9471000Y-13685000D02*
X9391000Y-13765000D01*
X9391000Y-14010000D02*
X9471000Y-14090000D01*
X9471000Y-14010000D02*
X9391000Y-14090000D01*
X10529000Y-13685000D02*
X10609000Y-13765000D01*
X10609000Y-13685000D02*
X10529000Y-13765000D01*
X10529000Y-14010000D02*
X10609000Y-14090000D01*
X10609000Y-14010000D02*
X10529000Y-14090000D01*
X10610000Y-10735000D02*
X10690000Y-10815000D01*
X10690000Y-10735000D02*
X10610000Y-10815000D01*
X10610000Y-15235000D02*
X10690000Y-15315000D01*
X10690000Y-15235000D02*
X10610000Y-15315000D01*
X10660000Y-11079000D02*
X10740000Y-11159000D01*
X10740000Y-11079000D02*
X10660000Y-11159000D01*
X10660000Y-11841000D02*
X10740000Y-11921000D01*
X10740000Y-11841000D02*
X10660000Y-11921000D01*
X11110000Y-10735000D02*
X11190000Y-10815000D01*
X11190000Y-10735000D02*
X11110000Y-10815000D01*
X11110000Y-15235000D02*
X11190000Y-15315000D01*
X11190000Y-15235000D02*
X11110000Y-15315000D01*
X11210000Y-11079000D02*
X11290000Y-11159000D01*
X11290000Y-11079000D02*
X11210000Y-11159000D01*
X11210000Y-11841000D02*
X11290000Y-11921000D01*
X11290000Y-11841000D02*
X11210000Y-11921000D01*
X11291000Y-13685000D02*
X11371000Y-13765000D01*
X11371000Y-13685000D02*
X11291000Y-13765000D01*
X11291000Y-14010000D02*
X11371000Y-14090000D01*
X11371000Y-14010000D02*
X11291000Y-14090000D01*
X11560000Y-16354000D02*
X11640000Y-16434000D01*
X11640000Y-16354000D02*
X11560000Y-16434000D01*
X11560000Y-17116000D02*
X11640000Y-17196000D01*
X11640000Y-17116000D02*
X11560000Y-17196000D01*
X11560000Y-17385000D02*
X11640000Y-17465000D01*
X11640000Y-17385000D02*
X11560000Y-17465000D01*
X11560000Y-17885000D02*
X11640000Y-17965000D01*
X11640000Y-17885000D02*
X11560000Y-17965000D01*
X11598000Y-9972500D02*
X11678000Y-10052500D01*
X11678000Y-9972500D02*
X11598000Y-10052500D01*
X11598000Y-10226500D02*
X11678000Y-10306500D01*
X11678000Y-10226500D02*
X11598000Y-10306500D01*
X11598000Y-10480500D02*
X11678000Y-10560500D01*
X11678000Y-10480500D02*
X11598000Y-10560500D01*
X11598000Y-10734500D02*
X11678000Y-10814500D01*
X11678000Y-10734500D02*
X11598000Y-10814500D01*
X11598000Y-10988500D02*
X11678000Y-11068500D01*
X11678000Y-10988500D02*
X11598000Y-11068500D01*
X11598000Y-11242500D02*
X11678000Y-11322500D01*
X11678000Y-11242500D02*
X11598000Y-11322500D01*
X11598000Y-11496500D02*
X11678000Y-11576500D01*
X11678000Y-11496500D02*
X11598000Y-11576500D01*
X11598000Y-14472500D02*
X11678000Y-14552500D01*
X11678000Y-14472500D02*
X11598000Y-14552500D01*
X11598000Y-14726500D02*
X11678000Y-14806500D01*
X11678000Y-14726500D02*
X11598000Y-14806500D01*
X11598000Y-14980500D02*
X11678000Y-15060500D01*
X11678000Y-14980500D02*
X11598000Y-15060500D01*
X11598000Y-15234500D02*
X11678000Y-15314500D01*
X11678000Y-15234500D02*
X11598000Y-15314500D01*
X11598000Y-15488500D02*
X11678000Y-15568500D01*
X11678000Y-15488500D02*
X11598000Y-15568500D01*
X11598000Y-15742500D02*
X11678000Y-15822500D01*
X11678000Y-15742500D02*
X11598000Y-15822500D01*
X11598000Y-15996500D02*
X11678000Y-16076500D01*
X11678000Y-15996500D02*
X11598000Y-16076500D01*
X11604000Y-8835000D02*
X11684000Y-8915000D01*
X11684000Y-8835000D02*
X11604000Y-8915000D01*
X11604000Y-9160000D02*
X11684000Y-9240000D01*
X11684000Y-9160000D02*
X11604000Y-9240000D01*
X11604000Y-9510000D02*
X11684000Y-9590000D01*
X11684000Y-9510000D02*
X11604000Y-9590000D01*
X11604000Y-11835000D02*
X11684000Y-11915000D01*
X11684000Y-11835000D02*
X11604000Y-11915000D01*
X11604000Y-12160000D02*
X11684000Y-12240000D01*
X11684000Y-12160000D02*
X11604000Y-12240000D01*
X11604000Y-13035000D02*
X11684000Y-13115000D01*
X11684000Y-13035000D02*
X11604000Y-13115000D01*
X11604000Y-13360000D02*
X11684000Y-13440000D01*
X11684000Y-13360000D02*
X11604000Y-13440000D01*
X11604000Y-13685000D02*
X11684000Y-13765000D01*
X11684000Y-13685000D02*
X11604000Y-13765000D01*
X11604000Y-14010000D02*
X11684000Y-14090000D01*
X11684000Y-14010000D02*
X11604000Y-14090000D01*
X12010000Y-16354000D02*
X12090000Y-16434000D01*
X12090000Y-16354000D02*
X12010000Y-16434000D01*
X12010000Y-17116000D02*
X12090000Y-17196000D01*
X12090000Y-17116000D02*
X12010000Y-17196000D01*
X12010000Y-17385000D02*
X12090000Y-17465000D01*
X12090000Y-17385000D02*
X12010000Y-17465000D01*
X12010000Y-17885000D02*
X12090000Y-17965000D01*
X12090000Y-17885000D02*
X12010000Y-17965000D01*
X12339489Y-4710000D02*
X12419489Y-4790000D01*
X12419489Y-4710000D02*
X12339489Y-4790000D01*
X12360000Y-9972500D02*
X12440000Y-10052500D01*
X12440000Y-9972500D02*
X12360000Y-10052500D01*
X12360000Y-10226500D02*
X12440000Y-10306500D01*
X12440000Y-10226500D02*
X12360000Y-10306500D01*
X12360000Y-10480500D02*
X12440000Y-10560500D01*
X12440000Y-10480500D02*
X12360000Y-10560500D01*
X12360000Y-10734500D02*
X12440000Y-10814500D01*
X12440000Y-10734500D02*
X12360000Y-10814500D01*
X12360000Y-10988500D02*
X12440000Y-11068500D01*
X12440000Y-10988500D02*
X12360000Y-11068500D01*
X12360000Y-11242500D02*
X12440000Y-11322500D01*
X12440000Y-11242500D02*
X12360000Y-11322500D01*
X12360000Y-11496500D02*
X12440000Y-11576500D01*
X12440000Y-11496500D02*
X12360000Y-11576500D01*
X12360000Y-14472500D02*
X12440000Y-14552500D01*
X12440000Y-14472500D02*
X12360000Y-14552500D01*
X12360000Y-14726500D02*
X12440000Y-14806500D01*
X12440000Y-14726500D02*
X12360000Y-14806500D01*
X12360000Y-14980500D02*
X12440000Y-15060500D01*
X12440000Y-14980500D02*
X12360000Y-15060500D01*
X12360000Y-15234500D02*
X12440000Y-15314500D01*
X12440000Y-15234500D02*
X12360000Y-15314500D01*
X12360000Y-15488500D02*
X12440000Y-15568500D01*
X12440000Y-15488500D02*
X12360000Y-15568500D01*
X12360000Y-15742500D02*
X12440000Y-15822500D01*
X12440000Y-15742500D02*
X12360000Y-15822500D01*
X12360000Y-15996500D02*
X12440000Y-16076500D01*
X12440000Y-15996500D02*
X12360000Y-16076500D01*
X12366000Y-8835000D02*
X12446000Y-8915000D01*
X12446000Y-8835000D02*
X12366000Y-8915000D01*
X12366000Y-9160000D02*
X12446000Y-9240000D01*
X12446000Y-9160000D02*
X12366000Y-9240000D01*
X12366000Y-9510000D02*
X12446000Y-9590000D01*
X12446000Y-9510000D02*
X12366000Y-9590000D01*
X12366000Y-11835000D02*
X12446000Y-11915000D01*
X12446000Y-11835000D02*
X12366000Y-11915000D01*
X12366000Y-12160000D02*
X12446000Y-12240000D01*
X12446000Y-12160000D02*
X12366000Y-12240000D01*
X12366000Y-13035000D02*
X12446000Y-13115000D01*
X12446000Y-13035000D02*
X12366000Y-13115000D01*
X12366000Y-13360000D02*
X12446000Y-13440000D01*
X12446000Y-13360000D02*
X12366000Y-13440000D01*
X12366000Y-13685000D02*
X12446000Y-13765000D01*
X12446000Y-13685000D02*
X12366000Y-13765000D01*
X12366000Y-14010000D02*
X12446000Y-14090000D01*
X12446000Y-14010000D02*
X12366000Y-14090000D01*
X12460000Y-16354000D02*
X12540000Y-16434000D01*
X12540000Y-16354000D02*
X12460000Y-16434000D01*
X12460000Y-17116000D02*
X12540000Y-17196000D01*
X12540000Y-17116000D02*
X12460000Y-17196000D01*
X12460000Y-17385000D02*
X12540000Y-17465000D01*
X12540000Y-17385000D02*
X12460000Y-17465000D01*
X12460000Y-17885000D02*
X12540000Y-17965000D01*
X12540000Y-17885000D02*
X12460000Y-17965000D01*
X12539489Y-4710000D02*
X12619489Y-4790000D01*
X12619489Y-4710000D02*
X12539489Y-4790000D01*
X12585000Y-12160000D02*
X12665000Y-12240000D01*
X12665000Y-12160000D02*
X12585000Y-12240000D01*
X12729000Y-14010000D02*
X12809000Y-14090000D01*
X12809000Y-14010000D02*
X12729000Y-14090000D01*
X12729000Y-14610000D02*
X12809000Y-14690000D01*
X12809000Y-14610000D02*
X12729000Y-14690000D01*
X12729000Y-14935000D02*
X12809000Y-15015000D01*
X12809000Y-14935000D02*
X12729000Y-15015000D01*
X12729000Y-15535000D02*
X12809000Y-15615000D01*
X12809000Y-15535000D02*
X12729000Y-15615000D01*
X12729000Y-15860000D02*
X12809000Y-15940000D01*
X12809000Y-15860000D02*
X12729000Y-15940000D01*
X12835000Y-10735000D02*
X12915000Y-10815000D01*
X12915000Y-10735000D02*
X12835000Y-10815000D01*
X12835000Y-11079000D02*
X12915000Y-11159000D01*
X12915000Y-11079000D02*
X12835000Y-11159000D01*
X12835000Y-11841000D02*
X12915000Y-11921000D01*
X12915000Y-11841000D02*
X12835000Y-11921000D01*
X12835000Y-15235000D02*
X12915000Y-15315000D01*
X12915000Y-15235000D02*
X12835000Y-15315000D01*
X12860000Y-14310000D02*
X12940000Y-14390000D01*
X12940000Y-14310000D02*
X12860000Y-14390000D01*
X12910000Y-16354000D02*
X12990000Y-16434000D01*
X12990000Y-16354000D02*
X12910000Y-16434000D01*
X12910000Y-17116000D02*
X12990000Y-17196000D01*
X12990000Y-17116000D02*
X12910000Y-17196000D01*
X12910000Y-17385000D02*
X12990000Y-17465000D01*
X12990000Y-17385000D02*
X12910000Y-17465000D01*
X12910000Y-17885000D02*
X12990000Y-17965000D01*
X12990000Y-17885000D02*
X12910000Y-17965000D01*
X13079000Y-9960000D02*
X13159000Y-10040000D01*
X13159000Y-9960000D02*
X13079000Y-10040000D01*
X13085000Y-12160000D02*
X13165000Y-12240000D01*
X13165000Y-12160000D02*
X13085000Y-12240000D01*
X13304000Y-11185000D02*
X13384000Y-11265000D01*
X13384000Y-11185000D02*
X13304000Y-11265000D01*
X13304000Y-11510000D02*
X13384000Y-11590000D01*
X13384000Y-11510000D02*
X13304000Y-11590000D01*
X13304000Y-11835000D02*
X13384000Y-11915000D01*
X13384000Y-11835000D02*
X13304000Y-11915000D01*
X13304000Y-12160000D02*
X13384000Y-12240000D01*
X13384000Y-12160000D02*
X13304000Y-12240000D01*
X13304000Y-13035000D02*
X13384000Y-13115000D01*
X13384000Y-13035000D02*
X13304000Y-13115000D01*
X13304000Y-13510000D02*
X13384000Y-13590000D01*
X13384000Y-13510000D02*
X13304000Y-13590000D01*
X13335000Y-10735000D02*
X13415000Y-10815000D01*
X13415000Y-10735000D02*
X13335000Y-10815000D01*
X13335000Y-15235000D02*
X13415000Y-15315000D01*
X13415000Y-15235000D02*
X13335000Y-15315000D01*
X13335000Y-16354000D02*
X13415000Y-16434000D01*
X13415000Y-16354000D02*
X13335000Y-16434000D01*
X13335000Y-17116000D02*
X13415000Y-17196000D01*
X13415000Y-17116000D02*
X13335000Y-17196000D01*
X13335000Y-17385000D02*
X13415000Y-17465000D01*
X13415000Y-17385000D02*
X13335000Y-17465000D01*
X13335000Y-17885000D02*
X13415000Y-17965000D01*
X13415000Y-17885000D02*
X13335000Y-17965000D01*
X13354000Y-7010000D02*
X13434000Y-7090000D01*
X13434000Y-7010000D02*
X13354000Y-7090000D01*
X13354000Y-7335000D02*
X13434000Y-7415000D01*
X13434000Y-7335000D02*
X13354000Y-7415000D01*
X13354000Y-7660000D02*
X13434000Y-7740000D01*
X13434000Y-7660000D02*
X13354000Y-7740000D01*
X13354000Y-7985000D02*
X13434000Y-8065000D01*
X13434000Y-7985000D02*
X13354000Y-8065000D01*
X13360000Y-14310000D02*
X13440000Y-14390000D01*
X13440000Y-14310000D02*
X13360000Y-14390000D01*
X13485000Y-6235000D02*
X13565000Y-6315000D01*
X13565000Y-6235000D02*
X13485000Y-6315000D01*
X13491000Y-14010000D02*
X13571000Y-14090000D01*
X13571000Y-14010000D02*
X13491000Y-14090000D01*
X13491000Y-14610000D02*
X13571000Y-14690000D01*
X13571000Y-14610000D02*
X13491000Y-14690000D01*
X13491000Y-14935000D02*
X13571000Y-15015000D01*
X13571000Y-14935000D02*
X13491000Y-15015000D01*
X13491000Y-15535000D02*
X13571000Y-15615000D01*
X13571000Y-15535000D02*
X13491000Y-15615000D01*
X13491000Y-15860000D02*
X13571000Y-15940000D01*
X13571000Y-15860000D02*
X13491000Y-15940000D01*
X13560000Y-10735000D02*
X13640000Y-10815000D01*
X13640000Y-10735000D02*
X13560000Y-10815000D01*
X13585000Y-15235000D02*
X13665000Y-15315000D01*
X13665000Y-15235000D02*
X13585000Y-15315000D01*
X13775000Y-16354000D02*
X13855000Y-16434000D01*
X13855000Y-16354000D02*
X13775000Y-16434000D01*
X13775000Y-17116000D02*
X13855000Y-17196000D01*
X13855000Y-17116000D02*
X13775000Y-17196000D01*
X13841000Y-9960000D02*
X13921000Y-10040000D01*
X13921000Y-9960000D02*
X13841000Y-10040000D01*
X13985000Y-6235000D02*
X14065000Y-6315000D01*
X14065000Y-6235000D02*
X13985000Y-6315000D01*
X14060000Y-10735000D02*
X14140000Y-10815000D01*
X14140000Y-10735000D02*
X14060000Y-10815000D01*
X14066000Y-11185000D02*
X14146000Y-11265000D01*
X14146000Y-11185000D02*
X14066000Y-11265000D01*
X14066000Y-11510000D02*
X14146000Y-11590000D01*
X14146000Y-11510000D02*
X14066000Y-11590000D01*
X14066000Y-11835000D02*
X14146000Y-11915000D01*
X14146000Y-11835000D02*
X14066000Y-11915000D01*
X14066000Y-12160000D02*
X14146000Y-12240000D01*
X14146000Y-12160000D02*
X14066000Y-12240000D01*
X14066000Y-13035000D02*
X14146000Y-13115000D01*
X14146000Y-13035000D02*
X14066000Y-13115000D01*
X14066000Y-13510000D02*
X14146000Y-13590000D01*
X14146000Y-13510000D02*
X14066000Y-13590000D01*
X14085000Y-15235000D02*
X14165000Y-15315000D01*
X14165000Y-15235000D02*
X14085000Y-15315000D01*
X14116000Y-7010000D02*
X14196000Y-7090000D01*
X14196000Y-7010000D02*
X14116000Y-7090000D01*
X14116000Y-7335000D02*
X14196000Y-7415000D01*
X14196000Y-7335000D02*
X14116000Y-7415000D01*
X14116000Y-7660000D02*
X14196000Y-7740000D01*
X14196000Y-7660000D02*
X14116000Y-7740000D01*
X14116000Y-7985000D02*
X14196000Y-8065000D01*
X14196000Y-7985000D02*
X14116000Y-8065000D01*
X14160000Y-14029000D02*
X14240000Y-14109000D01*
X14240000Y-14029000D02*
X14160000Y-14109000D01*
X14160000Y-14791000D02*
X14240000Y-14871000D01*
X14240000Y-14791000D02*
X14160000Y-14871000D01*
X14578000Y-5472500D02*
X14658000Y-5552500D01*
X14658000Y-5472500D02*
X14578000Y-5552500D01*
X14578000Y-5726500D02*
X14658000Y-5806500D01*
X14658000Y-5726500D02*
X14578000Y-5806500D01*
X14578000Y-5980500D02*
X14658000Y-6060500D01*
X14658000Y-5980500D02*
X14578000Y-6060500D01*
X14578000Y-6234500D02*
X14658000Y-6314500D01*
X14658000Y-6234500D02*
X14578000Y-6314500D01*
X14578000Y-6488500D02*
X14658000Y-6568500D01*
X14658000Y-6488500D02*
X14578000Y-6568500D01*
X14578000Y-6742500D02*
X14658000Y-6822500D01*
X14658000Y-6742500D02*
X14578000Y-6822500D01*
X14578000Y-6996500D02*
X14658000Y-7076500D01*
X14658000Y-6996500D02*
X14578000Y-7076500D01*
X14578000Y-9972500D02*
X14658000Y-10052500D01*
X14658000Y-9972500D02*
X14578000Y-10052500D01*
X14578000Y-10226500D02*
X14658000Y-10306500D01*
X14658000Y-10226500D02*
X14578000Y-10306500D01*
X14578000Y-10480500D02*
X14658000Y-10560500D01*
X14658000Y-10480500D02*
X14578000Y-10560500D01*
X14578000Y-10734500D02*
X14658000Y-10814500D01*
X14658000Y-10734500D02*
X14578000Y-10814500D01*
X14578000Y-10988500D02*
X14658000Y-11068500D01*
X14658000Y-10988500D02*
X14578000Y-11068500D01*
X14578000Y-11242500D02*
X14658000Y-11322500D01*
X14658000Y-11242500D02*
X14578000Y-11322500D01*
X14578000Y-11496500D02*
X14658000Y-11576500D01*
X14658000Y-11496500D02*
X14578000Y-11576500D01*
X14578000Y-14472500D02*
X14658000Y-14552500D01*
X14658000Y-14472500D02*
X14578000Y-14552500D01*
X14578000Y-14726500D02*
X14658000Y-14806500D01*
X14658000Y-14726500D02*
X14578000Y-14806500D01*
X14578000Y-14980500D02*
X14658000Y-15060500D01*
X14658000Y-14980500D02*
X14578000Y-15060500D01*
X14578000Y-15234500D02*
X14658000Y-15314500D01*
X14658000Y-15234500D02*
X14578000Y-15314500D01*
X14578000Y-15488500D02*
X14658000Y-15568500D01*
X14658000Y-15488500D02*
X14578000Y-15568500D01*
X14578000Y-15742500D02*
X14658000Y-15822500D01*
X14658000Y-15742500D02*
X14578000Y-15822500D01*
X14578000Y-15996500D02*
X14658000Y-16076500D01*
X14658000Y-15996500D02*
X14578000Y-16076500D01*
X14579000Y-4410000D02*
X14659000Y-4490000D01*
X14659000Y-4410000D02*
X14579000Y-4490000D01*
X14579000Y-7410000D02*
X14659000Y-7490000D01*
X14659000Y-7410000D02*
X14579000Y-7490000D01*
X14579000Y-8910000D02*
X14659000Y-8990000D01*
X14659000Y-8910000D02*
X14579000Y-8990000D01*
X14579000Y-11910000D02*
X14659000Y-11990000D01*
X14659000Y-11910000D02*
X14579000Y-11990000D01*
X14579000Y-13110000D02*
X14659000Y-13190000D01*
X14659000Y-13110000D02*
X14579000Y-13190000D01*
X14579000Y-13435000D02*
X14659000Y-13515000D01*
X14659000Y-13435000D02*
X14579000Y-13515000D01*
X14579000Y-17060000D02*
X14659000Y-17140000D01*
X14659000Y-17060000D02*
X14579000Y-17140000D01*
X14579000Y-17435000D02*
X14659000Y-17515000D01*
X14659000Y-17435000D02*
X14579000Y-17515000D01*
X14610000Y-7756000D02*
X14690000Y-7836000D01*
X14690000Y-7756000D02*
X14610000Y-7836000D01*
X14610000Y-8010000D02*
X14690000Y-8090000D01*
X14690000Y-8010000D02*
X14610000Y-8090000D01*
X14610000Y-8264000D02*
X14690000Y-8344000D01*
X14690000Y-8264000D02*
X14610000Y-8344000D01*
X14610000Y-12256000D02*
X14690000Y-12336000D01*
X14690000Y-12256000D02*
X14610000Y-12336000D01*
X14610000Y-12510000D02*
X14690000Y-12590000D01*
X14690000Y-12510000D02*
X14610000Y-12590000D01*
X14610000Y-12764000D02*
X14690000Y-12844000D01*
X14690000Y-12764000D02*
X14610000Y-12844000D01*
X14705000Y-4885000D02*
X14785000Y-4965000D01*
X14785000Y-4885000D02*
X14705000Y-4965000D01*
X14705000Y-13885000D02*
X14785000Y-13965000D01*
X14785000Y-13885000D02*
X14705000Y-13965000D01*
X14705000Y-16610000D02*
X14785000Y-16690000D01*
X14785000Y-16610000D02*
X14705000Y-16690000D01*
X14706000Y-9385000D02*
X14786000Y-9465000D01*
X14786000Y-9385000D02*
X14706000Y-9465000D01*
X14959000Y-4885000D02*
X15039000Y-4965000D01*
X15039000Y-4885000D02*
X14959000Y-4965000D01*
X14959000Y-13885000D02*
X15039000Y-13965000D01*
X15039000Y-13885000D02*
X14959000Y-13965000D01*
X14959000Y-16610000D02*
X15039000Y-16690000D01*
X15039000Y-16610000D02*
X14959000Y-16690000D01*
X14960000Y-9385000D02*
X15040000Y-9465000D01*
X15040000Y-9385000D02*
X14960000Y-9465000D01*
X15213000Y-4885000D02*
X15293000Y-4965000D01*
X15293000Y-4885000D02*
X15213000Y-4965000D01*
X15213000Y-13885000D02*
X15293000Y-13965000D01*
X15293000Y-13885000D02*
X15213000Y-13965000D01*
X15213000Y-16610000D02*
X15293000Y-16690000D01*
X15293000Y-16610000D02*
X15213000Y-16690000D01*
X15214000Y-9385000D02*
X15294000Y-9465000D01*
X15294000Y-9385000D02*
X15214000Y-9465000D01*
X15235000Y-7756000D02*
X15315000Y-7836000D01*
X15315000Y-7756000D02*
X15235000Y-7836000D01*
X15235000Y-8010000D02*
X15315000Y-8090000D01*
X15315000Y-8010000D02*
X15235000Y-8090000D01*
X15235000Y-8264000D02*
X15315000Y-8344000D01*
X15315000Y-8264000D02*
X15235000Y-8344000D01*
X15235000Y-12256000D02*
X15315000Y-12336000D01*
X15315000Y-12256000D02*
X15235000Y-12336000D01*
X15235000Y-12510000D02*
X15315000Y-12590000D01*
X15315000Y-12510000D02*
X15235000Y-12590000D01*
X15235000Y-12764000D02*
X15315000Y-12844000D01*
X15315000Y-12764000D02*
X15235000Y-12844000D01*
X15340000Y-5472500D02*
X15420000Y-5552500D01*
X15420000Y-5472500D02*
X15340000Y-5552500D01*
X15340000Y-5726500D02*
X15420000Y-5806500D01*
X15420000Y-5726500D02*
X15340000Y-5806500D01*
X15340000Y-5980500D02*
X15420000Y-6060500D01*
X15420000Y-5980500D02*
X15340000Y-6060500D01*
X15340000Y-6234500D02*
X15420000Y-6314500D01*
X15420000Y-6234500D02*
X15340000Y-6314500D01*
X15340000Y-6488500D02*
X15420000Y-6568500D01*
X15420000Y-6488500D02*
X15340000Y-6568500D01*
X15340000Y-6742500D02*
X15420000Y-6822500D01*
X15420000Y-6742500D02*
X15340000Y-6822500D01*
X15340000Y-6996500D02*
X15420000Y-7076500D01*
X15420000Y-6996500D02*
X15340000Y-7076500D01*
X15340000Y-9972500D02*
X15420000Y-10052500D01*
X15420000Y-9972500D02*
X15340000Y-10052500D01*
X15340000Y-10226500D02*
X15420000Y-10306500D01*
X15420000Y-10226500D02*
X15340000Y-10306500D01*
X15340000Y-10480500D02*
X15420000Y-10560500D01*
X15420000Y-10480500D02*
X15340000Y-10560500D01*
X15340000Y-10734500D02*
X15420000Y-10814500D01*
X15420000Y-10734500D02*
X15340000Y-10814500D01*
X15340000Y-10988500D02*
X15420000Y-11068500D01*
X15420000Y-10988500D02*
X15340000Y-11068500D01*
X15340000Y-11242500D02*
X15420000Y-11322500D01*
X15420000Y-11242500D02*
X15340000Y-11322500D01*
X15340000Y-11496500D02*
X15420000Y-11576500D01*
X15420000Y-11496500D02*
X15340000Y-11576500D01*
X15340000Y-14472500D02*
X15420000Y-14552500D01*
X15420000Y-14472500D02*
X15340000Y-14552500D01*
X15340000Y-14726500D02*
X15420000Y-14806500D01*
X15420000Y-14726500D02*
X15340000Y-14806500D01*
X15340000Y-14980500D02*
X15420000Y-15060500D01*
X15420000Y-14980500D02*
X15340000Y-15060500D01*
X15340000Y-15234500D02*
X15420000Y-15314500D01*
X15420000Y-15234500D02*
X15340000Y-15314500D01*
X15340000Y-15488500D02*
X15420000Y-15568500D01*
X15420000Y-15488500D02*
X15340000Y-15568500D01*
X15340000Y-15742500D02*
X15420000Y-15822500D01*
X15420000Y-15742500D02*
X15340000Y-15822500D01*
X15340000Y-15996500D02*
X15420000Y-16076500D01*
X15420000Y-15996500D02*
X15340000Y-16076500D01*
X15341000Y-4410000D02*
X15421000Y-4490000D01*
X15421000Y-4410000D02*
X15341000Y-4490000D01*
X15341000Y-7410000D02*
X15421000Y-7490000D01*
X15421000Y-7410000D02*
X15341000Y-7490000D01*
X15341000Y-8910000D02*
X15421000Y-8990000D01*
X15421000Y-8910000D02*
X15341000Y-8990000D01*
X15341000Y-11910000D02*
X15421000Y-11990000D01*
X15421000Y-11910000D02*
X15341000Y-11990000D01*
X15341000Y-13110000D02*
X15421000Y-13190000D01*
X15421000Y-13110000D02*
X15341000Y-13190000D01*
X15341000Y-13435000D02*
X15421000Y-13515000D01*
X15421000Y-13435000D02*
X15341000Y-13515000D01*
X15341000Y-17060000D02*
X15421000Y-17140000D01*
X15421000Y-17060000D02*
X15341000Y-17140000D01*
X15341000Y-17435000D02*
X15421000Y-17515000D01*
X15421000Y-17435000D02*
X15341000Y-17515000D01*
X15779000Y-5460000D02*
X15859000Y-5540000D01*
X15859000Y-5460000D02*
X15779000Y-5540000D01*
X15779000Y-5785000D02*
X15859000Y-5865000D01*
X15859000Y-5785000D02*
X15779000Y-5865000D01*
X15779000Y-6685000D02*
X15859000Y-6765000D01*
X15859000Y-6685000D02*
X15779000Y-6765000D01*
X15779000Y-7010000D02*
X15859000Y-7090000D01*
X15859000Y-7010000D02*
X15779000Y-7090000D01*
X15779000Y-7335000D02*
X15859000Y-7415000D01*
X15859000Y-7335000D02*
X15779000Y-7415000D01*
X15779000Y-7660000D02*
X15859000Y-7740000D01*
X15859000Y-7660000D02*
X15779000Y-7740000D01*
X15779000Y-7985000D02*
X15859000Y-8065000D01*
X15859000Y-7985000D02*
X15779000Y-8065000D01*
X15779000Y-8310000D02*
X15859000Y-8390000D01*
X15859000Y-8310000D02*
X15779000Y-8390000D01*
X15779000Y-9960000D02*
X15859000Y-10040000D01*
X15859000Y-9960000D02*
X15779000Y-10040000D01*
X15779000Y-10285000D02*
X15859000Y-10365000D01*
X15859000Y-10285000D02*
X15779000Y-10365000D01*
X15779000Y-11185000D02*
X15859000Y-11265000D01*
X15859000Y-11185000D02*
X15779000Y-11265000D01*
X15779000Y-11510000D02*
X15859000Y-11590000D01*
X15859000Y-11510000D02*
X15779000Y-11590000D01*
X15779000Y-11835000D02*
X15859000Y-11915000D01*
X15859000Y-11835000D02*
X15779000Y-11915000D01*
X15779000Y-12160000D02*
X15859000Y-12240000D01*
X15859000Y-12160000D02*
X15779000Y-12240000D01*
X15779000Y-12485000D02*
X15859000Y-12565000D01*
X15859000Y-12485000D02*
X15779000Y-12565000D01*
X15779000Y-12810000D02*
X15859000Y-12890000D01*
X15859000Y-12810000D02*
X15779000Y-12890000D01*
X15779000Y-13260000D02*
X15859000Y-13340000D01*
X15859000Y-13260000D02*
X15779000Y-13340000D01*
X15835000Y-15235000D02*
X15915000Y-15315000D01*
X15915000Y-15235000D02*
X15835000Y-15315000D01*
X15885000Y-10735000D02*
X15965000Y-10815000D01*
X15965000Y-10735000D02*
X15885000Y-10815000D01*
X15906000Y-9385000D02*
X15986000Y-9465000D01*
X15986000Y-9385000D02*
X15906000Y-9465000D01*
X15907000Y-4885000D02*
X15987000Y-4965000D01*
X15987000Y-4885000D02*
X15907000Y-4965000D01*
X15910000Y-6235000D02*
X15990000Y-6315000D01*
X15990000Y-6235000D02*
X15910000Y-6315000D01*
X16160000Y-9385000D02*
X16240000Y-9465000D01*
X16240000Y-9385000D02*
X16160000Y-9465000D01*
X16161000Y-4885000D02*
X16241000Y-4965000D01*
X16241000Y-4885000D02*
X16161000Y-4965000D01*
X16335000Y-15235000D02*
X16415000Y-15315000D01*
X16415000Y-15235000D02*
X16335000Y-15315000D01*
X16385000Y-10735000D02*
X16465000Y-10815000D01*
X16465000Y-10735000D02*
X16385000Y-10815000D01*
X16410000Y-6235000D02*
X16490000Y-6315000D01*
X16490000Y-6235000D02*
X16410000Y-6315000D01*
X16414000Y-9385000D02*
X16494000Y-9465000D01*
X16494000Y-9385000D02*
X16414000Y-9465000D01*
X16415000Y-4885000D02*
X16495000Y-4965000D01*
X16495000Y-4885000D02*
X16415000Y-4965000D01*
X16541000Y-5460000D02*
X16621000Y-5540000D01*
X16621000Y-5460000D02*
X16541000Y-5540000D01*
X16541000Y-5785000D02*
X16621000Y-5865000D01*
X16621000Y-5785000D02*
X16541000Y-5865000D01*
X16541000Y-6685000D02*
X16621000Y-6765000D01*
X16621000Y-6685000D02*
X16541000Y-6765000D01*
X16541000Y-7010000D02*
X16621000Y-7090000D01*
X16621000Y-7010000D02*
X16541000Y-7090000D01*
X16541000Y-7335000D02*
X16621000Y-7415000D01*
X16621000Y-7335000D02*
X16541000Y-7415000D01*
X16541000Y-7660000D02*
X16621000Y-7740000D01*
X16621000Y-7660000D02*
X16541000Y-7740000D01*
X16541000Y-7985000D02*
X16621000Y-8065000D01*
X16621000Y-7985000D02*
X16541000Y-8065000D01*
X16541000Y-8310000D02*
X16621000Y-8390000D01*
X16621000Y-8310000D02*
X16541000Y-8390000D01*
X16541000Y-9960000D02*
X16621000Y-10040000D01*
X16621000Y-9960000D02*
X16541000Y-10040000D01*
X16541000Y-10285000D02*
X16621000Y-10365000D01*
X16621000Y-10285000D02*
X16541000Y-10365000D01*
X16541000Y-11185000D02*
X16621000Y-11265000D01*
X16621000Y-11185000D02*
X16541000Y-11265000D01*
X16541000Y-11510000D02*
X16621000Y-11590000D01*
X16621000Y-11510000D02*
X16541000Y-11590000D01*
X16541000Y-11835000D02*
X16621000Y-11915000D01*
X16621000Y-11835000D02*
X16541000Y-11915000D01*
X16541000Y-12160000D02*
X16621000Y-12240000D01*
X16621000Y-12160000D02*
X16541000Y-12240000D01*
X16541000Y-12485000D02*
X16621000Y-12565000D01*
X16621000Y-12485000D02*
X16541000Y-12565000D01*
X16541000Y-12810000D02*
X16621000Y-12890000D01*
X16621000Y-12810000D02*
X16541000Y-12890000D01*
X16541000Y-13260000D02*
X16621000Y-13340000D01*
X16621000Y-13260000D02*
X16541000Y-13340000D01*
X16960000Y-7204000D02*
X17040000Y-7284000D01*
X17040000Y-7204000D02*
X16960000Y-7284000D01*
X16960000Y-7966000D02*
X17040000Y-8046000D01*
X17040000Y-7966000D02*
X16960000Y-8046000D01*
X17035000Y-10929000D02*
X17115000Y-11009000D01*
X17115000Y-10929000D02*
X17035000Y-11009000D01*
X17035000Y-11691000D02*
X17115000Y-11771000D01*
X17115000Y-11691000D02*
X17035000Y-11771000D01*
X3050000Y-5650000D02*
G75*
G02*
X2950000Y-5650000I-50000J0D01*
G01*
X2950000Y-5650000D02*
G75*
G02*
X3050000Y-5650000I50000J0D01*
G01*
X3050000Y-5904000D02*
G75*
G02*
X2950000Y-5904000I-50000J0D01*
G01*
X2950000Y-5904000D02*
G75*
G02*
X3050000Y-5904000I50000J0D01*
G01*
X3050000Y-6158000D02*
G75*
G02*
X2950000Y-6158000I-50000J0D01*
G01*
X2950000Y-6158000D02*
G75*
G02*
X3050000Y-6158000I50000J0D01*
G01*
X3050000Y-6412000D02*
G75*
G02*
X2950000Y-6412000I-50000J0D01*
G01*
X2950000Y-6412000D02*
G75*
G02*
X3050000Y-6412000I50000J0D01*
G01*
X3050000Y-6666000D02*
G75*
G02*
X2950000Y-6666000I-50000J0D01*
G01*
X2950000Y-6666000D02*
G75*
G02*
X3050000Y-6666000I50000J0D01*
G01*
X3050000Y-6920000D02*
G75*
G02*
X2950000Y-6920000I-50000J0D01*
G01*
X2950000Y-6920000D02*
G75*
G02*
X3050000Y-6920000I50000J0D01*
G01*
X3050000Y-9450000D02*
G75*
G02*
X2950000Y-9450000I-50000J0D01*
G01*
X2950000Y-9450000D02*
G75*
G02*
X3050000Y-9450000I50000J0D01*
G01*
X3050000Y-9704000D02*
G75*
G02*
X2950000Y-9704000I-50000J0D01*
G01*
X2950000Y-9704000D02*
G75*
G02*
X3050000Y-9704000I50000J0D01*
G01*
X3050000Y-9958000D02*
G75*
G02*
X2950000Y-9958000I-50000J0D01*
G01*
X2950000Y-9958000D02*
G75*
G02*
X3050000Y-9958000I50000J0D01*
G01*
X3050000Y-10212000D02*
G75*
G02*
X2950000Y-10212000I-50000J0D01*
G01*
X2950000Y-10212000D02*
G75*
G02*
X3050000Y-10212000I50000J0D01*
G01*
X3050000Y-10466000D02*
G75*
G02*
X2950000Y-10466000I-50000J0D01*
G01*
X2950000Y-10466000D02*
G75*
G02*
X3050000Y-10466000I50000J0D01*
G01*
X3050000Y-10720000D02*
G75*
G02*
X2950000Y-10720000I-50000J0D01*
G01*
X2950000Y-10720000D02*
G75*
G02*
X3050000Y-10720000I50000J0D01*
G01*
X3050000Y-12000000D02*
G75*
G02*
X2950000Y-12000000I-50000J0D01*
G01*
X2950000Y-12000000D02*
G75*
G02*
X3050000Y-12000000I50000J0D01*
G01*
X3050000Y-12800000D02*
G75*
G02*
X2950000Y-12800000I-50000J0D01*
G01*
X2950000Y-12800000D02*
G75*
G02*
X3050000Y-12800000I50000J0D01*
G01*
X3050000Y-13054000D02*
G75*
G02*
X2950000Y-13054000I-50000J0D01*
G01*
X2950000Y-13054000D02*
G75*
G02*
X3050000Y-13054000I50000J0D01*
G01*
X3050000Y-13308000D02*
G75*
G02*
X2950000Y-13308000I-50000J0D01*
G01*
X2950000Y-13308000D02*
G75*
G02*
X3050000Y-13308000I50000J0D01*
G01*
X3050000Y-13562000D02*
G75*
G02*
X2950000Y-13562000I-50000J0D01*
G01*
X2950000Y-13562000D02*
G75*
G02*
X3050000Y-13562000I50000J0D01*
G01*
X3050000Y-13816000D02*
G75*
G02*
X2950000Y-13816000I-50000J0D01*
G01*
X2950000Y-13816000D02*
G75*
G02*
X3050000Y-13816000I50000J0D01*
G01*
X3050000Y-14070000D02*
G75*
G02*
X2950000Y-14070000I-50000J0D01*
G01*
X2950000Y-14070000D02*
G75*
G02*
X3050000Y-14070000I50000J0D01*
G01*
X3050000Y-14324000D02*
G75*
G02*
X2950000Y-14324000I-50000J0D01*
G01*
X2950000Y-14324000D02*
G75*
G02*
X3050000Y-14324000I50000J0D01*
G01*
X3050000Y-14578000D02*
G75*
G02*
X2950000Y-14578000I-50000J0D01*
G01*
X2950000Y-14578000D02*
G75*
G02*
X3050000Y-14578000I50000J0D01*
G01*
X3450000Y-19675000D02*
G75*
G02*
X3350000Y-19675000I-50000J0D01*
G01*
X3350000Y-19675000D02*
G75*
G02*
X3450000Y-19675000I50000J0D01*
G01*
X3475000Y-19625000D02*
X3325000Y-19625000D01*
X3325000Y-19725000D02*
G75*
G02*
X3325000Y-19625000I0J50000D01*
G01*
X3325000Y-19725000D02*
X3475000Y-19725000D01*
X3475000Y-19725000D02*
G75*
G03*
X3475000Y-19625000I0J50000D01*
G01*
X3450000Y-21525000D02*
G75*
G02*
X3350000Y-21525000I-50000J0D01*
G01*
X3350000Y-21525000D02*
G75*
G02*
X3450000Y-21525000I50000J0D01*
G01*
X3475000Y-21475000D02*
X3325000Y-21475000D01*
X3325000Y-21575000D02*
G75*
G02*
X3325000Y-21475000I0J50000D01*
G01*
X3325000Y-21575000D02*
X3475000Y-21575000D01*
X3475000Y-21575000D02*
G75*
G03*
X3475000Y-21475000I0J50000D01*
G01*
X3859619Y-18565381D02*
G75*
G02*
X3759619Y-18565381I-50000J0D01*
G01*
X3759619Y-18565381D02*
G75*
G02*
X3859619Y-18565381I50000J0D01*
G01*
X3898007Y-18583059D02*
X3791941Y-18476993D01*
X3721231Y-18547703D02*
G75*
G02*
X3791941Y-18476993I35355J35355D01*
G01*
X3721231Y-18547703D02*
X3827297Y-18653769D01*
X3827297Y-18653769D02*
G75*
G03*
X3898007Y-18583059I35355J35355D01*
G01*
X3859619Y-20415381D02*
G75*
G02*
X3759619Y-20415381I-50000J0D01*
G01*
X3759619Y-20415381D02*
G75*
G02*
X3859619Y-20415381I50000J0D01*
G01*
X3898007Y-20433059D02*
X3791941Y-20326993D01*
X3721231Y-20397703D02*
G75*
G02*
X3791941Y-20326993I35355J35355D01*
G01*
X3721231Y-20397703D02*
X3827297Y-20503769D01*
X3827297Y-20503769D02*
G75*
G03*
X3898007Y-20433059I35355J35355D01*
G01*
X4050000Y-19275000D02*
G75*
G02*
X3950000Y-19275000I-50000J0D01*
G01*
X3950000Y-19275000D02*
G75*
G02*
X4050000Y-19275000I50000J0D01*
G01*
X3950000Y-19200000D02*
X3950000Y-19350000D01*
X4050000Y-19350000D02*
G75*
G02*
X3950000Y-19350000I-50000J0D01*
G01*
X4050000Y-19350000D02*
X4050000Y-19200000D01*
X4050000Y-19200000D02*
G75*
G03*
X3950000Y-19200000I-50000J0D01*
G01*
X4050000Y-21125000D02*
G75*
G02*
X3950000Y-21125000I-50000J0D01*
G01*
X3950000Y-21125000D02*
G75*
G02*
X4050000Y-21125000I50000J0D01*
G01*
X3950000Y-21050000D02*
X3950000Y-21200000D01*
X4050000Y-21200000D02*
G75*
G02*
X3950000Y-21200000I-50000J0D01*
G01*
X4050000Y-21200000D02*
X4050000Y-21050000D01*
X4050000Y-21050000D02*
G75*
G03*
X3950000Y-21050000I-50000J0D01*
G01*
X4590381Y-18565381D02*
G75*
G02*
X4490381Y-18565381I-50000J0D01*
G01*
X4490381Y-18565381D02*
G75*
G02*
X4590381Y-18565381I50000J0D01*
G01*
X4558059Y-18476993D02*
X4451993Y-18583059D01*
X4522703Y-18653769D02*
G75*
G02*
X4451993Y-18583059I-35355J35355D01*
G01*
X4522703Y-18653769D02*
X4628769Y-18547703D01*
X4628769Y-18547703D02*
G75*
G03*
X4558059Y-18476993I-35355J35355D01*
G01*
X4590381Y-20415381D02*
G75*
G02*
X4490381Y-20415381I-50000J0D01*
G01*
X4490381Y-20415381D02*
G75*
G02*
X4590381Y-20415381I50000J0D01*
G01*
X4558059Y-20326993D02*
X4451993Y-20433059D01*
X4522703Y-20503769D02*
G75*
G02*
X4451993Y-20433059I-35355J35355D01*
G01*
X4522703Y-20503769D02*
X4628769Y-20397703D01*
X4628769Y-20397703D02*
G75*
G03*
X4558059Y-20326993I-35355J35355D01*
G01*
X5300000Y-18375000D02*
G75*
G02*
X5200000Y-18375000I-50000J0D01*
G01*
X5200000Y-18375000D02*
G75*
G02*
X5300000Y-18375000I50000J0D01*
G01*
X5175000Y-18425000D02*
X5325000Y-18425000D01*
X5325000Y-18325000D02*
G75*
G02*
X5325000Y-18425000I0J-50000D01*
G01*
X5325000Y-18325000D02*
X5175000Y-18325000D01*
X5175000Y-18325000D02*
G75*
G03*
X5175000Y-18425000I0J-50000D01*
G01*
X5300000Y-20225000D02*
G75*
G02*
X5200000Y-20225000I-50000J0D01*
G01*
X5200000Y-20225000D02*
G75*
G02*
X5300000Y-20225000I50000J0D01*
G01*
X5175000Y-20275000D02*
X5325000Y-20275000D01*
X5325000Y-20175000D02*
G75*
G02*
X5325000Y-20275000I0J-50000D01*
G01*
X5325000Y-20175000D02*
X5175000Y-20175000D01*
X5175000Y-20175000D02*
G75*
G03*
X5175000Y-20275000I0J-50000D01*
G01*
X5700000Y-18975000D02*
G75*
G02*
X5600000Y-18975000I-50000J0D01*
G01*
X5600000Y-18975000D02*
G75*
G02*
X5700000Y-18975000I50000J0D01*
G01*
X5600000Y-18900000D02*
X5600000Y-19050000D01*
X5700000Y-19050000D02*
G75*
G02*
X5600000Y-19050000I-50000J0D01*
G01*
X5700000Y-19050000D02*
X5700000Y-18900000D01*
X5700000Y-18900000D02*
G75*
G03*
X5600000Y-18900000I-50000J0D01*
G01*
X5700000Y-20825000D02*
G75*
G02*
X5600000Y-20825000I-50000J0D01*
G01*
X5600000Y-20825000D02*
G75*
G02*
X5700000Y-20825000I50000J0D01*
G01*
X5600000Y-20750000D02*
X5600000Y-20900000D01*
X5700000Y-20900000D02*
G75*
G02*
X5600000Y-20900000I-50000J0D01*
G01*
X5700000Y-20900000D02*
X5700000Y-20750000D01*
X5700000Y-20750000D02*
G75*
G03*
X5600000Y-20750000I-50000J0D01*
G01*
X6240381Y-18565381D02*
G75*
G02*
X6140381Y-18565381I-50000J0D01*
G01*
X6140381Y-18565381D02*
G75*
G02*
X6240381Y-18565381I50000J0D01*
G01*
X6208059Y-18476993D02*
X6101993Y-18583059D01*
X6172703Y-18653769D02*
G75*
G02*
X6101993Y-18583059I-35355J35355D01*
G01*
X6172703Y-18653769D02*
X6278769Y-18547703D01*
X6278769Y-18547703D02*
G75*
G03*
X6208059Y-18476993I-35355J35355D01*
G01*
X6240381Y-20415381D02*
G75*
G02*
X6140381Y-20415381I-50000J0D01*
G01*
X6140381Y-20415381D02*
G75*
G02*
X6240381Y-20415381I50000J0D01*
G01*
X6208059Y-20326993D02*
X6101993Y-20433059D01*
X6172703Y-20503769D02*
G75*
G02*
X6101993Y-20433059I-35355J35355D01*
G01*
X6172703Y-20503769D02*
X6278769Y-20397703D01*
X6278769Y-20397703D02*
G75*
G03*
X6208059Y-20326993I-35355J35355D01*
G01*
X6950000Y-18375000D02*
G75*
G02*
X6850000Y-18375000I-50000J0D01*
G01*
X6850000Y-18375000D02*
G75*
G02*
X6950000Y-18375000I50000J0D01*
G01*
X6825000Y-18425000D02*
X6975000Y-18425000D01*
X6975000Y-18325000D02*
G75*
G02*
X6975000Y-18425000I0J-50000D01*
G01*
X6975000Y-18325000D02*
X6825000Y-18325000D01*
X6825000Y-18325000D02*
G75*
G03*
X6825000Y-18425000I0J-50000D01*
G01*
X6950000Y-20225000D02*
G75*
G02*
X6850000Y-20225000I-50000J0D01*
G01*
X6850000Y-20225000D02*
G75*
G02*
X6950000Y-20225000I50000J0D01*
G01*
X6825000Y-20275000D02*
X6975000Y-20275000D01*
X6975000Y-20175000D02*
G75*
G02*
X6975000Y-20275000I0J-50000D01*
G01*
X6975000Y-20175000D02*
X6825000Y-20175000D01*
X6825000Y-20175000D02*
G75*
G03*
X6825000Y-20275000I0J-50000D01*
G01*
X7350000Y-18975000D02*
G75*
G02*
X7250000Y-18975000I-50000J0D01*
G01*
X7250000Y-18975000D02*
G75*
G02*
X7350000Y-18975000I50000J0D01*
G01*
X7250000Y-18900000D02*
X7250000Y-19050000D01*
X7350000Y-19050000D02*
G75*
G02*
X7250000Y-19050000I-50000J0D01*
G01*
X7350000Y-19050000D02*
X7350000Y-18900000D01*
X7350000Y-18900000D02*
G75*
G03*
X7250000Y-18900000I-50000J0D01*
G01*
X7350000Y-20825000D02*
G75*
G02*
X7250000Y-20825000I-50000J0D01*
G01*
X7250000Y-20825000D02*
G75*
G02*
X7350000Y-20825000I50000J0D01*
G01*
X7250000Y-20750000D02*
X7250000Y-20900000D01*
X7350000Y-20900000D02*
G75*
G02*
X7250000Y-20900000I-50000J0D01*
G01*
X7350000Y-20900000D02*
X7350000Y-20750000D01*
X7350000Y-20750000D02*
G75*
G03*
X7250000Y-20750000I-50000J0D01*
G01*
X7890381Y-20415381D02*
G75*
G02*
X7790381Y-20415381I-50000J0D01*
G01*
X7790381Y-20415381D02*
G75*
G02*
X7890381Y-20415381I50000J0D01*
G01*
X7858059Y-20326993D02*
X7751993Y-20433059D01*
X7822703Y-20503769D02*
G75*
G02*
X7751993Y-20433059I-35355J35355D01*
G01*
X7822703Y-20503769D02*
X7928769Y-20397703D01*
X7928769Y-20397703D02*
G75*
G03*
X7858059Y-20326993I-35355J35355D01*
G01*
X8242000Y-19224750D02*
G75*
G02*
X8142000Y-19224750I-50000J0D01*
G01*
X8142000Y-19224750D02*
G75*
G02*
X8242000Y-19224750I50000J0D01*
G01*
X8242000Y-19478750D02*
G75*
G02*
X8142000Y-19478750I-50000J0D01*
G01*
X8142000Y-19478750D02*
G75*
G02*
X8242000Y-19478750I50000J0D01*
G01*
X8496000Y-19224750D02*
G75*
G02*
X8396000Y-19224750I-50000J0D01*
G01*
X8396000Y-19224750D02*
G75*
G02*
X8496000Y-19224750I50000J0D01*
G01*
X8496000Y-19478750D02*
G75*
G02*
X8396000Y-19478750I-50000J0D01*
G01*
X8396000Y-19478750D02*
G75*
G02*
X8496000Y-19478750I50000J0D01*
G01*
X8600000Y-20225000D02*
G75*
G02*
X8500000Y-20225000I-50000J0D01*
G01*
X8500000Y-20225000D02*
G75*
G02*
X8600000Y-20225000I50000J0D01*
G01*
X8475000Y-20275000D02*
X8625000Y-20275000D01*
X8625000Y-20175000D02*
G75*
G02*
X8625000Y-20275000I0J-50000D01*
G01*
X8625000Y-20175000D02*
X8475000Y-20175000D01*
X8475000Y-20175000D02*
G75*
G03*
X8475000Y-20275000I0J-50000D01*
G01*
X8750000Y-19224750D02*
G75*
G02*
X8650000Y-19224750I-50000J0D01*
G01*
X8650000Y-19224750D02*
G75*
G02*
X8750000Y-19224750I50000J0D01*
G01*
X8750000Y-19478750D02*
G75*
G02*
X8650000Y-19478750I-50000J0D01*
G01*
X8650000Y-19478750D02*
G75*
G02*
X8750000Y-19478750I50000J0D01*
G01*
X9000000Y-20825000D02*
G75*
G02*
X8900000Y-20825000I-50000J0D01*
G01*
X8900000Y-20825000D02*
G75*
G02*
X9000000Y-20825000I50000J0D01*
G01*
X8900000Y-20750000D02*
X8900000Y-20900000D01*
X9000000Y-20900000D02*
G75*
G02*
X8900000Y-20900000I-50000J0D01*
G01*
X9000000Y-20900000D02*
X9000000Y-20750000D01*
X9000000Y-20750000D02*
G75*
G03*
X8900000Y-20750000I-50000J0D01*
G01*
X9004000Y-19224750D02*
G75*
G02*
X8904000Y-19224750I-50000J0D01*
G01*
X8904000Y-19224750D02*
G75*
G02*
X9004000Y-19224750I50000J0D01*
G01*
X9004000Y-19478750D02*
G75*
G02*
X8904000Y-19478750I-50000J0D01*
G01*
X8904000Y-19478750D02*
G75*
G02*
X9004000Y-19478750I50000J0D01*
G01*
X9161000Y-4774750D02*
G75*
G02*
X9061000Y-4774750I-50000J0D01*
G01*
X9061000Y-4774750D02*
G75*
G02*
X9161000Y-4774750I50000J0D01*
G01*
X9161000Y-5028750D02*
G75*
G02*
X9061000Y-5028750I-50000J0D01*
G01*
X9061000Y-5028750D02*
G75*
G02*
X9161000Y-5028750I50000J0D01*
G01*
X9258000Y-19224750D02*
G75*
G02*
X9158000Y-19224750I-50000J0D01*
G01*
X9158000Y-19224750D02*
G75*
G02*
X9258000Y-19224750I50000J0D01*
G01*
X9258000Y-19478750D02*
G75*
G02*
X9158000Y-19478750I-50000J0D01*
G01*
X9158000Y-19478750D02*
G75*
G02*
X9258000Y-19478750I50000J0D01*
G01*
X9415000Y-4774750D02*
G75*
G02*
X9315000Y-4774750I-50000J0D01*
G01*
X9315000Y-4774750D02*
G75*
G02*
X9415000Y-4774750I50000J0D01*
G01*
X9415000Y-5028750D02*
G75*
G02*
X9315000Y-5028750I-50000J0D01*
G01*
X9315000Y-5028750D02*
G75*
G02*
X9415000Y-5028750I50000J0D01*
G01*
X9669000Y-4774750D02*
G75*
G02*
X9569000Y-4774750I-50000J0D01*
G01*
X9569000Y-4774750D02*
G75*
G02*
X9669000Y-4774750I50000J0D01*
G01*
X9669000Y-5028750D02*
G75*
G02*
X9569000Y-5028750I-50000J0D01*
G01*
X9569000Y-5028750D02*
G75*
G02*
X9669000Y-5028750I50000J0D01*
G01*
X9670000Y-6277500D02*
G75*
G02*
X9570000Y-6277500I-50000J0D01*
G01*
X9570000Y-6277500D02*
G75*
G02*
X9670000Y-6277500I50000J0D01*
G01*
X9850000Y-13110000D02*
G75*
G02*
X9750000Y-13110000I-50000J0D01*
G01*
X9750000Y-13110000D02*
G75*
G02*
X9850000Y-13110000I50000J0D01*
G01*
X9850000Y-13364000D02*
G75*
G02*
X9750000Y-13364000I-50000J0D01*
G01*
X9750000Y-13364000D02*
G75*
G02*
X9850000Y-13364000I50000J0D01*
G01*
X9850000Y-13618000D02*
G75*
G02*
X9750000Y-13618000I-50000J0D01*
G01*
X9750000Y-13618000D02*
G75*
G02*
X9850000Y-13618000I50000J0D01*
G01*
X9850000Y-13872000D02*
G75*
G02*
X9750000Y-13872000I-50000J0D01*
G01*
X9750000Y-13872000D02*
G75*
G02*
X9850000Y-13872000I50000J0D01*
G01*
X9850000Y-14126000D02*
G75*
G02*
X9750000Y-14126000I-50000J0D01*
G01*
X9750000Y-14126000D02*
G75*
G02*
X9850000Y-14126000I50000J0D01*
G01*
X9850000Y-14380000D02*
G75*
G02*
X9750000Y-14380000I-50000J0D01*
G01*
X9750000Y-14380000D02*
G75*
G02*
X9850000Y-14380000I50000J0D01*
G01*
X9923000Y-4774750D02*
G75*
G02*
X9823000Y-4774750I-50000J0D01*
G01*
X9823000Y-4774750D02*
G75*
G02*
X9923000Y-4774750I50000J0D01*
G01*
X9923000Y-5028750D02*
G75*
G02*
X9823000Y-5028750I-50000J0D01*
G01*
X9823000Y-5028750D02*
G75*
G02*
X9923000Y-5028750I50000J0D01*
G01*
X9924000Y-6277500D02*
G75*
G02*
X9824000Y-6277500I-50000J0D01*
G01*
X9824000Y-6277500D02*
G75*
G02*
X9924000Y-6277500I50000J0D01*
G01*
X10177000Y-4774750D02*
G75*
G02*
X10077000Y-4774750I-50000J0D01*
G01*
X10077000Y-4774750D02*
G75*
G02*
X10177000Y-4774750I50000J0D01*
G01*
X10177000Y-5028750D02*
G75*
G02*
X10077000Y-5028750I-50000J0D01*
G01*
X10077000Y-5028750D02*
G75*
G02*
X10177000Y-5028750I50000J0D01*
G01*
X10178000Y-6277500D02*
G75*
G02*
X10078000Y-6277500I-50000J0D01*
G01*
X10078000Y-6277500D02*
G75*
G02*
X10178000Y-6277500I50000J0D01*
G01*
X10250000Y-13110000D02*
G75*
G02*
X10150000Y-13110000I-50000J0D01*
G01*
X10150000Y-13110000D02*
G75*
G02*
X10250000Y-13110000I50000J0D01*
G01*
X10250000Y-13364000D02*
G75*
G02*
X10150000Y-13364000I-50000J0D01*
G01*
X10150000Y-13364000D02*
G75*
G02*
X10250000Y-13364000I50000J0D01*
G01*
X10250000Y-13618000D02*
G75*
G02*
X10150000Y-13618000I-50000J0D01*
G01*
X10150000Y-13618000D02*
G75*
G02*
X10250000Y-13618000I50000J0D01*
G01*
X10250000Y-13872000D02*
G75*
G02*
X10150000Y-13872000I-50000J0D01*
G01*
X10150000Y-13872000D02*
G75*
G02*
X10250000Y-13872000I50000J0D01*
G01*
X10250000Y-14126000D02*
G75*
G02*
X10150000Y-14126000I-50000J0D01*
G01*
X10150000Y-14126000D02*
G75*
G02*
X10250000Y-14126000I50000J0D01*
G01*
X10250000Y-14380000D02*
G75*
G02*
X10150000Y-14380000I-50000J0D01*
G01*
X10150000Y-14380000D02*
G75*
G02*
X10250000Y-14380000I50000J0D01*
G01*
X10431000Y-4774750D02*
G75*
G02*
X10331000Y-4774750I-50000J0D01*
G01*
X10331000Y-4774750D02*
G75*
G02*
X10431000Y-4774750I50000J0D01*
G01*
X10431000Y-5028750D02*
G75*
G02*
X10331000Y-5028750I-50000J0D01*
G01*
X10331000Y-5028750D02*
G75*
G02*
X10431000Y-5028750I50000J0D01*
G01*
X10432000Y-6277500D02*
G75*
G02*
X10332000Y-6277500I-50000J0D01*
G01*
X10332000Y-6277500D02*
G75*
G02*
X10432000Y-6277500I50000J0D01*
G01*
X10685000Y-4774750D02*
G75*
G02*
X10585000Y-4774750I-50000J0D01*
G01*
X10585000Y-4774750D02*
G75*
G02*
X10685000Y-4774750I50000J0D01*
G01*
X10685000Y-5028750D02*
G75*
G02*
X10585000Y-5028750I-50000J0D01*
G01*
X10585000Y-5028750D02*
G75*
G02*
X10685000Y-5028750I50000J0D01*
G01*
X10846000Y-19224750D02*
G75*
G02*
X10746000Y-19224750I-50000J0D01*
G01*
X10746000Y-19224750D02*
G75*
G02*
X10846000Y-19224750I50000J0D01*
G01*
X10846000Y-19478750D02*
G75*
G02*
X10746000Y-19478750I-50000J0D01*
G01*
X10746000Y-19478750D02*
G75*
G02*
X10846000Y-19478750I50000J0D01*
G01*
X10939000Y-4774750D02*
G75*
G02*
X10839000Y-4774750I-50000J0D01*
G01*
X10839000Y-4774750D02*
G75*
G02*
X10939000Y-4774750I50000J0D01*
G01*
X10939000Y-5028750D02*
G75*
G02*
X10839000Y-5028750I-50000J0D01*
G01*
X10839000Y-5028750D02*
G75*
G02*
X10939000Y-5028750I50000J0D01*
G01*
X11100000Y-19224750D02*
G75*
G02*
X11000000Y-19224750I-50000J0D01*
G01*
X11000000Y-19224750D02*
G75*
G02*
X11100000Y-19224750I50000J0D01*
G01*
X11100000Y-19478750D02*
G75*
G02*
X11000000Y-19478750I-50000J0D01*
G01*
X11000000Y-19478750D02*
G75*
G02*
X11100000Y-19478750I50000J0D01*
G01*
X11290381Y-20415381D02*
G75*
G02*
X11190381Y-20415381I-50000J0D01*
G01*
X11190381Y-20415381D02*
G75*
G02*
X11290381Y-20415381I50000J0D01*
G01*
X11258059Y-20326993D02*
X11151993Y-20433059D01*
X11222703Y-20503769D02*
G75*
G02*
X11151993Y-20433059I-35355J35355D01*
G01*
X11222703Y-20503769D02*
X11328769Y-20397703D01*
X11328769Y-20397703D02*
G75*
G03*
X11258059Y-20326993I-35355J35355D01*
G01*
X11354000Y-19224750D02*
G75*
G02*
X11254000Y-19224750I-50000J0D01*
G01*
X11254000Y-19224750D02*
G75*
G02*
X11354000Y-19224750I50000J0D01*
G01*
X11354000Y-19478750D02*
G75*
G02*
X11254000Y-19478750I-50000J0D01*
G01*
X11254000Y-19478750D02*
G75*
G02*
X11354000Y-19478750I50000J0D01*
G01*
X11608000Y-19224750D02*
G75*
G02*
X11508000Y-19224750I-50000J0D01*
G01*
X11508000Y-19224750D02*
G75*
G02*
X11608000Y-19224750I50000J0D01*
G01*
X11608000Y-19478750D02*
G75*
G02*
X11508000Y-19478750I-50000J0D01*
G01*
X11508000Y-19478750D02*
G75*
G02*
X11608000Y-19478750I50000J0D01*
G01*
X11862000Y-19224750D02*
G75*
G02*
X11762000Y-19224750I-50000J0D01*
G01*
X11762000Y-19224750D02*
G75*
G02*
X11862000Y-19224750I50000J0D01*
G01*
X11862000Y-19478750D02*
G75*
G02*
X11762000Y-19478750I-50000J0D01*
G01*
X11762000Y-19478750D02*
G75*
G02*
X11862000Y-19478750I50000J0D01*
G01*
X12000000Y-20225000D02*
G75*
G02*
X11900000Y-20225000I-50000J0D01*
G01*
X11900000Y-20225000D02*
G75*
G02*
X12000000Y-20225000I50000J0D01*
G01*
X11875000Y-20275000D02*
X12025000Y-20275000D01*
X12025000Y-20175000D02*
G75*
G02*
X12025000Y-20275000I0J-50000D01*
G01*
X12025000Y-20175000D02*
X11875000Y-20175000D01*
X11875000Y-20175000D02*
G75*
G03*
X11875000Y-20275000I0J-50000D01*
G01*
X12400000Y-20825000D02*
G75*
G02*
X12300000Y-20825000I-50000J0D01*
G01*
X12300000Y-20825000D02*
G75*
G02*
X12400000Y-20825000I50000J0D01*
G01*
X12300000Y-20750000D02*
X12300000Y-20900000D01*
X12400000Y-20900000D02*
G75*
G02*
X12300000Y-20900000I-50000J0D01*
G01*
X12400000Y-20900000D02*
X12400000Y-20750000D01*
X12400000Y-20750000D02*
G75*
G03*
X12300000Y-20750000I-50000J0D01*
G01*
X12940381Y-18565381D02*
G75*
G02*
X12840381Y-18565381I-50000J0D01*
G01*
X12840381Y-18565381D02*
G75*
G02*
X12940381Y-18565381I50000J0D01*
G01*
X12908059Y-18476993D02*
X12801993Y-18583059D01*
X12872703Y-18653769D02*
G75*
G02*
X12801993Y-18583059I-35355J35355D01*
G01*
X12872703Y-18653769D02*
X12978769Y-18547703D01*
X12978769Y-18547703D02*
G75*
G03*
X12908059Y-18476993I-35355J35355D01*
G01*
X12940381Y-20415381D02*
G75*
G02*
X12840381Y-20415381I-50000J0D01*
G01*
X12840381Y-20415381D02*
G75*
G02*
X12940381Y-20415381I50000J0D01*
G01*
X12908059Y-20326993D02*
X12801993Y-20433059D01*
X12872703Y-20503769D02*
G75*
G02*
X12801993Y-20433059I-35355J35355D01*
G01*
X12872703Y-20503769D02*
X12978769Y-20397703D01*
X12978769Y-20397703D02*
G75*
G03*
X12908059Y-20326993I-35355J35355D01*
G01*
X13650000Y-18375000D02*
G75*
G02*
X13550000Y-18375000I-50000J0D01*
G01*
X13550000Y-18375000D02*
G75*
G02*
X13650000Y-18375000I50000J0D01*
G01*
X13525000Y-18425000D02*
X13675000Y-18425000D01*
X13675000Y-18325000D02*
G75*
G02*
X13675000Y-18425000I0J-50000D01*
G01*
X13675000Y-18325000D02*
X13525000Y-18325000D01*
X13525000Y-18325000D02*
G75*
G03*
X13525000Y-18425000I0J-50000D01*
G01*
X13650000Y-20225000D02*
G75*
G02*
X13550000Y-20225000I-50000J0D01*
G01*
X13550000Y-20225000D02*
G75*
G02*
X13650000Y-20225000I50000J0D01*
G01*
X13525000Y-20275000D02*
X13675000Y-20275000D01*
X13675000Y-20175000D02*
G75*
G02*
X13675000Y-20275000I0J-50000D01*
G01*
X13675000Y-20175000D02*
X13525000Y-20175000D01*
X13525000Y-20175000D02*
G75*
G03*
X13525000Y-20275000I0J-50000D01*
G01*
X14050000Y-18975000D02*
G75*
G02*
X13950000Y-18975000I-50000J0D01*
G01*
X13950000Y-18975000D02*
G75*
G02*
X14050000Y-18975000I50000J0D01*
G01*
X13950000Y-18900000D02*
X13950000Y-19050000D01*
X14050000Y-19050000D02*
G75*
G02*
X13950000Y-19050000I-50000J0D01*
G01*
X14050000Y-19050000D02*
X14050000Y-18900000D01*
X14050000Y-18900000D02*
G75*
G03*
X13950000Y-18900000I-50000J0D01*
G01*
X14050000Y-20825000D02*
G75*
G02*
X13950000Y-20825000I-50000J0D01*
G01*
X13950000Y-20825000D02*
G75*
G02*
X14050000Y-20825000I50000J0D01*
G01*
X13950000Y-20750000D02*
X13950000Y-20900000D01*
X14050000Y-20900000D02*
G75*
G02*
X13950000Y-20900000I-50000J0D01*
G01*
X14050000Y-20900000D02*
X14050000Y-20750000D01*
X14050000Y-20750000D02*
G75*
G03*
X13950000Y-20750000I-50000J0D01*
G01*
X14590381Y-18565381D02*
G75*
G02*
X14490381Y-18565381I-50000J0D01*
G01*
X14490381Y-18565381D02*
G75*
G02*
X14590381Y-18565381I50000J0D01*
G01*
X14558059Y-18476993D02*
X14451993Y-18583059D01*
X14522703Y-18653769D02*
G75*
G02*
X14451993Y-18583059I-35355J35355D01*
G01*
X14522703Y-18653769D02*
X14628769Y-18547703D01*
X14628769Y-18547703D02*
G75*
G03*
X14558059Y-18476993I-35355J35355D01*
G01*
X14590381Y-20415381D02*
G75*
G02*
X14490381Y-20415381I-50000J0D01*
G01*
X14490381Y-20415381D02*
G75*
G02*
X14590381Y-20415381I50000J0D01*
G01*
X14558059Y-20326993D02*
X14451993Y-20433059D01*
X14522703Y-20503769D02*
G75*
G02*
X14451993Y-20433059I-35355J35355D01*
G01*
X14522703Y-20503769D02*
X14628769Y-20397703D01*
X14628769Y-20397703D02*
G75*
G03*
X14558059Y-20326993I-35355J35355D01*
G01*
X15300000Y-18375000D02*
G75*
G02*
X15200000Y-18375000I-50000J0D01*
G01*
X15200000Y-18375000D02*
G75*
G02*
X15300000Y-18375000I50000J0D01*
G01*
X15175000Y-18425000D02*
X15325000Y-18425000D01*
X15325000Y-18325000D02*
G75*
G02*
X15325000Y-18425000I0J-50000D01*
G01*
X15325000Y-18325000D02*
X15175000Y-18325000D01*
X15175000Y-18325000D02*
G75*
G03*
X15175000Y-18425000I0J-50000D01*
G01*
X15300000Y-20225000D02*
G75*
G02*
X15200000Y-20225000I-50000J0D01*
G01*
X15200000Y-20225000D02*
G75*
G02*
X15300000Y-20225000I50000J0D01*
G01*
X15175000Y-20275000D02*
X15325000Y-20275000D01*
X15325000Y-20175000D02*
G75*
G02*
X15325000Y-20275000I0J-50000D01*
G01*
X15325000Y-20175000D02*
X15175000Y-20175000D01*
X15175000Y-20175000D02*
G75*
G03*
X15175000Y-20275000I0J-50000D01*
G01*
X15700000Y-18975000D02*
G75*
G02*
X15600000Y-18975000I-50000J0D01*
G01*
X15600000Y-18975000D02*
G75*
G02*
X15700000Y-18975000I50000J0D01*
G01*
X15600000Y-18900000D02*
X15600000Y-19050000D01*
X15700000Y-19050000D02*
G75*
G02*
X15600000Y-19050000I-50000J0D01*
G01*
X15700000Y-19050000D02*
X15700000Y-18900000D01*
X15700000Y-18900000D02*
G75*
G03*
X15600000Y-18900000I-50000J0D01*
G01*
X15700000Y-20825000D02*
G75*
G02*
X15600000Y-20825000I-50000J0D01*
G01*
X15600000Y-20825000D02*
G75*
G02*
X15700000Y-20825000I50000J0D01*
G01*
X15600000Y-20750000D02*
X15600000Y-20900000D01*
X15700000Y-20900000D02*
G75*
G02*
X15600000Y-20900000I-50000J0D01*
G01*
X15700000Y-20900000D02*
X15700000Y-20750000D01*
X15700000Y-20750000D02*
G75*
G03*
X15600000Y-20750000I-50000J0D01*
G01*
X16050000Y-18775000D02*
G75*
G02*
X15950000Y-18775000I-50000J0D01*
G01*
X15950000Y-18775000D02*
G75*
G02*
X16050000Y-18775000I50000J0D01*
G01*
X16050000Y-18850000D02*
X16050000Y-18700000D01*
X15950000Y-18700000D02*
G75*
G02*
X16050000Y-18700000I50000J0D01*
G01*
X15950000Y-18700000D02*
X15950000Y-18850000D01*
X15950000Y-18850000D02*
G75*
G03*
X16050000Y-18850000I50000J0D01*
G01*
X16050000Y-20625000D02*
G75*
G02*
X15950000Y-20625000I-50000J0D01*
G01*
X15950000Y-20625000D02*
G75*
G02*
X16050000Y-20625000I50000J0D01*
G01*
X16050000Y-20700000D02*
X16050000Y-20550000D01*
X15950000Y-20550000D02*
G75*
G02*
X16050000Y-20550000I50000J0D01*
G01*
X15950000Y-20550000D02*
X15950000Y-20700000D01*
X15950000Y-20700000D02*
G75*
G03*
X16050000Y-20700000I50000J0D01*
G01*
X16240381Y-19484619D02*
G75*
G02*
X16140381Y-19484619I-50000J0D01*
G01*
X16140381Y-19484619D02*
G75*
G02*
X16240381Y-19484619I50000J0D01*
G01*
X16101993Y-19466941D02*
X16208059Y-19573007D01*
X16278769Y-19502297D02*
G75*
G02*
X16208059Y-19573007I-35355J-35355D01*
G01*
X16278769Y-19502297D02*
X16172703Y-19396231D01*
X16172703Y-19396231D02*
G75*
G03*
X16101993Y-19466941I-35355J-35355D01*
G01*
X16240381Y-21334619D02*
G75*
G02*
X16140381Y-21334619I-50000J0D01*
G01*
X16140381Y-21334619D02*
G75*
G02*
X16240381Y-21334619I50000J0D01*
G01*
X16101993Y-21316941D02*
X16208059Y-21423007D01*
X16278769Y-21352297D02*
G75*
G02*
X16208059Y-21423007I-35355J-35355D01*
G01*
X16278769Y-21352297D02*
X16172703Y-21246231D01*
X16172703Y-21246231D02*
G75*
G03*
X16101993Y-21316941I-35355J-35355D01*
G01*
X16650000Y-18375000D02*
G75*
G02*
X16550000Y-18375000I-50000J0D01*
G01*
X16550000Y-18375000D02*
G75*
G02*
X16650000Y-18375000I50000J0D01*
G01*
X16525000Y-18425000D02*
X16675000Y-18425000D01*
X16675000Y-18325000D02*
G75*
G02*
X16675000Y-18425000I0J-50000D01*
G01*
X16675000Y-18325000D02*
X16525000Y-18325000D01*
X16525000Y-18325000D02*
G75*
G03*
X16525000Y-18425000I0J-50000D01*
G01*
X16650000Y-20225000D02*
G75*
G02*
X16550000Y-20225000I-50000J0D01*
G01*
X16550000Y-20225000D02*
G75*
G02*
X16650000Y-20225000I50000J0D01*
G01*
X16525000Y-20275000D02*
X16675000Y-20275000D01*
X16675000Y-20175000D02*
G75*
G02*
X16675000Y-20275000I0J-50000D01*
G01*
X16675000Y-20175000D02*
X16525000Y-20175000D01*
X16525000Y-20175000D02*
G75*
G03*
X16525000Y-20275000I0J-50000D01*
G01*
X17050000Y-5650000D02*
G75*
G02*
X16950000Y-5650000I-50000J0D01*
G01*
X16950000Y-5650000D02*
G75*
G02*
X17050000Y-5650000I50000J0D01*
G01*
X17050000Y-5904000D02*
G75*
G02*
X16950000Y-5904000I-50000J0D01*
G01*
X16950000Y-5904000D02*
G75*
G02*
X17050000Y-5904000I50000J0D01*
G01*
X17050000Y-6158000D02*
G75*
G02*
X16950000Y-6158000I-50000J0D01*
G01*
X16950000Y-6158000D02*
G75*
G02*
X17050000Y-6158000I50000J0D01*
G01*
X17050000Y-6412000D02*
G75*
G02*
X16950000Y-6412000I-50000J0D01*
G01*
X16950000Y-6412000D02*
G75*
G02*
X17050000Y-6412000I50000J0D01*
G01*
X17050000Y-6666000D02*
G75*
G02*
X16950000Y-6666000I-50000J0D01*
G01*
X16950000Y-6666000D02*
G75*
G02*
X17050000Y-6666000I50000J0D01*
G01*
X17050000Y-6920000D02*
G75*
G02*
X16950000Y-6920000I-50000J0D01*
G01*
X16950000Y-6920000D02*
G75*
G02*
X17050000Y-6920000I50000J0D01*
G01*
X17050000Y-9450000D02*
G75*
G02*
X16950000Y-9450000I-50000J0D01*
G01*
X16950000Y-9450000D02*
G75*
G02*
X17050000Y-9450000I50000J0D01*
G01*
X17050000Y-9704000D02*
G75*
G02*
X16950000Y-9704000I-50000J0D01*
G01*
X16950000Y-9704000D02*
G75*
G02*
X17050000Y-9704000I50000J0D01*
G01*
X17050000Y-9958000D02*
G75*
G02*
X16950000Y-9958000I-50000J0D01*
G01*
X16950000Y-9958000D02*
G75*
G02*
X17050000Y-9958000I50000J0D01*
G01*
X17050000Y-10212000D02*
G75*
G02*
X16950000Y-10212000I-50000J0D01*
G01*
X16950000Y-10212000D02*
G75*
G02*
X17050000Y-10212000I50000J0D01*
G01*
X17050000Y-10466000D02*
G75*
G02*
X16950000Y-10466000I-50000J0D01*
G01*
X16950000Y-10466000D02*
G75*
G02*
X17050000Y-10466000I50000J0D01*
G01*
X17050000Y-10720000D02*
G75*
G02*
X16950000Y-10720000I-50000J0D01*
G01*
X16950000Y-10720000D02*
G75*
G02*
X17050000Y-10720000I50000J0D01*
G01*
X17050000Y-12800000D02*
G75*
G02*
X16950000Y-12800000I-50000J0D01*
G01*
X16950000Y-12800000D02*
G75*
G02*
X17050000Y-12800000I50000J0D01*
G01*
X17050000Y-13054000D02*
G75*
G02*
X16950000Y-13054000I-50000J0D01*
G01*
X16950000Y-13054000D02*
G75*
G02*
X17050000Y-13054000I50000J0D01*
G01*
X17050000Y-13308000D02*
G75*
G02*
X16950000Y-13308000I-50000J0D01*
G01*
X16950000Y-13308000D02*
G75*
G02*
X17050000Y-13308000I50000J0D01*
G01*
X17050000Y-13562000D02*
G75*
G02*
X16950000Y-13562000I-50000J0D01*
G01*
X16950000Y-13562000D02*
G75*
G02*
X17050000Y-13562000I50000J0D01*
G01*
X17050000Y-13816000D02*
G75*
G02*
X16950000Y-13816000I-50000J0D01*
G01*
X16950000Y-13816000D02*
G75*
G02*
X17050000Y-13816000I50000J0D01*
G01*
X17050000Y-14070000D02*
G75*
G02*
X16950000Y-14070000I-50000J0D01*
G01*
X16950000Y-14070000D02*
G75*
G02*
X17050000Y-14070000I50000J0D01*
G01*
X17050000Y-14324000D02*
G75*
G02*
X16950000Y-14324000I-50000J0D01*
G01*
X16950000Y-14324000D02*
G75*
G02*
X17050000Y-14324000I50000J0D01*
G01*
X17050000Y-14578000D02*
G75*
G02*
X16950000Y-14578000I-50000J0D01*
G01*
X16950000Y-14578000D02*
G75*
G02*
X17050000Y-14578000I50000J0D01*
G01*
D13*
X8200000Y-4362000D02*
X8200000Y-4472000D01*
X8145000Y-4417000D02*
X8255000Y-4417000D01*
X8200000Y-5378000D02*
X8200000Y-5488000D01*
X8145000Y-5433000D02*
X8255000Y-5433000D01*
X11800000Y-4362000D02*
X11800000Y-4472000D01*
X11745000Y-4417000D02*
X11855000Y-4417000D01*
X11800000Y-5378000D02*
X11800000Y-5488000D01*
X11745000Y-5433000D02*
X11855000Y-5433000D01*
D11*
X2958277Y-22063984D02*
X2958277Y-21863984D01*
X2958277Y-21863984D02*
X3005896Y-21863984D01*
X3005896Y-21863984D02*
X3034467Y-21873508D01*
X3034467Y-21873508D02*
X3053515Y-21892555D01*
X3053515Y-21892555D02*
X3063039Y-21911603D01*
X3063039Y-21911603D02*
X3072562Y-21949698D01*
X3072562Y-21949698D02*
X3072562Y-21978270D01*
X3072562Y-21978270D02*
X3063039Y-22016365D01*
X3063039Y-22016365D02*
X3053515Y-22035412D01*
X3053515Y-22035412D02*
X3034467Y-22054460D01*
X3034467Y-22054460D02*
X3005896Y-22063984D01*
X3005896Y-22063984D02*
X2958277Y-22063984D01*
X3158277Y-22063984D02*
X3158277Y-21930650D01*
X3158277Y-21968746D02*
X3167801Y-21949698D01*
X3167801Y-21949698D02*
X3177324Y-21940174D01*
X3177324Y-21940174D02*
X3196372Y-21930650D01*
X3196372Y-21930650D02*
X3215420Y-21930650D01*
X3282086Y-22063984D02*
X3282086Y-21930650D01*
X3282086Y-21863984D02*
X3272562Y-21873508D01*
X3272562Y-21873508D02*
X3282086Y-21883031D01*
X3282086Y-21883031D02*
X3291610Y-21873508D01*
X3291610Y-21873508D02*
X3282086Y-21863984D01*
X3282086Y-21863984D02*
X3282086Y-21883031D01*
X3405896Y-22063984D02*
X3386848Y-22054460D01*
X3386848Y-22054460D02*
X3377324Y-22035412D01*
X3377324Y-22035412D02*
X3377324Y-21863984D01*
X3510658Y-22063984D02*
X3491610Y-22054460D01*
X3491610Y-22054460D02*
X3482086Y-22035412D01*
X3482086Y-22035412D02*
X3482086Y-21863984D01*
X3739229Y-22063984D02*
X3739229Y-21863984D01*
X3739229Y-21863984D02*
X3805896Y-22006841D01*
X3805896Y-22006841D02*
X3872562Y-21863984D01*
X3872562Y-21863984D02*
X3872562Y-22063984D01*
X4053515Y-22063984D02*
X4053515Y-21959222D01*
X4053515Y-21959222D02*
X4043991Y-21940174D01*
X4043991Y-21940174D02*
X4024943Y-21930650D01*
X4024943Y-21930650D02*
X3986848Y-21930650D01*
X3986848Y-21930650D02*
X3967801Y-21940174D01*
X4053515Y-22054460D02*
X4034467Y-22063984D01*
X4034467Y-22063984D02*
X3986848Y-22063984D01*
X3986848Y-22063984D02*
X3967801Y-22054460D01*
X3967801Y-22054460D02*
X3958277Y-22035412D01*
X3958277Y-22035412D02*
X3958277Y-22016365D01*
X3958277Y-22016365D02*
X3967801Y-21997317D01*
X3967801Y-21997317D02*
X3986848Y-21987793D01*
X3986848Y-21987793D02*
X4034467Y-21987793D01*
X4034467Y-21987793D02*
X4053515Y-21978270D01*
X4148753Y-21930650D02*
X4148753Y-22130650D01*
X4148753Y-21940174D02*
X4167801Y-21930650D01*
X4167801Y-21930650D02*
X4205896Y-21930650D01*
X4205896Y-21930650D02*
X4224944Y-21940174D01*
X4224944Y-21940174D02*
X4234467Y-21949698D01*
X4234467Y-21949698D02*
X4243991Y-21968746D01*
X4243991Y-21968746D02*
X4243991Y-22025889D01*
X4243991Y-22025889D02*
X4234467Y-22044936D01*
X4234467Y-22044936D02*
X4224944Y-22054460D01*
X4224944Y-22054460D02*
X4205896Y-22063984D01*
X4205896Y-22063984D02*
X4167801Y-22063984D01*
X4167801Y-22063984D02*
X4148753Y-22054460D01*
X4329705Y-22044936D02*
X4339229Y-22054460D01*
X4339229Y-22054460D02*
X4329705Y-22063984D01*
X4329705Y-22063984D02*
X4320182Y-22054460D01*
X4320182Y-22054460D02*
X4329705Y-22044936D01*
X4329705Y-22044936D02*
X4329705Y-22063984D01*
X4329705Y-21940174D02*
X4339229Y-21949698D01*
X4339229Y-21949698D02*
X4329705Y-21959222D01*
X4329705Y-21959222D02*
X4320182Y-21949698D01*
X4320182Y-21949698D02*
X4329705Y-21940174D01*
X4329705Y-21940174D02*
X4329705Y-21959222D01*
D12*
X2617500Y-22352500D02*
X2697500Y-22432500D01*
X2697500Y-22352500D02*
X2617500Y-22432500D01*
D11*
X2996372Y-22283984D02*
X3015420Y-22283984D01*
X3015420Y-22283984D02*
X3034467Y-22293508D01*
X3034467Y-22293508D02*
X3043991Y-22303031D01*
X3043991Y-22303031D02*
X3053515Y-22322079D01*
X3053515Y-22322079D02*
X3063039Y-22360174D01*
X3063039Y-22360174D02*
X3063039Y-22407793D01*
X3063039Y-22407793D02*
X3053515Y-22445888D01*
X3053515Y-22445888D02*
X3043991Y-22464936D01*
X3043991Y-22464936D02*
X3034467Y-22474460D01*
X3034467Y-22474460D02*
X3015420Y-22483984D01*
X3015420Y-22483984D02*
X2996372Y-22483984D01*
X2996372Y-22483984D02*
X2977324Y-22474460D01*
X2977324Y-22474460D02*
X2967801Y-22464936D01*
X2967801Y-22464936D02*
X2958277Y-22445888D01*
X2958277Y-22445888D02*
X2948753Y-22407793D01*
X2948753Y-22407793D02*
X2948753Y-22360174D01*
X2948753Y-22360174D02*
X2958277Y-22322079D01*
X2958277Y-22322079D02*
X2967801Y-22303031D01*
X2967801Y-22303031D02*
X2977324Y-22293508D01*
X2977324Y-22293508D02*
X2996372Y-22283984D01*
X3148753Y-22464936D02*
X3158277Y-22474460D01*
X3158277Y-22474460D02*
X3148753Y-22483984D01*
X3148753Y-22483984D02*
X3139229Y-22474460D01*
X3139229Y-22474460D02*
X3148753Y-22464936D01*
X3148753Y-22464936D02*
X3148753Y-22483984D01*
X3272562Y-22369698D02*
X3253515Y-22360174D01*
X3253515Y-22360174D02*
X3243991Y-22350650D01*
X3243991Y-22350650D02*
X3234467Y-22331603D01*
X3234467Y-22331603D02*
X3234467Y-22322079D01*
X3234467Y-22322079D02*
X3243991Y-22303031D01*
X3243991Y-22303031D02*
X3253515Y-22293508D01*
X3253515Y-22293508D02*
X3272562Y-22283984D01*
X3272562Y-22283984D02*
X3310658Y-22283984D01*
X3310658Y-22283984D02*
X3329705Y-22293508D01*
X3329705Y-22293508D02*
X3339229Y-22303031D01*
X3339229Y-22303031D02*
X3348753Y-22322079D01*
X3348753Y-22322079D02*
X3348753Y-22331603D01*
X3348753Y-22331603D02*
X3339229Y-22350650D01*
X3339229Y-22350650D02*
X3329705Y-22360174D01*
X3329705Y-22360174D02*
X3310658Y-22369698D01*
X3310658Y-22369698D02*
X3272562Y-22369698D01*
X3272562Y-22369698D02*
X3253515Y-22379222D01*
X3253515Y-22379222D02*
X3243991Y-22388746D01*
X3243991Y-22388746D02*
X3234467Y-22407793D01*
X3234467Y-22407793D02*
X3234467Y-22445888D01*
X3234467Y-22445888D02*
X3243991Y-22464936D01*
X3243991Y-22464936D02*
X3253515Y-22474460D01*
X3253515Y-22474460D02*
X3272562Y-22483984D01*
X3272562Y-22483984D02*
X3310658Y-22483984D01*
X3310658Y-22483984D02*
X3329705Y-22474460D01*
X3329705Y-22474460D02*
X3339229Y-22464936D01*
X3339229Y-22464936D02*
X3348753Y-22445888D01*
X3348753Y-22445888D02*
X3348753Y-22407793D01*
X3348753Y-22407793D02*
X3339229Y-22388746D01*
X3339229Y-22388746D02*
X3329705Y-22379222D01*
X3329705Y-22379222D02*
X3310658Y-22369698D01*
X3472562Y-22283984D02*
X3491610Y-22283984D01*
X3491610Y-22283984D02*
X3510658Y-22293508D01*
X3510658Y-22293508D02*
X3520182Y-22303031D01*
X3520182Y-22303031D02*
X3529705Y-22322079D01*
X3529705Y-22322079D02*
X3539229Y-22360174D01*
X3539229Y-22360174D02*
X3539229Y-22407793D01*
X3539229Y-22407793D02*
X3529705Y-22445888D01*
X3529705Y-22445888D02*
X3520182Y-22464936D01*
X3520182Y-22464936D02*
X3510658Y-22474460D01*
X3510658Y-22474460D02*
X3491610Y-22483984D01*
X3491610Y-22483984D02*
X3472562Y-22483984D01*
X3472562Y-22483984D02*
X3453515Y-22474460D01*
X3453515Y-22474460D02*
X3443991Y-22464936D01*
X3443991Y-22464936D02*
X3434467Y-22445888D01*
X3434467Y-22445888D02*
X3424943Y-22407793D01*
X3424943Y-22407793D02*
X3424943Y-22360174D01*
X3424943Y-22360174D02*
X3434467Y-22322079D01*
X3434467Y-22322079D02*
X3443991Y-22303031D01*
X3443991Y-22303031D02*
X3453515Y-22293508D01*
X3453515Y-22293508D02*
X3472562Y-22283984D01*
X3663039Y-22283984D02*
X3682086Y-22283984D01*
X3682086Y-22283984D02*
X3701134Y-22293508D01*
X3701134Y-22293508D02*
X3710658Y-22303031D01*
X3710658Y-22303031D02*
X3720182Y-22322079D01*
X3720182Y-22322079D02*
X3729705Y-22360174D01*
X3729705Y-22360174D02*
X3729705Y-22407793D01*
X3729705Y-22407793D02*
X3720182Y-22445888D01*
X3720182Y-22445888D02*
X3710658Y-22464936D01*
X3710658Y-22464936D02*
X3701134Y-22474460D01*
X3701134Y-22474460D02*
X3682086Y-22483984D01*
X3682086Y-22483984D02*
X3663039Y-22483984D01*
X3663039Y-22483984D02*
X3643991Y-22474460D01*
X3643991Y-22474460D02*
X3634467Y-22464936D01*
X3634467Y-22464936D02*
X3624943Y-22445888D01*
X3624943Y-22445888D02*
X3615420Y-22407793D01*
X3615420Y-22407793D02*
X3615420Y-22360174D01*
X3615420Y-22360174D02*
X3624943Y-22322079D01*
X3624943Y-22322079D02*
X3634467Y-22303031D01*
X3634467Y-22303031D02*
X3643991Y-22293508D01*
X3643991Y-22293508D02*
X3663039Y-22283984D01*
X3815420Y-22483984D02*
X3815420Y-22350650D01*
X3815420Y-22369698D02*
X3824943Y-22360174D01*
X3824943Y-22360174D02*
X3843991Y-22350650D01*
X3843991Y-22350650D02*
X3872563Y-22350650D01*
X3872563Y-22350650D02*
X3891610Y-22360174D01*
X3891610Y-22360174D02*
X3901134Y-22379222D01*
X3901134Y-22379222D02*
X3901134Y-22483984D01*
X3901134Y-22379222D02*
X3910658Y-22360174D01*
X3910658Y-22360174D02*
X3929705Y-22350650D01*
X3929705Y-22350650D02*
X3958277Y-22350650D01*
X3958277Y-22350650D02*
X3977324Y-22360174D01*
X3977324Y-22360174D02*
X3986848Y-22379222D01*
X3986848Y-22379222D02*
X3986848Y-22483984D01*
X4082086Y-22483984D02*
X4082086Y-22350650D01*
X4082086Y-22369698D02*
X4091610Y-22360174D01*
X4091610Y-22360174D02*
X4110658Y-22350650D01*
X4110658Y-22350650D02*
X4139229Y-22350650D01*
X4139229Y-22350650D02*
X4158277Y-22360174D01*
X4158277Y-22360174D02*
X4167801Y-22379222D01*
X4167801Y-22379222D02*
X4167801Y-22483984D01*
X4167801Y-22379222D02*
X4177324Y-22360174D01*
X4177324Y-22360174D02*
X4196372Y-22350650D01*
X4196372Y-22350650D02*
X4224944Y-22350650D01*
X4224944Y-22350650D02*
X4243991Y-22360174D01*
X4243991Y-22360174D02*
X4253515Y-22379222D01*
X4253515Y-22379222D02*
X4253515Y-22483984D01*
X4643991Y-22274460D02*
X4472563Y-22531603D01*
X4901134Y-22283984D02*
X4920182Y-22283984D01*
X4920182Y-22283984D02*
X4939229Y-22293508D01*
X4939229Y-22293508D02*
X4948753Y-22303031D01*
X4948753Y-22303031D02*
X4958277Y-22322079D01*
X4958277Y-22322079D02*
X4967801Y-22360174D01*
X4967801Y-22360174D02*
X4967801Y-22407793D01*
X4967801Y-22407793D02*
X4958277Y-22445888D01*
X4958277Y-22445888D02*
X4948753Y-22464936D01*
X4948753Y-22464936D02*
X4939229Y-22474460D01*
X4939229Y-22474460D02*
X4920182Y-22483984D01*
X4920182Y-22483984D02*
X4901134Y-22483984D01*
X4901134Y-22483984D02*
X4882087Y-22474460D01*
X4882087Y-22474460D02*
X4872563Y-22464936D01*
X4872563Y-22464936D02*
X4863039Y-22445888D01*
X4863039Y-22445888D02*
X4853515Y-22407793D01*
X4853515Y-22407793D02*
X4853515Y-22360174D01*
X4853515Y-22360174D02*
X4863039Y-22322079D01*
X4863039Y-22322079D02*
X4872563Y-22303031D01*
X4872563Y-22303031D02*
X4882087Y-22293508D01*
X4882087Y-22293508D02*
X4901134Y-22283984D01*
X5053515Y-22464936D02*
X5063039Y-22474460D01*
X5063039Y-22474460D02*
X5053515Y-22483984D01*
X5053515Y-22483984D02*
X5043991Y-22474460D01*
X5043991Y-22474460D02*
X5053515Y-22464936D01*
X5053515Y-22464936D02*
X5053515Y-22483984D01*
X5186848Y-22283984D02*
X5205896Y-22283984D01*
X5205896Y-22283984D02*
X5224944Y-22293508D01*
X5224944Y-22293508D02*
X5234468Y-22303031D01*
X5234468Y-22303031D02*
X5243991Y-22322079D01*
X5243991Y-22322079D02*
X5253515Y-22360174D01*
X5253515Y-22360174D02*
X5253515Y-22407793D01*
X5253515Y-22407793D02*
X5243991Y-22445888D01*
X5243991Y-22445888D02*
X5234468Y-22464936D01*
X5234468Y-22464936D02*
X5224944Y-22474460D01*
X5224944Y-22474460D02*
X5205896Y-22483984D01*
X5205896Y-22483984D02*
X5186848Y-22483984D01*
X5186848Y-22483984D02*
X5167801Y-22474460D01*
X5167801Y-22474460D02*
X5158277Y-22464936D01*
X5158277Y-22464936D02*
X5148753Y-22445888D01*
X5148753Y-22445888D02*
X5139229Y-22407793D01*
X5139229Y-22407793D02*
X5139229Y-22360174D01*
X5139229Y-22360174D02*
X5148753Y-22322079D01*
X5148753Y-22322079D02*
X5158277Y-22303031D01*
X5158277Y-22303031D02*
X5167801Y-22293508D01*
X5167801Y-22293508D02*
X5186848Y-22283984D01*
X5320182Y-22283984D02*
X5443991Y-22283984D01*
X5443991Y-22283984D02*
X5377325Y-22360174D01*
X5377325Y-22360174D02*
X5405896Y-22360174D01*
X5405896Y-22360174D02*
X5424944Y-22369698D01*
X5424944Y-22369698D02*
X5434468Y-22379222D01*
X5434468Y-22379222D02*
X5443991Y-22398269D01*
X5443991Y-22398269D02*
X5443991Y-22445888D01*
X5443991Y-22445888D02*
X5434468Y-22464936D01*
X5434468Y-22464936D02*
X5424944Y-22474460D01*
X5424944Y-22474460D02*
X5405896Y-22483984D01*
X5405896Y-22483984D02*
X5348753Y-22483984D01*
X5348753Y-22483984D02*
X5329706Y-22474460D01*
X5329706Y-22474460D02*
X5320182Y-22464936D01*
X5634467Y-22483984D02*
X5520182Y-22483984D01*
X5577325Y-22483984D02*
X5577325Y-22283984D01*
X5577325Y-22283984D02*
X5558277Y-22312555D01*
X5558277Y-22312555D02*
X5539229Y-22331603D01*
X5539229Y-22331603D02*
X5520182Y-22341127D01*
X5815420Y-22283984D02*
X5720182Y-22283984D01*
X5720182Y-22283984D02*
X5710658Y-22379222D01*
X5710658Y-22379222D02*
X5720182Y-22369698D01*
X5720182Y-22369698D02*
X5739229Y-22360174D01*
X5739229Y-22360174D02*
X5786848Y-22360174D01*
X5786848Y-22360174D02*
X5805896Y-22369698D01*
X5805896Y-22369698D02*
X5815420Y-22379222D01*
X5815420Y-22379222D02*
X5824944Y-22398269D01*
X5824944Y-22398269D02*
X5824944Y-22445888D01*
X5824944Y-22445888D02*
X5815420Y-22464936D01*
X5815420Y-22464936D02*
X5805896Y-22474460D01*
X5805896Y-22474460D02*
X5786848Y-22483984D01*
X5786848Y-22483984D02*
X5739229Y-22483984D01*
X5739229Y-22483984D02*
X5720182Y-22474460D01*
X5720182Y-22474460D02*
X5710658Y-22464936D01*
X5901134Y-22283984D02*
X5901134Y-22322079D01*
X5977325Y-22283984D02*
X5977325Y-22322079D01*
X6272563Y-22560174D02*
X6263039Y-22550650D01*
X6263039Y-22550650D02*
X6243991Y-22522079D01*
X6243991Y-22522079D02*
X6234468Y-22503031D01*
X6234468Y-22503031D02*
X6224944Y-22474460D01*
X6224944Y-22474460D02*
X6215420Y-22426841D01*
X6215420Y-22426841D02*
X6215420Y-22388746D01*
X6215420Y-22388746D02*
X6224944Y-22341127D01*
X6224944Y-22341127D02*
X6234468Y-22312555D01*
X6234468Y-22312555D02*
X6243991Y-22293508D01*
X6243991Y-22293508D02*
X6263039Y-22264936D01*
X6263039Y-22264936D02*
X6272563Y-22255412D01*
X6443991Y-22283984D02*
X6348753Y-22283984D01*
X6348753Y-22283984D02*
X6339229Y-22379222D01*
X6339229Y-22379222D02*
X6348753Y-22369698D01*
X6348753Y-22369698D02*
X6367801Y-22360174D01*
X6367801Y-22360174D02*
X6415420Y-22360174D01*
X6415420Y-22360174D02*
X6434468Y-22369698D01*
X6434468Y-22369698D02*
X6443991Y-22379222D01*
X6443991Y-22379222D02*
X6453515Y-22398269D01*
X6453515Y-22398269D02*
X6453515Y-22445888D01*
X6453515Y-22445888D02*
X6443991Y-22464936D01*
X6443991Y-22464936D02*
X6434468Y-22474460D01*
X6434468Y-22474460D02*
X6415420Y-22483984D01*
X6415420Y-22483984D02*
X6367801Y-22483984D01*
X6367801Y-22483984D02*
X6348753Y-22474460D01*
X6348753Y-22474460D02*
X6339229Y-22464936D01*
X6529706Y-22303031D02*
X6539229Y-22293508D01*
X6539229Y-22293508D02*
X6558277Y-22283984D01*
X6558277Y-22283984D02*
X6605896Y-22283984D01*
X6605896Y-22283984D02*
X6624944Y-22293508D01*
X6624944Y-22293508D02*
X6634468Y-22303031D01*
X6634468Y-22303031D02*
X6643991Y-22322079D01*
X6643991Y-22322079D02*
X6643991Y-22341127D01*
X6643991Y-22341127D02*
X6634468Y-22369698D01*
X6634468Y-22369698D02*
X6520182Y-22483984D01*
X6520182Y-22483984D02*
X6643991Y-22483984D01*
X6758277Y-22369698D02*
X6739229Y-22360174D01*
X6739229Y-22360174D02*
X6729706Y-22350650D01*
X6729706Y-22350650D02*
X6720182Y-22331603D01*
X6720182Y-22331603D02*
X6720182Y-22322079D01*
X6720182Y-22322079D02*
X6729706Y-22303031D01*
X6729706Y-22303031D02*
X6739229Y-22293508D01*
X6739229Y-22293508D02*
X6758277Y-22283984D01*
X6758277Y-22283984D02*
X6796372Y-22283984D01*
X6796372Y-22283984D02*
X6815420Y-22293508D01*
X6815420Y-22293508D02*
X6824944Y-22303031D01*
X6824944Y-22303031D02*
X6834468Y-22322079D01*
X6834468Y-22322079D02*
X6834468Y-22331603D01*
X6834468Y-22331603D02*
X6824944Y-22350650D01*
X6824944Y-22350650D02*
X6815420Y-22360174D01*
X6815420Y-22360174D02*
X6796372Y-22369698D01*
X6796372Y-22369698D02*
X6758277Y-22369698D01*
X6758277Y-22369698D02*
X6739229Y-22379222D01*
X6739229Y-22379222D02*
X6729706Y-22388746D01*
X6729706Y-22388746D02*
X6720182Y-22407793D01*
X6720182Y-22407793D02*
X6720182Y-22445888D01*
X6720182Y-22445888D02*
X6729706Y-22464936D01*
X6729706Y-22464936D02*
X6739229Y-22474460D01*
X6739229Y-22474460D02*
X6758277Y-22483984D01*
X6758277Y-22483984D02*
X6796372Y-22483984D01*
X6796372Y-22483984D02*
X6815420Y-22474460D01*
X6815420Y-22474460D02*
X6824944Y-22464936D01*
X6824944Y-22464936D02*
X6834468Y-22445888D01*
X6834468Y-22445888D02*
X6834468Y-22407793D01*
X6834468Y-22407793D02*
X6824944Y-22388746D01*
X6824944Y-22388746D02*
X6815420Y-22379222D01*
X6815420Y-22379222D02*
X6796372Y-22369698D01*
X7072563Y-22483984D02*
X7072563Y-22283984D01*
X7158277Y-22483984D02*
X7158277Y-22379222D01*
X7158277Y-22379222D02*
X7148753Y-22360174D01*
X7148753Y-22360174D02*
X7129706Y-22350650D01*
X7129706Y-22350650D02*
X7101134Y-22350650D01*
X7101134Y-22350650D02*
X7082087Y-22360174D01*
X7082087Y-22360174D02*
X7072563Y-22369698D01*
X7282087Y-22483984D02*
X7263039Y-22474460D01*
X7263039Y-22474460D02*
X7253515Y-22464936D01*
X7253515Y-22464936D02*
X7243991Y-22445888D01*
X7243991Y-22445888D02*
X7243991Y-22388746D01*
X7243991Y-22388746D02*
X7253515Y-22369698D01*
X7253515Y-22369698D02*
X7263039Y-22360174D01*
X7263039Y-22360174D02*
X7282087Y-22350650D01*
X7282087Y-22350650D02*
X7310658Y-22350650D01*
X7310658Y-22350650D02*
X7329706Y-22360174D01*
X7329706Y-22360174D02*
X7339230Y-22369698D01*
X7339230Y-22369698D02*
X7348753Y-22388746D01*
X7348753Y-22388746D02*
X7348753Y-22445888D01*
X7348753Y-22445888D02*
X7339230Y-22464936D01*
X7339230Y-22464936D02*
X7329706Y-22474460D01*
X7329706Y-22474460D02*
X7310658Y-22483984D01*
X7310658Y-22483984D02*
X7282087Y-22483984D01*
X7463039Y-22483984D02*
X7443991Y-22474460D01*
X7443991Y-22474460D02*
X7434468Y-22455412D01*
X7434468Y-22455412D02*
X7434468Y-22283984D01*
X7615420Y-22474460D02*
X7596372Y-22483984D01*
X7596372Y-22483984D02*
X7558277Y-22483984D01*
X7558277Y-22483984D02*
X7539230Y-22474460D01*
X7539230Y-22474460D02*
X7529706Y-22455412D01*
X7529706Y-22455412D02*
X7529706Y-22379222D01*
X7529706Y-22379222D02*
X7539230Y-22360174D01*
X7539230Y-22360174D02*
X7558277Y-22350650D01*
X7558277Y-22350650D02*
X7596372Y-22350650D01*
X7596372Y-22350650D02*
X7615420Y-22360174D01*
X7615420Y-22360174D02*
X7624944Y-22379222D01*
X7624944Y-22379222D02*
X7624944Y-22398269D01*
X7624944Y-22398269D02*
X7529706Y-22417317D01*
X7701134Y-22474460D02*
X7720182Y-22483984D01*
X7720182Y-22483984D02*
X7758277Y-22483984D01*
X7758277Y-22483984D02*
X7777325Y-22474460D01*
X7777325Y-22474460D02*
X7786849Y-22455412D01*
X7786849Y-22455412D02*
X7786849Y-22445888D01*
X7786849Y-22445888D02*
X7777325Y-22426841D01*
X7777325Y-22426841D02*
X7758277Y-22417317D01*
X7758277Y-22417317D02*
X7729706Y-22417317D01*
X7729706Y-22417317D02*
X7710658Y-22407793D01*
X7710658Y-22407793D02*
X7701134Y-22388746D01*
X7701134Y-22388746D02*
X7701134Y-22379222D01*
X7701134Y-22379222D02*
X7710658Y-22360174D01*
X7710658Y-22360174D02*
X7729706Y-22350650D01*
X7729706Y-22350650D02*
X7758277Y-22350650D01*
X7758277Y-22350650D02*
X7777325Y-22360174D01*
X7853515Y-22560174D02*
X7863039Y-22550650D01*
X7863039Y-22550650D02*
X7882087Y-22522079D01*
X7882087Y-22522079D02*
X7891611Y-22503031D01*
X7891611Y-22503031D02*
X7901134Y-22474460D01*
X7901134Y-22474460D02*
X7910658Y-22426841D01*
X7910658Y-22426841D02*
X7910658Y-22388746D01*
X7910658Y-22388746D02*
X7901134Y-22341127D01*
X7901134Y-22341127D02*
X7891611Y-22312555D01*
X7891611Y-22312555D02*
X7882087Y-22293508D01*
X7882087Y-22293508D02*
X7863039Y-22264936D01*
X7863039Y-22264936D02*
X7853515Y-22255412D01*
D12*
X2697500Y-22656500D02*
G75*
G02*
X2597500Y-22656500I-50000J0D01*
G01*
X2597500Y-22656500D02*
G75*
G02*
X2697500Y-22656500I50000J0D01*
G01*
D11*
X3063039Y-22747984D02*
X2948753Y-22747984D01*
X3005896Y-22747984D02*
X3005896Y-22547984D01*
X3005896Y-22547984D02*
X2986848Y-22576555D01*
X2986848Y-22576555D02*
X2967801Y-22595603D01*
X2967801Y-22595603D02*
X2948753Y-22605127D01*
X3148753Y-22728936D02*
X3158277Y-22738460D01*
X3158277Y-22738460D02*
X3148753Y-22747984D01*
X3148753Y-22747984D02*
X3139229Y-22738460D01*
X3139229Y-22738460D02*
X3148753Y-22728936D01*
X3148753Y-22728936D02*
X3148753Y-22747984D01*
X3282086Y-22547984D02*
X3301134Y-22547984D01*
X3301134Y-22547984D02*
X3320182Y-22557508D01*
X3320182Y-22557508D02*
X3329705Y-22567031D01*
X3329705Y-22567031D02*
X3339229Y-22586079D01*
X3339229Y-22586079D02*
X3348753Y-22624174D01*
X3348753Y-22624174D02*
X3348753Y-22671793D01*
X3348753Y-22671793D02*
X3339229Y-22709888D01*
X3339229Y-22709888D02*
X3329705Y-22728936D01*
X3329705Y-22728936D02*
X3320182Y-22738460D01*
X3320182Y-22738460D02*
X3301134Y-22747984D01*
X3301134Y-22747984D02*
X3282086Y-22747984D01*
X3282086Y-22747984D02*
X3263039Y-22738460D01*
X3263039Y-22738460D02*
X3253515Y-22728936D01*
X3253515Y-22728936D02*
X3243991Y-22709888D01*
X3243991Y-22709888D02*
X3234467Y-22671793D01*
X3234467Y-22671793D02*
X3234467Y-22624174D01*
X3234467Y-22624174D02*
X3243991Y-22586079D01*
X3243991Y-22586079D02*
X3253515Y-22567031D01*
X3253515Y-22567031D02*
X3263039Y-22557508D01*
X3263039Y-22557508D02*
X3282086Y-22547984D01*
X3472562Y-22547984D02*
X3491610Y-22547984D01*
X3491610Y-22547984D02*
X3510658Y-22557508D01*
X3510658Y-22557508D02*
X3520182Y-22567031D01*
X3520182Y-22567031D02*
X3529705Y-22586079D01*
X3529705Y-22586079D02*
X3539229Y-22624174D01*
X3539229Y-22624174D02*
X3539229Y-22671793D01*
X3539229Y-22671793D02*
X3529705Y-22709888D01*
X3529705Y-22709888D02*
X3520182Y-22728936D01*
X3520182Y-22728936D02*
X3510658Y-22738460D01*
X3510658Y-22738460D02*
X3491610Y-22747984D01*
X3491610Y-22747984D02*
X3472562Y-22747984D01*
X3472562Y-22747984D02*
X3453515Y-22738460D01*
X3453515Y-22738460D02*
X3443991Y-22728936D01*
X3443991Y-22728936D02*
X3434467Y-22709888D01*
X3434467Y-22709888D02*
X3424943Y-22671793D01*
X3424943Y-22671793D02*
X3424943Y-22624174D01*
X3424943Y-22624174D02*
X3434467Y-22586079D01*
X3434467Y-22586079D02*
X3443991Y-22567031D01*
X3443991Y-22567031D02*
X3453515Y-22557508D01*
X3453515Y-22557508D02*
X3472562Y-22547984D01*
X3663039Y-22547984D02*
X3682086Y-22547984D01*
X3682086Y-22547984D02*
X3701134Y-22557508D01*
X3701134Y-22557508D02*
X3710658Y-22567031D01*
X3710658Y-22567031D02*
X3720182Y-22586079D01*
X3720182Y-22586079D02*
X3729705Y-22624174D01*
X3729705Y-22624174D02*
X3729705Y-22671793D01*
X3729705Y-22671793D02*
X3720182Y-22709888D01*
X3720182Y-22709888D02*
X3710658Y-22728936D01*
X3710658Y-22728936D02*
X3701134Y-22738460D01*
X3701134Y-22738460D02*
X3682086Y-22747984D01*
X3682086Y-22747984D02*
X3663039Y-22747984D01*
X3663039Y-22747984D02*
X3643991Y-22738460D01*
X3643991Y-22738460D02*
X3634467Y-22728936D01*
X3634467Y-22728936D02*
X3624943Y-22709888D01*
X3624943Y-22709888D02*
X3615420Y-22671793D01*
X3615420Y-22671793D02*
X3615420Y-22624174D01*
X3615420Y-22624174D02*
X3624943Y-22586079D01*
X3624943Y-22586079D02*
X3634467Y-22567031D01*
X3634467Y-22567031D02*
X3643991Y-22557508D01*
X3643991Y-22557508D02*
X3663039Y-22547984D01*
X3815420Y-22747984D02*
X3815420Y-22614650D01*
X3815420Y-22633698D02*
X3824943Y-22624174D01*
X3824943Y-22624174D02*
X3843991Y-22614650D01*
X3843991Y-22614650D02*
X3872563Y-22614650D01*
X3872563Y-22614650D02*
X3891610Y-22624174D01*
X3891610Y-22624174D02*
X3901134Y-22643222D01*
X3901134Y-22643222D02*
X3901134Y-22747984D01*
X3901134Y-22643222D02*
X3910658Y-22624174D01*
X3910658Y-22624174D02*
X3929705Y-22614650D01*
X3929705Y-22614650D02*
X3958277Y-22614650D01*
X3958277Y-22614650D02*
X3977324Y-22624174D01*
X3977324Y-22624174D02*
X3986848Y-22643222D01*
X3986848Y-22643222D02*
X3986848Y-22747984D01*
X4082086Y-22747984D02*
X4082086Y-22614650D01*
X4082086Y-22633698D02*
X4091610Y-22624174D01*
X4091610Y-22624174D02*
X4110658Y-22614650D01*
X4110658Y-22614650D02*
X4139229Y-22614650D01*
X4139229Y-22614650D02*
X4158277Y-22624174D01*
X4158277Y-22624174D02*
X4167801Y-22643222D01*
X4167801Y-22643222D02*
X4167801Y-22747984D01*
X4167801Y-22643222D02*
X4177324Y-22624174D01*
X4177324Y-22624174D02*
X4196372Y-22614650D01*
X4196372Y-22614650D02*
X4224944Y-22614650D01*
X4224944Y-22614650D02*
X4243991Y-22624174D01*
X4243991Y-22624174D02*
X4253515Y-22643222D01*
X4253515Y-22643222D02*
X4253515Y-22747984D01*
X4643991Y-22538460D02*
X4472563Y-22795603D01*
X4901134Y-22547984D02*
X4920182Y-22547984D01*
X4920182Y-22547984D02*
X4939229Y-22557508D01*
X4939229Y-22557508D02*
X4948753Y-22567031D01*
X4948753Y-22567031D02*
X4958277Y-22586079D01*
X4958277Y-22586079D02*
X4967801Y-22624174D01*
X4967801Y-22624174D02*
X4967801Y-22671793D01*
X4967801Y-22671793D02*
X4958277Y-22709888D01*
X4958277Y-22709888D02*
X4948753Y-22728936D01*
X4948753Y-22728936D02*
X4939229Y-22738460D01*
X4939229Y-22738460D02*
X4920182Y-22747984D01*
X4920182Y-22747984D02*
X4901134Y-22747984D01*
X4901134Y-22747984D02*
X4882087Y-22738460D01*
X4882087Y-22738460D02*
X4872563Y-22728936D01*
X4872563Y-22728936D02*
X4863039Y-22709888D01*
X4863039Y-22709888D02*
X4853515Y-22671793D01*
X4853515Y-22671793D02*
X4853515Y-22624174D01*
X4853515Y-22624174D02*
X4863039Y-22586079D01*
X4863039Y-22586079D02*
X4872563Y-22567031D01*
X4872563Y-22567031D02*
X4882087Y-22557508D01*
X4882087Y-22557508D02*
X4901134Y-22547984D01*
X5053515Y-22728936D02*
X5063039Y-22738460D01*
X5063039Y-22738460D02*
X5053515Y-22747984D01*
X5053515Y-22747984D02*
X5043991Y-22738460D01*
X5043991Y-22738460D02*
X5053515Y-22728936D01*
X5053515Y-22728936D02*
X5053515Y-22747984D01*
X5186848Y-22547984D02*
X5205896Y-22547984D01*
X5205896Y-22547984D02*
X5224944Y-22557508D01*
X5224944Y-22557508D02*
X5234468Y-22567031D01*
X5234468Y-22567031D02*
X5243991Y-22586079D01*
X5243991Y-22586079D02*
X5253515Y-22624174D01*
X5253515Y-22624174D02*
X5253515Y-22671793D01*
X5253515Y-22671793D02*
X5243991Y-22709888D01*
X5243991Y-22709888D02*
X5234468Y-22728936D01*
X5234468Y-22728936D02*
X5224944Y-22738460D01*
X5224944Y-22738460D02*
X5205896Y-22747984D01*
X5205896Y-22747984D02*
X5186848Y-22747984D01*
X5186848Y-22747984D02*
X5167801Y-22738460D01*
X5167801Y-22738460D02*
X5158277Y-22728936D01*
X5158277Y-22728936D02*
X5148753Y-22709888D01*
X5148753Y-22709888D02*
X5139229Y-22671793D01*
X5139229Y-22671793D02*
X5139229Y-22624174D01*
X5139229Y-22624174D02*
X5148753Y-22586079D01*
X5148753Y-22586079D02*
X5158277Y-22567031D01*
X5158277Y-22567031D02*
X5167801Y-22557508D01*
X5167801Y-22557508D02*
X5186848Y-22547984D01*
X5320182Y-22547984D02*
X5443991Y-22547984D01*
X5443991Y-22547984D02*
X5377325Y-22624174D01*
X5377325Y-22624174D02*
X5405896Y-22624174D01*
X5405896Y-22624174D02*
X5424944Y-22633698D01*
X5424944Y-22633698D02*
X5434468Y-22643222D01*
X5434468Y-22643222D02*
X5443991Y-22662269D01*
X5443991Y-22662269D02*
X5443991Y-22709888D01*
X5443991Y-22709888D02*
X5434468Y-22728936D01*
X5434468Y-22728936D02*
X5424944Y-22738460D01*
X5424944Y-22738460D02*
X5405896Y-22747984D01*
X5405896Y-22747984D02*
X5348753Y-22747984D01*
X5348753Y-22747984D02*
X5329706Y-22738460D01*
X5329706Y-22738460D02*
X5320182Y-22728936D01*
X5539229Y-22747984D02*
X5577325Y-22747984D01*
X5577325Y-22747984D02*
X5596372Y-22738460D01*
X5596372Y-22738460D02*
X5605896Y-22728936D01*
X5605896Y-22728936D02*
X5624944Y-22700365D01*
X5624944Y-22700365D02*
X5634467Y-22662269D01*
X5634467Y-22662269D02*
X5634467Y-22586079D01*
X5634467Y-22586079D02*
X5624944Y-22567031D01*
X5624944Y-22567031D02*
X5615420Y-22557508D01*
X5615420Y-22557508D02*
X5596372Y-22547984D01*
X5596372Y-22547984D02*
X5558277Y-22547984D01*
X5558277Y-22547984D02*
X5539229Y-22557508D01*
X5539229Y-22557508D02*
X5529706Y-22567031D01*
X5529706Y-22567031D02*
X5520182Y-22586079D01*
X5520182Y-22586079D02*
X5520182Y-22633698D01*
X5520182Y-22633698D02*
X5529706Y-22652746D01*
X5529706Y-22652746D02*
X5539229Y-22662269D01*
X5539229Y-22662269D02*
X5558277Y-22671793D01*
X5558277Y-22671793D02*
X5596372Y-22671793D01*
X5596372Y-22671793D02*
X5615420Y-22662269D01*
X5615420Y-22662269D02*
X5624944Y-22652746D01*
X5624944Y-22652746D02*
X5634467Y-22633698D01*
X5805896Y-22614650D02*
X5805896Y-22747984D01*
X5758277Y-22538460D02*
X5710658Y-22681317D01*
X5710658Y-22681317D02*
X5834467Y-22681317D01*
X5901134Y-22547984D02*
X5901134Y-22586079D01*
X5977325Y-22547984D02*
X5977325Y-22586079D01*
X6272563Y-22824174D02*
X6263039Y-22814650D01*
X6263039Y-22814650D02*
X6243991Y-22786079D01*
X6243991Y-22786079D02*
X6234468Y-22767031D01*
X6234468Y-22767031D02*
X6224944Y-22738460D01*
X6224944Y-22738460D02*
X6215420Y-22690841D01*
X6215420Y-22690841D02*
X6215420Y-22652746D01*
X6215420Y-22652746D02*
X6224944Y-22605127D01*
X6224944Y-22605127D02*
X6234468Y-22576555D01*
X6234468Y-22576555D02*
X6243991Y-22557508D01*
X6243991Y-22557508D02*
X6263039Y-22528936D01*
X6263039Y-22528936D02*
X6272563Y-22519412D01*
X6358277Y-22747984D02*
X6396372Y-22747984D01*
X6396372Y-22747984D02*
X6415420Y-22738460D01*
X6415420Y-22738460D02*
X6424944Y-22728936D01*
X6424944Y-22728936D02*
X6443991Y-22700365D01*
X6443991Y-22700365D02*
X6453515Y-22662269D01*
X6453515Y-22662269D02*
X6453515Y-22586079D01*
X6453515Y-22586079D02*
X6443991Y-22567031D01*
X6443991Y-22567031D02*
X6434468Y-22557508D01*
X6434468Y-22557508D02*
X6415420Y-22547984D01*
X6415420Y-22547984D02*
X6377325Y-22547984D01*
X6377325Y-22547984D02*
X6358277Y-22557508D01*
X6358277Y-22557508D02*
X6348753Y-22567031D01*
X6348753Y-22567031D02*
X6339229Y-22586079D01*
X6339229Y-22586079D02*
X6339229Y-22633698D01*
X6339229Y-22633698D02*
X6348753Y-22652746D01*
X6348753Y-22652746D02*
X6358277Y-22662269D01*
X6358277Y-22662269D02*
X6377325Y-22671793D01*
X6377325Y-22671793D02*
X6415420Y-22671793D01*
X6415420Y-22671793D02*
X6434468Y-22662269D01*
X6434468Y-22662269D02*
X6443991Y-22652746D01*
X6443991Y-22652746D02*
X6453515Y-22633698D01*
X6520182Y-22547984D02*
X6643991Y-22547984D01*
X6643991Y-22547984D02*
X6577325Y-22624174D01*
X6577325Y-22624174D02*
X6605896Y-22624174D01*
X6605896Y-22624174D02*
X6624944Y-22633698D01*
X6624944Y-22633698D02*
X6634468Y-22643222D01*
X6634468Y-22643222D02*
X6643991Y-22662269D01*
X6643991Y-22662269D02*
X6643991Y-22709888D01*
X6643991Y-22709888D02*
X6634468Y-22728936D01*
X6634468Y-22728936D02*
X6624944Y-22738460D01*
X6624944Y-22738460D02*
X6605896Y-22747984D01*
X6605896Y-22747984D02*
X6548753Y-22747984D01*
X6548753Y-22747984D02*
X6529706Y-22738460D01*
X6529706Y-22738460D02*
X6520182Y-22728936D01*
X6882087Y-22747984D02*
X6882087Y-22547984D01*
X6967801Y-22747984D02*
X6967801Y-22643222D01*
X6967801Y-22643222D02*
X6958277Y-22624174D01*
X6958277Y-22624174D02*
X6939230Y-22614650D01*
X6939230Y-22614650D02*
X6910658Y-22614650D01*
X6910658Y-22614650D02*
X6891610Y-22624174D01*
X6891610Y-22624174D02*
X6882087Y-22633698D01*
X7091610Y-22747984D02*
X7072563Y-22738460D01*
X7072563Y-22738460D02*
X7063039Y-22728936D01*
X7063039Y-22728936D02*
X7053515Y-22709888D01*
X7053515Y-22709888D02*
X7053515Y-22652746D01*
X7053515Y-22652746D02*
X7063039Y-22633698D01*
X7063039Y-22633698D02*
X7072563Y-22624174D01*
X7072563Y-22624174D02*
X7091610Y-22614650D01*
X7091610Y-22614650D02*
X7120182Y-22614650D01*
X7120182Y-22614650D02*
X7139230Y-22624174D01*
X7139230Y-22624174D02*
X7148753Y-22633698D01*
X7148753Y-22633698D02*
X7158277Y-22652746D01*
X7158277Y-22652746D02*
X7158277Y-22709888D01*
X7158277Y-22709888D02*
X7148753Y-22728936D01*
X7148753Y-22728936D02*
X7139230Y-22738460D01*
X7139230Y-22738460D02*
X7120182Y-22747984D01*
X7120182Y-22747984D02*
X7091610Y-22747984D01*
X7272563Y-22747984D02*
X7253515Y-22738460D01*
X7253515Y-22738460D02*
X7243991Y-22719412D01*
X7243991Y-22719412D02*
X7243991Y-22547984D01*
X7424944Y-22738460D02*
X7405896Y-22747984D01*
X7405896Y-22747984D02*
X7367801Y-22747984D01*
X7367801Y-22747984D02*
X7348753Y-22738460D01*
X7348753Y-22738460D02*
X7339230Y-22719412D01*
X7339230Y-22719412D02*
X7339230Y-22643222D01*
X7339230Y-22643222D02*
X7348753Y-22624174D01*
X7348753Y-22624174D02*
X7367801Y-22614650D01*
X7367801Y-22614650D02*
X7405896Y-22614650D01*
X7405896Y-22614650D02*
X7424944Y-22624174D01*
X7424944Y-22624174D02*
X7434468Y-22643222D01*
X7434468Y-22643222D02*
X7434468Y-22662269D01*
X7434468Y-22662269D02*
X7339230Y-22681317D01*
X7510658Y-22738460D02*
X7529706Y-22747984D01*
X7529706Y-22747984D02*
X7567801Y-22747984D01*
X7567801Y-22747984D02*
X7586849Y-22738460D01*
X7586849Y-22738460D02*
X7596372Y-22719412D01*
X7596372Y-22719412D02*
X7596372Y-22709888D01*
X7596372Y-22709888D02*
X7586849Y-22690841D01*
X7586849Y-22690841D02*
X7567801Y-22681317D01*
X7567801Y-22681317D02*
X7539230Y-22681317D01*
X7539230Y-22681317D02*
X7520182Y-22671793D01*
X7520182Y-22671793D02*
X7510658Y-22652746D01*
X7510658Y-22652746D02*
X7510658Y-22643222D01*
X7510658Y-22643222D02*
X7520182Y-22624174D01*
X7520182Y-22624174D02*
X7539230Y-22614650D01*
X7539230Y-22614650D02*
X7567801Y-22614650D01*
X7567801Y-22614650D02*
X7586849Y-22624174D01*
X7834468Y-22671793D02*
X7986849Y-22671793D01*
X7910658Y-22747984D02*
X7910658Y-22595603D01*
X8320182Y-22614650D02*
X8320182Y-22747984D01*
X8272563Y-22538460D02*
X8224944Y-22681317D01*
X8224944Y-22681317D02*
X8348753Y-22681317D01*
X8415420Y-22567031D02*
X8424944Y-22557508D01*
X8424944Y-22557508D02*
X8443992Y-22547984D01*
X8443992Y-22547984D02*
X8491611Y-22547984D01*
X8491611Y-22547984D02*
X8510658Y-22557508D01*
X8510658Y-22557508D02*
X8520182Y-22567031D01*
X8520182Y-22567031D02*
X8529706Y-22586079D01*
X8529706Y-22586079D02*
X8529706Y-22605127D01*
X8529706Y-22605127D02*
X8520182Y-22633698D01*
X8520182Y-22633698D02*
X8405896Y-22747984D01*
X8405896Y-22747984D02*
X8529706Y-22747984D01*
X8758277Y-22738460D02*
X8777325Y-22747984D01*
X8777325Y-22747984D02*
X8815420Y-22747984D01*
X8815420Y-22747984D02*
X8834468Y-22738460D01*
X8834468Y-22738460D02*
X8843992Y-22719412D01*
X8843992Y-22719412D02*
X8843992Y-22709888D01*
X8843992Y-22709888D02*
X8834468Y-22690841D01*
X8834468Y-22690841D02*
X8815420Y-22681317D01*
X8815420Y-22681317D02*
X8786849Y-22681317D01*
X8786849Y-22681317D02*
X8767801Y-22671793D01*
X8767801Y-22671793D02*
X8758277Y-22652746D01*
X8758277Y-22652746D02*
X8758277Y-22643222D01*
X8758277Y-22643222D02*
X8767801Y-22624174D01*
X8767801Y-22624174D02*
X8786849Y-22614650D01*
X8786849Y-22614650D02*
X8815420Y-22614650D01*
X8815420Y-22614650D02*
X8834468Y-22624174D01*
X8958277Y-22747984D02*
X8939230Y-22738460D01*
X8939230Y-22738460D02*
X8929706Y-22719412D01*
X8929706Y-22719412D02*
X8929706Y-22547984D01*
X9063039Y-22747984D02*
X9043992Y-22738460D01*
X9043992Y-22738460D02*
X9034468Y-22728936D01*
X9034468Y-22728936D02*
X9024944Y-22709888D01*
X9024944Y-22709888D02*
X9024944Y-22652746D01*
X9024944Y-22652746D02*
X9034468Y-22633698D01*
X9034468Y-22633698D02*
X9043992Y-22624174D01*
X9043992Y-22624174D02*
X9063039Y-22614650D01*
X9063039Y-22614650D02*
X9091611Y-22614650D01*
X9091611Y-22614650D02*
X9110658Y-22624174D01*
X9110658Y-22624174D02*
X9120182Y-22633698D01*
X9120182Y-22633698D02*
X9129706Y-22652746D01*
X9129706Y-22652746D02*
X9129706Y-22709888D01*
X9129706Y-22709888D02*
X9120182Y-22728936D01*
X9120182Y-22728936D02*
X9110658Y-22738460D01*
X9110658Y-22738460D02*
X9091611Y-22747984D01*
X9091611Y-22747984D02*
X9063039Y-22747984D01*
X9186849Y-22614650D02*
X9263039Y-22614650D01*
X9215420Y-22547984D02*
X9215420Y-22719412D01*
X9215420Y-22719412D02*
X9224944Y-22738460D01*
X9224944Y-22738460D02*
X9243992Y-22747984D01*
X9243992Y-22747984D02*
X9263039Y-22747984D01*
X9320182Y-22738460D02*
X9339230Y-22747984D01*
X9339230Y-22747984D02*
X9377325Y-22747984D01*
X9377325Y-22747984D02*
X9396373Y-22738460D01*
X9396373Y-22738460D02*
X9405897Y-22719412D01*
X9405897Y-22719412D02*
X9405897Y-22709888D01*
X9405897Y-22709888D02*
X9396373Y-22690841D01*
X9396373Y-22690841D02*
X9377325Y-22681317D01*
X9377325Y-22681317D02*
X9348754Y-22681317D01*
X9348754Y-22681317D02*
X9329706Y-22671793D01*
X9329706Y-22671793D02*
X9320182Y-22652746D01*
X9320182Y-22652746D02*
X9320182Y-22643222D01*
X9320182Y-22643222D02*
X9329706Y-22624174D01*
X9329706Y-22624174D02*
X9348754Y-22614650D01*
X9348754Y-22614650D02*
X9377325Y-22614650D01*
X9377325Y-22614650D02*
X9396373Y-22624174D01*
X9472563Y-22824174D02*
X9482087Y-22814650D01*
X9482087Y-22814650D02*
X9501135Y-22786079D01*
X9501135Y-22786079D02*
X9510658Y-22767031D01*
X9510658Y-22767031D02*
X9520182Y-22738460D01*
X9520182Y-22738460D02*
X9529706Y-22690841D01*
X9529706Y-22690841D02*
X9529706Y-22652746D01*
X9529706Y-22652746D02*
X9520182Y-22605127D01*
X9520182Y-22605127D02*
X9510658Y-22576555D01*
X9510658Y-22576555D02*
X9501135Y-22557508D01*
X9501135Y-22557508D02*
X9482087Y-22528936D01*
X9482087Y-22528936D02*
X9472563Y-22519412D01*
D13*
X2642500Y-22865500D02*
X2642500Y-22975500D01*
X2587500Y-22920500D02*
X2697500Y-22920500D01*
D11*
X3063039Y-23011984D02*
X2948753Y-23011984D01*
X3005896Y-23011984D02*
X3005896Y-22811984D01*
X3005896Y-22811984D02*
X2986848Y-22840555D01*
X2986848Y-22840555D02*
X2967801Y-22859603D01*
X2967801Y-22859603D02*
X2948753Y-22869127D01*
X3148753Y-22992936D02*
X3158277Y-23002460D01*
X3158277Y-23002460D02*
X3148753Y-23011984D01*
X3148753Y-23011984D02*
X3139229Y-23002460D01*
X3139229Y-23002460D02*
X3148753Y-22992936D01*
X3148753Y-22992936D02*
X3148753Y-23011984D01*
X3348753Y-23011984D02*
X3234467Y-23011984D01*
X3291610Y-23011984D02*
X3291610Y-22811984D01*
X3291610Y-22811984D02*
X3272562Y-22840555D01*
X3272562Y-22840555D02*
X3253515Y-22859603D01*
X3253515Y-22859603D02*
X3234467Y-22869127D01*
X3472562Y-22811984D02*
X3491610Y-22811984D01*
X3491610Y-22811984D02*
X3510658Y-22821508D01*
X3510658Y-22821508D02*
X3520182Y-22831031D01*
X3520182Y-22831031D02*
X3529705Y-22850079D01*
X3529705Y-22850079D02*
X3539229Y-22888174D01*
X3539229Y-22888174D02*
X3539229Y-22935793D01*
X3539229Y-22935793D02*
X3529705Y-22973888D01*
X3529705Y-22973888D02*
X3520182Y-22992936D01*
X3520182Y-22992936D02*
X3510658Y-23002460D01*
X3510658Y-23002460D02*
X3491610Y-23011984D01*
X3491610Y-23011984D02*
X3472562Y-23011984D01*
X3472562Y-23011984D02*
X3453515Y-23002460D01*
X3453515Y-23002460D02*
X3443991Y-22992936D01*
X3443991Y-22992936D02*
X3434467Y-22973888D01*
X3434467Y-22973888D02*
X3424943Y-22935793D01*
X3424943Y-22935793D02*
X3424943Y-22888174D01*
X3424943Y-22888174D02*
X3434467Y-22850079D01*
X3434467Y-22850079D02*
X3443991Y-22831031D01*
X3443991Y-22831031D02*
X3453515Y-22821508D01*
X3453515Y-22821508D02*
X3472562Y-22811984D01*
X3663039Y-22811984D02*
X3682086Y-22811984D01*
X3682086Y-22811984D02*
X3701134Y-22821508D01*
X3701134Y-22821508D02*
X3710658Y-22831031D01*
X3710658Y-22831031D02*
X3720182Y-22850079D01*
X3720182Y-22850079D02*
X3729705Y-22888174D01*
X3729705Y-22888174D02*
X3729705Y-22935793D01*
X3729705Y-22935793D02*
X3720182Y-22973888D01*
X3720182Y-22973888D02*
X3710658Y-22992936D01*
X3710658Y-22992936D02*
X3701134Y-23002460D01*
X3701134Y-23002460D02*
X3682086Y-23011984D01*
X3682086Y-23011984D02*
X3663039Y-23011984D01*
X3663039Y-23011984D02*
X3643991Y-23002460D01*
X3643991Y-23002460D02*
X3634467Y-22992936D01*
X3634467Y-22992936D02*
X3624943Y-22973888D01*
X3624943Y-22973888D02*
X3615420Y-22935793D01*
X3615420Y-22935793D02*
X3615420Y-22888174D01*
X3615420Y-22888174D02*
X3624943Y-22850079D01*
X3624943Y-22850079D02*
X3634467Y-22831031D01*
X3634467Y-22831031D02*
X3643991Y-22821508D01*
X3643991Y-22821508D02*
X3663039Y-22811984D01*
X3815420Y-23011984D02*
X3815420Y-22878650D01*
X3815420Y-22897698D02*
X3824943Y-22888174D01*
X3824943Y-22888174D02*
X3843991Y-22878650D01*
X3843991Y-22878650D02*
X3872563Y-22878650D01*
X3872563Y-22878650D02*
X3891610Y-22888174D01*
X3891610Y-22888174D02*
X3901134Y-22907222D01*
X3901134Y-22907222D02*
X3901134Y-23011984D01*
X3901134Y-22907222D02*
X3910658Y-22888174D01*
X3910658Y-22888174D02*
X3929705Y-22878650D01*
X3929705Y-22878650D02*
X3958277Y-22878650D01*
X3958277Y-22878650D02*
X3977324Y-22888174D01*
X3977324Y-22888174D02*
X3986848Y-22907222D01*
X3986848Y-22907222D02*
X3986848Y-23011984D01*
X4082086Y-23011984D02*
X4082086Y-22878650D01*
X4082086Y-22897698D02*
X4091610Y-22888174D01*
X4091610Y-22888174D02*
X4110658Y-22878650D01*
X4110658Y-22878650D02*
X4139229Y-22878650D01*
X4139229Y-22878650D02*
X4158277Y-22888174D01*
X4158277Y-22888174D02*
X4167801Y-22907222D01*
X4167801Y-22907222D02*
X4167801Y-23011984D01*
X4167801Y-22907222D02*
X4177324Y-22888174D01*
X4177324Y-22888174D02*
X4196372Y-22878650D01*
X4196372Y-22878650D02*
X4224944Y-22878650D01*
X4224944Y-22878650D02*
X4243991Y-22888174D01*
X4243991Y-22888174D02*
X4253515Y-22907222D01*
X4253515Y-22907222D02*
X4253515Y-23011984D01*
X4643991Y-22802460D02*
X4472563Y-23059603D01*
X4901134Y-22811984D02*
X4920182Y-22811984D01*
X4920182Y-22811984D02*
X4939229Y-22821508D01*
X4939229Y-22821508D02*
X4948753Y-22831031D01*
X4948753Y-22831031D02*
X4958277Y-22850079D01*
X4958277Y-22850079D02*
X4967801Y-22888174D01*
X4967801Y-22888174D02*
X4967801Y-22935793D01*
X4967801Y-22935793D02*
X4958277Y-22973888D01*
X4958277Y-22973888D02*
X4948753Y-22992936D01*
X4948753Y-22992936D02*
X4939229Y-23002460D01*
X4939229Y-23002460D02*
X4920182Y-23011984D01*
X4920182Y-23011984D02*
X4901134Y-23011984D01*
X4901134Y-23011984D02*
X4882087Y-23002460D01*
X4882087Y-23002460D02*
X4872563Y-22992936D01*
X4872563Y-22992936D02*
X4863039Y-22973888D01*
X4863039Y-22973888D02*
X4853515Y-22935793D01*
X4853515Y-22935793D02*
X4853515Y-22888174D01*
X4853515Y-22888174D02*
X4863039Y-22850079D01*
X4863039Y-22850079D02*
X4872563Y-22831031D01*
X4872563Y-22831031D02*
X4882087Y-22821508D01*
X4882087Y-22821508D02*
X4901134Y-22811984D01*
X5053515Y-22992936D02*
X5063039Y-23002460D01*
X5063039Y-23002460D02*
X5053515Y-23011984D01*
X5053515Y-23011984D02*
X5043991Y-23002460D01*
X5043991Y-23002460D02*
X5053515Y-22992936D01*
X5053515Y-22992936D02*
X5053515Y-23011984D01*
X5186848Y-22811984D02*
X5205896Y-22811984D01*
X5205896Y-22811984D02*
X5224944Y-22821508D01*
X5224944Y-22821508D02*
X5234468Y-22831031D01*
X5234468Y-22831031D02*
X5243991Y-22850079D01*
X5243991Y-22850079D02*
X5253515Y-22888174D01*
X5253515Y-22888174D02*
X5253515Y-22935793D01*
X5253515Y-22935793D02*
X5243991Y-22973888D01*
X5243991Y-22973888D02*
X5234468Y-22992936D01*
X5234468Y-22992936D02*
X5224944Y-23002460D01*
X5224944Y-23002460D02*
X5205896Y-23011984D01*
X5205896Y-23011984D02*
X5186848Y-23011984D01*
X5186848Y-23011984D02*
X5167801Y-23002460D01*
X5167801Y-23002460D02*
X5158277Y-22992936D01*
X5158277Y-22992936D02*
X5148753Y-22973888D01*
X5148753Y-22973888D02*
X5139229Y-22935793D01*
X5139229Y-22935793D02*
X5139229Y-22888174D01*
X5139229Y-22888174D02*
X5148753Y-22850079D01*
X5148753Y-22850079D02*
X5158277Y-22831031D01*
X5158277Y-22831031D02*
X5167801Y-22821508D01*
X5167801Y-22821508D02*
X5186848Y-22811984D01*
X5424944Y-22878650D02*
X5424944Y-23011984D01*
X5377325Y-22802460D02*
X5329706Y-22945317D01*
X5329706Y-22945317D02*
X5453515Y-22945317D01*
X5510658Y-22811984D02*
X5634467Y-22811984D01*
X5634467Y-22811984D02*
X5567801Y-22888174D01*
X5567801Y-22888174D02*
X5596372Y-22888174D01*
X5596372Y-22888174D02*
X5615420Y-22897698D01*
X5615420Y-22897698D02*
X5624944Y-22907222D01*
X5624944Y-22907222D02*
X5634467Y-22926269D01*
X5634467Y-22926269D02*
X5634467Y-22973888D01*
X5634467Y-22973888D02*
X5624944Y-22992936D01*
X5624944Y-22992936D02*
X5615420Y-23002460D01*
X5615420Y-23002460D02*
X5596372Y-23011984D01*
X5596372Y-23011984D02*
X5539229Y-23011984D01*
X5539229Y-23011984D02*
X5520182Y-23002460D01*
X5520182Y-23002460D02*
X5510658Y-22992936D01*
X5701134Y-22811984D02*
X5824944Y-22811984D01*
X5824944Y-22811984D02*
X5758277Y-22888174D01*
X5758277Y-22888174D02*
X5786848Y-22888174D01*
X5786848Y-22888174D02*
X5805896Y-22897698D01*
X5805896Y-22897698D02*
X5815420Y-22907222D01*
X5815420Y-22907222D02*
X5824944Y-22926269D01*
X5824944Y-22926269D02*
X5824944Y-22973888D01*
X5824944Y-22973888D02*
X5815420Y-22992936D01*
X5815420Y-22992936D02*
X5805896Y-23002460D01*
X5805896Y-23002460D02*
X5786848Y-23011984D01*
X5786848Y-23011984D02*
X5729706Y-23011984D01*
X5729706Y-23011984D02*
X5710658Y-23002460D01*
X5710658Y-23002460D02*
X5701134Y-22992936D01*
X5901134Y-22811984D02*
X5901134Y-22850079D01*
X5977325Y-22811984D02*
X5977325Y-22850079D01*
X6272563Y-23088174D02*
X6263039Y-23078650D01*
X6263039Y-23078650D02*
X6243991Y-23050079D01*
X6243991Y-23050079D02*
X6234468Y-23031031D01*
X6234468Y-23031031D02*
X6224944Y-23002460D01*
X6224944Y-23002460D02*
X6215420Y-22954841D01*
X6215420Y-22954841D02*
X6215420Y-22916746D01*
X6215420Y-22916746D02*
X6224944Y-22869127D01*
X6224944Y-22869127D02*
X6234468Y-22840555D01*
X6234468Y-22840555D02*
X6243991Y-22821508D01*
X6243991Y-22821508D02*
X6263039Y-22792936D01*
X6263039Y-22792936D02*
X6272563Y-22783412D01*
X6434468Y-22878650D02*
X6434468Y-23011984D01*
X6386848Y-22802460D02*
X6339229Y-22945317D01*
X6339229Y-22945317D02*
X6463039Y-22945317D01*
X6691610Y-23011984D02*
X6691610Y-22811984D01*
X6777325Y-23011984D02*
X6777325Y-22907222D01*
X6777325Y-22907222D02*
X6767801Y-22888174D01*
X6767801Y-22888174D02*
X6748753Y-22878650D01*
X6748753Y-22878650D02*
X6720182Y-22878650D01*
X6720182Y-22878650D02*
X6701134Y-22888174D01*
X6701134Y-22888174D02*
X6691610Y-22897698D01*
X6901134Y-23011984D02*
X6882087Y-23002460D01*
X6882087Y-23002460D02*
X6872563Y-22992936D01*
X6872563Y-22992936D02*
X6863039Y-22973888D01*
X6863039Y-22973888D02*
X6863039Y-22916746D01*
X6863039Y-22916746D02*
X6872563Y-22897698D01*
X6872563Y-22897698D02*
X6882087Y-22888174D01*
X6882087Y-22888174D02*
X6901134Y-22878650D01*
X6901134Y-22878650D02*
X6929706Y-22878650D01*
X6929706Y-22878650D02*
X6948753Y-22888174D01*
X6948753Y-22888174D02*
X6958277Y-22897698D01*
X6958277Y-22897698D02*
X6967801Y-22916746D01*
X6967801Y-22916746D02*
X6967801Y-22973888D01*
X6967801Y-22973888D02*
X6958277Y-22992936D01*
X6958277Y-22992936D02*
X6948753Y-23002460D01*
X6948753Y-23002460D02*
X6929706Y-23011984D01*
X6929706Y-23011984D02*
X6901134Y-23011984D01*
X7082087Y-23011984D02*
X7063039Y-23002460D01*
X7063039Y-23002460D02*
X7053515Y-22983412D01*
X7053515Y-22983412D02*
X7053515Y-22811984D01*
X7234468Y-23002460D02*
X7215420Y-23011984D01*
X7215420Y-23011984D02*
X7177325Y-23011984D01*
X7177325Y-23011984D02*
X7158277Y-23002460D01*
X7158277Y-23002460D02*
X7148753Y-22983412D01*
X7148753Y-22983412D02*
X7148753Y-22907222D01*
X7148753Y-22907222D02*
X7158277Y-22888174D01*
X7158277Y-22888174D02*
X7177325Y-22878650D01*
X7177325Y-22878650D02*
X7215420Y-22878650D01*
X7215420Y-22878650D02*
X7234468Y-22888174D01*
X7234468Y-22888174D02*
X7243991Y-22907222D01*
X7243991Y-22907222D02*
X7243991Y-22926269D01*
X7243991Y-22926269D02*
X7148753Y-22945317D01*
X7320182Y-23002460D02*
X7339230Y-23011984D01*
X7339230Y-23011984D02*
X7377325Y-23011984D01*
X7377325Y-23011984D02*
X7396372Y-23002460D01*
X7396372Y-23002460D02*
X7405896Y-22983412D01*
X7405896Y-22983412D02*
X7405896Y-22973888D01*
X7405896Y-22973888D02*
X7396372Y-22954841D01*
X7396372Y-22954841D02*
X7377325Y-22945317D01*
X7377325Y-22945317D02*
X7348753Y-22945317D01*
X7348753Y-22945317D02*
X7329706Y-22935793D01*
X7329706Y-22935793D02*
X7320182Y-22916746D01*
X7320182Y-22916746D02*
X7320182Y-22907222D01*
X7320182Y-22907222D02*
X7329706Y-22888174D01*
X7329706Y-22888174D02*
X7348753Y-22878650D01*
X7348753Y-22878650D02*
X7377325Y-22878650D01*
X7377325Y-22878650D02*
X7396372Y-22888174D01*
X7472563Y-23088174D02*
X7482087Y-23078650D01*
X7482087Y-23078650D02*
X7501134Y-23050079D01*
X7501134Y-23050079D02*
X7510658Y-23031031D01*
X7510658Y-23031031D02*
X7520182Y-23002460D01*
X7520182Y-23002460D02*
X7529706Y-22954841D01*
X7529706Y-22954841D02*
X7529706Y-22916746D01*
X7529706Y-22916746D02*
X7520182Y-22869127D01*
X7520182Y-22869127D02*
X7510658Y-22840555D01*
X7510658Y-22840555D02*
X7501134Y-22821508D01*
X7501134Y-22821508D02*
X7482087Y-22792936D01*
X7482087Y-22792936D02*
X7472563Y-22783412D01*
M02*
